<svg width="23" height="23" viewBox="0 0 23 23" fill="none" xmlns="http://www.w3.org/2000/svg">
<path fill-rule="evenodd" clip-rule="evenodd" d="M22.54 11.7615C22.54 10.946 22.4668 10.1619 22.3309 9.40918H11.5V13.8576H17.6891C17.4225 15.2951 16.6123 16.513 15.3943 17.3285V20.214H19.1109C21.2855 18.2119 22.54 15.2637 22.54 11.7615Z" fill="#4285F4"/>
<path fill-rule="evenodd" clip-rule="evenodd" d="M11.4995 23.0001C14.6045 23.0001 17.2077 21.9703 19.1104 20.2139L15.3938 17.3285C14.364 18.0185 13.0467 18.4262 11.4995 18.4262C8.50425 18.4262 5.96902 16.4032 5.0647 13.6851H1.22266V16.6646C3.11493 20.423 7.00402 23.0001 11.4995 23.0001Z" fill="#34A853"/>
<path fill-rule="evenodd" clip-rule="evenodd" d="M5.06523 13.685C4.83523 12.995 4.70455 12.2579 4.70455 11.5C4.70455 10.742 4.83523 10.005 5.06523 9.31499V6.33545H1.22318C0.444318 7.88795 0 9.64431 0 11.5C0 13.3557 0.444318 15.112 1.22318 16.6645L5.06523 13.685Z" fill="#FBBC05"/>
<path fill-rule="evenodd" clip-rule="evenodd" d="M11.4995 4.57386C13.1879 4.57386 14.7038 5.15409 15.8956 6.29364L19.194 2.99523C17.2024 1.13955 14.5992 0 11.4995 0C7.00402 0 3.11493 2.57705 1.22266 6.33545L5.0647 9.315C5.96902 6.59682 8.50425 4.57386 11.4995 4.57386Z" fill="#EA4335"/>
</svg>
