<svg width="82" height="108" viewBox="0 0 82 108" fill="none" xmlns="http://www.w3.org/2000/svg">
<rect x="1" width="80" height="80" rx="8" fill="#1E80F2"/>
<g filter="url(#filter0_d_43_1374)">
<path d="M18.3978 35.1787L18.4046 25.9339C18.4061 23.9605 19.5847 22.3541 21.0318 22.3529C22.4855 22.352 23.6669 23.9426 23.6654 25.8987L23.6584 35.0471L38.2331 41.7857C38.3606 41.8446 38.4678 41.9396 38.5413 42.0586C38.6149 42.1777 38.6515 42.3157 38.6467 42.4555C38.6419 42.5952 38.5959 42.7305 38.5143 42.8446C38.4328 42.9586 38.3193 43.0464 38.1881 43.097L36.4976 43.7483C36.3553 43.8035 36.199 43.8118 36.0518 43.7721L23.6069 40.4461L22.8744 51.9603L28.1952 55.3546C28.2932 55.4171 28.3743 55.5024 28.4316 55.6032C28.489 55.7039 28.5207 55.817 28.5241 55.9328L28.553 56.9024C28.5562 56.9995 28.5392 57.0961 28.5033 57.1864C28.4673 57.2768 28.4131 57.3588 28.3439 57.4275C28.3118 57.4593 28.2767 57.4881 28.2391 57.5134C28.1395 57.5812 28.0243 57.6228 27.9043 57.6345C27.7842 57.6462 27.6631 57.6274 27.5524 57.58L21.008 54.7969L14.5376 57.5881C14.4283 57.6352 14.309 57.6545 14.1903 57.6444C14.0717 57.6342 13.9575 57.5949 13.8581 57.53C13.7587 57.465 13.6771 57.3764 13.6208 57.2723C13.5644 57.1681 13.5351 57.0516 13.5354 56.9333L13.5384 55.9171C13.5385 55.7968 13.5693 55.6784 13.628 55.573C13.6868 55.4677 13.7715 55.3789 13.8742 55.315L19.2419 51.9574L18.3902 40.5869L5.94893 43.9592C5.80415 43.9988 5.65057 43.9919 5.51006 43.9397L3.81941 43.3147C3.68706 43.2658 3.57225 43.1791 3.48939 43.0655C3.40652 42.9519 3.35929 42.8164 3.35361 42.6762C3.34793 42.5359 3.38405 42.397 3.45745 42.2769C3.53085 42.1569 3.63826 42.0609 3.76621 42.0012L18.3978 35.1787Z" fill="white"/>
</g>
<path d="M41 0H73C77.4183 0 81 3.58172 81 8V72C81 76.4183 77.4183 80 73 80H41V0Z" fill="#151A6A"/>
<g filter="url(#filter1_d_43_1374)">
<path d="M63.6022 44.8213L63.5954 54.0661C63.5939 56.0395 62.4153 57.6459 60.9682 57.6471C59.5145 57.648 58.3331 56.0575 58.3346 54.1013L58.3416 44.9529L43.7669 38.2143C43.6394 38.1554 43.5322 38.0605 43.4587 37.9414C43.3851 37.8223 43.3485 37.6843 43.3533 37.5445C43.3581 37.4048 43.4041 37.2695 43.4857 37.1554C43.5672 37.0414 43.6807 36.9536 43.8119 36.903L45.5024 36.2517C45.6447 36.1965 45.801 36.1882 45.9482 36.2279L58.3931 39.5539L59.1256 28.0397L53.8048 24.6454C53.7068 24.5829 53.6257 24.4976 53.5684 24.3968C53.511 24.2961 53.4793 24.183 53.4759 24.0673L53.447 23.0976C53.4438 23.0005 53.4608 22.9039 53.4967 22.8136C53.5327 22.7232 53.5869 22.6412 53.6561 22.5725C53.6882 22.5407 53.7233 22.5119 53.7609 22.4866C53.8605 22.4188 53.9757 22.3772 54.0957 22.3655C54.2158 22.3538 54.3369 22.3726 54.4476 22.42L60.992 25.2031L67.4624 22.4119C67.5717 22.3648 67.691 22.3455 67.8097 22.3556C67.9283 22.3658 68.0425 22.4051 68.1419 22.47C68.2413 22.535 68.3229 22.6236 68.3792 22.7277C68.4356 22.8319 68.4649 22.9484 68.4646 23.0667L68.4616 24.0829C68.4615 24.2032 68.4307 24.3216 68.372 24.427C68.3132 24.5323 68.2285 24.6211 68.1258 24.685L62.7581 28.0426L63.6098 39.4131L76.0511 36.0408C76.1958 36.0012 76.3494 36.0081 76.4899 36.0603L78.1806 36.6853C78.3129 36.7342 78.4277 36.8209 78.5106 36.9345C78.5935 37.0481 78.6407 37.1836 78.6464 37.3238C78.6521 37.4641 78.6159 37.603 78.5425 37.7231C78.4691 37.8431 78.3617 37.9391 78.2338 37.9988L63.6022 44.8213Z" fill="white"/>
</g>
<path d="M4.68504 108C3.85954 108 3.17272 107.846 2.62459 107.537C2.08306 107.228 1.67691 106.821 1.40615 106.316C1.13538 105.804 1 105.249 1 104.653C1 104.007 1.12548 103.467 1.37643 103.032C1.63399 102.596 1.97409 102.246 2.39675 101.979C2.82601 101.712 3.2982 101.512 3.81331 101.379C4.40107 101.239 5.03506 101.119 5.71527 101.021C6.39548 100.916 7.04268 100.825 7.65685 100.747C8.27763 100.67 8.78284 100.604 9.17247 100.547L8.75642 100.811C8.78284 99.5825 8.5649 98.6702 8.10262 98.0737C7.64695 97.4702 6.84126 97.1684 5.68555 97.1684C4.87326 97.1684 4.20295 97.3649 3.67463 97.7579C3.15291 98.1439 2.78639 98.7439 2.57506 99.5579L1.40615 99.2105C1.6505 98.1789 2.1425 97.386 2.88215 96.8316C3.6218 96.2772 4.56947 96 5.72518 96C6.70917 96 7.53468 96.2035 8.20168 96.6105C8.87529 97.0175 9.34418 97.5895 9.60834 98.3263C9.72061 98.6281 9.79655 98.9825 9.83618 99.3895C9.8758 99.7895 9.89561 100.193 9.89561 100.6V107.684H8.85548V104.695L9.24182 104.8C8.91822 105.825 8.35358 106.614 7.54789 107.168C6.74219 107.723 5.78791 108 4.68504 108ZM4.74448 106.884C5.47092 106.884 6.10821 106.747 6.65634 106.474C7.20448 106.193 7.64695 105.804 7.98375 105.305C8.32716 104.8 8.54509 104.207 8.63755 103.526C8.70359 103.147 8.73991 102.737 8.74651 102.295C8.75312 101.853 8.75642 101.526 8.75642 101.316L9.25172 101.653C8.82246 101.709 8.30735 101.768 7.70638 101.832C7.11202 101.895 6.50445 101.972 5.88367 102.063C5.26289 102.154 4.70155 102.27 4.19965 102.411C3.88926 102.502 3.57557 102.635 3.25857 102.811C2.94819 102.979 2.68733 103.214 2.476 103.516C2.27127 103.818 2.16891 104.2 2.16891 104.663C2.16891 105.007 2.24816 105.351 2.40666 105.695C2.57176 106.039 2.84252 106.323 3.21895 106.547C3.59538 106.772 4.10389 106.884 4.74448 106.884Z" fill="#151A6A"/>
<path d="M16.1621 107.684L12.2789 96.3158H13.4578L16.7664 106.032L20.0651 96.3158H21.2538L17.3706 107.684H16.1621Z" fill="#151A6A"/>
<path d="M24.427 107.684V96.3158H25.5662V107.684H24.427Z" fill="#151A6A"/>
<path d="M34.1205 108C33.0572 108 32.1558 107.744 31.4161 107.232C30.6765 106.719 30.1119 106.011 29.7222 105.105C29.3326 104.2 29.1378 103.158 29.1378 101.979C29.1378 100.793 29.3359 99.7509 29.7321 98.8526C30.1284 97.9474 30.6963 97.2456 31.436 96.7474C32.1822 96.2491 33.0771 96 34.1205 96C35.1837 96 36.0852 96.2561 36.8248 96.7684C37.5711 97.2737 38.1357 97.9754 38.5188 98.8737C38.9084 99.7719 39.1032 100.807 39.1032 101.979C39.1032 103.179 38.9084 104.232 38.5188 105.137C38.1291 106.035 37.5612 106.737 36.8149 107.242C36.0687 107.747 35.1705 108 34.1205 108ZM34.1205 106.821C35.3819 106.821 36.3229 106.372 36.9437 105.474C37.5711 104.575 37.8848 103.411 37.8848 101.979C37.8848 100.519 37.5711 99.3544 36.9437 98.4842C36.3163 97.614 35.3753 97.1789 34.1205 97.1789C33.2686 97.1789 32.5653 97.386 32.0105 97.8C31.4558 98.207 31.0397 98.7719 30.7624 99.4947C30.4916 100.211 30.3562 101.039 30.3562 101.979C30.3562 103.439 30.6732 104.611 31.3072 105.495C31.9478 106.379 32.8855 106.821 34.1205 106.821Z" fill="#151A6A"/>
<path d="M50.3071 107.684V101.768C50.3071 101.053 50.2378 100.414 50.0991 99.8526C49.967 99.2912 49.7623 98.814 49.4849 98.4211C49.2141 98.0281 48.8707 97.7298 48.4547 97.5263C48.0452 97.3228 47.5598 97.2211 46.9985 97.2211C46.4173 97.2211 45.9121 97.3298 45.4829 97.5474C45.0602 97.7579 44.7102 98.0561 44.4328 98.4421C44.1621 98.8281 43.9573 99.2877 43.8187 99.8211C43.6866 100.347 43.6205 100.923 43.6205 101.547L42.7191 101.432C42.7191 100.204 42.9139 99.193 43.3035 98.4C43.6998 97.6 44.2314 97.0105 44.8984 96.6316C45.5654 96.2456 46.315 96.0526 47.1471 96.0526C47.7348 96.0526 48.2599 96.1439 48.7221 96.3263C49.191 96.5088 49.5972 96.7684 49.9406 97.1053C50.284 97.4351 50.568 97.8281 50.7925 98.2842C51.017 98.7333 51.1821 99.2281 51.2878 99.7684C51.4001 100.309 51.4562 100.874 51.4562 101.463V107.684H50.3071ZM42.4714 107.684V96.3158H43.5116V98.8737H43.6205V107.684H42.4714Z" fill="#151A6A"/>
<path d="M55.4089 107.684V96.3158H56.5481V107.684H55.4089Z" fill="#151A6A"/>
<path d="M65.0826 108C64.0127 108 63.1113 107.747 62.3782 107.242C61.6452 106.73 61.0871 106.025 60.7041 105.126C60.3277 104.221 60.1329 103.179 60.1196 102C60.1329 100.8 60.331 99.7509 60.714 98.8526C61.1036 97.9474 61.665 97.2456 62.398 96.7474C63.1311 96.2491 64.0292 96 65.0925 96C66.1293 96 67.0407 96.2667 67.8265 96.8C68.619 97.3263 69.1671 98.0526 69.4709 98.9789L68.3615 99.4105C68.0907 98.7018 67.6647 98.1544 67.0836 97.7684C66.5024 97.3754 65.8354 97.1789 65.0826 97.1789C64.2372 97.1789 63.5405 97.386 62.9924 97.8C62.4443 98.207 62.0348 98.7719 61.764 99.4947C61.4933 100.218 61.3513 101.053 61.3381 102C61.3579 103.453 61.6782 104.621 62.299 105.505C62.9263 106.382 63.8542 106.821 65.0826 106.821C65.842 106.821 66.4991 106.635 67.0539 106.263C67.6152 105.891 68.0445 105.351 68.3416 104.642L69.4709 105.053C69.0549 106.014 68.4737 106.747 67.7275 107.253C66.9812 107.751 66.0996 108 65.0826 108Z" fill="#151A6A"/>
<path d="M75.7894 108C74.9639 108 74.2771 107.846 73.729 107.537C73.1874 107.228 72.7813 106.821 72.5105 106.316C72.2398 105.804 72.1044 105.249 72.1044 104.653C72.1044 104.007 72.2299 103.467 72.4808 103.032C72.7384 102.596 73.0785 102.246 73.5011 101.979C73.9304 101.712 74.4026 101.512 74.9177 101.379C75.5055 101.239 76.1394 101.119 76.8197 101.021C77.4999 100.916 78.1471 100.825 78.7612 100.747C79.382 100.67 79.8872 100.604 80.2769 100.547L79.8608 100.811C79.8872 99.5825 79.6693 98.6702 79.207 98.0737C78.7513 97.4702 77.9456 97.1684 76.7899 97.1684C75.9776 97.1684 75.3073 97.3649 74.779 97.7579C74.2573 98.1439 73.8908 98.7439 73.6794 99.5579L72.5105 99.2105C72.7549 98.1789 73.2469 97.386 73.9865 96.8316C74.7262 96.2772 75.6739 96 76.8296 96C77.8136 96 78.6391 96.2035 79.3061 96.6105C79.9797 97.0175 80.4486 97.5895 80.7127 98.3263C80.825 98.6281 80.9009 98.9825 80.9406 99.3895C80.9802 99.7895 81 100.193 81 100.6V107.684H79.9599V104.695L80.3462 104.8C80.0226 105.825 79.458 106.614 78.6523 107.168C77.8466 107.723 76.8923 108 75.7894 108ZM75.8489 106.884C76.5753 106.884 77.2126 106.747 77.7607 106.474C78.3089 106.193 78.7513 105.804 79.0881 105.305C79.4315 104.8 79.6495 104.207 79.7419 103.526C79.808 103.147 79.8443 102.737 79.8509 102.295C79.8575 101.853 79.8608 101.526 79.8608 101.316L80.3561 101.653C79.9268 101.709 79.4117 101.768 78.8108 101.832C78.2164 101.895 77.6088 101.972 76.9881 102.063C76.3673 102.154 75.8059 102.27 75.304 102.411C74.9936 102.502 74.68 102.635 74.363 102.811C74.0526 102.979 73.7917 103.214 73.5804 103.516C73.3757 103.818 73.2733 104.2 73.2733 104.663C73.2733 105.007 73.3525 105.351 73.511 105.695C73.6761 106.039 73.9469 106.323 74.3233 106.547C74.6998 106.772 75.2083 106.884 75.8489 106.884Z" fill="#151A6A"/>
<defs>
<filter id="filter0_d_43_1374" x="0.353027" y="22.3529" width="41.2942" height="41.2941" filterUnits="userSpaceOnUse" color-interpolation-filters="sRGB">
<feFlood flood-opacity="0" result="BackgroundImageFix"/>
<feColorMatrix in="SourceAlpha" type="matrix" values="0 0 0 0 0 0 0 0 0 0 0 0 0 0 0 0 0 0 127 0" result="hardAlpha"/>
<feOffset dy="3"/>
<feGaussianBlur stdDeviation="1.5"/>
<feComposite in2="hardAlpha" operator="out"/>
<feColorMatrix type="matrix" values="0 0 0 0 0 0 0 0 0 0 0 0 0 0 0 0 0 0 0.2 0"/>
<feBlend mode="normal" in2="BackgroundImageFix" result="effect1_dropShadow_43_1374"/>
<feBlend mode="normal" in="SourceGraphic" in2="effect1_dropShadow_43_1374" result="shape"/>
</filter>
<filter id="filter1_d_43_1374" x="40.3528" y="22.353" width="41.2942" height="41.2941" filterUnits="userSpaceOnUse" color-interpolation-filters="sRGB">
<feFlood flood-opacity="0" result="BackgroundImageFix"/>
<feColorMatrix in="SourceAlpha" type="matrix" values="0 0 0 0 0 0 0 0 0 0 0 0 0 0 0 0 0 0 127 0" result="hardAlpha"/>
<feOffset dy="3"/>
<feGaussianBlur stdDeviation="1.5"/>
<feComposite in2="hardAlpha" operator="out"/>
<feColorMatrix type="matrix" values="0 0 0 0 0 0 0 0 0 0 0 0 0 0 0 0 0 0 0.2 0"/>
<feBlend mode="normal" in2="BackgroundImageFix" result="effect1_dropShadow_43_1374"/>
<feBlend mode="normal" in="SourceGraphic" in2="effect1_dropShadow_43_1374" result="shape"/>
</filter>
</defs>
</svg>
