<svg width="73" height="73" viewBox="0 0 73 73" fill="none" xmlns="http://www.w3.org/2000/svg">
<rect width="73" height="73" rx="36.5" fill="#FAC200"/>
<path d="M36.2302 20C26.7292 20 19 27.7292 19 37.23C19 46.7307 26.7292 54.46 36.2302 54.46C45.7311 54.46 53.4604 46.7307 53.4604 37.23C53.4604 27.7292 45.7311 20 36.2302 20ZM36.2302 53.1751C27.4378 53.1751 20.2849 46.0222 20.2849 37.23C20.2849 28.4378 27.4378 21.2849 36.2302 21.2849C45.0226 21.2849 52.1755 28.4378 52.1755 37.23C52.1755 46.0222 45.0226 53.1751 36.2302 53.1751Z" fill="black"/>
<path fill-rule="evenodd" clip-rule="evenodd" d="M28.1465 29.1465C28.3417 28.9512 28.6583 28.9512 28.8536 29.1465L36 36.2929L43.1464 29.1465C43.3417 28.9512 43.6583 28.9512 43.8536 29.1465C44.0488 29.3417 44.0488 29.6583 43.8536 29.8536L36.7071 37L43.8536 44.1464C44.0488 44.3417 44.0488 44.6583 43.8536 44.8536C43.6583 45.0488 43.3417 45.0488 43.1464 44.8536L36 37.7071L28.8536 44.8536C28.6583 45.0488 28.3417 45.0488 28.1465 44.8536C27.9512 44.6583 27.9512 44.3417 28.1465 44.1464L35.2929 37L28.1465 29.8536C27.9512 29.6583 27.9512 29.3417 28.1465 29.1465Z" fill="black" stroke="black" stroke-width="0.5"/>
</svg>
