<svg width="24" height="24" viewBox="0 0 24 24" fill="none" xmlns="http://www.w3.org/2000/svg">
<path d="M12 22C17.5228 22 22 17.5228 22 12C22 6.47715 17.5228 2 12 2C6.47715 2 2 6.47715 2 12C2 17.5228 6.47715 22 12 22Z" stroke="#4797DB" stroke-width="1.33333" stroke-linecap="round" stroke-linejoin="round"/>
<path d="M9.08789 9.00448C9.32299 8.33614 9.78704 7.77258 10.3978 7.41361C11.0086 7.05463 11.7268 6.92341 12.4251 7.04319C13.1233 7.16296 13.7567 7.526 14.213 8.068C14.6692 8.61001 14.9189 9.296 14.9179 10.0045C14.9179 12.0045 11.9179 13.0045 11.9179 13.0045" stroke="#4797DB" stroke-width="1.33333" stroke-linecap="round" stroke-linejoin="round"/>
<path d="M12 17H12.0102" stroke="#4797DB" stroke-width="1.33333" stroke-linecap="round" stroke-linejoin="round"/>
</svg>
