<svg width="22" height="22" viewBox="0 0 22 22" fill="none" xmlns="http://www.w3.org/2000/svg">
<path d="M18.7314 1.30273C19.1929 1.2004 19.7761 1.22514 20.2227 1.60352L20.3105 1.68359L20.3906 1.77051C20.768 2.21357 20.8002 2.7922 20.7012 3.25586C20.6059 3.70172 20.3757 4.14601 20.0449 4.52441L19.8965 4.68262L15.8994 8.67383L19.2109 17.751C19.3138 18.0333 19.2389 18.3502 19.0195 18.5557C18.8002 18.761 18.479 18.8154 18.2041 18.6943L17.4658 18.3682C17.32 18.3038 17.1978 18.1947 17.1182 18.0566L13.2188 11.2881L8.00781 15.8809L8.81543 19.582C8.86815 19.8239 8.79867 20.0767 8.62891 20.2568L8.38574 20.5146C8.21026 20.7008 7.95156 20.7848 7.7002 20.7373C7.44886 20.6896 7.23881 20.5167 7.14355 20.2793L5.58496 16.3906L1.72461 14.8682C1.48918 14.7753 1.31674 14.5692 1.26563 14.3213C1.21464 14.0737 1.2916 13.8171 1.4707 13.6387L1.74512 13.3662L1.81641 13.3037C1.99208 13.1686 2.22018 13.1172 2.43945 13.167L6.14063 14.0078L10.6172 8.81152L3.83105 4.93359C3.69493 4.85578 3.58676 4.73729 3.52148 4.59473L3.18945 3.86914C3.06373 3.59449 3.11475 3.27105 3.31934 3.04883C3.52393 2.82664 3.84191 2.74893 4.12598 2.85156L13.2588 6.15137L17.3018 2.11621L17.4609 1.96777C17.8412 1.63537 18.2857 1.40166 18.7314 1.30273Z" stroke="#3F3D56" stroke-width="1.5" stroke-linejoin="round"/>
</svg>
