<svg width="24" height="24" viewBox="0 0 24 24" fill="none" xmlns="http://www.w3.org/2000/svg">
<g clip-path="url(#clip0_116_37694)">
<path d="M6.37531 4.55754e-07C6.3172 -9.01405e-05 6.25986 0.0133272 6.20782 0.0391935C6.15578 0.0650599 6.11046 0.102667 6.07544 0.149048C6.04043 0.195428 6.01667 0.249312 6.00605 0.306447C5.99542 0.363582 5.99822 0.422405 6.01423 0.478272L8.55646 9.375H4.62043L3.7049 7.69556C3.67263 7.63633 3.62498 7.58691 3.56697 7.5525C3.50897 7.51808 3.44276 7.49995 3.37531 7.5H0.37531C0.310241 7.49995 0.246277 7.51683 0.189706 7.54898C0.133135 7.58113 0.0859033 7.62745 0.0526538 7.68338C0.0194043 7.73931 0.00128107 7.80294 6.54588e-05 7.86799C-0.00115015 7.93305 0.0145837 7.99731 0.0457205 8.05444L1.58454 10.875H1.12531C0.826942 10.875 0.540794 10.9935 0.329815 11.2045C0.118837 11.4155 0.000310366 11.7016 0.000310366 12C0.000310366 12.2984 0.118837 12.5845 0.329815 12.7955C0.540794 13.0065 0.826942 13.125 1.12531 13.125H1.58454L0.0471854 15.9456C0.0161075 16.0026 0.000373045 16.0667 0.00152272 16.1316C0.0026724 16.1966 0.0206668 16.2601 0.0537439 16.316C0.0868209 16.3719 0.133847 16.4182 0.190216 16.4505C0.246585 16.4827 0.310365 16.4998 0.37531 16.5H3.37531C3.44276 16.5001 3.50897 16.4819 3.56697 16.4475C3.62498 16.4131 3.67263 16.3637 3.7049 16.3044C3.7049 16.3044 5.55304 12.9016 5.55866 12.8877C5.69593 12.784 5.80728 12.6498 5.88395 12.4958C5.96061 12.3418 6.00052 12.1721 6.00052 12C6.00052 11.8279 5.96061 11.6582 5.88395 11.5042C5.80728 11.3502 5.69593 11.216 5.55866 11.1123C5.55304 11.0999 5.02985 10.125 5.02985 10.125H20.9461C21.6327 10.3328 23.2503 11.0291 23.2503 12C23.2503 12.9709 21.6327 13.6669 20.9461 13.875H6.00031C5.90085 13.875 5.80547 13.9145 5.73515 13.9848C5.66482 14.0552 5.62531 14.1505 5.62531 14.25C5.62531 14.3495 5.66482 14.4448 5.73515 14.5152C5.80547 14.5855 5.90085 14.625 6.00031 14.625H8.55646L6.01423 23.5225C5.99836 23.5783 5.99566 23.637 6.00635 23.6941C6.01704 23.7511 6.04082 23.8049 6.07582 23.8512C6.11082 23.8975 6.15609 23.935 6.20806 23.9608C6.26002 23.9866 6.31728 24.0001 6.37531 24H9.00031C9.06141 24 9.12157 23.985 9.17557 23.9564C9.22957 23.9278 9.27576 23.8865 9.31013 23.8359L10.2169 22.5H12.0003C12.2987 22.5 12.5848 22.3815 12.7958 22.1705C13.0068 21.9595 13.1253 21.6734 13.1253 21.375C13.1253 21.0766 13.0068 20.7905 12.7958 20.5795C12.5848 20.3685 12.2987 20.25 12.0003 20.25H11.7432L12.7613 18.75H14.2503C14.5378 18.7387 14.81 18.6177 15.011 18.4119C15.212 18.2061 15.3265 17.9311 15.3311 17.6435C15.3356 17.3558 15.2297 17.0774 15.0352 16.8654C14.8407 16.6534 14.5724 16.5239 14.2855 16.5037L15.5606 14.625H21.0003C21.035 14.6251 21.0695 14.6204 21.1028 14.6111C21.2213 14.577 24.0003 13.7625 24.0003 12C24.0003 10.2375 21.2213 9.42302 21.1028 9.38965C21.0695 9.3799 21.035 9.37497 21.0003 9.375H15.5606L14.2855 7.49634C14.5724 7.47607 14.8407 7.34662 15.0352 7.13463C15.2297 6.92263 15.3356 6.64418 15.3311 6.35653C15.3265 6.06888 15.212 5.79388 15.011 5.58807C14.81 5.38226 14.5378 5.26128 14.2503 5.25H12.7613L11.7432 3.75H12.0003C12.2987 3.75 12.5848 3.63147 12.7958 3.4205C13.0068 3.20952 13.1253 2.92337 13.1253 2.625C13.1253 2.32663 13.0068 2.04048 12.7958 1.82951C12.5848 1.61853 12.2987 1.5 12.0003 1.5H10.2169L9.31013 0.164063C9.27576 0.113546 9.22957 0.0721924 9.17557 0.043599C9.12157 0.0150055 9.06141 3.86683e-05 9.00031 4.55754e-07H6.37531ZM6.87262 0.75H8.80182L14.6539 9.375H9.33796L6.87262 0.75ZM10.7252 2.25H12.0003C12.0998 2.25 12.1951 2.28951 12.2655 2.35984C12.3358 2.43016 12.3753 2.52554 12.3753 2.625C12.3753 2.72446 12.3358 2.81984 12.2655 2.89017C12.1951 2.96049 12.0998 3 12.0003 3H11.2342L10.7252 2.25ZM13.2703 6H14.2503C14.3498 6 14.4451 6.03951 14.5155 6.10984C14.5858 6.18016 14.6253 6.27554 14.6253 6.375C14.6253 6.47446 14.5858 6.56984 14.5155 6.64017C14.4451 6.71049 14.3498 6.75 14.2503 6.75H13.7794L13.2703 6ZM1.00739 8.25H3.15265L4.58454 10.875H2.43781L1.00739 8.25ZM20.9864 10.4993C20.903 10.5019 20.8228 10.5323 20.7586 10.5857C20.6944 10.639 20.6498 10.7122 20.6319 10.7938C20.614 10.8753 20.6238 10.9605 20.6597 11.0358C20.6957 11.1112 20.7557 11.1724 20.8304 11.2097C20.979 11.2867 21.1065 11.399 21.2015 11.5368C21.2965 11.6746 21.3562 11.8337 21.3753 12C21.356 12.1656 21.2965 12.3239 21.2019 12.4612C21.1073 12.5984 20.9805 12.7104 20.8326 12.7874C20.7435 12.8318 20.6758 12.9099 20.6443 13.0043C20.6127 13.0987 20.62 13.2018 20.6645 13.2909C20.709 13.38 20.787 13.4477 20.8815 13.4792C20.9759 13.5107 21.079 13.5035 21.168 13.459C21.4407 13.32 21.6724 13.1124 21.8402 12.8565C22.0081 12.6006 22.1064 12.3054 22.1253 12C22.1066 11.6943 22.0084 11.3988 21.8405 11.1427C21.6727 10.8866 21.4409 10.6787 21.168 10.5396C21.1118 10.5111 21.0494 10.4972 20.9864 10.4993ZM1.12531 11.625H4.87531C4.97477 11.625 5.07015 11.6645 5.14048 11.7348C5.2108 11.8052 5.25031 11.9005 5.25031 12C5.25031 12.0995 5.2108 12.1948 5.14048 12.2652C5.07015 12.3355 4.97477 12.375 4.87531 12.375H1.12531C1.02585 12.375 0.930471 12.3355 0.860145 12.2652C0.789819 12.1948 0.75031 12.0995 0.75031 12C0.75031 11.9005 0.789819 11.8052 0.860145 11.7348C0.930471 11.6645 1.02585 11.625 1.12531 11.625ZM2.43781 13.125H4.58381L3.15265 15.75H1.00739L2.43781 13.125ZM9.33796 14.625H14.6553L8.80182 23.25H6.87262L9.33796 14.625ZM13.7794 17.25H14.2503C14.3498 17.25 14.4451 17.2895 14.5155 17.3598C14.5858 17.4302 14.6253 17.5255 14.6253 17.625C14.6253 17.7245 14.5858 17.8198 14.5155 17.8902C14.4451 17.9605 14.3498 18 14.2503 18H13.2703L13.7794 17.25ZM11.2342 21H12.0003C12.0998 21 12.1951 21.0395 12.2655 21.1098C12.3358 21.1802 12.3753 21.2755 12.3753 21.375C12.3753 21.4745 12.3358 21.5698 12.2655 21.6402C12.1951 21.7105 12.0998 21.75 12.0003 21.75H10.7252L11.2342 21Z" fill="#3F3D56"/>
</g>
<defs>
<clipPath id="clip0_116_37694">
<rect width="24" height="24" fill="white"/>
</clipPath>
</defs>
</svg>
