<svg width="24" height="24" viewBox="0 0 24 24" fill="none" xmlns="http://www.w3.org/2000/svg">
<rect width="24" height="24" rx="4" fill="#D2E6FC"/>
<path d="M13.3799 6.89844C13.5557 6.89844 13.6806 6.93646 13.7617 7.01758C13.8428 7.09871 13.8809 7.22354 13.8809 7.39941C13.8808 7.47747 13.8433 7.54943 13.7803 7.61621C13.7172 7.68307 13.6287 7.74472 13.5283 7.80273C13.428 7.86071 13.3156 7.91503 13.2041 7.9668L12.8848 8.11621C12.7847 8.16588 12.6754 8.22525 12.5625 8.28613C12.4494 8.34711 12.3322 8.40939 12.2178 8.46582C12.1033 8.52225 11.9909 8.57231 11.8867 8.6084C11.7826 8.64445 11.6865 8.66699 11.6045 8.66699C11.5993 8.66692 11.5921 8.6639 11.582 8.66113C11.5732 8.65871 11.5629 8.65568 11.5508 8.65137C11.5387 8.64707 11.5248 8.64276 11.5098 8.63672C11.4617 8.61744 11.399 8.58936 11.3262 8.55566C11.1805 8.48822 10.9935 8.39762 10.8018 8.30176L9.87012 7.8291C9.78291 7.78585 9.71314 7.75084 9.65723 7.71777C9.6013 7.68469 9.55918 7.65366 9.52832 7.61719C9.46671 7.54431 9.44827 7.45042 9.44824 7.28027C9.44824 7.19149 9.49838 7.09573 9.57129 7.02246C9.6442 6.94922 9.73989 6.89844 9.83008 6.89844C9.98574 6.89852 10.1404 6.95262 10.3018 7.03027C10.3824 7.06909 10.4647 7.11374 10.5498 7.16016L10.8145 7.30176C11.0785 7.43381 11.2509 7.53255 11.377 7.59863C11.5027 7.66453 11.5828 7.69823 11.6631 7.69824C11.7435 7.69824 11.8243 7.66466 11.9502 7.59863L12.5117 7.30176C12.548 7.28399 12.6135 7.25011 12.6924 7.20898C12.7713 7.16786 12.864 7.11919 12.9561 7.07324C13.0481 7.02732 13.1392 6.9834 13.2148 6.95117C13.2527 6.93505 13.2873 6.92229 13.3154 6.91309C13.3434 6.90396 13.3653 6.89849 13.3799 6.89844Z" fill="#3F3D56" stroke="#3F3D56" stroke-width="0.00389082"/>
<path d="M12.4922 5.56641C12.6353 5.56641 12.7612 5.60162 12.8506 5.66699C12.9399 5.73233 12.9932 5.82822 12.9932 5.94824C12.9931 6.1506 12.953 6.25568 12.8633 6.33496C12.8182 6.37473 12.7599 6.40845 12.6885 6.44434C12.6529 6.46221 12.6139 6.48077 12.5713 6.50098L12.4316 6.56836C12.2116 6.67838 12.0599 6.76057 11.9424 6.81543C11.825 6.87023 11.7417 6.89799 11.6582 6.89746C11.5749 6.89686 11.4909 6.86848 11.3721 6.8125L10.874 6.55957C10.774 6.50993 10.6906 6.47122 10.6211 6.43555C10.5515 6.39984 10.4957 6.36717 10.4531 6.32812C10.3895 6.26973 10.3538 6.19747 10.3398 6.08203L10.333 5.95117L10.335 5.94922L10.3359 5.9502V5.94824C10.3359 5.85945 10.3861 5.7637 10.459 5.69043C10.5319 5.61721 10.6276 5.56641 10.7178 5.56641C10.9257 5.56654 11.1154 5.65907 11.2764 5.75195C11.3568 5.79834 11.4304 5.84501 11.4951 5.87988C11.5598 5.91474 11.6164 5.93845 11.6631 5.93848C11.6787 5.93848 11.7009 5.93297 11.7275 5.92285C11.7544 5.91266 11.7861 5.89731 11.8213 5.87988C11.8917 5.84499 11.976 5.79844 12.0615 5.75195C12.1471 5.70544 12.2345 5.65887 12.3105 5.62402C12.3483 5.60672 12.3833 5.59214 12.4141 5.58203C12.4449 5.57193 12.4716 5.56647 12.4922 5.56641Z" fill="#3F3D56" stroke="#3F3D56" stroke-width="0.00389082"/>
<path fill-rule="evenodd" clip-rule="evenodd" d="M4.84375 10.0918C5.67596 1.94012 17.3752 1.98272 18.179 10.1401C18.179 10.1401 18.1591 10.515 17.6734 10.4184C16.205 10.123 11.9161 10.3872 4.84375 10.0918ZM17.2786 9.84184C17.2786 9.84184 16.9605 7.59232 15.5148 6.48176V9.44136L17.2616 9.91001L17.2786 9.84468V9.84184ZM8.47366 9.31638L14.674 9.32775V5.76601C14.674 5.76601 11.953 3.74087 8.4623 5.76601L8.47366 9.31638ZM5.82934 9.84184C5.82934 9.84184 6.14745 7.59232 7.59316 6.48176V9.44136L5.84638 9.91001L5.82934 9.84468V9.84184Z" fill="#3F3D56" stroke="#3F3D56" stroke-width="0.0270213"/>
<path fill-rule="evenodd" clip-rule="evenodd" d="M7.05049 9.84961L4.84641 10.091C4.84641 10.091 4 10.2387 4 10.6392V17.2486C4 17.2486 4.32948 19.1204 6.30349 19.1431C6.50231 19.1459 6.68409 18.9272 6.68409 18.7312V14.3259V14.1612V13.8743L6.20692 13.2438L4.84641 13.0137V11.0141L7.76056 10.2331L7.05049 9.85245V9.84961ZM4.94866 13.9056L5.88312 14.1186V18.237C5.22133 17.9473 4.97706 17.5014 4.97138 16.8055L4.94866 13.9056Z" fill="#3F3D56" stroke="#3F3D56" stroke-width="0.0270213"/>
<path fill-rule="evenodd" clip-rule="evenodd" d="M15.8665 9.84961L18.0706 10.091C18.0706 10.091 18.917 10.2387 18.917 10.6392V17.2486C18.917 17.2486 18.5875 19.1204 16.6135 19.1431C16.4147 19.1459 16.2329 18.9272 16.2329 18.7312V14.3259V14.1612V13.8743L16.7101 13.2438L18.0706 13.0137V11.0141L15.1564 10.2331L15.8665 9.85245V9.84961ZM17.9683 13.9056L17.0339 14.1186V18.237C17.6957 17.9473 17.9399 17.5014 17.9456 16.8055L17.9683 13.9056Z" fill="#3F3D56" stroke="#3F3D56" stroke-width="0.0270213"/>
<path d="M8.4532 14.1369C9.6344 14.1369 10.5919 13.1793 10.5919 11.9981C10.5919 10.8169 9.6344 9.85938 8.4532 9.85938C7.272 9.85938 6.31445 10.8169 6.31445 11.9981C6.31445 13.1793 7.272 14.1369 8.4532 14.1369Z" stroke="#3F3D56" stroke-width="1.18886"/>
<path d="M14.6378 14.1369C15.819 14.1369 16.7765 13.1793 16.7765 11.9981C16.7765 10.8169 15.819 9.85938 14.6378 9.85938C13.4566 9.85938 12.499 10.8169 12.499 11.9981C12.499 13.1793 13.4566 14.1369 14.6378 14.1369Z" stroke="#3F3D56" stroke-width="1.18886"/>
<path d="M12.8307 11.9336H10.3682V12.726H12.8307V11.9336Z" fill="#3F3D56" stroke="#3F3D56" stroke-width="0.0270213"/>
</svg>
