<svg width="375" height="160" viewBox="0 0 375 160" fill="none" xmlns="http://www.w3.org/2000/svg">
<rect width="375" height="160" fill="#3F3D56"/>
<g filter="url(#filter0_d_116_37793)">
<path d="M100.945 65C100.002 65 99.2807 65.7141 99.2807 66.6479V73.4047C95.7308 74.0089 92.6796 76.4254 90.7937 79.831H82.0857C81.1427 79.831 80.4216 80.5451 80.4216 81.4789C80.4216 82.4127 81.1427 83.1268 82.0857 83.1268H89.4633C89.0196 84.6648 88.7418 86.3127 88.7418 88.0704C88.7418 89.8282 88.9641 91.4761 89.4633 93.0141H67.664C66.7211 93.0141 66 93.7282 66 94.662C66 95.5958 66.7211 96.3099 67.664 96.3099H73.1003C72.823 96.969 72.6561 97.738 72.6561 98.507C72.6561 101.528 75.1522 104 78.2029 104C81.2537 104 83.7497 101.528 83.7497 98.507C83.7497 97.738 83.5829 96.969 83.3055 96.3099H90.85C93.0687 100.265 96.7844 102.901 101 102.901C105.216 102.901 108.932 100.265 111.151 96.3099H118.694C118.417 96.969 118.25 97.738 118.25 98.507C118.25 101.528 120.746 104 123.797 104C126.848 104 129.344 101.528 129.344 98.507C129.344 97.738 129.178 96.969 128.901 96.3099H134.336C135.279 96.3099 136 95.5958 136 94.662C136 93.7282 135.279 93.0141 134.336 93.0141H112.426C112.87 91.4761 113.148 89.8282 113.148 88.0704C113.148 86.3127 112.925 84.6648 112.426 83.1268H119.804C120.747 83.1268 121.468 82.4127 121.468 81.4789C121.468 80.5451 120.747 79.831 119.804 79.831H111.096C109.21 76.3704 106.159 73.9539 102.609 73.4047V66.6479C102.609 65.7141 101.888 65 100.945 65ZM100.945 76.5352C105.826 76.5352 109.82 81.6986 109.82 88.0704C109.82 94.4423 105.826 99.6056 100.945 99.6056C96.0636 99.6056 92.0699 94.4423 92.0699 88.0704C92.0699 81.6986 96.0636 76.5352 100.945 76.5352ZM96.5073 83.6761C95.5644 83.6761 94.8433 84.3901 94.8433 85.3239C94.8433 86.2577 95.5644 86.9718 96.5073 86.9718H105.382C106.325 86.9718 107.046 86.2577 107.046 85.3239C107.046 84.3901 106.325 83.6761 105.382 83.6761H96.5073ZM78.2029 96.3099C79.4232 96.3099 80.4216 97.2986 80.4216 98.507C80.4216 99.7155 79.4232 100.704 78.2029 100.704C76.9826 100.704 75.9842 99.7155 75.9842 98.507C75.9842 97.2986 76.9826 96.3099 78.2029 96.3099ZM123.687 96.3099C124.907 96.3099 125.905 97.2986 125.905 98.507C125.905 99.7155 124.907 100.704 123.687 100.704C122.466 100.704 121.468 99.7155 121.468 98.507C121.468 97.2986 122.466 96.3099 123.687 96.3099Z" fill="white"/>
</g>
<path d="M152.112 95.1027C150.631 95.1027 149.399 94.8312 148.416 94.2882C147.445 93.7452 146.716 93.0294 146.23 92.1409C145.745 91.24 145.502 90.2651 145.502 89.2161C145.502 88.0808 145.727 87.1305 146.177 86.3654C146.639 85.6003 147.249 84.9833 148.007 84.5143C148.777 84.0454 149.624 83.6936 150.548 83.4592C151.603 83.2124 152.74 83.0026 153.96 82.8298C155.18 82.6447 156.341 82.4843 157.443 82.3485C158.556 82.2128 159.462 82.0955 160.161 81.9968L159.415 82.4596C159.462 80.2999 159.071 78.6956 158.242 77.6467C157.425 76.5854 155.98 76.0547 153.907 76.0547C152.45 76.0547 151.247 76.4003 150.3 77.0914C149.364 77.7701 148.706 78.8252 148.327 80.2568L146.23 79.6459C146.669 77.8318 147.551 76.4373 148.878 75.4624C150.205 74.4875 151.905 74 153.978 74C155.743 74 157.223 74.3579 158.42 75.0736C159.628 75.7894 160.469 76.7952 160.943 78.091C161.144 78.6216 161.281 79.2448 161.352 79.9606C161.423 80.664 161.458 81.3736 161.458 82.0894V94.5473H159.593V89.2902L160.286 89.4753C159.705 91.277 158.692 92.6654 157.247 93.6403C155.802 94.6152 154.09 95.1027 152.112 95.1027ZM152.219 93.1405C153.522 93.1405 154.665 92.8998 155.648 92.4185C156.631 91.9249 157.425 91.24 158.029 90.3638C158.645 89.4753 159.036 88.4325 159.202 87.2354C159.32 86.569 159.385 85.8471 159.397 85.0696C159.409 84.2922 159.415 83.7183 159.415 83.3481L160.303 83.9405C159.533 84.0392 158.609 84.1441 157.531 84.2552C156.465 84.3662 155.375 84.502 154.262 84.6624C153.148 84.8228 152.142 85.0264 151.241 85.2733C150.684 85.4337 150.122 85.6682 149.553 85.9767C148.996 86.2729 148.529 86.6863 148.149 87.2169C147.782 87.7476 147.599 88.4202 147.599 89.2346C147.599 89.8393 147.741 90.444 148.025 91.0487C148.321 91.6534 148.807 92.1532 149.482 92.5481C150.157 92.943 151.069 93.1405 152.219 93.1405Z" fill="white"/>
<path d="M172.699 94.5473L165.733 74.5553H167.848L173.783 91.6411L179.699 74.5553H181.832L174.866 94.5473H172.699Z" fill="white"/>
<path d="M187.524 94.5473V74.5553H189.567V94.5473H187.524Z" fill="white"/>
<path d="M204.911 95.1027C203.004 95.1027 201.387 94.6522 200.06 93.7513C198.733 92.8505 197.721 91.6041 197.022 90.0121C196.323 88.4201 195.973 86.5876 195.973 84.5143C195.973 82.4287 196.329 80.5961 197.04 79.0165C197.75 77.4246 198.769 76.1905 200.096 75.3143C201.434 74.4381 203.039 74 204.911 74C206.818 74 208.435 74.4504 209.762 75.3513C211.1 76.2398 212.113 77.4739 212.8 79.0535C213.499 80.6331 213.849 82.4534 213.849 84.5143C213.849 86.6246 213.499 88.4757 212.8 90.0676C212.101 91.6473 211.083 92.8813 209.744 93.7699C208.406 94.6584 206.795 95.1027 204.911 95.1027ZM204.911 93.0294C207.174 93.0294 208.862 92.2396 209.975 90.66C211.1 89.0804 211.663 87.0318 211.663 84.5143C211.663 81.9474 211.1 79.8989 209.975 78.3686C208.85 76.8384 207.162 76.0732 204.911 76.0732C203.383 76.0732 202.121 76.4373 201.126 77.1654C200.131 77.8812 199.385 78.8746 198.887 80.1457C198.402 81.4044 198.159 82.8606 198.159 84.5143C198.159 87.0812 198.728 89.1421 199.865 90.697C201.014 92.252 202.696 93.0294 204.911 93.0294Z" fill="white"/>
<path d="M233.945 94.5473V84.1441C233.945 82.8853 233.821 81.7623 233.572 80.7751C233.335 79.7878 232.968 78.9486 232.471 78.2576C231.985 77.5665 231.369 77.042 230.623 76.6841C229.888 76.3262 229.018 76.1473 228.011 76.1473C226.968 76.1473 226.062 76.3386 225.292 76.7211C224.534 77.0914 223.906 77.6158 223.409 78.2946C222.923 78.9733 222.556 79.7816 222.307 80.7195C222.07 81.6451 221.952 82.657 221.952 83.7554L220.335 83.5517C220.335 81.3921 220.684 79.615 221.383 78.2205C222.094 76.8137 223.047 75.7771 224.244 75.1107C225.44 74.4319 226.785 74.0926 228.277 74.0926C229.331 74.0926 230.273 74.253 231.102 74.5738C231.943 74.8947 232.672 75.3513 233.288 75.9437C233.904 76.5237 234.413 77.2148 234.816 78.0169C235.219 78.8067 235.515 79.6767 235.704 80.627C235.906 81.5772 236.007 82.5706 236.007 83.6073V94.5473H233.945ZM219.89 94.5473V74.5553H221.756V79.0535H221.952V94.5473H219.89Z" fill="white"/>
<path d="M243.097 94.5473V74.5553H245.14V94.5473H243.097Z" fill="white"/>
<path d="M260.449 95.1027C258.529 95.1027 256.913 94.6584 255.598 93.7699C254.283 92.869 253.282 91.6287 252.595 90.0491C251.92 88.4572 251.57 86.6246 251.546 84.5513C251.57 82.4411 251.925 80.5961 252.613 79.0165C253.311 77.4246 254.318 76.1905 255.633 75.3143C256.948 74.4381 258.559 74 260.466 74C262.326 74 263.961 74.4689 265.37 75.4068C266.792 76.3324 267.775 77.6097 268.32 79.2386L266.33 79.9976C265.844 78.7512 265.08 77.7886 264.038 77.1099C262.995 76.4188 261.799 76.0732 260.449 76.0732C258.932 76.0732 257.683 76.4373 256.699 77.1654C255.716 77.8812 254.982 78.8746 254.496 80.1457C254.01 81.4168 253.756 82.8853 253.732 84.5513C253.767 87.1059 254.342 89.1606 255.456 90.7155C256.581 92.2581 258.245 93.0294 260.449 93.0294C261.811 93.0294 262.989 92.7024 263.984 92.0483C264.991 91.3943 265.761 90.444 266.294 89.1976L268.32 89.9195C267.574 91.6102 266.531 92.8998 265.193 93.7884C263.854 94.6646 262.273 95.1027 260.449 95.1027Z" fill="white"/>
<path d="M279.654 95.1027C278.173 95.1027 276.941 94.8312 275.958 94.2882C274.986 93.7452 274.258 93.0294 273.772 92.1409C273.287 91.24 273.044 90.2651 273.044 89.2161C273.044 88.0808 273.269 87.1305 273.719 86.3654C274.181 85.6003 274.791 84.9833 275.549 84.5143C276.319 84.0454 277.166 83.6936 278.09 83.4592C279.144 83.2124 280.282 83.0026 281.502 82.8298C282.722 82.6447 283.883 82.4843 284.984 82.3485C286.098 82.2128 287.004 82.0955 287.703 81.9968L286.957 82.4596C287.004 80.2999 286.613 78.6956 285.784 77.6467C284.967 76.5854 283.521 76.0547 281.448 76.0547C279.991 76.0547 278.789 76.4003 277.841 77.0914C276.905 77.7701 276.248 78.8252 275.869 80.2568L273.772 79.6459C274.211 77.8318 275.093 76.4373 276.42 75.4624C277.747 74.4875 279.446 74 281.519 74C283.284 74 284.765 74.3579 285.962 75.0736C287.17 75.7894 288.011 76.7952 288.485 78.091C288.686 78.6216 288.822 79.2448 288.893 79.9606C288.965 80.664 289 81.3736 289 82.0894V94.5473H287.134V89.2902L287.827 89.4753C287.247 91.277 286.234 92.6654 284.789 93.6403C283.344 94.6152 281.632 95.1027 279.654 95.1027ZM279.76 93.1405C281.063 93.1405 282.206 92.8998 283.19 92.4185C284.173 91.9249 284.967 91.24 285.571 90.3638C286.187 89.4753 286.578 88.4325 286.743 87.2354C286.862 86.569 286.927 85.8471 286.939 85.0696C286.951 84.2922 286.957 83.7183 286.957 83.3481L287.845 83.9405C287.075 84.0392 286.151 84.1441 285.073 84.2552C284.007 84.3662 282.917 84.502 281.804 84.6624C280.69 84.8228 279.683 85.0264 278.783 85.2733C278.226 85.4337 277.664 85.6682 277.095 85.9767C276.538 86.2729 276.07 86.6863 275.691 87.2169C275.324 87.7476 275.14 88.4202 275.14 89.2346C275.14 89.8393 275.283 90.444 275.567 91.0487C275.863 91.6534 276.349 92.1532 277.024 92.5481C277.699 92.943 278.611 93.1405 279.76 93.1405Z" fill="white"/>
<defs>
<filter id="filter0_d_116_37793" x="59.8231" y="60.3673" width="82.3538" height="51.3538" filterUnits="userSpaceOnUse" color-interpolation-filters="sRGB">
<feFlood flood-opacity="0" result="BackgroundImageFix"/>
<feColorMatrix in="SourceAlpha" type="matrix" values="0 0 0 0 0 0 0 0 0 0 0 0 0 0 0 0 0 0 127 0" result="hardAlpha"/>
<feOffset dy="1.54423"/>
<feGaussianBlur stdDeviation="3.08845"/>
<feColorMatrix type="matrix" values="0 0 0 0 0.167639 0 0 0 0 0.227481 0 0 0 0 0.283333 0 0 0 0.06 0"/>
<feBlend mode="normal" in2="BackgroundImageFix" result="effect1_dropShadow_116_37793"/>
<feBlend mode="normal" in="SourceGraphic" in2="effect1_dropShadow_116_37793" result="shape"/>
</filter>
</defs>
</svg>
