<svg width="39" height="40" viewBox="0 0 39 40" fill="none" xmlns="http://www.w3.org/2000/svg">
<path d="M24.4209 7.51562C24.8754 7.51562 25.1991 7.61244 25.4092 7.82227C25.6193 8.03236 25.7168 8.35676 25.7168 8.81152C25.7167 9.01369 25.6189 9.19935 25.4561 9.37207C25.2928 9.54503 25.0643 9.7055 24.8047 9.85547C24.5452 10.0054 24.2542 10.1455 23.9658 10.2793L23.1416 10.665C22.8828 10.7935 22.5999 10.947 22.3076 11.1045C22.0153 11.2621 21.7138 11.4245 21.418 11.5703C21.1221 11.7162 20.8318 11.8461 20.5625 11.9395C20.2934 12.0327 20.0452 12.0888 19.833 12.0889C19.8149 12.0889 19.7839 12.0825 19.7422 12.0693C19.7004 12.0561 19.6471 12.0367 19.585 12.0117C19.4607 11.9619 19.2987 11.8899 19.1104 11.8027C18.7338 11.6284 18.2522 11.3922 17.7568 11.1445L15.3486 9.92383C15.1229 9.8119 14.9416 9.72229 14.7969 9.63672C14.6521 9.55112 14.5438 9.46954 14.4639 9.375C14.3042 9.18612 14.2568 8.94318 14.2568 8.50293C14.2568 8.27293 14.3866 8.02548 14.5752 7.83594C14.7638 7.64661 15.0106 7.51562 15.2441 7.51562C15.6471 7.51565 16.0465 7.65654 16.4639 7.85742C16.6725 7.95783 16.8854 8.07329 17.1055 8.19336L17.79 8.55762C18.4727 8.89896 18.9175 9.15442 19.2432 9.3252C19.5686 9.49582 19.776 9.58203 19.9834 9.58203C20.1907 9.58193 20.3983 9.49576 20.7236 9.3252C20.9679 9.19713 21.279 9.02171 21.707 8.79785L22.1758 8.55762C22.2694 8.51173 22.4377 8.42364 22.6416 8.31738C22.8456 8.21106 23.0861 8.08658 23.3242 7.96777C23.5623 7.84894 23.7984 7.7357 23.9941 7.65234C24.0917 7.61078 24.1792 7.57652 24.252 7.55273C24.3249 7.52892 24.383 7.51565 24.4209 7.51562Z" fill="#3F3D56" stroke="#3F3D56" stroke-width="0.00720305"/>
<path d="M22.1309 4.07227C22.5011 4.07227 22.8252 4.1638 23.0566 4.33301C23.2879 4.50214 23.4268 4.74883 23.4268 5.05957C23.4267 5.58392 23.3218 5.85602 23.0889 6.06152C22.9723 6.16437 22.8233 6.25103 22.6387 6.34375C22.5464 6.39007 22.4453 6.43787 22.335 6.49023L21.9756 6.66406C21.4067 6.94852 21.0147 7.16183 20.7109 7.30371C20.4073 7.44548 20.1917 7.51594 19.9756 7.51465C19.7594 7.51328 19.5416 7.44012 19.2334 7.29492C19.0791 7.22222 18.902 7.1313 18.6914 7.02246L17.9482 6.6416C17.6893 6.51303 17.472 6.41462 17.292 6.32227C17.1121 6.22996 16.9696 6.14404 16.8594 6.04297C16.6395 5.84125 16.5479 5.57671 16.5479 5.06738L16.5537 5.0625L16.5547 5.06348V5.05957C16.5547 4.82957 16.6844 4.58212 16.873 4.39258C17.0615 4.20322 17.3085 4.07242 17.542 4.07227C18.0805 4.07227 18.5718 4.31237 18.9883 4.55273C19.1963 4.67277 19.3865 4.79265 19.5537 4.88281C19.7209 4.97297 19.867 5.03418 19.9873 5.03418C20.0274 5.03414 20.0842 5.01845 20.1533 4.99219C20.2226 4.96586 20.3046 4.92785 20.3955 4.88281C20.5775 4.79264 20.7956 4.67289 21.0166 4.55273C21.2378 4.43251 21.4627 4.31179 21.6592 4.22168C21.7574 4.17666 21.8487 4.13951 21.9287 4.11328C22.0087 4.08706 22.0773 4.07227 22.1309 4.07227Z" fill="#3F3D56" stroke="#3F3D56" stroke-width="0.00720305"/>
<path fill-rule="evenodd" clip-rule="evenodd" d="M2.35938 15.7714C4.51046 -5.29897 34.7504 -5.18885 36.8281 15.8962C36.8281 15.8962 36.7767 16.8653 35.5213 16.6157C31.7257 15.8521 20.6399 16.5349 2.35938 15.7714ZM34.5008 15.1253C34.5008 15.1253 33.6786 9.31078 29.9417 6.44022V14.0901L34.4568 15.3015L34.5008 15.1327V15.1253ZM11.7419 13.7671L27.7686 13.7965V4.59014C27.7686 4.59014 20.7354 -0.644406 11.7125 4.59014L11.7419 13.7671ZM4.9069 15.1253C4.9069 15.1253 5.72916 9.31078 9.46602 6.44022V14.0901L4.95095 15.3015L4.9069 15.1327V15.1253Z" fill="#3F3D56" stroke="#3F3D56" stroke-width="0.0500243"/>
<path fill-rule="evenodd" clip-rule="evenodd" d="M8.06455 15.1484L2.36748 15.7725C2.36748 15.7725 0.179688 16.1542 0.179688 17.1894V34.2733C0.179688 34.2733 1.03131 39.1114 6.13371 39.1701C6.64762 39.1774 7.11748 38.6121 7.11748 38.1056V26.7188V26.293V25.5515L5.8841 23.9216L2.36748 23.327V18.1585L9.89994 16.1396L8.06455 15.1558V15.1484ZM2.63178 25.6322L5.04716 26.1828V36.8281C3.33657 36.0793 2.70519 34.9267 2.69051 33.128L2.63178 25.6322Z" fill="#3F3D56" stroke="#3F3D56" stroke-width="0.0500243"/>
<path fill-rule="evenodd" clip-rule="evenodd" d="M30.8485 15.1484L36.5456 15.7725C36.5456 15.7725 38.7334 16.1542 38.7334 17.1894V34.2733C38.7334 34.2733 37.8818 39.1114 32.7794 39.1701C32.2655 39.1774 31.7956 38.6121 31.7956 38.1056V26.7188V26.293V25.5515L33.029 23.9216L36.5456 23.327V18.1585L29.0131 16.1396L30.8485 15.1558V15.1484ZM36.2813 25.6322L33.8659 26.1828V36.8281C35.5765 36.0793 36.2079 34.9267 36.2226 33.128L36.2813 25.6322Z" fill="#3F3D56" stroke="#3F3D56" stroke-width="0.0500243"/>
<path d="M11.6893 26.2263C14.7425 26.2263 17.2176 23.7513 17.2176 20.6981C17.2176 17.645 14.7425 15.1699 11.6893 15.1699C8.6362 15.1699 6.16113 17.645 6.16113 20.6981C6.16113 23.7513 8.6362 26.2263 11.6893 26.2263Z" stroke="#3F3D56" stroke-width="2.20093"/>
<path d="M27.6727 26.2263C30.7259 26.2263 33.201 23.7513 33.201 20.6981C33.201 17.645 30.7259 15.1699 27.6727 15.1699C24.6196 15.1699 22.1445 17.645 22.1445 20.6981C22.1445 23.7513 24.6196 26.2263 27.6727 26.2263Z" stroke="#3F3D56" stroke-width="2.20093"/>
<path d="M23.0038 20.5293H16.6387V22.5776H23.0038V20.5293Z" fill="#3F3D56" stroke="#3F3D56" stroke-width="0.0500243"/>
</svg>
