<svg width="41" height="41" viewBox="0 0 41 41" fill="none" xmlns="http://www.w3.org/2000/svg">
<mask id="path-1-outside-1_116_42151" maskUnits="userSpaceOnUse" x="0.179688" y="0" width="41" height="41" fill="black">
<rect fill="white" x="0.179688" width="41" height="41"/>
<path fill-rule="evenodd" clip-rule="evenodd" d="M8.22368 28.2498C8.89183 28.6977 9.4889 28.8612 10.5977 28.8612H16.8741C18.7648 28.8612 19.6391 28.1502 20.3641 26.6929C20.6058 26.2094 20.9185 26.1383 21.2099 26.7497C21.3166 26.963 21.3734 27.0412 21.4871 27.2403C22.1695 28.392 23.1433 28.8683 24.6786 28.8683H30.955C32.0567 28.8683 32.6609 28.7048 33.329 28.2569C33.2366 28.6408 33.2224 29.0176 33.13 29.437L32.0283 32.4656C31.417 33.6457 30.6209 34.7192 29.64 35.5865C29.5049 35.7074 29.4267 35.7998 29.2988 35.9349C29.1282 36.0984 29.0856 36.1055 28.9221 36.2406L28.1331 36.8306C27.863 37.0155 27.5716 37.2003 27.2872 37.3638C24.5862 38.9137 22.6102 38.8994 19.6391 38.8994C17.3148 38.8994 14.4645 37.7691 12.6519 36.2477C10.9389 34.8045 10.086 33.7168 9.10507 31.5343C8.97713 31.2499 8.81364 30.8375 8.72835 30.5318L8.43692 29.4441C8.36584 29.11 8.34452 28.4915 8.2379 28.264L8.22368 28.2498ZM19.9234 1.00711H21.345C23.0225 1.07109 24.7213 1.35546 26.5125 1.846C26.8252 1.93131 27.0598 2.00951 27.3868 2.12326C29.3414 2.80575 31.1184 3.86503 32.7533 5.09493C34.2033 6.18265 35.831 7.86754 36.8261 9.36048L37.3166 10.0927C37.7431 10.761 38.2691 11.6354 38.5676 12.3606C40.0389 15.9294 40.3161 17.6072 40.3588 20.4012V24.034C40.3588 24.8373 40.0603 25.5625 39.7759 26.1241C38.7311 28.1787 36.7906 28.8541 34.5445 28.8541C34.445 29.2664 34.3952 29.6787 34.2815 30.1195C34.0327 31.1148 33.5209 32.4869 33.0305 33.3045L31.8363 35.096C31.7155 35.2595 31.6302 35.3875 31.5023 35.5297C30.5214 36.6245 29.0713 37.9113 27.7848 38.544C24.7071 40.0654 23.5413 40.172 20.5347 40.1791H19.4685C17.9474 40.1791 15.4667 39.4824 14.1588 38.7573C13.9598 38.6506 13.8319 38.5866 13.6542 38.4942C12.7586 38.0321 11.4436 36.9302 10.6901 36.2548L9.67371 35.0533C8.70702 33.7594 8.11706 32.7997 7.57686 31.1788C7.17881 29.9702 7.24278 29.9347 6.994 28.8541C6.06997 28.8541 5.28809 28.783 4.61283 28.5555C2.72212 27.9228 1.17969 25.9677 1.17969 24.034V20.0528C1.17969 18.439 1.4569 17.1522 1.74832 15.8015C2.19613 13.7398 3.19835 11.7776 4.28587 10.0003C4.46357 9.70884 4.56308 9.58798 4.74789 9.31072C4.94691 9.00502 5.06064 8.89127 5.27388 8.6069C5.46579 8.35097 5.60084 8.20168 5.78565 7.97418L6.9016 6.72295C8.82786 4.79634 11.6426 2.97637 14.2157 2.10193C16.1917 1.43366 18.054 1.07109 19.9163 1L19.9234 1.00711ZM16.7177 27.5602H10.5196C9.15482 27.5602 8.14549 26.8919 8.14549 25.5696V19.9817C8.14549 19.3845 8.65016 18.7589 9.2188 18.7589H32.3197C32.8812 18.7589 33.393 19.3845 33.393 19.9817V25.5696C33.393 26.0317 33.2437 26.444 32.9949 26.7782C32.9949 26.7782 32.9025 26.8919 32.8883 26.9061C32.4476 27.4038 31.8506 27.5602 31.0189 27.5602H24.8208C23.6693 27.5602 23.0225 27.2971 22.6031 26.5649C22.0487 25.5909 21.9278 25.0364 20.6129 25.0364C19.6106 25.0364 19.2695 25.9606 18.9283 26.5649C18.5089 27.3042 17.8621 27.5602 16.7106 27.5602H16.7177ZM34.6937 27.5602V19.9817C35.6675 19.9817 36.5774 20.0457 37.4161 20.6287C37.9634 21.0054 38.3828 21.5315 38.6742 22.1287C39.1931 23.1738 39.2002 24.489 38.6245 25.5198C37.8213 26.9559 36.556 27.5602 34.6937 27.5602ZM2.48755 23.9629C2.48755 22.2709 3.22678 21.0481 4.67681 20.3372C5.42314 19.9746 6.04154 19.9817 6.84474 19.9817V27.5602C5.48711 27.5602 4.56308 27.2616 3.80963 26.6218C3.09173 26.0175 2.48755 24.9511 2.48755 23.9629ZM8.14549 17.7636C8.14549 15.5526 9.70214 16.4982 12.8936 15.8583C15.687 15.2967 16.9736 14.7493 19.3619 13.4554L20.7621 12.5596C22.731 13.8749 24.4796 14.7706 26.7755 15.4247C28.261 15.8441 29.0003 15.9081 30.5143 16.1285C31.7653 16.3062 33.393 15.7019 33.393 17.7636C32.8599 17.4793 32.4405 17.3797 31.6302 17.3797H9.90116C9.09085 17.3797 8.67148 17.4793 8.13839 17.7636H8.14549ZM6.84474 17.5361V18.6807C5.48711 18.6807 4.25744 18.8513 3.23389 19.6618C2.99933 19.8466 2.70079 20.1381 2.48045 20.2874C2.48045 17.5006 3.241 14.9199 4.1366 12.9933C5.40893 10.2634 6.0131 9.77993 7.77588 7.6827C7.96069 7.46231 8.13128 7.40544 8.35162 7.18505C8.58619 6.95045 8.67148 6.85092 8.94869 6.63764C11.4294 4.69681 13.1779 3.63042 16.3836 2.82708C19.8523 1.95975 23.4276 2.18725 26.7968 3.31051C27.3654 3.50246 27.8985 3.7655 28.4245 3.97878C29.7964 4.54041 32.0638 6.05468 33.1016 7.10685C33.6418 7.65426 33.3148 7.19216 33.9474 7.94574C34.0398 8.05949 34.1109 8.11636 34.2104 8.21589C35.8808 9.85813 37.1744 12.3037 38.0203 14.5005C38.6245 16.0645 39.0438 18.4959 39.0438 20.2803C38.198 19.7116 37.4019 18.6736 35.369 18.6736H34.6795C34.6795 17.4437 34.8146 16.5622 33.9758 15.709C33.4499 15.1759 33.1371 15.0123 32.206 14.8773C31.8079 14.8204 31.417 14.863 31.0118 14.8488C30.3366 14.8275 28.2113 14.4578 27.6498 14.3156L24.7995 13.3417C23.6266 12.8369 22.5747 12.1757 21.5298 11.4862C21.2597 11.3084 21.0322 11.1307 20.7621 10.953C18.6582 12.3606 17.4214 13.2492 14.8838 14.0242C13.7324 14.3796 13.0358 14.5645 11.7421 14.7066C11.3938 14.7493 10.946 14.8346 10.5906 14.8559C9.46047 14.9128 8.56486 14.6924 7.58396 15.6735C7.12905 16.1285 6.83763 16.6475 6.83763 17.529L6.84474 17.5361Z"/>
</mask>
<path fill-rule="evenodd" clip-rule="evenodd" d="M8.22368 28.2498C8.89183 28.6977 9.4889 28.8612 10.5977 28.8612H16.8741C18.7648 28.8612 19.6391 28.1502 20.3641 26.6929C20.6058 26.2094 20.9185 26.1383 21.2099 26.7497C21.3166 26.963 21.3734 27.0412 21.4871 27.2403C22.1695 28.392 23.1433 28.8683 24.6786 28.8683H30.955C32.0567 28.8683 32.6609 28.7048 33.329 28.2569C33.2366 28.6408 33.2224 29.0176 33.13 29.437L32.0283 32.4656C31.417 33.6457 30.6209 34.7192 29.64 35.5865C29.5049 35.7074 29.4267 35.7998 29.2988 35.9349C29.1282 36.0984 29.0856 36.1055 28.9221 36.2406L28.1331 36.8306C27.863 37.0155 27.5716 37.2003 27.2872 37.3638C24.5862 38.9137 22.6102 38.8994 19.6391 38.8994C17.3148 38.8994 14.4645 37.7691 12.6519 36.2477C10.9389 34.8045 10.086 33.7168 9.10507 31.5343C8.97713 31.2499 8.81364 30.8375 8.72835 30.5318L8.43692 29.4441C8.36584 29.11 8.34452 28.4915 8.2379 28.264L8.22368 28.2498ZM19.9234 1.00711H21.345C23.0225 1.07109 24.7213 1.35546 26.5125 1.846C26.8252 1.93131 27.0598 2.00951 27.3868 2.12326C29.3414 2.80575 31.1184 3.86503 32.7533 5.09493C34.2033 6.18265 35.831 7.86754 36.8261 9.36048L37.3166 10.0927C37.7431 10.761 38.2691 11.6354 38.5676 12.3606C40.0389 15.9294 40.3161 17.6072 40.3588 20.4012V24.034C40.3588 24.8373 40.0603 25.5625 39.7759 26.1241C38.7311 28.1787 36.7906 28.8541 34.5445 28.8541C34.445 29.2664 34.3952 29.6787 34.2815 30.1195C34.0327 31.1148 33.5209 32.4869 33.0305 33.3045L31.8363 35.096C31.7155 35.2595 31.6302 35.3875 31.5023 35.5297C30.5214 36.6245 29.0713 37.9113 27.7848 38.544C24.7071 40.0654 23.5413 40.172 20.5347 40.1791H19.4685C17.9474 40.1791 15.4667 39.4824 14.1588 38.7573C13.9598 38.6506 13.8319 38.5866 13.6542 38.4942C12.7586 38.0321 11.4436 36.9302 10.6901 36.2548L9.67371 35.0533C8.70702 33.7594 8.11706 32.7997 7.57686 31.1788C7.17881 29.9702 7.24278 29.9347 6.994 28.8541C6.06997 28.8541 5.28809 28.783 4.61283 28.5555C2.72212 27.9228 1.17969 25.9677 1.17969 24.034V20.0528C1.17969 18.439 1.4569 17.1522 1.74832 15.8015C2.19613 13.7398 3.19835 11.7776 4.28587 10.0003C4.46357 9.70884 4.56308 9.58798 4.74789 9.31072C4.94691 9.00502 5.06064 8.89127 5.27388 8.6069C5.46579 8.35097 5.60084 8.20168 5.78565 7.97418L6.9016 6.72295C8.82786 4.79634 11.6426 2.97637 14.2157 2.10193C16.1917 1.43366 18.054 1.07109 19.9163 1L19.9234 1.00711ZM16.7177 27.5602H10.5196C9.15482 27.5602 8.14549 26.8919 8.14549 25.5696V19.9817C8.14549 19.3845 8.65016 18.7589 9.2188 18.7589H32.3197C32.8812 18.7589 33.393 19.3845 33.393 19.9817V25.5696C33.393 26.0317 33.2437 26.444 32.9949 26.7782C32.9949 26.7782 32.9025 26.8919 32.8883 26.9061C32.4476 27.4038 31.8506 27.5602 31.0189 27.5602H24.8208C23.6693 27.5602 23.0225 27.2971 22.6031 26.5649C22.0487 25.5909 21.9278 25.0364 20.6129 25.0364C19.6106 25.0364 19.2695 25.9606 18.9283 26.5649C18.5089 27.3042 17.8621 27.5602 16.7106 27.5602H16.7177ZM34.6937 27.5602V19.9817C35.6675 19.9817 36.5774 20.0457 37.4161 20.6287C37.9634 21.0054 38.3828 21.5315 38.6742 22.1287C39.1931 23.1738 39.2002 24.489 38.6245 25.5198C37.8213 26.9559 36.556 27.5602 34.6937 27.5602ZM2.48755 23.9629C2.48755 22.2709 3.22678 21.0481 4.67681 20.3372C5.42314 19.9746 6.04154 19.9817 6.84474 19.9817V27.5602C5.48711 27.5602 4.56308 27.2616 3.80963 26.6218C3.09173 26.0175 2.48755 24.9511 2.48755 23.9629ZM8.14549 17.7636C8.14549 15.5526 9.70214 16.4982 12.8936 15.8583C15.687 15.2967 16.9736 14.7493 19.3619 13.4554L20.7621 12.5596C22.731 13.8749 24.4796 14.7706 26.7755 15.4247C28.261 15.8441 29.0003 15.9081 30.5143 16.1285C31.7653 16.3062 33.393 15.7019 33.393 17.7636C32.8599 17.4793 32.4405 17.3797 31.6302 17.3797H9.90116C9.09085 17.3797 8.67148 17.4793 8.13839 17.7636H8.14549ZM6.84474 17.5361V18.6807C5.48711 18.6807 4.25744 18.8513 3.23389 19.6618C2.99933 19.8466 2.70079 20.1381 2.48045 20.2874C2.48045 17.5006 3.241 14.9199 4.1366 12.9933C5.40893 10.2634 6.0131 9.77993 7.77588 7.6827C7.96069 7.46231 8.13128 7.40544 8.35162 7.18505C8.58619 6.95045 8.67148 6.85092 8.94869 6.63764C11.4294 4.69681 13.1779 3.63042 16.3836 2.82708C19.8523 1.95975 23.4276 2.18725 26.7968 3.31051C27.3654 3.50246 27.8985 3.7655 28.4245 3.97878C29.7964 4.54041 32.0638 6.05468 33.1016 7.10685C33.6418 7.65426 33.3148 7.19216 33.9474 7.94574C34.0398 8.05949 34.1109 8.11636 34.2104 8.21589C35.8808 9.85813 37.1744 12.3037 38.0203 14.5005C38.6245 16.0645 39.0438 18.4959 39.0438 20.2803C38.198 19.7116 37.4019 18.6736 35.369 18.6736H34.6795C34.6795 17.4437 34.8146 16.5622 33.9758 15.709C33.4499 15.1759 33.1371 15.0123 32.206 14.8773C31.8079 14.8204 31.417 14.863 31.0118 14.8488C30.3366 14.8275 28.2113 14.4578 27.6498 14.3156L24.7995 13.3417C23.6266 12.8369 22.5747 12.1757 21.5298 11.4862C21.2597 11.3084 21.0322 11.1307 20.7621 10.953C18.6582 12.3606 17.4214 13.2492 14.8838 14.0242C13.7324 14.3796 13.0358 14.5645 11.7421 14.7066C11.3938 14.7493 10.946 14.8346 10.5906 14.8559C9.46047 14.9128 8.56486 14.6924 7.58396 15.6735C7.12905 16.1285 6.83763 16.6475 6.83763 17.529L6.84474 17.5361Z" fill="#3F3D56"/>
<path fill-rule="evenodd" clip-rule="evenodd" d="M8.22368 28.2498C8.89183 28.6977 9.4889 28.8612 10.5977 28.8612H16.8741C18.7648 28.8612 19.6391 28.1502 20.3641 26.6929C20.6058 26.2094 20.9185 26.1383 21.2099 26.7497C21.3166 26.963 21.3734 27.0412 21.4871 27.2403C22.1695 28.392 23.1433 28.8683 24.6786 28.8683H30.955C32.0567 28.8683 32.6609 28.7048 33.329 28.2569C33.2366 28.6408 33.2224 29.0176 33.13 29.437L32.0283 32.4656C31.417 33.6457 30.6209 34.7192 29.64 35.5865C29.5049 35.7074 29.4267 35.7998 29.2988 35.9349C29.1282 36.0984 29.0856 36.1055 28.9221 36.2406L28.1331 36.8306C27.863 37.0155 27.5716 37.2003 27.2872 37.3638C24.5862 38.9137 22.6102 38.8994 19.6391 38.8994C17.3148 38.8994 14.4645 37.7691 12.6519 36.2477C10.9389 34.8045 10.086 33.7168 9.10507 31.5343C8.97713 31.2499 8.81364 30.8375 8.72835 30.5318L8.43692 29.4441C8.36584 29.11 8.34452 28.4915 8.2379 28.264L8.22368 28.2498ZM19.9234 1.00711H21.345C23.0225 1.07109 24.7213 1.35546 26.5125 1.846C26.8252 1.93131 27.0598 2.00951 27.3868 2.12326C29.3414 2.80575 31.1184 3.86503 32.7533 5.09493C34.2033 6.18265 35.831 7.86754 36.8261 9.36048L37.3166 10.0927C37.7431 10.761 38.2691 11.6354 38.5676 12.3606C40.0389 15.9294 40.3161 17.6072 40.3588 20.4012V24.034C40.3588 24.8373 40.0603 25.5625 39.7759 26.1241C38.7311 28.1787 36.7906 28.8541 34.5445 28.8541C34.445 29.2664 34.3952 29.6787 34.2815 30.1195C34.0327 31.1148 33.5209 32.4869 33.0305 33.3045L31.8363 35.096C31.7155 35.2595 31.6302 35.3875 31.5023 35.5297C30.5214 36.6245 29.0713 37.9113 27.7848 38.544C24.7071 40.0654 23.5413 40.172 20.5347 40.1791H19.4685C17.9474 40.1791 15.4667 39.4824 14.1588 38.7573C13.9598 38.6506 13.8319 38.5866 13.6542 38.4942C12.7586 38.0321 11.4436 36.9302 10.6901 36.2548L9.67371 35.0533C8.70702 33.7594 8.11706 32.7997 7.57686 31.1788C7.17881 29.9702 7.24278 29.9347 6.994 28.8541C6.06997 28.8541 5.28809 28.783 4.61283 28.5555C2.72212 27.9228 1.17969 25.9677 1.17969 24.034V20.0528C1.17969 18.439 1.4569 17.1522 1.74832 15.8015C2.19613 13.7398 3.19835 11.7776 4.28587 10.0003C4.46357 9.70884 4.56308 9.58798 4.74789 9.31072C4.94691 9.00502 5.06064 8.89127 5.27388 8.6069C5.46579 8.35097 5.60084 8.20168 5.78565 7.97418L6.9016 6.72295C8.82786 4.79634 11.6426 2.97637 14.2157 2.10193C16.1917 1.43366 18.054 1.07109 19.9163 1L19.9234 1.00711ZM16.7177 27.5602H10.5196C9.15482 27.5602 8.14549 26.8919 8.14549 25.5696V19.9817C8.14549 19.3845 8.65016 18.7589 9.2188 18.7589H32.3197C32.8812 18.7589 33.393 19.3845 33.393 19.9817V25.5696C33.393 26.0317 33.2437 26.444 32.9949 26.7782C32.9949 26.7782 32.9025 26.8919 32.8883 26.9061C32.4476 27.4038 31.8506 27.5602 31.0189 27.5602H24.8208C23.6693 27.5602 23.0225 27.2971 22.6031 26.5649C22.0487 25.5909 21.9278 25.0364 20.6129 25.0364C19.6106 25.0364 19.2695 25.9606 18.9283 26.5649C18.5089 27.3042 17.8621 27.5602 16.7106 27.5602H16.7177ZM34.6937 27.5602V19.9817C35.6675 19.9817 36.5774 20.0457 37.4161 20.6287C37.9634 21.0054 38.3828 21.5315 38.6742 22.1287C39.1931 23.1738 39.2002 24.489 38.6245 25.5198C37.8213 26.9559 36.556 27.5602 34.6937 27.5602ZM2.48755 23.9629C2.48755 22.2709 3.22678 21.0481 4.67681 20.3372C5.42314 19.9746 6.04154 19.9817 6.84474 19.9817V27.5602C5.48711 27.5602 4.56308 27.2616 3.80963 26.6218C3.09173 26.0175 2.48755 24.9511 2.48755 23.9629ZM8.14549 17.7636C8.14549 15.5526 9.70214 16.4982 12.8936 15.8583C15.687 15.2967 16.9736 14.7493 19.3619 13.4554L20.7621 12.5596C22.731 13.8749 24.4796 14.7706 26.7755 15.4247C28.261 15.8441 29.0003 15.9081 30.5143 16.1285C31.7653 16.3062 33.393 15.7019 33.393 17.7636C32.8599 17.4793 32.4405 17.3797 31.6302 17.3797H9.90116C9.09085 17.3797 8.67148 17.4793 8.13839 17.7636H8.14549ZM6.84474 17.5361V18.6807C5.48711 18.6807 4.25744 18.8513 3.23389 19.6618C2.99933 19.8466 2.70079 20.1381 2.48045 20.2874C2.48045 17.5006 3.241 14.9199 4.1366 12.9933C5.40893 10.2634 6.0131 9.77993 7.77588 7.6827C7.96069 7.46231 8.13128 7.40544 8.35162 7.18505C8.58619 6.95045 8.67148 6.85092 8.94869 6.63764C11.4294 4.69681 13.1779 3.63042 16.3836 2.82708C19.8523 1.95975 23.4276 2.18725 26.7968 3.31051C27.3654 3.50246 27.8985 3.7655 28.4245 3.97878C29.7964 4.54041 32.0638 6.05468 33.1016 7.10685C33.6418 7.65426 33.3148 7.19216 33.9474 7.94574C34.0398 8.05949 34.1109 8.11636 34.2104 8.21589C35.8808 9.85813 37.1744 12.3037 38.0203 14.5005C38.6245 16.0645 39.0438 18.4959 39.0438 20.2803C38.198 19.7116 37.4019 18.6736 35.369 18.6736H34.6795C34.6795 17.4437 34.8146 16.5622 33.9758 15.709C33.4499 15.1759 33.1371 15.0123 32.206 14.8773C31.8079 14.8204 31.417 14.863 31.0118 14.8488C30.3366 14.8275 28.2113 14.4578 27.6498 14.3156L24.7995 13.3417C23.6266 12.8369 22.5747 12.1757 21.5298 11.4862C21.2597 11.3084 21.0322 11.1307 20.7621 10.953C18.6582 12.3606 17.4214 13.2492 14.8838 14.0242C13.7324 14.3796 13.0358 14.5645 11.7421 14.7066C11.3938 14.7493 10.946 14.8346 10.5906 14.8559C9.46047 14.9128 8.56486 14.6924 7.58396 15.6735C7.12905 16.1285 6.83763 16.6475 6.83763 17.529L6.84474 17.5361Z" stroke="#3F3D56" stroke-width="0.783582" mask="url(#path-1-outside-1_116_42151)"/>
<path d="M16.3633 20.8418C16.7753 20.8418 17.1067 20.9276 17.332 21.1514C17.5576 21.3756 17.6445 21.7059 17.6445 22.1162C17.6445 22.2906 17.6495 22.4675 17.6533 22.6455C17.6571 22.8228 17.6604 23.0013 17.6592 23.1758C17.6568 23.523 17.6359 23.8653 17.5557 24.167C17.4747 24.4709 17.3303 24.7446 17.0762 24.9395C16.8224 25.1339 16.4774 25.2363 16.0225 25.2363H12.4561C12.1239 25.2363 11.8172 25.1648 11.5898 24.9941C11.3556 24.8181 11.2246 24.5499 11.2246 24.2041V21.873C11.2246 21.5273 11.3556 21.26 11.5898 21.084C11.8173 20.9131 12.1237 20.8418 12.4561 20.8418H16.3633ZM12.3682 24.0928H15.9727C16.1363 24.0928 16.2643 24.0782 16.3477 24.0391C16.3859 24.0211 16.4093 24 16.4238 23.9775C16.4381 23.9553 16.4512 23.9201 16.4512 23.8613V22.0293H12.3682V24.0928Z" fill="#3F3D56" stroke="#3F3D56" stroke-width="0.313433"/>
<path d="M29.833 20.8418C30.245 20.8418 30.5764 20.9276 30.8018 21.1514C31.0273 21.3756 31.1142 21.7059 31.1143 22.1162C31.1143 22.2906 31.1192 22.4675 31.123 22.6455C31.1269 22.8228 31.1301 23.0013 31.1289 23.1758C31.1265 23.523 31.1057 23.8653 31.0254 24.167C30.9444 24.4709 30.8 24.7446 30.5459 24.9395C30.2922 25.1339 29.9471 25.2363 29.4922 25.2363H25.9258C25.5936 25.2363 25.2869 25.1648 25.0596 24.9941C24.8253 24.8181 24.6943 24.5499 24.6943 24.2041V21.873C24.6943 21.5273 24.8253 21.26 25.0596 21.084C25.287 20.9131 25.5934 20.8418 25.9258 20.8418H29.833ZM25.8379 24.0928H29.4424C29.606 24.0928 29.734 24.0782 29.8174 24.0391C29.8556 24.0211 29.879 24 29.8936 23.9775C29.9079 23.9553 29.9209 23.9201 29.9209 23.8613V22.0293H25.8379V24.0928Z" fill="#3F3D56" stroke="#3F3D56" stroke-width="0.313433"/>
<path d="M17.9014 30.9912V31.1875C17.9014 32.387 18.6391 33.4416 19.6328 33.835H19.6338L19.8135 33.9014C20.7049 34.2049 21.4883 34.0684 22.2979 33.5645L22.4404 33.4648C22.7733 33.2101 23.0892 32.8154 23.2627 32.459L23.2637 32.457L23.3438 32.2881C23.4156 32.1284 23.4628 31.9923 23.4941 31.8535C23.5361 31.6675 23.5518 31.4673 23.5518 31.1875V30.9912H24.9922V31.1875C24.9922 32.2169 24.7458 33.0053 24.1494 33.7764L24.1484 33.7754C22.7815 35.5489 20.8538 35.8194 19.2754 35.2256C17.7104 34.6368 16.4611 33.1859 16.4609 31.4971V30.9912H17.9014Z" fill="#3F3D56" stroke="#3F3D56" stroke-width="0.391791"/>
<path d="M20.9219 4.97949V6.41992H20.7256C18.8502 6.41993 16.4683 6.97616 15.1289 7.72949L15.127 7.73047C14.8218 7.898 14.5301 8.03715 14.2695 8.20898L14.2686 8.20801C13.5461 8.68766 13.3552 8.77107 12.7148 9.32715L12.6016 9.42578L12.4766 9.3418C12.3652 9.26631 12.1955 9.09607 12.0537 8.93262C11.9806 8.84831 11.9096 8.75969 11.8525 8.67773C11.8299 8.64524 11.8079 8.60925 11.7871 8.57324H11.498L11.752 8.25488C11.8136 8.17788 11.8961 8.11055 11.9707 8.05371C12.009 8.02452 12.0486 7.99579 12.0859 7.96875C12.124 7.94121 12.1597 7.91519 12.1934 7.88965L12.1953 7.8877L12.5859 7.60156C13.4826 6.95755 14.2963 6.472 15.4473 6.01367L16.084 5.77441C17.5674 5.25194 19.0381 4.9795 20.7256 4.97949H20.9219Z" fill="#3F3D56" stroke="#3F3D56" stroke-width="0.391791"/>
<path d="M11.2393 8.99219L11.9316 9.71875L12.0381 9.83105L11.9551 9.95996C11.896 10.0518 11.837 10.1195 11.7783 10.1787L11.6025 10.3477C11.4707 10.4795 11.4503 10.5317 11.334 10.7031L11.2549 10.8193L11.1201 10.7822C10.8696 10.7142 10.7397 10.5917 10.623 10.4727C10.5417 10.3897 10.4663 10.309 10.3486 10.2285L10.2148 10.1475L10.0215 10.0449L10.1445 9.86426C10.3656 9.53851 10.6471 9.1854 10.9902 8.96289L11.127 8.87402L11.2393 8.99219Z" fill="#3F3D56" stroke="#3F3D56" stroke-width="0.391791"/>
</svg>
