<svg width="41" height="41" viewBox="0 0 41 41" fill="none" xmlns="http://www.w3.org/2000/svg">
<path d="M9.39355 20.2622V12.6722C9.41609 11.1803 9.7328 9.70749 10.3255 8.33818C10.9182 6.96887 11.7753 5.72997 12.8477 4.69247C13.92 3.65497 15.1866 2.83927 16.5747 2.29209C17.9628 1.74492 19.4453 1.47703 20.9372 1.50378V1.50378C22.429 1.47703 23.9115 1.74492 25.2996 2.29209C26.6878 2.83927 27.9543 3.65497 29.0266 4.69247C30.099 5.72997 30.9561 6.96887 31.5488 8.33818C32.1415 9.70749 32.4582 11.1803 32.4808 12.6722V20.2622" stroke="#3F3D56" stroke-width="2.53452" stroke-linecap="round" stroke-linejoin="round"/>
<path d="M5.06559 15.9336H7.9515C8.33419 15.9336 8.70121 16.0856 8.97182 16.3562C9.24242 16.6268 9.39445 16.9939 9.39445 17.3765V26.0343C9.39445 26.417 9.24242 26.784 8.97182 27.0546C8.70121 27.3252 8.33419 27.4772 7.9515 27.4772H5.06559C4.3002 27.4772 3.56616 27.1732 3.02495 26.6319C2.48374 26.0907 2.17969 25.3567 2.17969 24.5913V18.8195C2.17969 18.0541 2.48374 17.3201 3.02495 16.7789C3.56616 16.2376 4.3002 15.9336 5.06559 15.9336V15.9336Z" stroke="#3F3D56" stroke-width="2.53452" stroke-linecap="round" stroke-linejoin="round"/>
<path d="M36.8104 27.4766H33.9245C33.5418 27.4766 33.1748 27.3245 32.9042 27.0539C32.6336 26.7833 32.4815 26.4163 32.4815 26.0336V17.3759C32.4815 16.9932 32.6336 16.6262 32.9042 16.3556C33.1748 16.085 33.5418 15.9329 33.9245 15.9329H36.8104C37.5758 15.9329 38.3098 16.237 38.851 16.7782C39.3922 17.3194 39.6963 18.0535 39.6963 18.8189V24.5907C39.6963 25.356 39.3922 26.0901 38.851 26.6313C38.3098 27.1725 37.5758 27.4766 36.8104 27.4766V27.4766Z" stroke="#3F3D56" stroke-width="2.53452" stroke-linecap="round" stroke-linejoin="round"/>
<path d="M26.709 35.4135C28.2398 35.4135 29.7078 34.8054 30.7903 33.723C31.8727 32.6406 32.4808 31.1725 32.4808 29.6417V23.1484" stroke="#3F3D56" stroke-width="2.53452" stroke-linecap="round" stroke-linejoin="round"/>
<path d="M26.7087 35.414C26.7087 36.3708 26.3286 37.2883 25.6521 37.9648C24.9756 38.6413 24.058 39.0214 23.1013 39.0214H18.7724C17.8157 39.0214 16.8981 38.6413 16.2216 37.9648C15.5451 37.2883 15.165 36.3708 15.165 35.414C15.165 34.4573 15.5451 33.5397 16.2216 32.8632C16.8981 32.1867 17.8157 31.8066 18.7724 31.8066H23.1013C24.058 31.8066 24.9756 32.1867 25.6521 32.8632C26.3286 33.5397 26.7087 34.4573 26.7087 35.414Z" stroke="#3F3D56" stroke-width="2.53452" stroke-linecap="round" stroke-linejoin="round"/>
</svg>
