<svg width="58" height="38" viewBox="0 0 58 38" fill="none" xmlns="http://www.w3.org/2000/svg">
<path d="M51.4178 11.9461L50.9521 12.0708L48.1081 10.4289C47.3494 9.99081 46.4648 9.87534 45.6167 10.1026L34.5583 13.0657L23.654 7.70313C23.4754 7.61507 23.2726 7.5951 23.0784 7.64712L18.323 8.92133C18.0139 9.00416 17.7808 9.25986 17.7254 9.57626C17.672 9.89214 17.8063 10.2108 18.0716 10.3925L25.5158 15.4909L9.19829 19.8611L6.77293 16.7775C6.6128 16.5762 6.36953 16.4609 6.1153 16.4632L2.73265 16.5201C2.44909 16.5239 2.18792 16.6745 2.04273 16.9173C1.89556 17.1606 1.8872 17.4623 2.01633 17.7144L5.37698 24.2806L4.65969 24.4728C4.22179 24.5901 3.96215 25.0398 4.07948 25.4777C4.19682 25.9156 4.64653 26.1752 5.08442 26.0579L6.18215 25.7638C7.34659 27.4544 9.49257 28.2746 11.5136 27.7331L27.6465 23.4103L23.7488 31.5478C23.6113 31.8353 23.6529 32.1809 23.8571 32.4278C24.0633 32.6741 24.391 32.7795 24.7021 32.6962L29.4575 31.422C29.6497 31.3705 29.8154 31.2517 29.928 31.0856L36.6901 20.9894L55.0736 16.0636C55.5115 15.9462 55.7711 15.4965 55.6538 15.0586L55.4414 14.2661C54.9732 12.5185 53.1693 11.477 51.4217 11.9453L51.4178 11.9461ZM20.4753 10.0434L23.2097 9.31074L32.1546 13.7097L27.6093 14.9277L20.4753 10.0434ZM28.7313 29.9175L25.9969 30.6502L31.5999 18.9552L37.0528 17.4941L28.7313 29.9175ZM38.0723 18.9199L39.6319 16.5928C39.8212 16.3085 39.8169 15.9358 39.6172 15.6581C39.4194 15.3797 39.067 15.2533 38.7381 15.3415L30.8124 17.4651C30.5826 17.5267 30.3877 17.6872 30.2844 17.9039L28.5788 21.4615L11.0875 26.1504C9.9403 26.4578 8.73319 26.1059 7.92054 25.3001L11.4237 24.3614C11.8616 24.2441 12.1212 23.7944 12.0039 23.3565C11.8865 22.9186 11.4368 22.6589 10.9989 22.7763L6.99449 23.8492L4.0741 18.1415L5.73357 18.1131L8.24233 21.3018C8.44521 21.5596 8.78295 21.6708 9.09998 21.5859L46.0456 11.6863C46.4676 11.5732 46.91 11.631 47.2918 11.8515L48.7138 12.6724L46.665 13.2214C46.2271 13.3388 45.9675 13.7885 46.0848 14.2264C46.2021 14.6643 46.6518 14.9239 47.0897 14.8066L51.8451 13.5324C52.719 13.2982 53.6209 13.8189 53.855 14.6928L38.0752 18.9209L38.0723 18.9199Z" fill="#3F3D56" stroke="#3F3D56" stroke-width="0.7"/>
</svg>
