<svg width="93" height="93" viewBox="0 0 93 93" fill="none" xmlns="http://www.w3.org/2000/svg">
<circle cx="46.5" cy="46.5" r="46.5" fill="#3F3D56"/>
<g filter="url(#filter0_d_116_42197)">
<path d="M46.9461 25.0625C46.0267 25.0625 45.3237 25.7766 45.3237 26.7104V33.4672C41.8625 34.0714 38.8876 36.4879 37.0489 39.8935H28.5585C27.6392 39.8935 26.9361 40.6076 26.9361 41.5414C26.9361 42.4752 27.6392 43.1893 28.5585 43.1893H35.7518C35.3191 44.7273 35.0483 46.3752 35.0483 48.1329C35.0483 49.8907 35.265 51.5386 35.7518 53.0766H14.4974C13.5781 53.0766 12.875 53.7907 12.875 54.7245C12.875 55.6583 13.5781 56.3724 14.4974 56.3724H19.7978C19.5274 57.0315 19.3647 57.8005 19.3647 58.5695C19.3647 61.5907 21.7984 64.0625 24.7729 64.0625C27.7473 64.0625 30.181 61.5907 30.181 58.5695C30.181 57.8005 30.0183 57.0315 29.7479 56.3724H37.1038C39.267 60.3273 42.8898 62.9639 47 62.9639C51.1102 62.9639 54.734 60.3273 56.8973 56.3724H64.2521C63.9817 57.0315 63.819 57.8005 63.819 58.5695C63.819 61.5907 66.2527 64.0625 69.2271 64.0625C72.2016 64.0625 74.6353 61.5907 74.6353 58.5695C74.6353 57.8005 74.4737 57.0315 74.2032 56.3724H79.5026C80.4219 56.3724 81.125 55.6583 81.125 54.7245C81.125 53.7907 80.4219 53.0766 79.5026 53.0766H58.1405C58.5732 51.5386 58.844 49.8907 58.844 48.1329C58.844 46.3752 58.6272 44.7273 58.1405 43.1893H65.3337C66.2531 43.1893 66.9562 42.4752 66.9562 41.5414C66.9562 40.6076 66.2531 39.8935 65.3337 39.8935H56.8434C55.0046 36.4329 52.0298 34.0164 48.5686 33.4672V26.7104C48.5686 25.7766 47.8655 25.0625 46.9461 25.0625ZM46.9461 36.5977C51.7053 36.5977 55.5991 41.7611 55.5991 48.1329C55.5991 54.5048 51.7053 59.6681 46.9461 59.6681C42.187 59.6681 38.2931 54.5048 38.2931 48.1329C38.2931 41.7611 42.187 36.5977 46.9461 36.5977ZM42.6196 43.7386C41.7003 43.7386 40.9972 44.4526 40.9972 45.3864C40.9972 46.3202 41.7003 47.0343 42.6196 47.0343H51.2726C52.192 47.0343 52.8951 46.3202 52.8951 45.3864C52.8951 44.4526 52.192 43.7386 51.2726 43.7386H42.6196ZM24.7729 56.3724C25.9626 56.3724 26.9361 57.3611 26.9361 58.5695C26.9361 59.778 25.9626 60.7667 24.7729 60.7667C23.5831 60.7667 22.6096 59.778 22.6096 58.5695C22.6096 57.3611 23.5831 56.3724 24.7729 56.3724ZM69.1194 56.3724C70.3092 56.3724 71.2826 57.3611 71.2826 58.5695C71.2826 59.778 70.3092 60.7667 69.1194 60.7667C67.9296 60.7667 66.9562 59.778 66.9562 58.5695C66.9562 57.3611 67.9296 56.3724 69.1194 56.3724Z" fill="white"/>
</g>
<defs>
<filter id="filter0_d_116_42197" x="4.875" y="19.0625" width="84.25" height="55" filterUnits="userSpaceOnUse" color-interpolation-filters="sRGB">
<feFlood flood-opacity="0" result="BackgroundImageFix"/>
<feColorMatrix in="SourceAlpha" type="matrix" values="0 0 0 0 0 0 0 0 0 0 0 0 0 0 0 0 0 0 127 0" result="hardAlpha"/>
<feOffset dy="2"/>
<feGaussianBlur stdDeviation="4"/>
<feColorMatrix type="matrix" values="0 0 0 0 0.167639 0 0 0 0 0.227481 0 0 0 0 0.283333 0 0 0 0.06 0"/>
<feBlend mode="normal" in2="BackgroundImageFix" result="effect1_dropShadow_116_42197"/>
<feBlend mode="normal" in="SourceGraphic" in2="effect1_dropShadow_116_42197" result="shape"/>
</filter>
</defs>
</svg>
