<svg width="48" height="43" viewBox="0 0 48 43" fill="none" xmlns="http://www.w3.org/2000/svg">
<rect x="3" width="43" height="43" rx="21.5" fill="#3F3D56"/>
<g filter="url(#filter0_d_116_37932)">
<path d="M24.0072 11.3564C23.5821 11.3564 23.2571 11.6866 23.2571 12.1184V15.2425C21.6567 15.5218 20.2812 16.6391 19.4311 18.2138H15.5054C15.0803 18.2138 14.7553 18.544 14.7553 18.9757C14.7553 19.4075 15.0803 19.7376 15.5054 19.7376H18.8313C18.6313 20.4488 18.5061 21.2107 18.5061 22.0234C18.5061 22.8361 18.6063 23.5981 18.8313 24.3092H9.00406C8.57897 24.3092 8.25391 24.6394 8.25391 25.0711C8.25391 25.5029 8.57897 25.833 9.00406 25.833H11.4548C11.3297 26.1378 11.2545 26.4934 11.2545 26.8489C11.2545 28.2458 12.3798 29.3887 13.7551 29.3887C15.1304 29.3887 16.2556 28.2458 16.2556 26.8489C16.2556 26.4934 16.1804 26.1378 16.0554 25.833H19.4565C20.4567 27.6617 22.1317 28.8808 24.0321 28.8808C25.9325 28.8808 27.6081 27.6617 28.6083 25.833H32.0089C31.8839 26.1378 31.8087 26.4934 31.8087 26.8489C31.8087 28.2458 32.9339 29.3887 34.3092 29.3887C35.6845 29.3887 36.8097 28.2458 36.8097 26.8489C36.8097 26.4934 36.735 26.1378 36.61 25.833H39.0602C39.4853 25.833 39.8104 25.5029 39.8104 25.0711C39.8104 24.6394 39.4853 24.3092 39.0602 24.3092H29.1831C29.3832 23.5981 29.5084 22.8361 29.5084 22.0234C29.5084 21.2107 29.4082 20.4488 29.1831 19.7376H32.509C32.9341 19.7376 33.2592 19.4075 33.2592 18.9757C33.2592 18.544 32.9341 18.2138 32.509 18.2138H28.5834C27.7332 16.6137 26.3577 15.4964 24.7574 15.2425V12.1184C24.7574 11.6866 24.4323 11.3564 24.0072 11.3564ZM24.0072 16.6899C26.2077 16.6899 28.0081 19.0773 28.0081 22.0234C28.0081 24.9695 26.2077 27.3569 24.0072 27.3569C21.8068 27.3569 20.0064 24.9695 20.0064 22.0234C20.0064 19.0773 21.8068 16.6899 24.0072 16.6899ZM22.0068 19.9916C21.5817 19.9916 21.2566 20.3218 21.2566 20.7535C21.2566 21.1853 21.5817 21.5155 22.0068 21.5155H26.0076C26.4327 21.5155 26.7578 21.1853 26.7578 20.7535C26.7578 20.3218 26.4327 19.9916 26.0076 19.9916H22.0068ZM13.7551 25.833C14.3052 25.833 14.7553 26.2902 14.7553 26.8489C14.7553 27.4077 14.3052 27.8649 13.7551 27.8649C13.2049 27.8649 12.7549 27.4077 12.7549 26.8489C12.7549 26.2902 13.2049 25.833 13.7551 25.833ZM34.2594 25.833C34.8095 25.833 35.2596 26.2902 35.2596 26.8489C35.2596 27.4077 34.8095 27.8649 34.2594 27.8649C33.7093 27.8649 33.2592 27.4077 33.2592 26.8489C33.2592 26.2902 33.7093 25.833 34.2594 25.833Z" fill="white"/>
</g>
<defs>
<filter id="filter0_d_116_37932" x="0.253906" y="5.35645" width="47.5566" height="34.0322" filterUnits="userSpaceOnUse" color-interpolation-filters="sRGB">
<feFlood flood-opacity="0" result="BackgroundImageFix"/>
<feColorMatrix in="SourceAlpha" type="matrix" values="0 0 0 0 0 0 0 0 0 0 0 0 0 0 0 0 0 0 127 0" result="hardAlpha"/>
<feOffset dy="2"/>
<feGaussianBlur stdDeviation="4"/>
<feColorMatrix type="matrix" values="0 0 0 0 0.167639 0 0 0 0 0.227481 0 0 0 0 0.283333 0 0 0 0.06 0"/>
<feBlend mode="normal" in2="BackgroundImageFix" result="effect1_dropShadow_116_37932"/>
<feBlend mode="normal" in="SourceGraphic" in2="effect1_dropShadow_116_37932" result="shape"/>
</filter>
</defs>
</svg>
