<svg width="331" height="321" viewBox="0 0 331 321" fill="none" xmlns="http://www.w3.org/2000/svg">
<path d="M548.83 320.857H41.854C40.0369 320.855 38.2947 320.133 37.0097 318.848C35.7248 317.563 35.002 315.821 35 314.003V3.05176e-05H555.684V314.003C555.682 315.821 554.959 317.563 553.674 318.848C552.389 320.133 550.647 320.855 548.83 320.857Z" fill="#E1E4EA"/>
<path d="M533.964 301.235H56.7199C54.8829 301.233 53.1218 300.502 51.8229 299.203C50.524 297.904 49.7933 296.143 49.7913 294.306V35.713C49.7934 33.876 50.5241 32.1149 51.823 30.816C53.1219 29.5171 54.883 28.7865 56.7199 28.7844H533.964C535.801 28.7864 537.562 29.517 538.861 30.8159C540.16 32.1149 540.891 33.876 540.893 35.713V294.306C540.891 296.143 540.16 297.904 538.861 299.203C537.562 300.502 535.801 301.233 533.964 301.235Z" fill="white"/>
<path d="M50.491 19.1393C52.7518 19.1393 54.5845 17.3066 54.5845 15.0458C54.5845 12.785 52.7518 10.9523 50.491 10.9523C48.2302 10.9523 46.3974 12.785 46.3974 15.0458C46.3974 17.3066 48.2302 19.1393 50.491 19.1393Z" fill="white"/>
<path d="M66.0291 19.1393C68.2899 19.1393 70.1226 17.3066 70.1226 15.0458C70.1226 12.785 68.2899 10.9523 66.0291 10.9523C63.7683 10.9523 61.9356 12.785 61.9356 15.0458C61.9356 17.3066 63.7683 19.1393 66.0291 19.1393Z" fill="white"/>
<path d="M81.567 19.1393C83.8277 19.1393 85.6605 17.3066 85.6605 15.0458C85.6605 12.785 83.8277 10.9523 81.567 10.9523C79.3062 10.9523 77.4734 12.785 77.4734 15.0458C77.4734 17.3066 79.3062 19.1393 81.567 19.1393Z" fill="white"/>
<path d="M148.028 75.155H98.8407V96.9266H148.028V75.155Z" fill="#E1E4EA"/>
<path d="M246.404 120.31H197.216V142.082H246.404V120.31Z" fill="#E1E4EA"/>
<path d="M148.028 188.044H98.8407V209.816H148.028V188.044Z" fill="#3F3D56"/>
<path d="M246.404 233.201H197.216V254.972H246.404V233.201Z" fill="#3F3D56"/>
<path d="M491.536 255.778H442.348V277.55H491.536V255.778Z" fill="#3F3D56"/>
<path d="M442.348 165.466H393.16V187.237H442.348V165.466Z" fill="#E1E4EA"/>
<path d="M344.779 165.466H246.404V187.237H344.779V165.466Z" fill="#3F3D56"/>
<path d="M344.779 51.7704H246.404V73.542H344.779V51.7704Z" fill="#3F3D56"/>
<path d="M49.653 28.3859V301.74H541.53V28.3859L49.653 28.3859ZM539.917 51.0312H492.504V29.9986H539.917V51.0312ZM247.372 209.547V188.515H343.811V209.547H247.372ZM343.811 211.16V232.192H247.372V211.16H343.811ZM343.811 120.579V141.611H247.372V120.579H343.811ZM247.372 118.967V97.934H343.811V118.967H247.372ZM247.372 164.257V143.224H343.811V164.257H247.372ZM343.811 165.869V186.902H247.372V165.869H343.811ZM245.759 141.611H198.345V120.579H245.759V141.611ZM245.759 143.224V164.257H198.345V143.224H245.759ZM245.759 165.869V186.902H198.345V165.869H245.759ZM245.759 188.515V209.547H198.345V188.515H245.759ZM345.424 188.515H392.837V209.547H345.424L345.424 188.515ZM345.424 186.902V165.869H392.837V186.902H345.424ZM345.424 164.257V143.224H392.837V164.257H345.424ZM345.424 141.611V120.579H392.837V141.611H345.424ZM345.424 118.967V97.934H392.837V118.967H345.424ZM345.424 96.3213V75.2887H392.837V96.3213H345.424ZM343.811 96.3213H247.372V75.2887H343.811L343.811 96.3213ZM245.759 96.3213H198.345V75.2887H245.759V96.3213ZM245.759 97.934V118.967H198.345V97.934H245.759ZM196.733 118.967H149.318V97.934H196.733L196.733 118.967ZM196.733 120.579V141.611H149.318V120.579H196.733ZM196.733 143.224V164.257H149.318V143.224H196.733ZM196.733 165.869V186.902H149.318V165.869H196.733ZM196.733 188.515V209.547H149.318V188.515H196.733ZM196.733 211.16V232.192H149.318V211.16H196.733ZM198.345 211.16H245.759V232.192H198.345V211.16ZM245.759 233.805V254.837H198.345V233.805H245.759ZM247.372 233.805H343.811V254.837H247.372V233.805ZM345.424 233.805H392.837V254.837H345.424L345.424 233.805ZM345.424 232.192V211.16H392.837V232.192H345.424ZM394.45 211.16H441.865V232.192H394.45L394.45 211.16ZM394.45 209.547V188.515H441.865V209.547H394.45ZM394.45 186.902V165.869H441.865V186.902H394.45ZM394.45 164.257V143.224H441.865V164.257H394.45ZM394.45 141.611V120.579H441.865V141.611H394.45ZM394.45 118.967V97.934H441.865V118.967H394.45ZM394.45 96.3213V75.2887H441.865V96.3213H394.45ZM394.45 73.676V52.6439H441.865V73.676H394.45ZM392.838 73.676H345.424V52.6439H392.837L392.838 73.676ZM343.811 73.676H247.372V52.6439H343.811L343.811 73.676ZM245.759 73.676H198.345V52.6439H245.759V73.676ZM196.733 73.676H149.318V52.6439H196.733L196.733 73.676ZM196.733 75.2887V96.3213H149.318V75.2887H196.733ZM147.706 96.3213H100.292V75.2887H147.706V96.3213ZM147.706 97.934V118.967H100.292V97.934H147.706ZM147.706 120.579V141.611H100.292V120.579H147.706ZM147.706 143.224V164.257H100.292V143.224H147.706ZM147.706 165.869V186.902H100.292V165.869H147.706ZM147.706 188.515V209.547H100.292V188.515H147.706ZM147.706 211.16V232.192H100.292V211.16H147.706ZM147.706 233.805V254.837H100.292V233.805H147.706ZM149.318 233.805H196.733V254.837H149.318L149.318 233.805ZM196.733 256.45V277.483H149.318V256.45H196.733ZM198.345 256.45H245.759V277.483H198.345V256.45ZM247.372 256.45H343.811V277.483H247.372V256.45ZM345.424 256.45H392.837V277.483H345.424L345.424 256.45ZM394.45 256.45H441.865V277.483H394.45L394.45 256.45ZM394.45 254.837V233.805H441.865V254.837H394.45ZM443.477 233.805H490.891V254.837H443.477V233.805ZM443.477 232.192V211.16H490.891V232.192H443.477ZM443.477 209.547V188.515H490.891V209.547H443.477ZM443.477 186.902V165.869H490.891V186.902H443.477ZM443.477 164.257V143.224H490.891V164.257H443.477ZM443.477 141.611V120.579H490.891V141.611H443.477ZM443.477 118.967V97.934H490.891V118.967H443.477ZM443.477 96.3213V75.2887H490.891V96.3213H443.477ZM443.477 73.676V52.6439H490.891V73.676H443.477ZM443.477 51.0312V29.9986H490.891V51.0312L443.477 51.0312ZM441.865 51.0312H394.45V29.9986H441.865L441.865 51.0312ZM392.838 51.0312H345.424V29.9986H392.837L392.838 51.0312ZM343.811 51.0312H247.372V29.9986H343.811L343.811 51.0312ZM245.759 51.0312H198.345V29.9986H245.759V51.0312ZM196.733 51.0312H149.318V29.9986H196.733L196.733 51.0312ZM147.706 51.0312H100.292V29.9986H147.706V51.0312ZM147.706 52.6439V73.676H100.292V52.6439H147.706ZM98.6793 73.676H51.2658V52.6439H98.6793L98.6793 73.676ZM98.6793 75.2887V96.3213H51.2658V75.2887H98.6793ZM98.6793 97.934V118.967H51.2658V97.934H98.6793ZM98.6793 120.579V141.611H51.2658V120.579H98.6793ZM98.6793 143.224V164.257H51.2658V143.224H98.6793ZM98.6793 165.869V186.902H51.2658V165.869H98.6793ZM98.6793 188.515V209.547H51.2658V188.515H98.6793ZM98.6793 211.16V232.192H51.2658V211.16H98.6793ZM98.6793 233.805V254.837H51.2658V233.805H98.6793ZM98.6793 256.45V277.483H51.2658V256.45H98.6793ZM100.292 256.45H147.706V277.483H100.292L100.292 256.45ZM147.706 279.095V300.128H100.292V279.095H147.706ZM149.318 279.095H196.733V300.128H149.318L149.318 279.095ZM198.345 279.095H245.759V300.128H198.345L198.345 279.095ZM247.372 279.095H343.811V300.128H247.372L247.372 279.095ZM345.424 279.095H392.837V300.128H345.424V279.095ZM394.45 279.095H441.865V300.128H394.45L394.45 279.095ZM443.477 279.095H490.891V300.128H443.477V279.095ZM443.477 277.483V256.45H490.891V277.483H443.477ZM492.504 256.45H539.917V277.483H492.504V256.45ZM492.504 254.837V233.805H539.917V254.837H492.504ZM492.504 232.192V211.16H539.917V232.192H492.504ZM492.504 209.547V188.515H539.917V209.547H492.504ZM492.504 186.902V165.869H539.917V186.902H492.504ZM492.504 164.257V143.224H539.917V164.257H492.504ZM492.504 141.611V120.579H539.917V141.611H492.504ZM492.504 118.967V97.934H539.917V118.967H492.504ZM492.504 96.3213V75.2887H539.917V96.3213H492.504ZM492.504 73.676V52.6439H539.917V73.676H492.504ZM98.6793 29.9986V51.0312H51.2658V29.9986H98.6793ZM51.2658 279.095H98.6793V300.128H51.2658V279.095ZM492.504 300.128V279.095H539.917V300.128H492.504Z" fill="#E1E4EA"/>
<rect x="1" y="75" width="100" height="100" rx="8" fill="#1E80F2"/>
<g filter="url(#filter0_d_253_6534)">
<path d="M22.7473 118.973L22.7559 107.417C22.7578 104.951 24.231 102.943 26.0399 102.941C27.857 102.94 29.3338 104.928 29.3319 107.373L29.3232 118.809L47.5415 127.232C47.7009 127.306 47.8349 127.424 47.9268 127.573C48.0187 127.722 48.0645 127.895 48.0585 128.069C48.0525 128.244 47.995 128.413 47.893 128.556C47.7911 128.698 47.6493 128.808 47.4852 128.871L45.3721 129.685C45.1942 129.754 44.9989 129.765 44.8148 129.715L29.2587 125.558L28.3432 139.95L34.9941 144.193C35.1166 144.271 35.218 144.378 35.2897 144.504C35.3613 144.63 35.401 144.771 35.4053 144.916L35.4414 146.128C35.4453 146.249 35.4241 146.37 35.3792 146.483C35.3342 146.596 35.2664 146.699 35.18 146.784C35.1398 146.824 35.096 146.86 35.049 146.892C34.9245 146.976 34.7805 147.029 34.6304 147.043C34.4803 147.058 34.329 147.034 34.1906 146.975L26.0102 143.496L17.9221 146.985C17.7855 147.044 17.6363 147.068 17.488 147.056C17.3398 147.043 17.197 146.994 17.0727 146.912C16.9485 146.831 16.8465 146.721 16.7761 146.59C16.7057 146.46 16.669 146.315 16.6694 146.167L16.6732 144.896C16.6732 144.746 16.7117 144.598 16.7852 144.466C16.8586 144.335 16.9645 144.224 17.0929 144.144L23.8025 139.947L22.7379 125.734L7.18628 129.949C7.00531 129.998 6.81334 129.99 6.6377 129.925L4.52439 129.143C4.35895 129.082 4.21544 128.974 4.11186 128.832C4.00828 128.69 3.94923 128.521 3.94213 128.345C3.93503 128.17 3.98019 127.996 4.07194 127.846C4.16369 127.696 4.29795 127.576 4.45789 127.502L22.7473 118.973Z" fill="white"/>
</g>
<path d="M51 75H93C97.4183 75 101 78.5817 101 83V167C101 171.418 97.4183 175 93 175H51V75Z" fill="#323145"/>
<g filter="url(#filter1_d_253_6534)">
<path d="M79.2527 131.027L79.2441 142.583C79.2422 145.049 77.769 147.057 75.9601 147.059C74.143 147.06 72.6662 145.072 72.6681 142.627L72.6768 131.191L54.4585 122.768C54.2991 122.694 54.1651 122.576 54.0732 122.427C53.9813 122.278 53.9355 122.105 53.9415 121.931C53.9475 121.756 54.005 121.587 54.107 121.444C54.2089 121.302 54.3507 121.192 54.5148 121.129L56.6279 120.315C56.8058 120.246 57.0011 120.235 57.1851 120.285L72.7413 124.442L73.6568 110.05L67.0059 105.807C66.8834 105.729 66.782 105.622 66.7103 105.496C66.6387 105.37 66.599 105.229 66.5947 105.084L66.5586 103.872C66.5547 103.751 66.5758 103.63 66.6208 103.517C66.6658 103.404 66.7336 103.301 66.82 103.216C66.8602 103.176 66.904 103.14 66.951 103.108C67.0755 103.024 67.2195 102.971 67.3696 102.957C67.5197 102.942 67.671 102.966 67.8094 103.025L75.9898 106.504L84.0779 103.015C84.2145 102.956 84.3637 102.932 84.512 102.944C84.6602 102.957 84.803 103.006 84.9273 103.088C85.0515 103.169 85.1535 103.279 85.2239 103.41C85.2943 103.54 85.331 103.685 85.3306 103.833L85.3268 105.104C85.3268 105.254 85.2883 105.402 85.2148 105.534C85.1414 105.665 85.0355 105.776 84.9071 105.856L78.1975 110.053L79.2621 124.266L94.8137 120.051C94.9947 120.002 95.1867 120.01 95.3623 120.075L97.4756 120.857C97.6411 120.918 97.7846 121.026 97.8881 121.168C97.9917 121.31 98.0508 121.479 98.0579 121.655C98.065 121.83 98.0198 122.004 97.9281 122.154C97.8363 122.304 97.702 122.424 97.5421 122.498L79.2527 131.027Z" fill="white"/>
</g>
<defs>
<filter id="filter0_d_253_6534" x="0.941406" y="102.941" width="50.1172" height="50.1177" filterUnits="userSpaceOnUse" color-interpolation-filters="sRGB">
<feFlood flood-opacity="0" result="BackgroundImageFix"/>
<feColorMatrix in="SourceAlpha" type="matrix" values="0 0 0 0 0 0 0 0 0 0 0 0 0 0 0 0 0 0 127 0" result="hardAlpha"/>
<feOffset dy="3"/>
<feGaussianBlur stdDeviation="1.5"/>
<feComposite in2="hardAlpha" operator="out"/>
<feColorMatrix type="matrix" values="0 0 0 0 0 0 0 0 0 0 0 0 0 0 0 0 0 0 0.2 0"/>
<feBlend mode="normal" in2="BackgroundImageFix" result="effect1_dropShadow_253_6534"/>
<feBlend mode="normal" in="SourceGraphic" in2="effect1_dropShadow_253_6534" result="shape"/>
</filter>
<filter id="filter1_d_253_6534" x="50.9414" y="102.941" width="50.1172" height="50.1177" filterUnits="userSpaceOnUse" color-interpolation-filters="sRGB">
<feFlood flood-opacity="0" result="BackgroundImageFix"/>
<feColorMatrix in="SourceAlpha" type="matrix" values="0 0 0 0 0 0 0 0 0 0 0 0 0 0 0 0 0 0 127 0" result="hardAlpha"/>
<feOffset dy="3"/>
<feGaussianBlur stdDeviation="1.5"/>
<feComposite in2="hardAlpha" operator="out"/>
<feColorMatrix type="matrix" values="0 0 0 0 0 0 0 0 0 0 0 0 0 0 0 0 0 0 0.2 0"/>
<feBlend mode="normal" in2="BackgroundImageFix" result="effect1_dropShadow_253_6534"/>
<feBlend mode="normal" in="SourceGraphic" in2="effect1_dropShadow_253_6534" result="shape"/>
</filter>
</defs>
</svg>
