<svg width="24" height="24" viewBox="0 0 24 24" fill="none" xmlns="http://www.w3.org/2000/svg">
<rect width="24" height="24" rx="4" fill="#D2E6FC"/>
<g clip-path="url(#clip0_116_39515)">
<path d="M11.333 6.66602H6.66634C6.31272 6.66602 5.97358 6.80649 5.72353 7.05654C5.47348 7.30659 5.33301 7.64573 5.33301 7.99935V17.3327C5.33301 17.6863 5.47348 18.0254 5.72353 18.2755C5.97358 18.5255 6.31272 18.666 6.66634 18.666H15.9997C16.3533 18.666 16.6924 18.5255 16.9425 18.2755C17.1925 18.0254 17.333 17.6863 17.333 17.3327V12.666" stroke="#3F3D56" stroke-width="1.5" stroke-linecap="round" stroke-linejoin="round"/>
<path d="M16.333 5.66617C16.5982 5.40095 16.9579 5.25195 17.333 5.25195C17.7081 5.25195 18.0678 5.40095 18.333 5.66617C18.5982 5.93138 18.7472 6.29109 18.7472 6.66617C18.7472 7.04124 18.5982 7.40095 18.333 7.66617L11.9997 13.9995L9.33301 14.6662L9.99967 11.9995L16.333 5.66617Z" stroke="#3F3D56" stroke-width="1.5" stroke-linecap="round" stroke-linejoin="round"/>
</g>
<defs>
<clipPath id="clip0_116_39515">
<rect width="16" height="16" fill="white" transform="translate(4 4)"/>
</clipPath>
</defs>
</svg>
