<svg width="24" height="24" viewBox="0 0 24 24" fill="none" xmlns="http://www.w3.org/2000/svg">
<rect width="24" height="24" rx="4" fill="#D2E6FC"/>
<path d="M15 15V17C15 17.2652 14.8946 17.5196 14.7071 17.7071C14.5196 17.8946 14.2652 18 14 18H7C6.73478 18 6.48043 17.8946 6.29289 17.7071C6.10536 17.5196 6 17.2652 6 17V6C6 5.73478 6.10536 5.48043 6.29289 5.29289C6.48043 5.10536 6.73478 5 7 5H14C14.2652 5 14.5196 5.10536 14.7071 5.29289C14.8946 5.48043 15 5.73478 15 6V8" stroke="#3F3D56" stroke-width="1.4" stroke-linecap="round" stroke-linejoin="round"/>
<path d="M12 11.5H19" stroke="#3F3D56" stroke-width="1.4" stroke-linecap="round" stroke-linejoin="round"/>
<path d="M17 9.5L19 11.5L17 13.5" stroke="#3F3D56" stroke-width="1.4" stroke-linecap="round" stroke-linejoin="round"/>
</svg>
