<svg width="18" height="18" viewBox="0 0 18 18" fill="none" xmlns="http://www.w3.org/2000/svg">
    <path d="M0.642578 17.3574H14.7854" stroke="#32377D" stroke-width="1.6" stroke-linecap="round" stroke-linejoin="round"/>
    <path d="M8.35714 12.8565L4.5 13.5508L5.14286 9.64222L13.7957 1.01508C13.9152 0.89457 14.0574 0.79892 14.2141 0.733646C14.3708 0.668372 14.5388 0.634766 14.7086 0.634766C14.8783 0.634766 15.0464 0.668372 15.203 0.733646C15.3597 0.79892 15.5019 0.89457 15.6214 1.01508L16.9843 2.37793C17.1048 2.49746 17.2004 2.63966 17.2657 2.79634C17.331 2.95301 17.3646 3.12106 17.3646 3.29079C17.3646 3.46052 17.331 3.62857 17.2657 3.78525C17.2004 3.94192 17.1048 4.08413 16.9843 4.20365L8.35714 12.8565Z" stroke="#32377D" stroke-width="1.6" stroke-linecap="round" stroke-linejoin="round"/>
</svg>
