<svg width="340" height="326" viewBox="0 0 340 326" fill="none" xmlns="http://www.w3.org/2000/svg">
<path d="M543 114H47V212H543V114Z" fill="#E6E6E6"/>
<path d="M543 0H47V98H543V0Z" fill="#E6E6E6"/>
<path d="M543 228H47V326H543V228Z" fill="#E6E6E6"/>
<path d="M58 201H472V125H58V201Z" fill="white"/>
<path d="M58 87H472V11H58V87Z" fill="white"/>
<path d="M58 315H472V239H58V315Z" fill="white"/>
<path d="M440 151H151V157H440V151Z" fill="#3F3D56"/>
<path d="M440 37H151V43H440V37Z" fill="#3F3D56"/>
<path d="M440 265H151V271H440V265Z" fill="#3F3D56"/>
<path d="M440 167H151V173H440V167Z" fill="#3F3D56"/>
<path d="M440 53H151V59H440V53Z" fill="#3F3D56"/>
<path d="M440 281H151V287H440V281Z" fill="#3F3D56"/>
<path d="M13 170C17.4183 170 21 166.418 21 162C21 157.582 17.4183 154 13 154C8.58172 154 5 157.582 5 162C5 166.418 8.58172 170 13 170Z" stroke="#151A6A" stroke-width="1.5" stroke-linecap="round" stroke-linejoin="round"/>
<path d="M23.0004 172L18.6504 167.65" stroke="#151A6A" stroke-width="1.5" stroke-linecap="round" stroke-linejoin="round"/>
<path d="M22 58V53" stroke="#151A6A" stroke-width="1.5" stroke-linecap="round" stroke-linejoin="round"/>
<path d="M19 53H25" stroke="#151A6A" stroke-width="1.5" stroke-linecap="round" stroke-linejoin="round"/>
<path d="M6 58V51" stroke="#151A6A" stroke-width="1.5" stroke-linecap="round" stroke-linejoin="round"/>
<path d="M3 51H9" stroke="#151A6A" stroke-width="1.5" stroke-linecap="round" stroke-linejoin="round"/>
<path d="M14 58V49" stroke="#151A6A" stroke-width="1.5" stroke-linecap="round" stroke-linejoin="round"/>
<path d="M11 45H17" stroke="#151A6A" stroke-width="1.5" stroke-linecap="round" stroke-linejoin="round"/>
<path d="M22 49V40" stroke="#151A6A" stroke-width="1.5" stroke-linecap="round" stroke-linejoin="round"/>
<path d="M14 45V40" stroke="#151A6A" stroke-width="1.5" stroke-linecap="round" stroke-linejoin="round"/>
<path d="M6 47V40" stroke="#151A6A" stroke-width="1.5" stroke-linecap="round" stroke-linejoin="round"/>
<path d="M23.75 289.25L15 283L6.25 289.25V269.25C6.25 268.587 6.51339 267.951 6.98223 267.482C7.45107 267.013 8.08696 266.75 8.75 266.75H21.25C21.913 266.75 22.5489 267.013 23.0178 267.482C23.4866 267.951 23.75 268.587 23.75 269.25V289.25Z" stroke="#151A6A" stroke-width="1.5" stroke-linecap="round" stroke-linejoin="round"/>
<g clip-path="url(#clip0_253_6535)">
<path d="M15.0001 270.885L16.4857 273.894L19.8078 274.38L17.4039 276.721L17.9712 280.029L15.0001 278.466L12.0289 280.029L12.5962 276.721L10.1924 274.38L13.5145 273.894L15.0001 270.885Z" stroke="#151A6A" stroke-width="1.5" stroke-linecap="round" stroke-linejoin="round"/>
</g>
<rect x="75" y="139" width="48" height="48" rx="8" fill="#1E80F2"/>
<path d="M99 139H115C119.418 139 123 142.582 123 147V179C123 183.418 119.418 187 115 187H99V139Z" fill="#3F3D56"/>
<g filter="url(#filter0_d_253_6535)">
<path d="M96.3456 158.082L96.3526 148.653C96.3542 146.64 97.5563 145.001 99.0324 145C100.515 144.999 101.72 146.621 101.719 148.617L101.712 157.948L116.578 164.821C116.708 164.882 116.817 164.978 116.892 165.1C116.967 165.221 117.004 165.362 117 165.505C116.995 165.647 116.948 165.785 116.865 165.902C116.781 166.018 116.666 166.107 116.532 166.159L114.807 166.823C114.662 166.88 114.503 166.888 114.353 166.848L101.659 163.455L100.912 175.2L106.339 178.662C106.439 178.726 106.522 178.813 106.58 178.915C106.639 179.018 106.671 179.133 106.675 179.251L106.704 180.241C106.707 180.339 106.69 180.438 106.653 180.53C106.617 180.622 106.561 180.706 106.491 180.776C106.458 180.809 106.422 180.838 106.384 180.864C106.282 180.933 106.165 180.975 106.042 180.987C105.92 180.999 105.796 180.98 105.683 180.932L99.0081 178.093L92.4083 180.94C92.2968 180.988 92.175 181.008 92.054 180.997C91.933 180.987 91.8166 180.947 91.7152 180.881C91.6138 180.814 91.5306 180.724 91.4731 180.618C91.4156 180.511 91.3857 180.393 91.386 180.272L91.3891 179.235C91.3891 179.113 91.4206 178.992 91.4805 178.885C91.5404 178.777 91.6268 178.687 91.7316 178.621L97.2066 175.197L96.3379 163.599L83.6478 167.038C83.5001 167.079 83.3435 167.072 83.2002 167.019L81.4757 166.381C81.3407 166.331 81.2236 166.243 81.1391 166.127C81.0546 166.011 81.0064 165.873 81.0006 165.73C80.9948 165.587 81.0316 165.445 81.1065 165.323C81.1814 165.2 81.2909 165.102 81.4214 165.041L96.3456 158.082Z" fill="white"/>
</g>
<rect x="75" y="253" width="48" height="48" rx="8" fill="#1E80F2"/>
<path d="M99 253H115C119.418 253 123 256.582 123 261V293C123 297.418 119.418 301 115 301H99V253Z" fill="#3F3D56"/>
<g filter="url(#filter1_d_253_6535)">
<path fill-rule="evenodd" clip-rule="evenodd" d="M97.2022 259.805C96.1604 260.937 96.013 262.87 96.0806 263.748L96.2182 271.377L93.8812 272.244L93.8822 271.573C93.8824 271.5 93.8645 271.429 93.8301 271.365C93.7958 271.301 93.7461 271.246 93.6855 271.206C93.625 271.166 93.5554 271.142 93.483 271.136C93.4106 271.129 93.3378 271.141 93.2709 271.17L91.4573 271.949C91.3781 271.983 91.3106 272.039 91.2632 272.111C91.2157 272.183 91.1903 272.268 91.1901 272.354L91.1887 273.243L89.9918 273.688L89.9925 273.249C89.9926 273.176 89.9746 273.104 89.9399 273.04C89.9053 272.976 89.8552 272.921 89.7942 272.882C89.7332 272.842 89.6632 272.818 89.5905 272.812C89.5178 272.806 89.4446 272.818 89.3778 272.847L87.564 273.646C87.4857 273.68 87.4191 273.737 87.3723 273.808C87.3255 273.88 87.3005 273.964 87.3003 274.049L87.2994 274.682L82.4621 276.394C82.3443 276.435 82.2399 276.508 82.16 276.604C82.0801 276.701 82.0277 276.817 82.0083 276.94C81.989 277.064 82.0034 277.19 82.0501 277.306C82.0968 277.421 82.174 277.522 82.2734 277.597L83.3818 278.435C83.4602 278.494 83.5503 278.536 83.6462 278.557C83.7421 278.579 83.8415 278.579 83.9378 278.559L96.4372 275.942L97.3732 287.669L93.0744 290.733C92.9954 290.789 92.9292 290.861 92.8799 290.945L92.2812 291.958C92.2068 292.084 92.174 292.23 92.1876 292.375C92.2012 292.521 92.2603 292.658 92.3567 292.767C92.453 292.876 92.5815 292.952 92.7238 292.984C92.8661 293.015 93.0148 293.001 93.1486 292.942L98.1353 290.766L99.7645 290.761L104.739 292.934C104.866 292.989 105.007 293.005 105.144 292.979C105.28 292.953 105.406 292.887 105.504 292.788C105.512 292.78 105.52 292.772 105.527 292.764C105.625 292.657 105.686 292.521 105.703 292.378C105.719 292.234 105.69 292.089 105.62 291.962L105.051 290.939C105.002 290.85 104.934 290.774 104.852 290.715L100.607 287.657L101.512 275.819L114.053 278.51C114.15 278.531 114.25 278.531 114.347 278.509C114.444 278.487 114.535 278.445 114.614 278.385L115.725 277.545C115.824 277.47 115.902 277.369 115.949 277.253C115.996 277.137 116.011 277.01 115.992 276.887C115.973 276.763 115.921 276.647 115.841 276.551C115.762 276.455 115.657 276.383 115.54 276.342L110.708 274.645L110.709 274.013C110.709 273.927 110.684 273.843 110.638 273.772C110.591 273.7 110.524 273.644 110.446 273.61L108.635 272.817C108.568 272.788 108.495 272.776 108.422 272.782C108.35 272.788 108.28 272.812 108.218 272.852C108.157 272.892 108.107 272.947 108.072 273.012C108.037 273.076 108.019 273.148 108.019 273.221L108.018 273.659L106.824 273.219L106.825 272.329C106.825 272.243 106.8 272.158 106.753 272.087C106.705 272.015 106.638 271.959 106.559 271.925L104.748 271.152C104.681 271.123 104.608 271.112 104.536 271.119C104.464 271.125 104.394 271.15 104.333 271.19C104.273 271.23 104.223 271.285 104.188 271.349C104.154 271.413 104.136 271.485 104.135 271.557L104.134 272.229L101.729 271.343L101.888 263.739C101.968 262.733 101.636 260.848 100.645 259.769C100.182 259.265 99.6162 258.999 99.0097 259C98.6688 258.996 98.3308 259.066 98.0189 259.205C97.7069 259.344 97.4284 259.549 97.2022 259.805ZM101.011 263.682C101.083 262.831 100.77 261.206 99.9982 260.366C99.6969 260.039 99.3731 259.88 99.0088 259.881C98.7895 259.878 98.572 259.923 98.3715 260.012C98.171 260.102 97.9922 260.234 97.8478 260.4C97.0739 261.241 96.8911 262.864 96.9577 263.689C96.9585 263.698 96.9591 263.707 96.9591 263.716L97.1025 271.671C97.1041 271.762 97.0772 271.852 97.0256 271.928C96.974 272.003 96.9002 272.061 96.8146 272.093L93.5925 273.288C93.526 273.313 93.4547 273.321 93.3845 273.312C93.3143 273.303 93.2474 273.278 93.1894 273.237C93.1314 273.197 93.084 273.143 93.0514 273.08C93.0187 273.017 93.0017 272.948 93.0018 272.877L93.0027 272.241L92.0683 272.643L92.0668 273.548C92.0666 273.638 92.039 273.726 91.9875 273.8C91.9361 273.874 91.8634 273.93 91.7791 273.961L89.7032 274.732C89.6367 274.757 89.5654 274.765 89.4952 274.756C89.425 274.747 89.358 274.721 89.3 274.681C89.242 274.641 89.1946 274.587 89.162 274.524C89.1293 274.461 89.1123 274.391 89.1125 274.32L89.1131 273.924L88.1783 274.335L88.1773 274.992C88.1772 275.083 88.1488 275.172 88.0962 275.246C88.0435 275.321 87.9691 275.377 87.8833 275.407L83.0835 277.106L83.8442 277.68L96.7464 274.979C96.8074 274.966 96.8703 274.967 96.9311 274.98C96.9918 274.993 97.049 275.02 97.0988 275.057C97.1486 275.094 97.1899 275.142 97.2199 275.196C97.25 275.251 97.2681 275.311 97.2731 275.373L98.2688 287.845C98.2748 287.921 98.2611 287.997 98.2289 288.066C98.1967 288.135 98.1471 288.195 98.085 288.239L93.615 291.426L93.3328 291.903L97.8702 289.923C97.9252 289.899 97.9846 289.887 98.0445 289.887L99.8568 289.881C99.9176 289.881 99.9778 289.893 100.033 289.917L104.581 291.903L104.304 291.405L99.8936 288.228C99.8327 288.184 99.784 288.125 99.7524 288.057C99.7208 287.989 99.7071 287.913 99.7129 287.838L100.675 275.251C100.68 275.189 100.698 275.128 100.728 275.073C100.758 275.017 100.8 274.969 100.851 274.932C100.901 274.894 100.959 274.867 101.02 274.854C101.081 274.84 101.145 274.84 101.206 274.853L114.155 277.631L114.916 277.055L110.121 275.372C110.036 275.342 109.961 275.286 109.909 275.211C109.856 275.137 109.828 275.048 109.829 274.957L109.83 274.301L108.896 273.892L108.896 274.289C108.896 274.36 108.879 274.429 108.846 274.492C108.813 274.555 108.765 274.609 108.707 274.65C108.649 274.69 108.582 274.716 108.512 274.726C108.442 274.735 108.37 274.727 108.304 274.702L106.231 273.939C106.147 273.908 106.074 273.852 106.023 273.778C105.972 273.704 105.944 273.617 105.945 273.527L105.946 272.62L105.013 272.222L105.012 272.858C105.011 272.929 104.994 272.999 104.961 273.061C104.929 273.124 104.881 273.178 104.823 273.219C104.765 273.26 104.698 273.286 104.628 273.295C104.557 273.304 104.486 273.296 104.42 273.271L101.13 272.06C101.045 272.028 100.971 271.971 100.92 271.896C100.868 271.82 100.842 271.731 100.844 271.639L101.01 263.709C101.01 263.7 101.011 263.691 101.011 263.682Z" fill="white"/>
<path d="M99.9982 260.366C100.77 261.206 101.083 262.831 101.011 263.682C101.011 263.691 101.01 263.7 101.01 263.709L100.844 271.639C100.842 271.731 100.868 271.82 100.92 271.896C100.971 271.971 101.045 272.028 101.13 272.06L104.42 273.271C104.486 273.296 104.557 273.304 104.628 273.295C104.698 273.286 104.765 273.26 104.823 273.219C104.881 273.178 104.929 273.124 104.961 273.061C104.994 272.999 105.011 272.929 105.012 272.858L105.013 272.222L105.946 272.62L105.945 273.527C105.944 273.617 105.972 273.704 106.023 273.778C106.074 273.852 106.147 273.908 106.231 273.939L108.304 274.702C108.37 274.727 108.442 274.735 108.512 274.726C108.582 274.716 108.649 274.69 108.707 274.65C108.765 274.609 108.813 274.555 108.846 274.492C108.879 274.429 108.896 274.36 108.896 274.289L108.896 273.892L109.83 274.301L109.829 274.957C109.828 275.048 109.856 275.137 109.909 275.211C109.961 275.286 110.036 275.342 110.121 275.372L114.916 277.055L114.155 277.631L101.206 274.853C101.145 274.84 101.081 274.84 101.02 274.854C100.959 274.867 100.901 274.894 100.851 274.932C100.8 274.969 100.758 275.017 100.728 275.073C100.698 275.128 100.68 275.189 100.675 275.251L99.7129 287.838C99.7071 287.913 99.7208 287.989 99.7524 288.057C99.784 288.125 99.8327 288.184 99.8936 288.228L104.304 291.405L104.581 291.903L100.033 289.917C99.9778 289.893 99.9176 289.881 99.8568 289.881L98.0445 289.887C97.9846 289.887 97.9252 289.899 97.8702 289.923L93.3328 291.903L93.615 291.426L98.085 288.239C98.1471 288.195 98.1967 288.135 98.2289 288.066C98.2611 287.997 98.2748 287.921 98.2688 287.845L97.2731 275.373C97.2681 275.311 97.25 275.251 97.2199 275.196C97.1899 275.142 97.1486 275.094 97.0988 275.057C97.049 275.02 96.9918 274.993 96.9311 274.98C96.8703 274.967 96.8074 274.966 96.7464 274.979L83.8442 277.68L83.0835 277.106L87.8833 275.407C87.9691 275.377 88.0435 275.321 88.0962 275.246C88.1488 275.172 88.1772 275.083 88.1773 274.992L88.1783 274.335L89.1131 273.924L89.1125 274.32C89.1123 274.391 89.1293 274.461 89.162 274.524C89.1946 274.587 89.242 274.641 89.3 274.681C89.358 274.721 89.425 274.747 89.4952 274.756C89.5654 274.765 89.6367 274.757 89.7032 274.732L91.7791 273.961C91.8634 273.93 91.9361 273.874 91.9875 273.8C92.039 273.726 92.0666 273.638 92.0668 273.548L92.0683 272.643L93.0027 272.241L93.0018 272.877C93.0017 272.948 93.0187 273.017 93.0514 273.08C93.084 273.143 93.1314 273.197 93.1894 273.237C93.2474 273.278 93.3143 273.303 93.3845 273.312C93.4547 273.321 93.526 273.313 93.5925 273.288L96.8146 272.093C96.9002 272.061 96.974 272.003 97.0256 271.928C97.0772 271.852 97.1041 271.762 97.1025 271.671L96.9591 263.716C96.9591 263.707 96.9585 263.698 96.9577 263.689C96.8911 262.864 97.0739 261.241 97.8478 260.4C97.9922 260.234 98.171 260.102 98.3715 260.012C98.572 259.923 98.7895 259.878 99.0088 259.881C99.3731 259.88 99.6969 260.039 99.9982 260.366Z" fill="white"/>
</g>
<rect x="75" y="25" width="48" height="48" rx="8" fill="#1E80F2"/>
<path d="M99 25H115C119.418 25 123 28.5817 123 33V65C123 69.4183 119.418 73 115 73H99V25Z" fill="#3F3D56"/>
<g filter="url(#filter2_d_253_6535)">
<path fill-rule="evenodd" clip-rule="evenodd" d="M98.8605 31C98.1827 30.9956 97.5568 31.354 97.0979 32.0087C96.6709 32.6182 96.4387 33.4204 96.4444 34.2672L96.4907 41.3224L85.8618 45.354C84.3877 45.9131 82.9955 46.441 83 47.8388L83.0034 48.9499C83.0036 49.009 83.0163 49.0676 83.0408 49.1218C83.0653 49.176 83.1009 49.2247 83.1453 49.2645C83.1898 49.3044 83.242 49.3346 83.2987 49.3531C83.3554 49.3717 83.4153 49.3782 83.4743 49.3722L96.5646 48.0433L97.3148 58.3839L93.4628 60.8271C93.4171 60.8561 93.372 60.8844 93.3277 60.9121L93.3185 60.9179C92.7188 61.2931 92.0988 61.6812 92.105 62.6168L92.1074 63.0053C92.1081 63.1055 92.1316 63.2045 92.1763 63.2948C92.2209 63.3852 92.2855 63.4645 92.3652 63.5269C92.4448 63.5892 92.5375 63.6329 92.6361 63.6546C92.7347 63.6763 92.8367 63.6755 92.9343 63.6523L97.7469 62.5069L98.5654 65.5907C98.5961 65.7063 98.6641 65.8091 98.759 65.8831C98.8538 65.9571 98.9702 65.9982 99.0901 65.9999C99.2099 66.0017 99.3264 65.964 99.4215 65.8928C99.5167 65.8215 99.585 65.7207 99.616 65.606L100.445 62.5413L105.159 63.7308C105.257 63.7558 105.359 63.7583 105.458 63.738C105.556 63.7176 105.648 63.6751 105.727 63.6135C105.749 63.5969 105.769 63.579 105.788 63.5598C105.85 63.4991 105.898 63.4267 105.931 63.3469C105.963 63.2672 105.98 63.1815 105.979 63.095L105.976 62.7069C105.97 61.7713 105.345 61.3751 104.74 60.9919C104.693 60.9615 104.644 60.9309 104.595 60.8993L100.712 58.4062L101.379 48.213L114.521 49.7127C114.578 49.7192 114.635 49.7143 114.689 49.6982C114.744 49.6821 114.794 49.6553 114.837 49.6193C114.881 49.5833 114.916 49.5389 114.942 49.4887C114.967 49.4385 114.982 49.3836 114.986 49.3272C115.006 48.952 115.005 48.5758 114.983 48.2003C114.901 46.7887 113.773 46.3605 112.579 45.9072C112.425 45.8488 112.265 45.7883 112.101 45.7236L101.367 41.489L101.32 34.2989C101.308 32.4887 100.205 31.0088 98.8605 31ZM100.599 42.008C100.55 41.9378 100.524 41.8551 100.524 41.7705L100.475 34.2936C100.466 32.9697 99.7291 31.8467 98.8663 31.8409C98.4719 31.8383 98.0912 32.0708 97.7937 32.4956C97.4644 32.9656 97.2855 33.5968 97.2899 34.2728L97.3382 41.6161C97.3387 41.7009 97.3135 41.7836 97.2657 41.8533C97.2179 41.9229 97.1499 41.9763 97.0706 42.0064L86.1722 46.1401C84.6846 46.7043 83.843 47.0617 83.8455 47.8474L83.8475 48.4882L96.9061 47.1623C96.9628 47.1566 97.0202 47.1623 97.0748 47.1791C97.1295 47.196 97.1803 47.2236 97.2242 47.2604C97.2681 47.2972 97.3042 47.3423 97.3303 47.3931C97.3564 47.4438 97.372 47.4992 97.3761 47.5558L98.1761 58.5818C98.1816 58.6568 98.1667 58.7316 98.1331 58.7984C98.0995 58.8653 98.0484 58.9217 97.9851 58.9619L93.924 61.5377C93.8751 61.5689 93.8267 61.5991 93.7793 61.6288L93.7755 61.6312C93.1866 62 92.9476 62.1676 92.9506 62.6225L92.9516 62.7813L97.945 61.5927C98.0529 61.567 98.1672 61.5849 98.263 61.6423C98.3589 61.6997 98.4286 61.7921 98.4571 61.8994L99.0925 64.2927L99.7345 61.9188C99.763 61.8133 99.832 61.7236 99.9268 61.6688C100.022 61.614 100.135 61.5984 100.242 61.6255L105.132 62.8593L105.131 62.7015C105.128 62.2468 104.887 62.0759 104.293 61.6993C104.243 61.6683 104.194 61.6366 104.143 61.604L100.047 58.9746C99.9831 58.9334 99.931 58.8759 99.8966 58.8081C99.8621 58.7403 99.8465 58.6648 99.8514 58.5895L100.564 47.7127C100.568 47.6564 100.583 47.6015 100.608 47.5514C100.634 47.5012 100.669 47.4569 100.713 47.4209C100.756 47.385 100.806 47.3582 100.861 47.3422C100.915 47.3262 100.972 47.3212 101.028 47.3277L114.154 48.8257C114.154 48.6583 114.151 48.4551 114.139 48.2378C114.091 47.4112 113.536 47.1667 112.286 46.6923L112.278 46.6894C112.124 46.6305 111.963 46.5696 111.799 46.5047L100.795 42.1638C100.715 42.1324 100.647 42.0782 100.599 42.008Z" fill="white"/>
<path d="M100.524 41.7705C100.524 41.8551 100.55 41.9378 100.599 42.008C100.647 42.0782 100.715 42.1324 100.795 42.1638L111.799 46.5047C111.963 46.5696 112.124 46.6305 112.278 46.6894L112.286 46.6923C113.536 47.1667 114.091 47.4112 114.139 48.2378C114.151 48.4551 114.154 48.6583 114.154 48.8257L101.028 47.3277C100.972 47.3212 100.915 47.3262 100.861 47.3422C100.806 47.3582 100.756 47.385 100.713 47.4209C100.669 47.4569 100.634 47.5012 100.608 47.5514C100.583 47.6015 100.568 47.6564 100.564 47.7127L99.8514 58.5895C99.8465 58.6648 99.8621 58.7403 99.8966 58.8081C99.931 58.8759 99.9831 58.9334 100.047 58.9746L104.143 61.604C104.194 61.6366 104.243 61.6683 104.293 61.6993C104.887 62.0759 105.128 62.2468 105.131 62.7015L105.132 62.8593L100.242 61.6255C100.135 61.5984 100.022 61.614 99.9268 61.6688C99.832 61.7236 99.763 61.8133 99.7345 61.9188L99.0925 64.2927L98.4571 61.8994C98.4286 61.7921 98.3589 61.6997 98.263 61.6423C98.1672 61.5849 98.0529 61.567 97.945 61.5927L92.9516 62.7813L92.9506 62.6225C92.9476 62.1676 93.1866 62 93.7755 61.6312L93.7793 61.6288C93.8267 61.5991 93.8751 61.5689 93.924 61.5377L97.9851 58.9619C98.0484 58.9217 98.0995 58.8653 98.1331 58.7984C98.1667 58.7316 98.1816 58.6568 98.1761 58.5818L97.3761 47.5558C97.372 47.4992 97.3564 47.4438 97.3303 47.3931C97.3042 47.3423 97.2681 47.2972 97.2242 47.2604C97.1803 47.2236 97.1295 47.196 97.0748 47.1791C97.0202 47.1623 96.9628 47.1566 96.9061 47.1623L83.8475 48.4882L83.8455 47.8474C83.843 47.0617 84.6846 46.7043 86.1722 46.1401L97.0706 42.0064C97.1499 41.9763 97.2179 41.9229 97.2657 41.8533C97.3135 41.7836 97.3387 41.7009 97.3382 41.6161L97.2899 34.2728C97.2855 33.5968 97.4644 32.9656 97.7937 32.4956C98.0912 32.0708 98.4719 31.8383 98.8663 31.8409C99.7291 31.8467 100.466 32.9697 100.475 34.2936L100.524 41.7705Z" fill="white"/>
</g>
<defs>
<filter id="filter0_d_253_6535" x="78" y="145" width="42" height="42" filterUnits="userSpaceOnUse" color-interpolation-filters="sRGB">
<feFlood flood-opacity="0" result="BackgroundImageFix"/>
<feColorMatrix in="SourceAlpha" type="matrix" values="0 0 0 0 0 0 0 0 0 0 0 0 0 0 0 0 0 0 127 0" result="hardAlpha"/>
<feOffset dy="3"/>
<feGaussianBlur stdDeviation="1.5"/>
<feComposite in2="hardAlpha" operator="out"/>
<feColorMatrix type="matrix" values="0 0 0 0 0 0 0 0 0 0 0 0 0 0 0 0 0 0 0.2 0"/>
<feBlend mode="normal" in2="BackgroundImageFix" result="effect1_dropShadow_253_6535"/>
<feBlend mode="normal" in="SourceGraphic" in2="effect1_dropShadow_253_6535" result="shape"/>
</filter>
<filter id="filter1_d_253_6535" x="78" y="259" width="42" height="42" filterUnits="userSpaceOnUse" color-interpolation-filters="sRGB">
<feFlood flood-opacity="0" result="BackgroundImageFix"/>
<feColorMatrix in="SourceAlpha" type="matrix" values="0 0 0 0 0 0 0 0 0 0 0 0 0 0 0 0 0 0 127 0" result="hardAlpha"/>
<feOffset dy="4"/>
<feGaussianBlur stdDeviation="2"/>
<feComposite in2="hardAlpha" operator="out"/>
<feColorMatrix type="matrix" values="0 0 0 0 0 0 0 0 0 0 0 0 0 0 0 0 0 0 0.1 0"/>
<feBlend mode="normal" in2="BackgroundImageFix" result="effect1_dropShadow_253_6535"/>
<feBlend mode="normal" in="SourceGraphic" in2="effect1_dropShadow_253_6535" result="shape"/>
</filter>
<filter id="filter2_d_253_6535" x="79" y="31" width="40" height="43" filterUnits="userSpaceOnUse" color-interpolation-filters="sRGB">
<feFlood flood-opacity="0" result="BackgroundImageFix"/>
<feColorMatrix in="SourceAlpha" type="matrix" values="0 0 0 0 0 0 0 0 0 0 0 0 0 0 0 0 0 0 127 0" result="hardAlpha"/>
<feOffset dy="4"/>
<feGaussianBlur stdDeviation="2"/>
<feComposite in2="hardAlpha" operator="out"/>
<feColorMatrix type="matrix" values="0 0 0 0 0 0 0 0 0 0 0 0 0 0 0 0 0 0 0.1 0"/>
<feBlend mode="normal" in2="BackgroundImageFix" result="effect1_dropShadow_253_6535"/>
<feBlend mode="normal" in="SourceGraphic" in2="effect1_dropShadow_253_6535" result="shape"/>
</filter>
<clipPath id="clip0_253_6535">
<rect width="11.5385" height="11.5385" fill="white" transform="translate(9.23047 269.923)"/>
</clipPath>
</defs>
</svg>
