<svg width="24" height="24" viewBox="0 0 24 24" fill="none" xmlns="http://www.w3.org/2000/svg">
<path d="M11.9999 1.43994C6.17432 1.43994 1.43994 6.17432 1.43994 11.9999C1.43994 17.8256 6.17432 22.5599 11.9999 22.5599C17.8256 22.5599 22.5599 17.8256 22.5599 11.9999C22.5599 6.17432 17.8256 1.43994 11.9999 1.43994ZM11.9999 2.39994C14.4824 2.39994 16.7324 3.34682 18.4349 4.88994L17.0849 6.23994C15.7312 5.04557 13.9481 4.31994 11.9999 4.31994C9.96557 4.31994 8.16182 5.09619 6.79494 6.35994C6.62244 6.28682 6.43682 6.23994 6.23994 6.23994C5.45057 6.23994 4.79994 6.89057 4.79994 7.67994C4.79994 8.02494 4.92369 8.34557 5.12994 8.59494C4.59369 9.62244 4.31994 10.7718 4.31994 11.9999C4.31994 15.7874 7.04807 18.9018 10.6049 19.5299C10.7568 20.1599 11.3249 20.6399 11.9999 20.6399C12.6787 20.6399 13.2468 20.1524 13.3949 19.5149C16.9743 18.8718 19.6799 15.7724 19.6799 11.9999C19.6799 10.0518 18.9543 8.26869 17.7599 6.91494L19.1099 5.56494C20.6531 7.26744 21.5999 9.51744 21.5999 11.9999C21.5999 17.3081 17.3081 21.5999 11.9999 21.5999C6.69182 21.5999 2.39994 17.3081 2.39994 11.9999C2.39994 6.69182 6.69182 2.39994 11.9999 2.39994ZM11.9999 5.27994C13.6912 5.27994 15.2174 5.90807 16.3949 6.92994L15.0449 8.29494C15.0412 8.29307 15.0337 8.29682 15.0299 8.29494C14.2012 7.61432 13.1531 7.19994 11.9999 7.19994C9.35432 7.19994 7.19994 9.35432 7.19994 11.9999C7.19994 14.6456 9.35432 16.7999 11.9999 16.7999C13.3368 16.7999 14.5481 16.2468 15.4199 15.3599C15.9224 15.3281 16.3199 14.9099 16.3199 14.3999C16.3199 14.3118 16.3124 14.2256 16.2899 14.1449C16.6162 13.4981 16.7999 12.7724 16.7999 11.9999C16.7999 10.8468 16.3856 9.79869 15.7049 8.96994C15.7031 8.96619 15.7068 8.95869 15.7049 8.95494L17.0699 7.60494C18.0918 8.78244 18.7199 10.3087 18.7199 11.9999C18.7199 15.2887 16.3893 17.9793 13.2899 18.5699C13.0537 18.0918 12.5643 17.7599 11.9999 17.7599C11.4318 17.7599 10.9424 18.1012 10.7099 18.5849C7.63307 18.0131 5.27994 15.3056 5.27994 11.9999C5.27994 10.9293 5.51244 9.95994 5.95494 9.08994C6.04869 9.10869 6.14057 9.11994 6.23994 9.11994C7.02932 9.11994 7.67994 8.46932 7.67994 7.67994C7.67994 7.43619 7.60869 7.20744 7.49994 7.00494C8.69244 5.92682 10.2374 5.27994 11.9999 5.27994ZM6.23994 7.19994C6.50994 7.19994 6.71994 7.40994 6.71994 7.67994C6.71994 7.94994 6.50994 8.15994 6.23994 8.15994C5.96994 8.15994 5.75994 7.94994 5.75994 7.67994C5.75994 7.40994 5.96994 7.19994 6.23994 7.19994ZM11.9999 8.15994C12.8906 8.15994 13.7043 8.46369 14.3549 8.96994L12.6149 10.7099C12.4274 10.6199 12.2212 10.5599 11.9999 10.5599C11.2106 10.5599 10.5599 11.2106 10.5599 11.9999C10.5599 12.7893 11.2106 13.4399 11.9999 13.4399C12.7893 13.4399 13.4399 12.7893 13.4399 11.9999C13.4399 11.7787 13.3799 11.5724 13.2899 11.3849L15.0299 9.64494C15.5362 10.2956 15.8399 11.1093 15.8399 11.9999C15.8399 12.5156 15.7368 13.0068 15.5549 13.4549C15.4931 13.4418 15.4256 13.4399 15.3599 13.4399C14.8293 13.4399 14.3999 13.8693 14.3999 14.3999C14.3999 14.5743 14.4524 14.7393 14.5349 14.8799C13.8581 15.4762 12.9749 15.8399 11.9999 15.8399C9.87369 15.8399 8.15994 14.1262 8.15994 11.9999C8.15994 9.87369 9.87369 8.15994 11.9999 8.15994ZM11.9999 11.5199C12.2699 11.5199 12.4799 11.7299 12.4799 11.9999C12.4799 12.2699 12.2699 12.4799 11.9999 12.4799C11.7299 12.4799 11.5199 12.2699 11.5199 11.9999C11.5199 11.7299 11.7299 11.5199 11.9999 11.5199ZM11.9999 18.7199C12.2699 18.7199 12.4799 18.9299 12.4799 19.1999C12.4799 19.4699 12.2699 19.6799 11.9999 19.6799C11.7299 19.6799 11.5199 19.4699 11.5199 19.1999C11.5199 18.9299 11.7299 18.7199 11.9999 18.7199Z" fill="#3F3D56"/>
</svg>
