<svg width="24" height="24" viewBox="0 0 24 24" fill="none" xmlns="http://www.w3.org/2000/svg">
<rect width="24" height="24" rx="4" fill="#D2E6FC"/>
<path d="M18.6667 6H14.6667C13.9594 6 13.2811 6.28095 12.781 6.78105C12.281 7.28115 12 7.95942 12 8.66667V18C12 17.4696 12.2107 16.9609 12.5858 16.5858C12.9609 16.2107 13.4696 16 14 16H18.6667V6Z" stroke="#3F3D56" stroke-width="1.5" stroke-linecap="round" stroke-linejoin="round"/>
<path d="M5.33301 6H9.33301C10.0403 6 10.7185 6.28095 11.2186 6.78105C11.7187 7.28115 11.9997 7.95942 11.9997 8.66667V18C11.9997 17.4696 11.789 16.9609 11.4139 16.5858C11.0388 16.2107 10.5301 16 9.99967 16H5.33301V6Z" stroke="#3F3D56" stroke-width="1.5" stroke-linecap="round" stroke-linejoin="round"/>
</svg>
