<svg width="375" height="160" viewBox="0 0 375 160" fill="none" xmlns="http://www.w3.org/2000/svg">
<rect width="375" height="160" fill="#3F3D56"/>
<path d="M175.809 80.165C179.958 80.165 182.202 82.4097 182.202 86.831V95.9797C182.202 96.966 181.692 97.5101 180.74 97.5101C179.788 97.5101 179.278 96.966 179.278 95.9797V94.2792C177.849 96.1838 176.149 97.5101 173.394 97.5101C170.877 97.5101 168.36 95.9797 168.36 92.4767C168.36 89.1437 171.115 87.6132 174.312 87.6132C175.979 87.6132 177.713 87.9873 179.278 88.6676V86.695C179.278 83.498 177.611 82.7498 175.809 82.7498C174.312 82.7498 172.816 83.464 171.761 84.2803C171.489 84.4843 171.047 84.6884 170.571 84.6884C169.789 84.6884 169.381 84.0082 169.381 83.464C169.381 83.0219 169.619 82.5798 170.095 82.1716C171.761 80.7772 173.598 80.165 175.809 80.165ZM173.836 94.9254C176.217 94.9254 178.291 93.3609 179.006 90.8442C177.713 90.232 176.217 89.8919 174.924 89.8919C172.986 89.8919 171.421 90.7422 171.421 92.4427C171.421 94.1772 172.51 94.9254 173.836 94.9254ZM194.122 97.5101C192.864 97.5101 191.81 96.864 191.028 94.7213L186.368 82.1036C185.994 81.1173 186.572 80.165 187.763 80.165C188.341 80.165 188.783 80.5052 188.953 81.0153L193.646 94.3472C193.714 94.5173 193.816 94.9254 194.122 94.9254C194.429 94.9254 194.531 94.5173 194.599 94.3472L199.292 81.0153C199.462 80.5392 199.802 80.165 200.584 80.165C201.775 80.165 202.217 81.2534 201.877 82.1036L197.217 94.7213C196.435 96.864 195.381 97.5101 194.122 97.5101ZM207.411 77.2742C206.22 77.2742 205.302 76.3559 205.302 75.1656C205.302 73.9752 206.22 73.0229 207.411 73.0229C208.601 73.0229 209.553 73.9752 209.553 75.1656C209.553 76.3559 208.601 77.2742 207.411 77.2742ZM208.873 96.0477C208.873 97.034 208.227 97.5101 207.411 97.5101C206.595 97.5101 205.948 97.034 205.948 96.0477V81.6275C205.948 80.7092 206.595 80.165 207.411 80.165C208.227 80.165 208.873 80.7092 208.873 81.6275V96.0477ZM222.118 80.165C226.914 80.165 230.621 83.8381 230.621 88.8036C230.621 93.8031 226.778 97.5101 222.118 97.5101C217.289 97.5101 213.48 93.8031 213.48 88.8036C213.48 83.7021 217.289 80.165 222.118 80.165ZM222.118 94.9254C225.247 94.9254 227.56 92.1706 227.56 88.8036C227.56 85.3346 225.213 82.7498 222.118 82.7498C218.785 82.7498 216.541 85.2665 216.541 88.8036C216.541 92.3746 218.887 94.9254 222.118 94.9254ZM244.599 72.2747C245.721 73.057 245.653 74.0092 245.007 74.5194C244.395 75.0295 243.817 74.8595 243.001 74.3834C242.661 74.1793 242.116 74.0773 241.674 74.0773C239.26 74.0773 238.647 76.1179 238.647 79.5189V80.165H242.525C243.443 80.165 243.919 80.6752 243.919 81.4574C243.919 82.2397 243.443 82.7498 242.525 82.7498H238.647L238.681 96.0477C238.681 97.068 238.035 97.5101 237.219 97.5101C236.403 97.5101 235.757 97.068 235.757 96.0477L235.723 82.7498H235.212C234.396 82.7498 233.818 82.2397 233.818 81.4574C233.818 80.6752 234.362 80.165 235.212 80.165H235.723V79.5189C235.723 74.0092 237.525 71.4925 241.674 71.4925C242.831 71.4925 243.817 71.7306 244.599 72.2747ZM247.812 72.9549C247.812 71.9686 248.322 71.4245 249.274 71.4245C250.227 71.4245 250.737 71.9686 250.737 72.9549V92.5787C250.737 94.0751 251.689 94.7213 253.05 94.7213C253.322 94.7213 253.662 94.6873 253.968 94.6533C254.784 94.5513 255.294 94.8574 255.396 95.5376C255.532 96.3198 255.294 96.7619 254.886 97C254.002 97.5101 253.05 97.5101 252.573 97.5101C249.615 97.5101 247.812 95.7076 247.812 92.7488V72.9549Z" fill="white"/>
<path d="M277.216 95.5716C277.522 96.3538 277.148 97.5101 275.89 97.5101C275.073 97.5101 274.733 97.102 274.529 96.5919L272.659 91.7285H261.571L259.701 96.5919C259.497 97.102 259.157 97.5101 258.34 97.5101C257.082 97.5101 256.708 96.3538 257.014 95.5716L264.326 76.458C265.619 73.159 266.299 73.0229 267.115 73.0229C267.931 73.0229 268.612 73.159 269.904 76.458L277.216 95.5716ZM262.592 89.0417H271.638L269.326 83.0219L267.319 77.5123C267.285 77.4442 267.183 77.0361 267.115 77.0361C267.047 77.0361 266.945 77.4442 266.911 77.5123L264.904 82.9879L262.592 89.0417ZM281.633 74.4854C281.633 73.7031 282.279 73.0229 283.095 73.0229C283.911 73.0229 284.557 73.7031 284.557 74.4854V96.0477C284.557 96.8299 283.911 97.5101 283.095 97.5101C282.279 97.5101 281.633 96.8299 281.633 96.0477V74.4854Z" fill="#059FE9"/>
<g filter="url(#filter0_d_952_125885)">
<path d="M121.945 65C121.002 65 120.281 65.7141 120.281 66.6479V73.4047C116.731 74.0089 113.68 76.4254 111.794 79.831H103.086C102.143 79.831 101.422 80.5451 101.422 81.4789C101.422 82.4127 102.143 83.1268 103.086 83.1268H110.463C110.02 84.6648 109.742 86.3127 109.742 88.0704C109.742 89.8282 109.964 91.4761 110.463 93.0141H88.664C87.7211 93.0141 87 93.7282 87 94.662C87 95.5958 87.7211 96.3099 88.664 96.3099H94.1003C93.823 96.969 93.6561 97.738 93.6561 98.507C93.6561 101.528 96.1522 104 99.2029 104C102.254 104 104.75 101.528 104.75 98.507C104.75 97.738 104.583 96.969 104.306 96.3099H111.85C114.069 100.265 117.784 102.901 122 102.901C126.216 102.901 129.932 100.265 132.151 96.3099H139.694C139.417 96.969 139.25 97.738 139.25 98.507C139.25 101.528 141.746 104 144.797 104C147.848 104 150.344 101.528 150.344 98.507C150.344 97.738 150.178 96.969 149.901 96.3099H155.336C156.279 96.3099 157 95.5958 157 94.662C157 93.7282 156.279 93.0141 155.336 93.0141H133.426C133.87 91.4761 134.148 89.8282 134.148 88.0704C134.148 86.3127 133.925 84.6648 133.426 83.1268H140.804C141.747 83.1268 142.468 82.4127 142.468 81.4789C142.468 80.5451 141.747 79.831 140.804 79.831H132.096C130.21 76.3704 127.159 73.9539 123.609 73.4047V66.6479C123.609 65.7141 122.888 65 121.945 65ZM121.945 76.5352C126.826 76.5352 130.82 81.6986 130.82 88.0704C130.82 94.4423 126.826 99.6056 121.945 99.6056C117.064 99.6056 113.07 94.4423 113.07 88.0704C113.07 81.6986 117.064 76.5352 121.945 76.5352ZM117.507 83.6761C116.564 83.6761 115.843 84.3901 115.843 85.3239C115.843 86.2577 116.564 86.9718 117.507 86.9718H126.382C127.325 86.9718 128.046 86.2577 128.046 85.3239C128.046 84.3901 127.325 83.6761 126.382 83.6761H117.507ZM99.2029 96.3099C100.423 96.3099 101.422 97.2986 101.422 98.507C101.422 99.7155 100.423 100.704 99.2029 100.704C97.9826 100.704 96.9842 99.7155 96.9842 98.507C96.9842 97.2986 97.9826 96.3099 99.2029 96.3099ZM144.687 96.3099C145.907 96.3099 146.905 97.2986 146.905 98.507C146.905 99.7155 145.907 100.704 144.687 100.704C143.466 100.704 142.468 99.7155 142.468 98.507C142.468 97.2986 143.466 96.3099 144.687 96.3099Z" fill="white"/>
</g>
<defs>
<filter id="filter0_d_952_125885" x="80.8231" y="60.3673" width="82.3538" height="51.3538" filterUnits="userSpaceOnUse" color-interpolation-filters="sRGB">
<feFlood flood-opacity="0" result="BackgroundImageFix"/>
<feColorMatrix in="SourceAlpha" type="matrix" values="0 0 0 0 0 0 0 0 0 0 0 0 0 0 0 0 0 0 127 0" result="hardAlpha"/>
<feOffset dy="1.54423"/>
<feGaussianBlur stdDeviation="3.08845"/>
<feColorMatrix type="matrix" values="0 0 0 0 0.167639 0 0 0 0 0.227481 0 0 0 0 0.283333 0 0 0 0.06 0"/>
<feBlend mode="normal" in2="BackgroundImageFix" result="effect1_dropShadow_952_125885"/>
<feBlend mode="normal" in="SourceGraphic" in2="effect1_dropShadow_952_125885" result="shape"/>
</filter>
</defs>
</svg>
