<svg width="332" height="311" viewBox="0 0 332 311" fill="none" xmlns="http://www.w3.org/2000/svg">
<path d="M296.027 92.875C296.027 92.875 283.832 43.9646 210.004 13.1191C136.176 -17.7263 70.1257 10.842 55.068 46.9863C40.0104 83.1305 55.7909 102.648 45.7428 133.516C35.6947 164.383 -15.9264 203.476 4.9071 250.883C25.7406 298.29 123.229 311.829 202.117 302.049C281.006 292.268 342.639 183.915 296.027 92.875Z" fill="#F8F8F9"/>
<path d="M103.943 53.9116H43.9437C42.0265 53.9116 40.1878 54.6732 38.8321 56.0289C37.4765 57.3845 36.7148 59.2232 36.7148 61.1404V83.5498C36.7148 85.4671 37.4765 87.3057 38.8321 88.6614C40.1878 90.0171 42.0265 90.7787 43.9437 90.7787H103.582L111.172 100.899V61.1404C111.172 59.2232 110.41 57.3845 109.055 56.0289C107.699 54.6732 105.86 53.9116 103.943 53.9116Z" fill="#3F3D56"/>
<path d="M49.778 78.5836H47.6094V64.8488H49.778V70.7258H52.2214V64.8488H54.39V78.5836H52.2214V72.7065H49.778V78.5836Z" fill="#1E80F2"/>
<path d="M55.9883 64.8706H58.1569V78.6054H55.9883V64.8706Z" fill="#1E80F2"/>
<path d="M62.116 64.8706H68.7738V66.8297H66.5184V78.5838H64.3497V66.8297H62.1016L62.116 64.8706Z" fill="#1E80F2"/>
<path d="M71.8698 78.5836H69.7012V64.8488H71.8698V70.7258H74.3059V64.8488H76.4746V78.5836H74.3059V72.7065H71.8554L71.8698 78.5836Z" fill="#1E80F2"/>
<path d="M80.2343 70.6463H83.1909V72.6053H80.2343V76.6245H83.9571V78.5836H78.0801V64.8488H83.9571V66.8078H80.2343V70.6463Z" fill="#1E80F2"/>
<path d="M89.7903 78.5839C89.6136 78.0411 89.5472 77.4684 89.5951 76.8996V74.7309C89.5951 73.4586 89.1686 72.9888 88.1493 72.9888H87.4265V78.5694H85.2578V64.8346H88.5108C90.7445 64.8346 91.706 65.8756 91.706 67.9864V69.0635C91.706 70.4731 91.2505 71.3984 90.2602 71.8466C91.3373 72.302 91.706 73.3357 91.706 74.7381V76.8562C91.6668 77.421 91.7481 77.9878 91.9445 78.5188L89.7903 78.5839ZM87.4409 66.8298V71.0442H88.2867C89.0891 71.0442 89.5807 70.69 89.5807 69.5984V68.2394C89.5807 67.2635 89.2481 66.7936 88.4819 66.7936L87.4409 66.8298Z" fill="#1E80F2"/>
<path d="M95.3196 70.6463H98.2762V72.6053H95.3196V76.6245H99.0353V78.5836H93.1582V64.8488H99.0353V66.8078H95.3196V70.6463Z" fill="#1E80F2"/>
<path d="M100.648 75.5476L100.373 70.5886V64.8706H102.542V70.5886L102.267 75.5476H100.648ZM102.484 76.5091V78.5838H100.409V76.5091H102.484Z" fill="#1E80F2"/>
<path d="M315.748 299.641H330.929" stroke="#263238" stroke-width="0.722884" stroke-linecap="round" stroke-linejoin="round"/>
<path d="M29.4863 299.641H310.688" stroke="#263238" stroke-width="0.722884" stroke-linecap="round" stroke-linejoin="round"/>
<path d="M9.71484 299.641H20.0882" stroke="#263238" stroke-width="0.722884" stroke-linecap="round" stroke-linejoin="round"/>
<path d="M113.833 202.291H102.787V298.29H113.833V202.291Z" fill="#3F3D56" stroke="#3F3D56" stroke-width="0.722884" stroke-linecap="round" stroke-linejoin="round"/>
<path d="M26.248 237.054V243.806H70.2717V237.054H26.248Z" fill="#3F3D56" stroke="#3F3D56" stroke-width="0.722884" stroke-linecap="round" stroke-linejoin="round"/>
<path d="M30.7732 213.749H24.0215V240.763H30.7732V213.749Z" fill="#3F3D56" stroke="#3F3D56" stroke-width="0.722884" stroke-linecap="round" stroke-linejoin="round"/>
<path d="M33.5857 240.878C33.5857 241.691 33.4256 242.495 33.1145 243.245C32.8035 243.996 32.3476 244.677 31.7729 245.251C31.1982 245.825 30.516 246.28 29.7653 246.591C29.0146 246.901 28.2101 247.06 27.3978 247.059C27.1954 247.059 26.993 247.059 26.7978 247.059C25.6719 246.948 24.5981 246.53 23.6931 245.851C22.7881 245.172 22.0865 244.258 21.6648 243.208C21.243 242.158 21.1172 241.013 21.3009 239.896C21.4846 238.78 21.9709 237.735 22.7069 236.876C23.4429 236.017 24.4003 235.376 25.4752 235.022C26.5501 234.669 27.7012 234.618 28.8034 234.873C29.9056 235.128 30.9167 235.681 31.7267 236.471C32.5367 237.261 33.1147 238.258 33.3978 239.353C33.5212 239.852 33.5843 240.364 33.5857 240.878Z" fill="white" stroke="#3F3D56" stroke-width="0.722884" stroke-linecap="round" stroke-linejoin="round"/>
<path d="M34.041 217.912C34.0372 219.552 33.3838 221.123 32.224 222.281C31.0641 223.439 29.4924 224.091 27.8531 224.093C27.6507 224.093 27.4483 224.093 27.2459 224.093C26.1194 223.985 25.0442 223.57 24.137 222.894C23.2299 222.217 22.5256 221.305 22.1009 220.256C21.6761 219.207 21.5471 218.062 21.7279 216.945C21.9087 215.828 22.3924 214.781 23.1263 213.92C23.8603 213.059 24.8163 212.415 25.8905 212.059C26.9648 211.703 28.116 211.649 29.219 211.902C30.322 212.155 31.3346 212.705 32.1465 213.493C32.9585 214.282 33.5387 215.278 33.8242 216.373C33.963 216.874 34.0359 217.392 34.041 217.912Z" fill="white" stroke="#3F3D56" stroke-width="0.722884" stroke-linecap="round" stroke-linejoin="round"/>
<path d="M45.121 201.141L36.1211 205.987L37.9854 209.45L46.9853 204.604L45.121 201.141Z" fill="#3F3D56" stroke="#3F3D56" stroke-width="0.722884" stroke-linecap="round" stroke-linejoin="round"/>
<path d="M48.4779 204.98L44.0466 207.365L41.2129 202.11L45.6514 199.717C45.9997 199.526 46.3826 199.407 46.7777 199.366C47.1727 199.325 47.572 199.364 47.9518 199.48C48.3317 199.596 48.6846 199.787 48.9897 200.041C49.2948 200.295 49.546 200.608 49.7285 200.961C50.0912 201.66 50.1633 202.475 49.9292 203.227C49.6951 203.98 49.1735 204.609 48.4779 204.98Z" fill="white" stroke="#3F3D56" stroke-width="0.722884" stroke-linecap="round" stroke-linejoin="round"/>
<path d="M29.0539 182.693L28.7358 201.026L24.8105 200.96L25.1214 182.628L29.0539 182.693Z" fill="#3F3D56" stroke="#3F3D56" stroke-width="0.722884" stroke-linecap="round" stroke-linejoin="round"/>
<path d="M30.115 181.587L30.0355 186.648L24.0645 186.503L24.144 181.443C24.1506 181.051 24.2343 180.664 24.3905 180.304C24.5466 179.944 24.7721 179.619 25.0541 179.347C25.336 179.074 25.6689 178.86 26.0337 178.716C26.3984 178.572 26.788 178.501 27.1801 178.508C27.5762 178.514 27.9672 178.598 28.3303 178.757C28.6933 178.915 29.0211 179.144 29.2944 179.431C29.5677 179.718 29.7811 180.056 29.922 180.427C30.0629 180.797 30.1285 181.192 30.115 181.587Z" fill="white" stroke="#3F3D56" stroke-width="0.722884" stroke-linecap="round" stroke-linejoin="round"/>
<path d="M43.7423 189.344L35.1183 205.522L31.6484 203.679L40.2652 187.501L43.7423 189.344Z" fill="#3F3D56" stroke="#3F3D56" stroke-width="0.722884" stroke-linecap="round" stroke-linejoin="round"/>
<path d="M45.1883 188.845L42.8245 193.291L37.5547 190.493L39.9113 186.04C40.2841 185.343 40.9176 184.822 41.6733 184.591C42.429 184.359 43.2457 184.436 43.945 184.804C44.6451 185.176 45.1692 185.81 45.4023 186.568C45.6354 187.325 45.5585 188.144 45.1883 188.845Z" fill="white" stroke="#3F3D56" stroke-width="0.722884" stroke-linecap="round" stroke-linejoin="round"/>
<path d="M15.1157 189.272L23.6602 205.493L20.1832 207.329L11.6387 191.108L15.1157 189.272Z" fill="#3F3D56" stroke="#3F3D56" stroke-width="0.722884" stroke-linecap="round" stroke-linejoin="round"/>
<path d="M23.1319 201.033C23.0052 200.283 22.6588 199.587 22.1364 199.034C21.6141 198.48 20.9394 198.094 20.1976 197.925C19.4559 197.755 18.6804 197.809 17.9695 198.08C17.2585 198.351 16.6439 198.827 16.2036 199.448C15.7632 200.068 15.5168 200.806 15.4956 201.566C15.4744 202.327 15.6793 203.077 16.0844 203.721C16.4895 204.365 17.0766 204.875 17.7714 205.185C18.4661 205.495 19.2373 205.592 19.9874 205.464C20.9916 205.293 21.8866 204.73 22.4762 203.899C23.0657 203.068 23.3016 202.038 23.1319 201.033Z" fill="white" stroke="#3F3D56" stroke-width="0.722884" stroke-linecap="round" stroke-linejoin="round"/>
<path d="M26.8907 201.539C29.0146 201.539 30.7364 199.817 30.7364 197.693C30.7364 195.569 29.0146 193.848 26.8907 193.848C24.7667 193.848 23.0449 195.569 23.0449 197.693C23.0449 199.817 24.7667 201.539 26.8907 201.539Z" fill="white" stroke="#3F3D56" stroke-width="0.722884" stroke-linecap="round" stroke-linejoin="round"/>
<path d="M39.4417 199.913C39.5574 199.161 39.4475 198.391 39.1258 197.702C38.8041 197.012 38.2851 196.434 37.6345 196.039C36.9839 195.645 36.231 195.452 35.4709 195.486C34.7108 195.519 33.9777 195.778 33.3644 196.228C32.7512 196.678 32.2853 197.3 32.0257 198.016C31.7661 198.731 31.7245 199.507 31.9061 200.246C32.0877 200.985 32.4844 201.653 33.046 202.166C33.6076 202.68 34.3088 203.015 35.061 203.129C35.5599 203.207 36.0691 203.184 36.5595 203.064C37.0499 202.944 37.5117 202.729 37.9187 202.43C38.3256 202.131 38.6696 201.755 38.9309 201.323C39.1922 200.891 39.3658 200.412 39.4417 199.913Z" fill="white" stroke="#3F3D56" stroke-width="0.722884" stroke-linecap="round" stroke-linejoin="round"/>
<path d="M15.5141 187.79L17.8707 192.243L12.5937 195.04L10.2371 190.58C10.053 190.234 9.93915 189.855 9.90204 189.464C9.86492 189.074 9.90529 188.68 10.0208 188.305C10.1363 187.93 10.3248 187.582 10.5752 187.28C10.8257 186.978 11.1333 186.729 11.4804 186.546C12.1806 186.179 12.998 186.103 13.7538 186.336C14.5097 186.569 15.1425 187.092 15.5141 187.79Z" fill="white" stroke="#3F3D56" stroke-width="0.722884" stroke-linecap="round" stroke-linejoin="round"/>
<path d="M38.7029 208.457C38.7029 211.333 37.5605 214.091 35.527 216.124C33.4935 218.158 30.7355 219.3 27.8597 219.3C27.4982 219.3 27.1368 219.3 26.797 219.257C24.8246 219.061 22.9434 218.329 21.3581 217.139C19.7727 215.949 18.5438 214.348 17.805 212.508C17.0661 210.669 16.8455 208.662 17.1672 206.707C17.4889 204.751 18.3405 202.92 19.6295 201.415C20.9186 199.909 22.5957 198.785 24.4786 198.166C26.3614 197.547 28.3781 197.455 30.3093 197.902C32.2405 198.348 34.0123 199.316 35.4323 200.699C36.8522 202.082 37.8659 203.827 38.3632 205.746C38.5874 206.632 38.7015 207.543 38.7029 208.457Z" fill="white" stroke="#3F3D56" stroke-width="0.722884" stroke-linecap="round" stroke-linejoin="round"/>
<path d="M38.7033 208.457C38.7033 211.333 37.5609 214.091 35.5274 216.124C33.4938 218.158 30.7358 219.3 27.86 219.3C27.4986 219.3 27.1371 219.3 26.7974 219.257C26.3819 217.652 26.3398 215.974 26.6742 214.351C27.0085 212.728 27.7105 211.203 28.7262 209.893C29.7419 208.584 31.0442 207.524 32.5332 206.797C34.0221 206.069 35.6581 205.692 37.3153 205.696C37.6695 205.696 38.0382 205.696 38.378 205.746C38.5973 206.633 38.7065 207.543 38.7033 208.457Z" fill="white" stroke="#3F3D56" stroke-width="0.722884" stroke-linecap="round" stroke-linejoin="round"/>
<path d="M93.3029 241.074C95.144 233.206 90.2581 225.335 82.3901 223.494C74.522 221.653 66.6512 226.538 64.8101 234.406C62.9691 242.274 67.8549 250.145 75.7229 251.986C83.591 253.827 91.4618 248.942 93.3029 241.074Z" fill="white" stroke="#3F3D56" stroke-width="0.722884" stroke-linecap="round" stroke-linejoin="round"/>
<path d="M81.7761 244.283C85.3908 242.775 87.099 238.623 85.5914 235.008C84.0837 231.393 79.9312 229.685 76.3165 231.193C72.7018 232.7 70.9937 236.853 72.5013 240.468C74.0089 244.082 78.1614 245.79 81.7761 244.283Z" fill="#3F3D56" stroke="#3F3D56" stroke-width="0.722884" stroke-linecap="round" stroke-linejoin="round"/>
<path d="M76.5394 299.642H141.454L142.387 295.247C142.761 293.491 142.425 291.659 141.453 290.15C140.48 288.641 138.95 287.578 137.197 287.194C127.994 285.126 108.072 284.382 108.072 284.382C103.272 284.534 89.9128 285.105 80.7105 287.201C78.9693 287.599 77.4546 288.666 76.4941 290.171C75.5336 291.677 75.2045 293.5 75.578 295.247L76.5394 299.642Z" fill="white" stroke="#3F3D56" stroke-width="0.722884" stroke-linecap="round" stroke-linejoin="round"/>
<path d="M124.618 285.452C116.305 284.686 108.093 284.382 108.093 284.382C105.071 284.476 98.6517 284.743 92.0156 285.452C93.953 292.066 100.517 296.938 108.317 296.938C116.117 296.938 122.68 292.044 124.618 285.452Z" fill="#1E80F2" stroke="#3F3D56" stroke-width="0.722884" stroke-linecap="round" stroke-linejoin="round"/>
<path d="M176.118 268.645L180.156 263.234L144.873 236.906L140.835 242.317L176.118 268.645Z" fill="#3F3D56" stroke="#3F3D56" stroke-width="0.722884" stroke-linecap="round" stroke-linejoin="round"/>
<path d="M158.561 284.62L163.973 288.658L180.128 267.007L174.717 262.969L158.561 284.62Z" fill="#3F3D56" stroke="#3F3D56" stroke-width="0.722884" stroke-linecap="round" stroke-linejoin="round"/>
<path d="M172.524 261.191C173.011 260.539 173.621 259.989 174.321 259.572C175.02 259.156 175.795 258.881 176.601 258.765C177.406 258.648 178.227 258.691 179.016 258.891C179.805 259.092 180.547 259.446 181.199 259.933L181.668 260.317C182.505 261.079 183.115 262.056 183.435 263.142C183.754 264.227 183.77 265.38 183.48 266.474C183.19 267.567 182.606 268.561 181.79 269.346C180.975 270.131 179.961 270.677 178.857 270.925C177.753 271.174 176.602 271.115 175.529 270.754C174.456 270.394 173.503 269.747 172.772 268.883C172.042 268.018 171.563 266.97 171.386 265.853C171.21 264.735 171.343 263.59 171.772 262.543C171.966 262.063 172.219 261.609 172.524 261.191Z" fill="white" stroke="#3F3D56" stroke-width="0.722884" stroke-linecap="round" stroke-linejoin="round"/>
<path d="M158.406 278.49C159.323 277.129 160.742 276.188 162.353 275.874C163.963 275.559 165.633 275.897 166.994 276.813C167.16 276.922 167.319 277.045 167.478 277.168C168.351 277.888 169.01 278.834 169.382 279.902C169.755 280.971 169.827 282.121 169.592 283.228C169.356 284.335 168.821 285.356 168.046 286.18C167.27 287.004 166.284 287.6 165.193 287.903C164.103 288.205 162.95 288.203 161.861 287.896C160.772 287.589 159.788 286.989 159.015 286.162C158.243 285.334 157.713 284.311 157.482 283.203C157.251 282.095 157.328 280.945 157.705 279.878C157.88 279.388 158.116 278.922 158.406 278.49Z" fill="white" stroke="#3F3D56" stroke-width="0.722884" stroke-linecap="round" stroke-linejoin="round"/>
<path d="M139.825 286.235L149.998 287.234L150.382 283.32L140.21 282.321L139.825 286.235Z" fill="#3F3D56" stroke="#3F3D56" stroke-width="0.722884" stroke-linecap="round" stroke-linejoin="round"/>
<path d="M139.207 281.201L144.224 281.692L143.639 287.634L138.622 287.143C137.834 287.066 137.109 286.68 136.606 286.068C136.103 285.457 135.863 284.671 135.94 283.883C136.018 283.094 136.407 282.369 137.019 281.866C137.632 281.363 138.419 281.124 139.207 281.201Z" fill="white" stroke="#3F3D56" stroke-width="0.722884" stroke-linecap="round" stroke-linejoin="round"/>
<path d="M149.255 283.731C150.049 282.547 151.069 281.532 152.257 280.742C153.444 279.953 154.776 279.406 156.175 279.132C157.575 278.858 159.014 278.863 160.412 279.146C161.809 279.429 163.137 279.985 164.32 280.782C164.616 280.984 164.898 281.194 165.173 281.418C166.701 282.681 167.854 284.339 168.506 286.211C169.157 288.084 169.283 290.099 168.87 292.038C168.456 293.977 167.519 295.766 166.16 297.209C164.801 298.653 163.072 299.696 161.162 300.226C159.251 300.755 157.232 300.751 155.324 300.213C153.415 299.675 151.691 298.625 150.338 297.175C148.985 295.726 148.056 293.933 147.651 291.993C147.246 290.052 147.38 288.037 148.04 286.167C148.339 285.307 148.748 284.488 149.255 283.731Z" fill="white" stroke="#3F3D56" stroke-width="0.722884" stroke-linecap="round" stroke-linejoin="round"/>
<path d="M137.572 294.993L151.018 284.938L153.179 287.822L139.734 297.871L137.572 294.993Z" fill="#3F3D56" stroke="#3F3D56" stroke-width="0.722884" stroke-linecap="round" stroke-linejoin="round"/>
<path d="M136.177 294.842L139.871 292.044L143.153 296.381L139.459 299.15C138.879 299.584 138.15 299.77 137.433 299.667C136.716 299.564 136.069 299.181 135.635 298.601C135.218 298.027 135.042 297.313 135.143 296.611C135.244 295.909 135.615 295.275 136.177 294.842Z" fill="white" stroke="#3F3D56" stroke-width="0.722884" stroke-linecap="round" stroke-linejoin="round"/>
<path d="M154.935 288.04C155.106 287.297 155.053 286.521 154.782 285.809C154.511 285.097 154.034 284.481 153.413 284.041C152.792 283.6 152.053 283.354 151.292 283.333C150.53 283.312 149.78 283.518 149.135 283.925C148.491 284.331 147.982 284.92 147.673 285.616C147.364 286.312 147.268 287.085 147.399 287.835C147.529 288.586 147.879 289.281 148.405 289.832C148.931 290.383 149.609 290.766 150.352 290.931C151.343 291.152 152.381 290.971 153.24 290.43C154.098 289.888 154.708 289.029 154.935 288.04Z" fill="white" stroke="#3F3D56" stroke-width="0.722884" stroke-linecap="round" stroke-linejoin="round"/>
<path d="M162.064 305.1L164.06 291.307L167.016 291.726L165.028 305.519L162.064 305.1Z" fill="#3F3D56" stroke="#3F3D56" stroke-width="0.722884" stroke-linecap="round" stroke-linejoin="round"/>
<path d="M161.159 305.83L161.702 302.035L166.191 302.678L165.648 306.466C165.607 306.761 165.507 307.045 165.356 307.302C165.204 307.559 165.004 307.783 164.765 307.963C164.527 308.142 164.256 308.272 163.967 308.347C163.678 308.421 163.377 308.438 163.082 308.396C162.487 308.31 161.951 307.992 161.59 307.511C161.23 307.029 161.075 306.425 161.159 305.83Z" fill="white" stroke="#3F3D56" stroke-width="0.722884" stroke-linecap="round" stroke-linejoin="round"/>
<path d="M168.172 290.823C167.831 290.292 167.341 289.875 166.764 289.623C166.186 289.371 165.547 289.295 164.927 289.407C164.307 289.518 163.733 289.81 163.279 290.247C162.825 290.684 162.51 291.245 162.375 291.861C162.24 292.476 162.29 293.118 162.519 293.705C162.749 294.292 163.147 294.797 163.663 295.158C164.18 295.519 164.792 295.719 165.422 295.732C166.052 295.745 166.672 295.571 167.203 295.232C167.916 294.776 168.418 294.055 168.599 293.228C168.781 292.401 168.627 291.536 168.172 290.823Z" fill="white" stroke="#3F3D56" stroke-width="0.722884" stroke-linecap="round" stroke-linejoin="round"/>
<path d="M148.756 303.263L157.72 289.066L160.763 290.974L151.806 305.179L148.756 303.263Z" fill="#3F3D56" stroke="#3F3D56" stroke-width="0.722884" stroke-linecap="round" stroke-linejoin="round"/>
<path d="M147.403 303.61L149.854 299.706L154.487 302.598L152.03 306.509C151.643 307.121 151.03 307.555 150.324 307.716C149.618 307.877 148.878 307.752 148.263 307.369C147.652 306.984 147.218 306.372 147.057 305.667C146.896 304.963 147.02 304.223 147.403 303.61Z" fill="white" stroke="#3F3D56" stroke-width="0.722884" stroke-linecap="round" stroke-linejoin="round"/>
<path d="M162.498 290.555C162.391 289.802 162.063 289.098 161.555 288.533C161.047 287.967 160.382 287.564 159.645 287.377C158.909 287.189 158.133 287.224 157.416 287.478C156.699 287.732 156.074 288.193 155.62 288.803C155.165 289.413 154.902 290.144 154.864 290.903C154.826 291.663 155.014 292.416 155.405 293.069C155.796 293.721 156.371 294.243 157.059 294.567C157.746 294.892 158.515 295.005 159.267 294.893C160.27 294.744 161.173 294.204 161.778 293.391C162.384 292.578 162.643 291.559 162.498 290.555Z" fill="white" stroke="#3F3D56" stroke-width="0.722884" stroke-linecap="round" stroke-linejoin="round"/>
<path d="M145.891 250.297C152.686 245.923 154.648 236.87 150.275 230.075C145.901 223.281 136.847 221.318 130.053 225.692C123.258 230.066 121.296 239.119 125.669 245.914C130.043 252.708 139.097 254.671 145.891 250.297Z" fill="white" stroke="#3F3D56" stroke-width="0.722884" stroke-linecap="round" stroke-linejoin="round"/>
<path d="M144.422 240.956C146.055 237.396 144.493 233.187 140.933 231.554C137.373 229.921 133.164 231.483 131.531 235.043C129.898 238.603 131.46 242.813 135.02 244.445C138.58 246.078 142.789 244.516 144.422 240.956Z" fill="#3F3D56" stroke="#3F3D56" stroke-width="0.722884" stroke-linecap="round" stroke-linejoin="round"/>
<path d="M108.312 208.999C121.291 208.999 131.812 198.477 131.812 185.498C131.812 172.519 121.291 161.997 108.312 161.997C95.3323 161.997 84.8105 172.519 84.8105 185.498C84.8105 198.477 95.3323 208.999 108.312 208.999Z" fill="#1E80F2" stroke="#3F3D56" stroke-width="0.722884" stroke-linecap="round" stroke-linejoin="round"/>
<path d="M141.91 201.149C146.957 194.821 150.116 187.197 151.022 179.154C151.929 171.111 150.547 162.976 147.036 155.683C143.524 148.391 138.026 142.237 131.173 137.931C124.319 133.625 116.39 131.34 108.296 131.34C100.202 131.34 92.2725 133.625 85.4193 137.931C78.5661 142.237 73.0676 148.391 69.5561 155.683C66.0446 162.976 64.6628 171.111 65.5695 179.154C66.4763 187.197 69.6348 194.821 74.6819 201.149H141.91Z" fill="white" stroke="#3F3D56" stroke-width="0.722884" stroke-linecap="round" stroke-linejoin="round"/>
<path d="M134.608 158.108H80.9269C77.6611 158.108 75.0137 160.755 75.0137 164.021V183.047C75.0137 186.313 77.6611 188.961 80.9269 188.961H134.608C137.874 188.961 140.521 186.313 140.521 183.047V164.021C140.521 160.755 137.874 158.108 134.608 158.108Z" fill="#1E80F2" stroke="#3F3D56" stroke-width="0.722884" stroke-linecap="round" stroke-linejoin="round"/>
<path d="M82.0996 172.284C82.8096 170.296 84.1035 168.569 85.8118 167.33C87.5201 166.09 89.5631 165.395 91.6731 165.337C93.783 165.278 95.8615 165.858 97.636 167.001C99.4105 168.144 100.798 169.797 101.617 171.742" stroke="#3F3D56" stroke-width="3.61442" stroke-linecap="round" stroke-linejoin="round"/>
<path d="M114.477 172.284C115.187 170.296 116.48 168.569 118.189 167.33C119.897 166.09 121.94 165.395 124.05 165.337C126.16 165.278 128.238 165.858 130.013 167.001C131.787 168.144 133.175 169.797 133.994 171.742" stroke="#3F3D56" stroke-width="3.61442" stroke-linecap="round" stroke-linejoin="round"/>
<path d="M102.643 179.433C102.824 180.867 103.522 182.185 104.606 183.14C105.69 184.095 107.086 184.623 108.53 184.623C109.975 184.623 111.371 184.095 112.455 183.14C113.539 182.185 114.237 180.867 114.418 179.433H102.643Z" fill="white" stroke="#3F3D56" stroke-width="0.722884" stroke-linecap="round" stroke-linejoin="round"/>
<path d="M163.944 181.877C162.751 181.877 161.607 181.403 160.764 180.56C159.921 179.716 159.447 178.573 159.447 177.38V167.151C159.446 166.56 159.562 165.975 159.787 165.429C160.013 164.882 160.344 164.386 160.762 163.967C161.179 163.549 161.675 163.217 162.221 162.991C162.767 162.764 163.353 162.648 163.944 162.648C164.535 162.647 165.12 162.763 165.667 162.988C166.213 163.214 166.709 163.545 167.128 163.962C167.546 164.38 167.878 164.876 168.104 165.422C168.331 165.968 168.447 166.553 168.447 167.144V177.373C168.448 177.965 168.332 178.551 168.106 179.098C167.88 179.644 167.549 180.141 167.13 180.56C166.712 180.978 166.215 181.31 165.668 181.536C165.121 181.762 164.535 181.878 163.944 181.877Z" fill="#3F3D56" stroke="#3F3D56" stroke-width="0.722884" stroke-linecap="round" stroke-linejoin="round"/>
<path d="M51.4469 181.877C50.8559 181.878 50.2704 181.762 49.724 181.536C49.1777 181.311 48.6812 180.98 48.2629 180.562C47.8446 180.145 47.5127 179.649 47.2863 179.103C47.0599 178.557 46.9434 177.971 46.9434 177.38V167.151C46.9424 166.56 47.0583 165.974 47.2842 165.427C47.5102 164.88 47.8419 164.383 48.2603 163.965C48.6787 163.546 49.1755 163.215 49.7224 162.989C50.2692 162.763 50.8552 162.647 51.4469 162.648C52.0374 162.648 52.6221 162.764 53.1676 162.99C53.7131 163.216 54.2088 163.547 54.6263 163.965C55.0439 164.382 55.3751 164.878 55.601 165.424C55.827 165.969 55.9433 166.554 55.9433 167.144V177.373C55.9442 177.964 55.8286 178.55 55.6031 179.096C55.3775 179.642 55.0465 180.139 54.6289 180.557C54.2113 180.975 53.7153 181.307 53.1693 181.534C52.6233 181.76 52.038 181.877 51.4469 181.877Z" fill="#3F3D56" stroke="#3F3D56" stroke-width="0.722884" stroke-linecap="round" stroke-linejoin="round"/>
<path d="M65.8621 135.72C61.8849 141.597 59.7644 148.533 59.7754 155.629V163.06" stroke="#3F3D56" stroke-width="10.1204" stroke-linecap="round" stroke-linejoin="round"/>
<path d="M151.22 135.749C147.965 130.9 143.566 126.927 138.413 124.18C133.259 121.432 127.508 119.996 121.668 119.998H95.3912C89.5591 119.994 83.8154 121.424 78.666 124.161C73.5166 126.899 69.1193 130.861 65.8613 135.699" stroke="#3F3D56" stroke-width="5.06019" stroke-linecap="round" stroke-linejoin="round"/>
<path d="M157.278 163.06V155.629C157.29 148.546 155.18 141.622 151.221 135.749" stroke="#3F3D56" stroke-width="10.1204" stroke-linecap="round" stroke-linejoin="round"/>
<path d="M63.3625 155.058H57.3336C53.8443 155.058 51.0156 157.886 51.0156 161.376V182.26C51.0156 185.749 53.8443 188.578 57.3336 188.578H63.3625C66.8518 188.578 69.6805 185.749 69.6805 182.26V161.376C69.6805 157.886 66.8518 155.058 63.3625 155.058Z" fill="white" stroke="#3F3D56" stroke-width="0.722884" stroke-linecap="round" stroke-linejoin="round"/>
<path d="M61.3016 155.058H59.4004V188.578H61.3016V155.058Z" fill="#1E80F2" stroke="#3F3D56" stroke-width="0.722884" stroke-linecap="round" stroke-linejoin="round"/>
<path d="M158.579 155.058H152.55C149.061 155.058 146.232 157.886 146.232 161.376V182.26C146.232 185.749 149.061 188.578 152.55 188.578H158.579C162.069 188.578 164.897 185.749 164.897 182.26V161.376C164.897 157.886 162.069 155.058 158.579 155.058Z" fill="white" stroke="#3F3D56" stroke-width="0.722884" stroke-linecap="round" stroke-linejoin="round"/>
<path d="M156.52 155.058H154.619V188.578H156.52V155.058Z" fill="#1E80F2" stroke="#3F3D56" stroke-width="0.722884" stroke-linecap="round" stroke-linejoin="round"/>
<path d="M108.461 152.014C111.754 152.015 114.995 151.191 117.888 149.618C120.781 148.045 123.234 145.772 125.023 143.007L129.1 136.697C122.639 133.129 115.369 131.284 107.989 131.341C100.609 131.398 93.3676 133.355 86.9629 137.022L93.1002 144.641C94.9465 146.94 97.2849 148.796 99.9434 150.072C102.602 151.348 105.513 152.012 108.461 152.014Z" fill="#1E80F2" stroke="#3F3D56" stroke-width="0.722884" stroke-linecap="round" stroke-linejoin="round"/>
<path d="M108.688 191.729C108.74 191.718 108.794 191.72 108.846 191.733L108.896 191.749C108.946 191.77 108.99 191.802 109.025 191.841L109.059 191.883C109.098 191.942 109.119 192.012 109.119 192.083C109.119 192.155 109.098 192.225 109.059 192.284L109.014 192.339C108.946 192.407 108.854 192.445 108.758 192.445C108.704 192.445 108.652 192.433 108.604 192.41L108.558 192.384C108.513 192.354 108.476 192.315 108.448 192.27L108.424 192.222C108.403 192.172 108.395 192.119 108.397 192.066L108.403 192.013C108.414 191.96 108.436 191.911 108.468 191.868L108.503 191.828C108.541 191.791 108.586 191.761 108.636 191.743L108.688 191.729Z" fill="#3F3D56" stroke="#3F3D56" stroke-width="0.722884"/>
<path d="M108.688 194.158C108.74 194.148 108.794 194.149 108.846 194.162L108.896 194.178C108.946 194.199 108.99 194.231 109.025 194.27L109.059 194.312C109.098 194.372 109.119 194.441 109.119 194.512C109.119 194.584 109.098 194.655 109.059 194.714L109.014 194.768C108.946 194.836 108.854 194.874 108.758 194.874C108.704 194.874 108.652 194.862 108.604 194.84L108.558 194.813C108.513 194.784 108.476 194.744 108.448 194.699L108.424 194.651C108.403 194.602 108.395 194.548 108.397 194.495L108.403 194.442C108.414 194.39 108.436 194.34 108.468 194.298L108.503 194.258C108.541 194.22 108.586 194.191 108.636 194.173L108.688 194.158Z" fill="#3F3D56" stroke="#3F3D56" stroke-width="0.722884"/>
<path d="M106.436 193.182C106.456 193.189 106.477 193.197 106.496 193.207L106.547 193.237C106.61 193.283 106.657 193.349 106.68 193.424C106.703 193.499 106.7 193.58 106.673 193.654C106.659 193.693 106.637 193.728 106.61 193.76C106.59 193.753 106.57 193.747 106.551 193.737L106.501 193.706C106.453 193.671 106.414 193.626 106.389 193.574L106.367 193.519C106.35 193.463 106.348 193.404 106.358 193.346L106.374 193.29C106.388 193.251 106.409 193.214 106.436 193.182Z" fill="#3F3D56" stroke="#3F3D56" stroke-width="0.722884"/>
<path d="M111.02 193.055C111.047 193.052 111.075 193.052 111.103 193.056L111.184 193.075C111.236 193.094 111.284 193.125 111.322 193.166C111.341 193.186 111.358 193.208 111.372 193.232L111.405 193.309C111.422 193.362 111.425 193.419 111.416 193.475C111.411 193.502 111.403 193.529 111.393 193.555L111.352 193.627C111.335 193.65 111.316 193.67 111.295 193.688L111.226 193.735C111.176 193.761 111.121 193.774 111.065 193.775L110.963 193.777L110.876 193.833C110.852 193.848 110.827 193.861 110.801 193.87L110.72 193.889C110.692 193.892 110.664 193.892 110.637 193.889L110.556 193.869C110.53 193.86 110.505 193.847 110.481 193.832L110.417 193.778C110.398 193.758 110.381 193.735 110.367 193.711L110.334 193.635C110.318 193.581 110.314 193.525 110.323 193.47C110.328 193.442 110.336 193.415 110.347 193.39L110.388 193.317C110.404 193.295 110.423 193.274 110.444 193.256L110.513 193.209C110.562 193.183 110.618 193.169 110.674 193.168L110.776 193.167L110.863 193.11C110.887 193.095 110.912 193.083 110.938 193.074L111.02 193.055Z" fill="#3F3D56" stroke="#3F3D56" stroke-width="0.722884"/>
<path d="M137.196 219.206C127.994 217.132 108.071 216.387 108.071 216.387C103.271 216.539 89.9122 217.11 80.7099 219.213C78.9677 219.609 77.4519 220.676 76.491 222.182C75.5302 223.688 75.2019 225.513 75.5774 227.259L84.1002 267.133C84.5189 269.067 85.5859 270.799 87.1242 272.043C88.6625 273.287 90.5797 273.967 92.5579 273.972H125.413C127.391 273.967 129.308 273.287 130.847 272.043C132.385 270.799 133.452 269.067 133.871 267.133L142.386 227.259C142.76 225.503 142.424 223.671 141.452 222.162C140.479 220.654 138.949 219.591 137.196 219.206Z" fill="white" stroke="#3F3D56" stroke-width="0.722884" stroke-linecap="round" stroke-linejoin="round"/>
<path d="M133.004 218.44C123.021 216.951 108.094 216.387 108.094 216.387C100.785 216.596 93.4921 217.2 86.248 218.194L95.9058 273.972H122.154L133.004 218.44Z" fill="#1E80F2" stroke="#3F3D56" stroke-width="0.722884" stroke-linecap="round" stroke-linejoin="round"/>
<path d="M116.71 228.51H100.72C97.4541 228.51 94.8066 231.158 94.8066 234.423V242.23C94.8066 245.496 97.4541 248.144 100.72 248.144H116.71C119.976 248.144 122.623 245.496 122.623 242.23V234.423C122.623 231.158 119.976 228.51 116.71 228.51Z" fill="white" stroke="#3F3D56" stroke-width="0.722884" stroke-linecap="round" stroke-linejoin="round"/>
<path d="M104.045 236.599H99.541V241.102H104.045V236.599Z" fill="white" stroke="#3F3D56" stroke-width="0.722884" stroke-linecap="round" stroke-linejoin="round"/>
<path d="M110.963 236.599H106.459V241.102H110.963V236.599Z" fill="white" stroke="#3F3D56" stroke-width="0.722884" stroke-linecap="round" stroke-linejoin="round"/>
<path d="M117.888 236.599H113.385V241.102H117.888V236.599Z" fill="white" stroke="#3F3D56" stroke-width="0.722884" stroke-linecap="round" stroke-linejoin="round"/>
<path d="M45.4328 261.364H125.557C126.516 261.364 127.435 261.745 128.113 262.423C128.791 263.101 129.172 264.02 129.172 264.979V309.993H41.8184V264.979C41.8184 264.02 42.1992 263.101 42.877 262.423C43.5548 261.745 44.4742 261.364 45.4328 261.364Z" fill="white" stroke="#3F3D56" stroke-width="0.722884" stroke-linecap="round" stroke-linejoin="round"/>
<path d="M129.172 277.542C118.198 280.326 106.936 287.41 85.9505 297.386C65.7097 307.014 49.1412 306.848 41.8184 306.104V309.993H129.172V277.542Z" fill="#3F3D56" stroke="#3F3D56" stroke-width="0.722884" stroke-linecap="round" stroke-linejoin="round"/>
<path d="M129.172 307.297H41.8184V310H129.172V307.297Z" fill="white" stroke="#3F3D56" stroke-width="0.722884" stroke-linecap="round" stroke-linejoin="round"/>
<path d="M89.9993 285.682C89.9993 286.573 89.7352 287.444 89.2403 288.184C88.7455 288.925 88.0421 289.502 87.2192 289.843C86.3963 290.184 85.4908 290.273 84.6172 290.099C83.7436 289.926 82.9411 289.497 82.3113 288.867C81.6814 288.237 81.2525 287.435 81.0787 286.561C80.905 285.687 80.9941 284.782 81.335 283.959C81.6759 283.136 82.2531 282.433 82.9937 281.938C83.7343 281.443 84.605 281.179 85.4958 281.179C86.6902 281.179 87.8357 281.653 88.6803 282.498C89.5248 283.342 89.9993 284.488 89.9993 285.682Z" fill="white" stroke="#3F3D56" stroke-width="0.722884" stroke-linecap="round" stroke-linejoin="round"/>
<path d="M306.687 293.95L214.971 293.898C209.673 293.895 204.593 291.788 200.849 288.041C197.104 284.293 195 279.212 195 273.915L195.045 43.9774C195.057 38.6749 197.172 33.5937 200.926 29.8485C204.679 26.1033 209.765 24 215.068 24L306.784 24.0581C312.082 24.0616 317.162 26.1685 320.907 29.9158C324.652 33.6632 326.755 38.7442 326.755 44.042L326.71 273.979C326.71 276.606 326.192 279.207 325.185 281.634C324.178 284.06 322.702 286.264 320.842 288.119C318.982 289.974 316.775 291.444 314.346 292.445C311.917 293.445 309.314 293.957 306.687 293.95Z" fill="#3F3D56"/>
<path d="M306.657 32.1634H288.875C287.703 32.1905 286.589 32.6819 285.779 33.5297C284.969 34.3775 284.528 35.5122 284.554 36.6846V39.9141C284.58 41.0865 284.14 42.2212 283.329 43.069C282.519 43.9168 281.406 44.4082 280.233 44.4353H245.568C244.397 44.4065 243.285 43.9144 242.476 43.0668C241.667 42.2192 241.228 41.0854 241.254 39.9141V36.6846C241.28 35.5122 240.839 34.3775 240.029 33.5297C239.219 32.6819 238.105 32.1905 236.933 32.1634H215.115C211.411 32.16 207.857 33.6253 205.232 36.2381C202.607 38.851 201.125 42.3981 201.112 46.1017L201.066 270.562C201.073 274.268 202.55 277.821 205.173 280.44C207.795 283.059 211.35 284.531 215.056 284.532L306.598 284.584C308.437 284.585 310.257 284.224 311.955 283.521C313.654 282.818 315.197 281.788 316.497 280.489C317.798 279.19 318.829 277.647 319.534 275.95C320.238 274.252 320.601 272.432 320.601 270.594L320.64 46.134C320.635 42.4281 319.16 38.8757 316.538 36.2564C313.916 33.6371 310.363 32.1651 306.657 32.1634Z" fill="white"/>
<path d="M320.633 79.3393V45.9015C320.567 42.2372 319.066 38.7451 316.452 36.176C313.839 33.607 310.321 32.1662 306.656 32.1634H288.875C288.294 32.176 287.722 32.303 287.19 32.5371C286.658 32.7712 286.178 33.1079 285.777 33.5279C285.375 33.9478 285.061 34.4428 284.851 34.9845C284.641 35.5261 284.54 36.1039 284.554 36.6846V39.9141C284.58 41.0865 284.139 42.2212 283.329 43.069C282.519 43.9168 281.405 44.4082 280.233 44.4353H245.568C244.397 44.4065 243.285 43.9144 242.476 43.0668C241.667 42.2192 241.227 41.0854 241.253 39.9141V36.6846C241.279 35.5122 240.839 34.3775 240.029 33.5297C239.218 32.6819 238.105 32.1905 236.932 32.1634H215.114C211.411 32.16 207.857 33.6253 205.232 36.2381C202.607 38.851 201.125 42.3981 201.111 46.1017V79.4426H320.633V79.3393Z" fill="#EBEBEB"/>
<path d="M225.487 124.695C233.488 124.695 239.975 118.223 239.975 110.24C239.975 102.256 233.488 95.7845 225.487 95.7845C217.486 95.7845 211 102.256 211 110.24C211 118.223 217.486 124.695 225.487 124.695Z" fill="#E0E0E0"/>
<path d="M218.719 113.857L222.517 113.534L231.779 115.097L232.87 122.066L232.715 122.88C230.629 124.057 228.284 124.702 225.889 124.757C223.494 124.813 221.122 124.276 218.984 123.196L218.719 113.857Z" fill="#3F3D56"/>
<path d="M229.793 114.987C230.711 114.853 231.649 114.98 232.499 115.353C233.349 115.727 234.076 116.332 234.598 117.099C235.226 117.975 235.802 118.888 236.323 119.831C234.812 121.472 233.584 122.718 231.492 123.448L229.793 114.987Z" fill="#3F3D56"/>
<path d="M218.719 113.856C218.719 113.856 216.213 114.166 215.244 116.304C214.275 118.441 214.049 119.107 214.049 119.107C215.341 120.67 216.994 122.517 219.016 123.208C219.016 123.208 219.474 117.821 219.532 116.304C219.603 114.663 219.668 113.81 218.719 113.856Z" fill="#3F3D56"/>
<path d="M221.006 100.163C221.637 99.3547 222.442 98.6981 223.361 98.242C224.28 97.7859 225.289 97.542 226.315 97.5281C227.197 97.528 228.072 97.6854 228.898 97.9931C229.769 98.1992 230.538 98.7073 231.069 99.427C231.727 100.273 232.159 101.274 232.322 102.334C232.473 103.418 232.525 104.514 232.477 105.608C232.424 106.71 232.068 107.776 231.45 108.689L228.666 109.167C227.131 109.29 225.587 109.207 224.074 108.922C222.544 108.628 221.193 107.741 220.315 106.454C219.197 104.639 219.662 101.817 221.006 100.163Z" fill="#3F3D56"/>
<path d="M218.316 108.205C218.344 107.89 218.444 107.586 218.607 107.315C218.771 107.044 218.994 106.814 219.259 106.642C219.531 106.479 219.847 106.406 220.163 106.433C220.478 106.461 220.777 106.589 221.016 106.797L221.455 107.314C221.794 107.47 222.076 107.728 222.261 108.053C222.446 108.377 222.526 108.751 222.488 109.122C222.44 109.494 222.285 109.844 222.042 110.129C221.799 110.415 221.479 110.623 221.119 110.73C220.76 110.832 220.381 110.84 220.017 110.753C219.654 110.666 219.32 110.487 219.046 110.233C218.777 109.973 218.572 109.655 218.445 109.304C218.318 108.952 218.274 108.576 218.316 108.205Z" fill="#3F3D56"/>
<path d="M218.868 110.104C218.764 109.941 218.712 109.749 218.719 109.555C218.812 109.085 219.036 108.651 219.365 108.302C219.677 107.936 220.057 107.634 220.483 107.411C220.806 107.236 221.032 107.172 221.025 107.153C220.819 107.168 220.619 107.227 220.438 107.327C219.982 107.529 219.58 107.834 219.262 108.218C219.084 108.413 218.932 108.63 218.81 108.864C218.704 109.064 218.642 109.284 218.629 109.51C218.626 109.665 218.669 109.818 218.752 109.949C218.81 110.078 218.868 110.143 218.868 110.104Z" fill="#3F3D56"/>
<path d="M228.637 114.49V111.906C228.637 111.906 230.904 111.654 231.537 108.748C231.834 106.825 231.951 104.879 231.885 102.935C231.885 101.172 230.368 98.7688 228.184 98.7624L227.216 98.6461L223.502 100.119C223.244 100.133 223 100.243 222.819 100.427C222.637 100.61 222.531 100.855 222.52 101.113L222.41 113.521L224.109 115.904C224.42 116.325 224.855 116.638 225.353 116.799C225.851 116.961 226.387 116.962 226.885 116.803C227.384 116.644 227.82 116.333 228.133 115.914C228.446 115.494 228.62 114.987 228.63 114.464L228.637 114.49Z" fill="#FFBE9D"/>
<path d="M227.159 108.076C227.179 107.926 227.255 107.79 227.372 107.695C227.478 107.606 227.611 107.553 227.749 107.545C227.887 107.537 228.025 107.573 228.141 107.649C228.259 107.742 228.352 107.864 228.408 108.003C228.465 108.143 228.484 108.295 228.464 108.444C228.399 108.534 228.316 108.609 228.22 108.664C228.125 108.72 228.018 108.755 227.908 108.767H227.805C227.719 108.769 227.634 108.754 227.554 108.723C227.474 108.692 227.401 108.645 227.34 108.586C227.275 108.519 227.225 108.439 227.193 108.351C227.162 108.263 227.15 108.169 227.159 108.076Z" fill="#EB996E"/>
<path d="M230.539 104.976C230.536 105.074 230.494 105.167 230.422 105.235C230.351 105.302 230.256 105.339 230.158 105.338C230.109 105.338 230.061 105.33 230.016 105.312C229.971 105.294 229.93 105.268 229.896 105.234C229.861 105.201 229.833 105.161 229.814 105.116C229.794 105.072 229.784 105.024 229.783 104.976C229.788 104.877 229.831 104.784 229.904 104.717C229.976 104.649 230.072 104.612 230.171 104.614C230.219 104.613 230.267 104.622 230.311 104.64C230.356 104.658 230.396 104.684 230.431 104.718C230.465 104.752 230.492 104.792 230.511 104.836C230.529 104.88 230.539 104.928 230.539 104.976Z" fill="#3F3D56"/>
<path d="M231.156 104.045C231.105 104.09 230.827 103.864 230.426 103.845C230.026 103.825 229.709 104.013 229.671 103.961C229.632 103.909 229.703 103.851 229.839 103.761C230.022 103.652 230.233 103.6 230.446 103.612C230.656 103.621 230.858 103.698 231.021 103.832C231.137 103.935 231.176 104.026 231.156 104.045Z" fill="#3F3D56"/>
<path d="M228.607 107.107C228.819 107.057 229.036 107.031 229.253 107.029C229.356 107.029 229.46 107.029 229.479 106.939C229.494 106.832 229.476 106.724 229.428 106.629L229.163 105.828C228.916 105.144 228.724 104.442 228.588 103.729C228.89 104.39 229.138 105.075 229.331 105.776C229.421 106.054 229.499 106.325 229.583 106.583C229.637 106.712 229.648 106.855 229.615 106.99C229.576 107.06 229.511 107.111 229.434 107.132C229.376 107.138 229.318 107.138 229.26 107.132C229.042 107.153 228.823 107.145 228.607 107.107Z" fill="#3F3D56"/>
<path d="M228.625 111.912C227.239 111.849 225.897 111.402 224.75 110.62C224.75 110.62 225.687 112.706 228.625 112.596V111.912Z" fill="#EB996E"/>
<path d="M227.4 107.327C227.471 107.327 227.445 107.766 227.807 108.095C228.169 108.425 228.634 108.405 228.634 108.463C228.634 108.522 228.524 108.547 228.33 108.541C228.072 108.529 227.826 108.429 227.633 108.257C227.451 108.089 227.34 107.858 227.323 107.611C227.316 107.424 227.374 107.32 227.4 107.327Z" fill="#3F3D56"/>
<path d="M231.073 102.52C231.002 102.617 230.692 102.52 230.331 102.52C229.969 102.52 229.685 102.61 229.588 102.52C229.491 102.429 229.588 102.378 229.73 102.287C229.908 102.175 230.114 102.115 230.324 102.113C230.536 102.107 230.745 102.163 230.925 102.274C231.061 102.391 231.106 102.475 231.073 102.52Z" fill="#3F3D56"/>
<path d="M226.096 104.975C226.094 105.074 226.131 105.17 226.198 105.242C226.266 105.314 226.359 105.358 226.457 105.363C226.506 105.367 226.554 105.362 226.6 105.347C226.646 105.333 226.689 105.309 226.725 105.278C226.762 105.246 226.792 105.208 226.814 105.165C226.835 105.122 226.848 105.075 226.851 105.027C226.852 104.929 226.814 104.835 226.747 104.764C226.679 104.693 226.587 104.651 226.49 104.646C226.442 104.64 226.394 104.645 226.348 104.659C226.302 104.672 226.259 104.695 226.222 104.726C226.186 104.757 226.155 104.795 226.134 104.838C226.112 104.88 226.099 104.927 226.096 104.975Z" fill="#3F3D56"/>
<path d="M225.605 103.902C225.65 103.954 225.94 103.747 226.347 103.754C226.754 103.76 227.045 103.967 227.09 103.922C227.135 103.876 227.09 103.812 226.935 103.715C226.763 103.589 226.555 103.521 226.341 103.521C226.131 103.515 225.925 103.576 225.753 103.696C225.624 103.792 225.579 103.876 225.605 103.902Z" fill="#3F3D56"/>
<path d="M225.371 103.038C225.448 103.135 225.765 103.038 226.139 103.038C226.514 103.038 226.83 103.115 226.908 103.038C226.985 102.96 226.908 102.896 226.753 102.805C226.565 102.695 226.351 102.637 226.133 102.637C225.915 102.637 225.701 102.695 225.513 102.805C225.377 102.896 225.332 102.986 225.371 103.038Z" fill="#3F3D56"/>
<path d="M223.013 106.067C223.013 105.847 222.806 105.318 222.587 105.273C222.018 105.15 220.979 105.143 220.888 106.603C220.765 108.599 222.826 108.308 222.826 108.25C222.826 108.192 222.974 106.816 223.013 106.067Z" fill="#FFBE9D"/>
<path d="M222.296 107.488C222.296 107.488 222.264 107.488 222.199 107.533C222.158 107.55 222.114 107.559 222.07 107.559C222.026 107.559 221.982 107.55 221.941 107.533C221.816 107.443 221.717 107.321 221.654 107.181C221.592 107.04 221.568 106.885 221.586 106.732C221.593 106.561 221.637 106.394 221.715 106.241C221.738 106.18 221.775 106.126 221.824 106.082C221.872 106.038 221.93 106.006 221.993 105.989C222.034 105.98 222.076 105.987 222.113 106.007C222.15 106.027 222.178 106.06 222.193 106.099C222.197 106.131 222.197 106.164 222.193 106.196C222.193 106.196 222.238 106.196 222.225 106.086C222.217 106.036 222.192 105.99 222.154 105.957C222.129 105.933 222.1 105.915 222.068 105.904C222.035 105.892 222.001 105.889 221.967 105.892C221.884 105.903 221.806 105.935 221.739 105.984C221.672 106.034 221.619 106.1 221.586 106.176C221.49 106.344 221.437 106.533 221.431 106.725C221.409 106.903 221.44 107.083 221.52 107.243C221.601 107.403 221.727 107.535 221.883 107.623C221.936 107.641 221.992 107.647 222.048 107.642C222.103 107.636 222.157 107.619 222.206 107.591C222.296 107.559 222.296 107.494 222.296 107.488Z" fill="#EB996E"/>
<path d="M222.512 105.278L223.015 105.801C225.211 103.709 229.507 98.4576 229.268 98.7676C228.265 98.3977 227.187 98.2823 226.129 98.4317C224.494 98.7095 221.401 99.5233 221.446 101.442C221.542 102.779 221.904 104.083 222.512 105.278Z" fill="#3F3D56"/>
<path d="M219.602 104.84C219.602 104.84 219.602 104.794 219.602 104.723C219.64 104.615 219.685 104.509 219.737 104.407C219.945 104.037 220.231 103.717 220.577 103.47C221.089 103.105 221.659 102.83 222.263 102.657C222.909 102.443 223.684 102.275 224.426 101.959C225.697 101.422 226.845 100.631 227.798 99.6337C228.085 99.3306 228.354 99.0115 228.605 98.6778L228.806 98.4001C228.827 98.3667 228.853 98.3363 228.883 98.3097L228.825 98.413C228.78 98.4776 228.722 98.5809 228.638 98.7037C228.397 99.0478 228.134 99.3758 227.85 99.6854C227.425 100.142 226.958 100.557 226.454 100.926C225.839 101.378 225.171 101.755 224.465 102.049C223.753 102.322 223.026 102.555 222.288 102.747C221.693 102.913 221.13 103.177 220.622 103.528C220.28 103.764 219.991 104.07 219.776 104.426C219.708 104.56 219.649 104.698 219.602 104.84Z" fill="#3F3D56"/>
<path d="M220.184 105.149C220.179 105.001 220.206 104.854 220.262 104.716C220.411 104.334 220.672 104.005 221.011 103.773C221.52 103.449 222.089 103.229 222.684 103.127C223.397 102.991 224.093 102.775 224.757 102.482C225.418 102.181 226.038 101.799 226.604 101.345C227.074 100.972 227.506 100.554 227.896 100.098C228.153 99.7918 228.388 99.4681 228.6 99.1294C228.671 99.0196 228.729 98.9227 228.768 98.8517C228.788 98.8169 228.812 98.7844 228.839 98.7548C228.825 98.7909 228.808 98.8255 228.787 98.8581L228.632 99.1488C228.434 99.4999 228.205 99.8328 227.948 100.143C227.566 100.62 227.133 101.054 226.656 101.435C226.085 101.899 225.458 102.29 224.789 102.598C224.117 102.894 223.413 103.11 222.69 103.244C222.105 103.353 221.547 103.572 221.043 103.89C220.708 104.108 220.445 104.42 220.288 104.787C220.243 104.905 220.208 105.026 220.184 105.149Z" fill="#3F3D56"/>
<path d="M219.014 123.196C218.92 121.923 218.92 120.645 219.014 119.372C219.101 120.645 219.101 121.923 219.014 123.196Z" fill="#3F3D56"/>
<path d="M232.722 122.924C232.706 122.709 232.706 122.493 232.722 122.278C232.761 121.74 232.742 121.198 232.664 120.664C232.564 120.13 232.408 119.608 232.199 119.107C232.102 118.899 232.024 118.683 231.967 118.461C232.093 118.65 232.199 118.851 232.283 119.062C232.522 119.56 232.694 120.088 232.794 120.631C232.87 121.178 232.87 121.732 232.794 122.278C232.797 122.496 232.773 122.713 232.722 122.924Z" fill="#3F3D56"/>
<path d="M302.44 128.597H253.062C251.886 128.595 250.758 128.127 249.926 127.295C249.094 126.463 248.626 125.336 248.625 124.16V103.426L243.18 98.5952H302.44C303.026 98.5909 303.607 98.7028 304.15 98.9242C304.692 99.1457 305.185 99.4725 305.601 99.8856C306.017 100.299 306.346 100.79 306.571 101.331C306.795 101.873 306.911 102.453 306.91 103.039V124.16C306.909 124.745 306.792 125.324 306.567 125.864C306.342 126.404 306.012 126.894 305.597 127.307C305.181 127.719 304.689 128.045 304.147 128.267C303.605 128.488 303.025 128.6 302.44 128.597Z" fill="#EBEBEB"/>
<path d="M299.056 131.955C297.304 132.121 295.544 132.177 293.785 132.123C292.029 132.177 290.271 132.121 288.521 131.955C290.271 131.788 292.029 131.732 293.785 131.787C295.544 131.732 297.304 131.788 299.056 131.955Z" fill="#E0E0E0"/>
<path d="M301.234 132.366C301.212 132.366 301.19 132.361 301.17 132.353C301.15 132.344 301.132 132.331 301.117 132.315L300.097 131.249C300.067 131.219 300.051 131.178 300.051 131.136C300.051 131.094 300.067 131.053 300.097 131.023C300.111 131.008 300.129 130.995 300.148 130.987C300.168 130.978 300.189 130.974 300.21 130.974C300.231 130.974 300.252 130.978 300.272 130.987C300.291 130.995 300.308 131.008 300.323 131.023L301.227 131.966L303.21 129.951C303.225 129.935 303.242 129.923 303.262 129.915C303.281 129.906 303.302 129.902 303.323 129.902C303.344 129.902 303.365 129.906 303.385 129.915C303.404 129.923 303.422 129.935 303.436 129.951C303.466 129.981 303.482 130.022 303.482 130.064C303.482 130.106 303.466 130.147 303.436 130.177L301.337 132.315C301.309 132.342 301.273 132.361 301.234 132.366Z" fill="#407BFF"/>
<path d="M302.685 132.336H302.497C302.455 132.336 302.414 132.319 302.383 132.289C302.353 132.258 302.336 132.217 302.336 132.174C302.34 132.132 302.36 132.093 302.39 132.063C302.421 132.034 302.461 132.016 302.504 132.013H302.62L304.668 129.927C304.683 129.911 304.701 129.899 304.721 129.89C304.741 129.882 304.762 129.877 304.784 129.877C304.806 129.877 304.827 129.882 304.847 129.89C304.867 129.899 304.885 129.911 304.9 129.927C304.93 129.957 304.946 129.997 304.946 130.04C304.946 130.082 304.93 130.123 304.9 130.153L302.801 132.284C302.787 132.301 302.769 132.314 302.749 132.323C302.729 132.332 302.707 132.336 302.685 132.336Z" fill="#407BFF"/>
<path d="M299.056 213.123C297.304 213.29 295.544 213.346 293.785 213.291C292.029 213.346 290.271 213.29 288.521 213.123C290.271 212.957 292.029 212.901 293.785 212.956C295.544 212.901 297.304 212.957 299.056 213.123Z" fill="#E0E0E0"/>
<path d="M301.23 213.536C301.205 213.539 301.18 213.536 301.156 213.527C301.133 213.518 301.112 213.503 301.095 213.485L300.074 212.419C300.056 212.405 300.042 212.386 300.031 212.366C300.021 212.345 300.015 212.323 300.014 212.3C300.013 212.277 300.017 212.254 300.026 212.232C300.034 212.211 300.047 212.191 300.064 212.176C300.081 212.16 300.101 212.148 300.123 212.14C300.145 212.133 300.168 212.13 300.191 212.132C300.214 212.135 300.236 212.142 300.256 212.153C300.276 212.165 300.293 212.181 300.307 212.199L301.211 213.142L303.194 211.127C303.208 211.112 303.226 211.1 303.245 211.091C303.265 211.083 303.286 211.078 303.307 211.078C303.328 211.078 303.349 211.083 303.369 211.091C303.388 211.1 303.405 211.112 303.42 211.127C303.45 211.157 303.466 211.198 303.466 211.24C303.466 211.283 303.45 211.323 303.42 211.353L301.347 213.485C301.315 213.515 301.274 213.533 301.23 213.536Z" fill="#407BFF"/>
<path d="M302.685 213.485H302.497C302.454 213.483 302.413 213.465 302.383 213.434C302.353 213.402 302.336 213.36 302.336 213.317C302.336 213.296 302.34 213.274 302.349 213.255C302.357 213.235 302.37 213.217 302.386 213.203C302.402 213.188 302.42 213.177 302.441 213.17C302.461 213.163 302.482 213.16 302.504 213.162H302.62L304.668 211.076C304.683 211.06 304.701 211.048 304.721 211.039C304.741 211.031 304.762 211.026 304.784 211.026C304.806 211.026 304.827 211.031 304.847 211.039C304.867 211.048 304.885 211.06 304.9 211.076C304.93 211.106 304.946 211.147 304.946 211.189C304.946 211.231 304.93 211.272 304.9 211.302L302.801 213.433C302.787 213.45 302.769 213.463 302.749 213.472C302.729 213.481 302.707 213.485 302.685 213.485Z" fill="#407BFF"/>
<path d="M301.805 104.529C301.805 104.619 291.026 104.697 277.727 104.697C264.428 104.697 253.654 104.619 253.654 104.529C253.654 104.438 264.428 104.361 277.727 104.361C291.026 104.361 301.805 104.432 301.805 104.529Z" fill="white"/>
<path d="M301.805 108.062C301.805 108.159 291.026 108.23 277.727 108.23C264.428 108.23 253.654 108.159 253.654 108.062C253.654 107.965 264.428 107.894 277.727 107.894C291.026 107.894 301.805 107.972 301.805 108.062Z" fill="white"/>
<path d="M301.805 111.602C301.805 111.693 291.026 111.77 277.727 111.77C264.428 111.77 253.654 111.693 253.654 111.602C253.654 111.512 264.428 111.435 277.727 111.435C291.026 111.435 301.805 111.512 301.805 111.602Z" fill="white"/>
<path d="M225.487 214.841C233.488 214.841 239.975 208.37 239.975 200.386C239.975 192.403 233.488 185.931 225.487 185.931C217.486 185.931 211 192.403 211 200.386C211 208.37 217.486 214.841 225.487 214.841Z" fill="#E0E0E0"/>
<path d="M218.719 204.003L222.517 203.68L231.779 205.243L232.87 212.193L232.715 213.001C230.629 214.18 228.285 214.826 225.889 214.881C223.494 214.936 221.122 214.399 218.984 213.317L218.719 203.984" fill="#3F3D56"/>
<path d="M229.793 205.127C230.711 204.995 231.648 205.122 232.498 205.496C233.347 205.869 234.075 206.473 234.598 207.239C235.227 208.117 235.803 209.032 236.323 209.978C234.812 211.618 233.584 212.865 231.492 213.588L229.793 205.127Z" fill="#3F3D56"/>
<path d="M218.719 204.003C218.719 204.003 216.213 204.307 215.244 206.445C214.275 208.582 214.049 209.254 214.049 209.254C215.341 210.811 216.994 212.658 219.016 213.349C219.016 213.349 219.474 207.969 219.532 206.445C219.603 204.778 219.668 203.951 218.719 204.003Z" fill="#3F3D56"/>
<path d="M221.006 190.311C221.636 189.502 222.441 188.844 223.36 188.388C224.279 187.932 225.289 187.689 226.315 187.676C227.197 187.671 228.072 187.826 228.898 188.135C229.767 188.345 230.534 188.852 231.069 189.569C231.726 190.415 232.157 191.416 232.322 192.475C232.473 193.562 232.525 194.66 232.477 195.756C232.425 196.856 232.069 197.92 231.45 198.831L228.666 199.315C227.131 199.434 225.587 199.352 224.074 199.07C222.544 198.776 221.193 197.889 220.315 196.602C219.197 194.755 219.662 191.958 221.006 190.311Z" fill="#3F3D56"/>
<path d="M218.316 198.378C218.343 198.062 218.443 197.758 218.606 197.487C218.77 197.216 218.993 196.986 219.259 196.815C219.53 196.65 219.846 196.575 220.162 196.602C220.478 196.628 220.777 196.755 221.016 196.963L221.455 197.486C221.795 197.642 222.077 197.9 222.262 198.225C222.447 198.549 222.527 198.923 222.488 199.295C222.436 199.665 222.279 200.013 222.037 200.297C221.794 200.582 221.476 200.792 221.119 200.903C220.759 201.004 220.38 201.01 220.017 200.922C219.654 200.834 219.319 200.654 219.046 200.399C218.777 200.141 218.572 199.824 218.445 199.474C218.319 199.123 218.274 198.748 218.316 198.378Z" fill="#3F3D56"/>
<path d="M218.868 200.251C218.764 200.085 218.713 199.891 218.719 199.696C218.813 199.227 219.036 198.795 219.365 198.449C219.675 198.081 220.055 197.778 220.483 197.558C220.806 197.383 221.032 197.319 221.025 197.293C220.82 197.312 220.62 197.371 220.437 197.467C219.985 197.674 219.583 197.978 219.262 198.359C219.083 198.567 218.931 198.797 218.81 199.043C218.703 199.243 218.642 199.463 218.629 199.689C218.627 199.844 218.669 199.997 218.752 200.128C218.81 200.225 218.868 200.257 218.868 200.251Z" fill="#3F3D56"/>
<path d="M228.652 204.869V202.285C228.652 202.285 230.919 202.033 231.552 199.133C231.849 197.21 231.966 195.264 231.901 193.32C231.901 191.557 230.383 189.154 228.2 189.148L227.231 189.038L223.517 190.51C223.259 190.523 223.015 190.632 222.833 190.817C222.651 191.001 222.545 191.246 222.536 191.505L222.426 203.906L224.124 206.29C224.435 206.71 224.87 207.023 225.368 207.185C225.866 207.346 226.402 207.347 226.901 207.188C227.399 207.029 227.836 206.718 228.149 206.299C228.462 205.879 228.636 205.372 228.646 204.849L228.652 204.869Z" fill="#FFBE9D"/>
<path d="M227.16 198.223C227.18 198.074 227.256 197.938 227.373 197.842C227.479 197.753 227.611 197.701 227.75 197.693C227.888 197.685 228.025 197.721 228.141 197.797C228.26 197.89 228.352 198.012 228.409 198.151C228.466 198.291 228.485 198.443 228.464 198.592C228.399 198.681 228.316 198.755 228.221 198.809C228.125 198.864 228.019 198.897 227.909 198.908H227.806C227.633 198.904 227.468 198.838 227.341 198.721C227.274 198.657 227.224 198.579 227.192 198.493C227.161 198.407 227.15 198.315 227.16 198.223Z" fill="#EB996E"/>
<path d="M230.539 195.4C230.527 195.491 230.482 195.576 230.412 195.637C230.343 195.698 230.254 195.731 230.161 195.731C230.069 195.731 229.979 195.698 229.91 195.637C229.84 195.576 229.795 195.491 229.783 195.4C229.788 195.301 229.831 195.208 229.904 195.14C229.976 195.073 230.072 195.036 230.171 195.038C230.219 195.037 230.267 195.046 230.311 195.064C230.356 195.081 230.396 195.108 230.431 195.142C230.465 195.175 230.492 195.215 230.511 195.26C230.529 195.304 230.539 195.352 230.539 195.4Z" fill="#3F3D56"/>
<path d="M231.156 194.438C231.105 194.483 230.827 194.257 230.426 194.237C230.026 194.218 229.709 194.399 229.671 194.347C229.632 194.295 229.703 194.237 229.839 194.153C230.019 194.039 230.233 193.986 230.446 194.005C230.656 194.013 230.858 194.09 231.021 194.224C231.137 194.328 231.176 194.418 231.156 194.438Z" fill="#3F3D56"/>
<path d="M228.607 197.498C228.819 197.448 229.036 197.42 229.253 197.414C229.356 197.414 229.46 197.414 229.479 197.324C229.493 197.218 229.475 197.11 229.428 197.014C229.344 196.762 229.253 196.497 229.163 196.213C228.917 195.531 228.725 194.832 228.588 194.12C228.891 194.779 229.139 195.462 229.331 196.161C229.421 196.445 229.499 196.71 229.583 196.969C229.637 197.097 229.648 197.24 229.615 197.376C229.597 197.411 229.572 197.443 229.541 197.467C229.509 197.492 229.473 197.509 229.434 197.518C229.376 197.527 229.317 197.527 229.26 197.518C229.042 197.541 228.823 197.534 228.607 197.498Z" fill="#3F3D56"/>
<path d="M228.625 202.298C227.242 202.243 225.901 201.808 224.75 201.038C224.75 201.038 225.687 203.124 228.625 203.014V202.298Z" fill="#EB996E"/>
<path d="M227.4 197.712C227.471 197.712 227.445 198.152 227.807 198.487C228.169 198.823 228.634 198.798 228.634 198.856C228.634 198.914 228.524 198.933 228.33 198.933C228.071 198.922 227.824 198.819 227.633 198.643C227.449 198.476 227.337 198.244 227.323 197.997C227.316 197.816 227.374 197.712 227.4 197.712Z" fill="#3F3D56"/>
<path d="M231.073 192.914C231.002 193.011 230.692 192.914 230.331 192.914C229.969 192.914 229.685 193.004 229.588 192.914C229.491 192.823 229.588 192.772 229.73 192.681C229.907 192.566 230.113 192.506 230.324 192.507C230.536 192.498 230.746 192.555 230.925 192.668C231.061 192.772 231.106 192.869 231.073 192.914Z" fill="#3F3D56"/>
<path d="M226.096 195.349C226.094 195.447 226.131 195.542 226.199 195.613C226.266 195.685 226.359 195.727 226.457 195.73C226.505 195.735 226.553 195.731 226.599 195.717C226.645 195.703 226.688 195.68 226.725 195.649C226.762 195.619 226.792 195.581 226.814 195.538C226.835 195.495 226.848 195.448 226.851 195.401C226.853 195.302 226.817 195.206 226.749 195.134C226.682 195.061 226.589 195.018 226.49 195.013C226.442 195.009 226.393 195.014 226.347 195.028C226.301 195.043 226.259 195.067 226.222 195.098C226.185 195.129 226.155 195.168 226.134 195.211C226.112 195.254 226.099 195.301 226.096 195.349Z" fill="#3F3D56"/>
<path d="M225.605 194.289C225.65 194.34 225.94 194.134 226.347 194.147C226.754 194.16 227.045 194.36 227.09 194.308C227.135 194.256 227.09 194.198 226.935 194.101C226.761 193.978 226.554 193.91 226.341 193.908C226.131 193.906 225.926 193.969 225.753 194.089C225.624 194.179 225.579 194.269 225.605 194.289Z" fill="#3F3D56"/>
<path d="M225.371 193.423C225.448 193.513 225.765 193.423 226.139 193.423C226.514 193.423 226.83 193.494 226.908 193.423C226.985 193.352 226.908 193.287 226.753 193.197C226.565 193.087 226.351 193.029 226.133 193.029C225.915 193.029 225.701 193.087 225.513 193.197C225.377 193.281 225.332 193.378 225.371 193.423Z" fill="#3F3D56"/>
<path d="M223.013 196.206C223.013 195.987 222.806 195.464 222.587 195.418C222.018 195.296 220.979 195.283 220.888 196.742C220.765 198.738 222.826 198.454 222.826 198.396C222.826 198.338 222.974 196.962 223.013 196.206Z" fill="#FFBE9D"/>
<path d="M222.296 197.635C222.296 197.635 222.264 197.635 222.199 197.681C222.116 197.712 222.024 197.712 221.941 197.681C221.816 197.592 221.717 197.471 221.655 197.332C221.593 197.192 221.568 197.038 221.585 196.886C221.592 196.715 221.636 196.548 221.715 196.395C221.738 196.334 221.775 196.28 221.823 196.236C221.872 196.192 221.929 196.161 221.992 196.143C222.032 196.135 222.074 196.141 222.11 196.16C222.147 196.179 222.176 196.209 222.193 196.247C222.198 196.281 222.198 196.316 222.193 196.35C222.193 196.35 222.238 196.318 222.225 196.234C222.215 196.184 222.19 196.139 222.154 196.105C222.128 196.083 222.098 196.067 222.066 196.057C222.034 196.047 222 196.043 221.966 196.047C221.883 196.056 221.804 196.087 221.737 196.137C221.671 196.187 221.618 196.254 221.585 196.331C221.489 196.498 221.436 196.687 221.43 196.88C221.409 197.056 221.44 197.235 221.521 197.394C221.601 197.553 221.727 197.684 221.882 197.771C221.933 197.796 221.988 197.808 222.044 197.808C222.1 197.808 222.155 197.796 222.205 197.771C222.296 197.681 222.296 197.635 222.296 197.635Z" fill="#EB996E"/>
<path d="M222.512 195.4L223.015 195.93C225.211 193.831 229.507 188.58 229.268 188.896C228.266 188.522 227.187 188.404 226.129 188.554C224.494 188.832 221.401 189.645 221.446 191.57C221.543 192.905 221.905 194.207 222.512 195.4Z" fill="#3F3D56"/>
<path d="M219.602 194.98C219.602 194.98 219.602 194.942 219.602 194.864C219.641 194.758 219.686 194.655 219.737 194.554C219.946 194.183 220.232 193.861 220.577 193.611C221.1 193.25 221.681 192.981 222.295 192.817C222.941 192.597 223.716 192.429 224.459 192.113C225.158 191.822 225.821 191.452 226.435 191.008C226.936 190.647 227.403 190.24 227.83 189.794C228.192 189.406 228.476 189.07 228.638 188.838C228.715 188.722 228.786 188.631 228.838 188.56C228.889 188.489 228.909 188.463 228.915 188.47L228.857 188.573L228.67 188.857C228.432 189.204 228.169 189.532 227.882 189.839C227.458 190.298 226.99 190.715 226.487 191.086C225.867 191.525 225.197 191.89 224.491 192.171C223.742 192.487 222.98 192.655 222.314 192.868C221.72 193.032 221.156 193.294 220.648 193.643C220.305 193.881 220.017 194.19 219.802 194.548C219.726 194.688 219.659 194.832 219.602 194.98Z" fill="#3F3D56"/>
<path d="M220.184 195.297C220.179 195.147 220.206 194.997 220.262 194.858C220.409 194.476 220.671 194.149 221.011 193.921C221.52 193.596 222.089 193.377 222.684 193.275C223.396 193.136 224.092 192.92 224.757 192.629C225.418 192.329 226.038 191.947 226.604 191.493C227.382 190.87 228.05 190.121 228.581 189.277C228.652 189.161 228.71 189.071 228.749 188.993C228.77 188.961 228.793 188.931 228.82 188.903C228.806 188.939 228.789 188.973 228.768 189.006L228.613 189.297C228.415 189.648 228.186 189.981 227.928 190.291C227.547 190.768 227.113 191.201 226.637 191.583C226.067 192.047 225.439 192.436 224.77 192.739C224.096 193.032 223.392 193.248 222.671 193.385C222.084 193.489 221.524 193.708 221.024 194.031C220.685 194.245 220.421 194.559 220.268 194.929C220.229 195.049 220.201 195.172 220.184 195.297Z" fill="#3F3D56"/>
<path d="M219.014 213.336C218.92 212.066 218.92 210.79 219.014 209.519C219.101 210.79 219.101 212.065 219.014 213.336Z" fill="#3F3D56"/>
<path d="M232.722 213.071C232.704 212.846 232.704 212.619 232.722 212.393C232.761 211.852 232.742 211.309 232.664 210.772C232.563 210.241 232.407 209.721 232.199 209.222C232.103 209.014 232.025 208.798 231.967 208.576C232.093 208.764 232.199 208.966 232.283 209.176C232.523 209.674 232.695 210.202 232.794 210.746C232.87 211.292 232.87 211.847 232.794 212.393C232.799 212.621 232.775 212.849 232.722 213.071Z" fill="#3F3D56"/>
<path d="M302.44 208.886H253.062C251.884 208.884 250.756 208.416 249.924 207.582C249.092 206.749 248.625 205.62 248.625 204.442V193.566L243.18 188.734H302.44C303.616 188.736 304.744 189.204 305.576 190.036C306.408 190.868 306.876 191.995 306.877 193.172V204.442C306.877 205.62 306.41 206.749 305.578 207.582C304.746 208.416 303.618 208.884 302.44 208.886Z" fill="#EBEBEB"/>
<path d="M301.805 194.671C301.805 194.768 291.026 194.839 277.727 194.839C264.428 194.839 253.654 194.768 253.654 194.671C253.654 194.574 264.428 194.503 277.727 194.503C291.026 194.503 301.805 194.581 301.805 194.671Z" fill="white"/>
<path d="M301.805 198.21C301.805 198.301 291.026 198.378 277.727 198.378C264.428 198.378 253.654 198.301 253.654 198.21C253.654 198.12 264.428 198.042 277.727 198.042C291.026 198.042 301.805 198.12 301.805 198.21Z" fill="white"/>
<path d="M301.805 201.75C301.805 201.841 291.026 201.918 277.727 201.918C264.428 201.918 253.654 201.841 253.654 201.75C253.654 201.66 264.428 201.582 277.727 201.582C291.026 201.582 301.805 201.653 301.805 201.75Z" fill="white"/>
<path d="M301.805 115.142C301.805 115.232 291.026 115.31 277.727 115.31C264.428 115.31 253.654 115.232 253.654 115.142C253.654 115.051 264.428 114.974 277.727 114.974C291.026 114.974 301.805 115.045 301.805 115.142Z" fill="white"/>
<path d="M301.805 118.675C301.805 118.772 291.026 118.843 277.727 118.843C264.428 118.843 253.654 118.772 253.654 118.675C253.654 118.578 264.428 118.507 277.727 118.507C291.026 118.507 301.805 118.585 301.805 118.675Z" fill="white"/>
<path d="M301.805 122.925C301.805 123.022 291.026 123.093 277.727 123.093C264.428 123.093 253.654 123.022 253.654 122.925C253.654 122.828 264.428 122.757 277.727 122.757C291.026 122.757 301.805 122.835 301.805 122.925Z" fill="white"/>
<path d="M288.521 68.6694C288.521 68.7599 277.541 68.8374 263.932 68.8374C250.323 68.8374 239.35 68.7599 239.35 68.6694C239.35 68.579 250.33 68.4951 263.932 68.4951C277.535 68.4951 288.521 68.5726 288.521 68.6694Z" fill="#3F3D56"/>
<path d="M310.303 61.4624C310.935 61.4624 311.447 60.9505 311.447 60.3191C311.447 59.6877 310.935 59.1759 310.303 59.1759C309.672 59.1759 309.16 59.6877 309.16 60.3191C309.16 60.9505 309.672 61.4624 310.303 61.4624Z" fill="#3F3D56"/>
<path d="M311.428 63.6391C311.43 63.867 311.363 64.0902 311.237 64.2802C311.111 64.4703 310.932 64.6187 310.722 64.7065C310.511 64.7943 310.279 64.8176 310.056 64.7734C309.832 64.7293 309.627 64.6197 309.466 64.4585C309.304 64.2973 309.195 64.0919 309.151 63.8682C309.107 63.6446 309.13 63.4129 309.218 63.2026C309.305 62.9923 309.454 62.8128 309.644 62.6869C309.834 62.5611 310.057 62.4946 310.285 62.4959C310.588 62.4976 310.878 62.6186 311.092 62.8326C311.306 63.0466 311.427 63.3364 311.428 63.6391Z" fill="#3F3D56"/>
<path d="M311.428 66.9903C311.43 67.2182 311.363 67.4414 311.237 67.6314C311.111 67.8215 310.932 67.9698 310.722 68.0576C310.511 68.1455 310.279 68.1688 310.056 68.1246C309.832 68.0805 309.627 67.9708 309.466 67.8097C309.304 67.6485 309.195 67.443 309.151 67.2194C309.107 66.9958 309.13 66.7641 309.218 66.5538C309.305 66.3434 309.454 66.1639 309.644 66.0381C309.834 65.9123 310.057 65.8458 310.285 65.847C310.588 65.847 310.879 65.9675 311.093 66.1819C311.308 66.3963 311.428 66.6871 311.428 66.9903Z" fill="#3F3D56"/>
<path d="M217.335 64.1938C217.265 64.1953 217.197 64.1725 217.141 64.1292L214.112 61.9073C214.071 61.8766 214.037 61.8367 214.013 61.7908C213.99 61.7448 213.977 61.6941 213.977 61.6425C213.977 61.5917 213.989 61.5417 214.013 61.4968C214.036 61.4518 214.071 61.4132 214.112 61.3842L217.141 59.201C217.176 59.1763 217.215 59.1586 217.257 59.1491C217.299 59.1396 217.342 59.1384 217.384 59.1456C217.426 59.1528 217.466 59.1682 217.502 59.1911C217.538 59.2139 217.569 59.2436 217.594 59.2785C217.642 59.3474 217.662 59.4326 217.649 59.5158C217.636 59.5991 217.59 59.6739 217.522 59.7242L214.849 61.6619L217.522 63.5996C217.591 63.651 217.636 63.7269 217.649 63.8113C217.663 63.8956 217.643 63.9818 217.594 64.0517C217.565 64.0946 217.527 64.1299 217.482 64.1547C217.437 64.1794 217.387 64.1928 217.335 64.1938Z" fill="#3F3D56"/>
<path d="M296.388 172.794C304.389 172.794 310.875 166.322 310.875 158.339C310.875 150.356 304.389 143.884 296.388 143.884C288.387 143.884 281.9 150.356 281.9 158.339C281.9 166.322 288.387 172.794 296.388 172.794Z" fill="#E0E0E0"/>
<path d="M300.353 166.884H292.732C292.471 166.884 292.222 166.781 292.038 166.597C291.853 166.413 291.75 166.163 291.75 165.903C291.75 165.642 291.853 165.391 292.037 165.206C292.221 165.021 292.471 164.916 292.732 164.914H300.353C300.614 164.916 300.864 165.021 301.048 165.206C301.232 165.391 301.335 165.642 301.335 165.903C301.335 166.163 301.232 166.413 301.047 166.597C300.863 166.781 300.614 166.884 300.353 166.884Z" fill="#3F3D56"/>
<path d="M296.974 148.942H296.303V152.326H296.974V148.942Z" fill="#3F3D56"/>
<path d="M286.762 162.473C287.847 162.473 288.726 161.593 288.726 160.509C288.726 159.425 287.847 158.546 286.762 158.546C285.678 158.546 284.799 159.425 284.799 160.509C284.799 161.593 285.678 162.473 286.762 162.473Z" fill="#407BFF"/>
<path d="M306.618 162.343C307.702 162.343 308.581 161.464 308.581 160.38C308.581 159.295 307.702 158.416 306.618 158.416C305.533 158.416 304.654 159.295 304.654 160.38C304.654 161.464 305.533 162.343 306.618 162.343Z" fill="#407BFF"/>
<path d="M296.93 151.615C296.93 151.615 304.926 151.518 306.192 158.448C307.458 165.378 300.695 165.501 298.751 165.63C297.873 165.688 295.987 165.695 294.32 165.669C290.632 165.605 288.029 164.894 287.144 161.471C287.038 161.069 286.971 160.658 286.944 160.244C286.712 156.497 289.244 151.434 296.93 151.615Z" fill="#407BFF"/>
<path d="M291.128 162.162L302.754 162.343C303.339 162.351 303.903 162.128 304.323 161.721C304.743 161.314 304.985 160.757 304.995 160.172C305.002 159.588 304.777 159.024 304.369 158.605C303.961 158.186 303.403 157.946 302.819 157.938L291.193 157.757C290.903 157.752 290.615 157.804 290.345 157.91C290.076 158.017 289.83 158.175 289.622 158.377C289.413 158.578 289.247 158.819 289.132 159.085C289.017 159.351 288.956 159.637 288.951 159.927C288.947 160.217 289 160.505 289.107 160.774C289.214 161.043 289.374 161.289 289.576 161.496C289.778 161.704 290.019 161.869 290.286 161.984C290.552 162.098 290.838 162.158 291.128 162.162Z" fill="#3F3D56"/>
<path d="M300.339 159.934C300.356 160.025 300.391 160.112 300.442 160.19C300.493 160.268 300.559 160.335 300.636 160.387C300.713 160.439 300.799 160.476 300.89 160.495C300.981 160.513 301.075 160.514 301.166 160.496C301.264 160.486 301.36 160.456 301.446 160.407C301.532 160.358 301.606 160.292 301.665 160.213C301.724 160.133 301.766 160.042 301.788 159.946C301.81 159.85 301.811 159.75 301.792 159.653C301.773 159.556 301.734 159.464 301.678 159.383C301.621 159.302 301.548 159.233 301.464 159.182C301.379 159.131 301.285 159.097 301.187 159.085C301.089 159.072 300.99 159.079 300.895 159.107C300.804 159.125 300.718 159.161 300.641 159.212C300.564 159.263 300.497 159.329 300.446 159.406C300.394 159.482 300.358 159.569 300.34 159.659C300.322 159.75 300.322 159.843 300.339 159.934Z" fill="white"/>
<path d="M292.22 159.805C292.23 159.903 292.261 159.998 292.309 160.084C292.358 160.17 292.424 160.245 292.504 160.304C292.583 160.363 292.674 160.404 292.77 160.426C292.867 160.448 292.967 160.45 293.063 160.431C293.16 160.412 293.252 160.373 293.334 160.316C293.415 160.26 293.483 160.187 293.534 160.102C293.586 160.018 293.619 159.924 293.632 159.826C293.645 159.728 293.637 159.628 293.609 159.533C293.559 159.363 293.448 159.218 293.296 159.126C293.145 159.034 292.965 159.002 292.791 159.036C292.617 159.07 292.462 159.168 292.357 159.31C292.251 159.452 292.203 159.628 292.22 159.805Z" fill="white"/>
<path d="M297.742 148.896C297.743 149.115 297.68 149.329 297.559 149.512C297.439 149.694 297.267 149.837 297.065 149.921C296.863 150.006 296.641 150.029 296.426 149.987C296.211 149.945 296.014 149.84 295.859 149.686C295.704 149.532 295.598 149.335 295.555 149.121C295.512 148.906 295.533 148.684 295.617 148.482C295.7 148.28 295.842 148.107 296.023 147.985C296.205 147.863 296.419 147.798 296.638 147.798C296.929 147.798 297.209 147.914 297.416 148.12C297.623 148.325 297.74 148.605 297.742 148.896Z" fill="#407BFF"/>
<path d="M298.305 159.612C298.305 159.612 298.35 159.663 298.376 159.78C298.396 159.944 298.38 160.112 298.33 160.27C298.259 160.516 298.126 160.738 297.943 160.916C297.719 161.14 297.425 161.279 297.11 161.31C296.795 161.336 296.48 161.254 296.218 161.078C296.011 160.937 295.84 160.749 295.721 160.529C295.644 160.38 295.6 160.217 295.592 160.051C295.592 159.935 295.592 159.87 295.631 159.87C295.669 159.87 295.695 160.115 295.908 160.419C296.033 160.587 296.188 160.73 296.367 160.839C296.583 160.967 296.833 161.026 297.084 161.007C297.324 160.976 297.55 160.872 297.73 160.71C297.892 160.575 298.023 160.405 298.111 160.212C298.279 159.876 298.253 159.612 298.305 159.612Z" fill="white"/>
<path d="M306.179 158.222C306.203 158.277 306.222 158.333 306.237 158.39C306.262 158.458 306.283 158.527 306.301 158.597C306.301 158.674 306.346 158.765 306.366 158.875C306.415 159.116 306.45 159.359 306.469 159.605C306.492 159.906 306.492 160.208 306.469 160.509C306.442 160.809 306.393 161.107 306.321 161.4C306.26 161.638 306.182 161.871 306.088 162.098C306.056 162.188 306.019 162.276 305.978 162.363C305.95 162.427 305.918 162.49 305.881 162.55L305.791 162.711C305.805 162.652 305.829 162.595 305.862 162.543L305.946 162.343C305.978 162.266 306.017 162.182 306.049 162.085C306.136 161.857 306.207 161.624 306.263 161.387C306.331 161.096 306.381 160.8 306.411 160.502C306.43 160.203 306.43 159.904 306.411 159.605C306.395 159.362 306.365 159.12 306.321 158.881C306.307 158.781 306.288 158.682 306.263 158.584C306.263 158.5 306.23 158.435 306.217 158.377C306.197 158.328 306.184 158.276 306.179 158.222Z" fill="#3F3D56"/>
<path d="M287.235 158.261C287.208 158.317 287.186 158.375 287.171 158.436C287.171 158.487 287.132 158.558 287.106 158.636C287.08 158.713 287.061 158.81 287.041 158.913C286.992 159.154 286.96 159.398 286.945 159.643C286.922 159.944 286.922 160.247 286.945 160.548C286.97 160.848 287.02 161.146 287.093 161.439C287.153 161.679 287.231 161.914 287.326 162.143C287.358 162.24 287.403 162.324 287.435 162.401C287.468 162.479 287.507 162.543 287.532 162.595L287.623 162.75C287.606 162.691 287.582 162.635 287.552 162.582C287.552 162.53 287.5 162.466 287.468 162.388C287.435 162.311 287.397 162.227 287.364 162.13C287.278 161.9 287.206 161.665 287.151 161.426C287.082 161.135 287.032 160.839 287.003 160.541C286.984 160.244 286.984 159.947 287.003 159.65C287.019 159.405 287.049 159.161 287.093 158.92C287.107 158.828 287.126 158.738 287.151 158.649C287.151 158.565 287.184 158.494 287.197 158.442C287.209 158.39 287.235 158.261 287.235 158.261Z" fill="#3F3D56"/>
<path d="M288.959 170.752C288.959 170.752 291.336 168.434 296.303 168.434C301.27 168.434 303.814 170.752 303.814 170.752C301.573 172.105 299.005 172.82 296.387 172.82C293.769 172.82 291.201 172.105 288.959 170.752Z" fill="#407BFF"/>
<path d="M217.131 173.078H266.503C267.085 173.079 267.663 172.964 268.202 172.742C268.74 172.519 269.23 172.192 269.642 171.78C270.054 171.368 270.381 170.878 270.604 170.34C270.826 169.801 270.941 169.223 270.94 168.641V154.315L276.385 149.483H217.131C216.548 149.483 215.971 149.598 215.433 149.821C214.894 150.044 214.405 150.371 213.993 150.783C213.581 151.195 213.254 151.684 213.031 152.223C212.808 152.761 212.693 153.338 212.693 153.921V168.641C212.693 169.223 212.807 169.801 213.029 170.34C213.252 170.878 213.579 171.368 213.991 171.78C214.403 172.192 214.893 172.519 215.432 172.742C215.97 172.964 216.548 173.079 217.131 173.078Z" fill="#EBEBEB"/>
<path d="M264.278 156.485C264.278 156.582 254.112 156.653 241.569 156.653C229.026 156.653 218.859 156.582 218.859 156.485C218.859 156.388 229.026 156.317 241.569 156.317C254.112 156.317 264.278 156.395 264.278 156.485Z" fill="white"/>
<path d="M264.278 160.321C264.278 160.418 254.112 160.489 241.569 160.489C229.026 160.489 218.859 160.418 218.859 160.321C218.859 160.224 229.026 160.153 241.569 160.153C254.112 160.153 264.278 160.231 264.278 160.321Z" fill="white"/>
<path d="M264.278 164.159C264.278 164.249 254.112 164.327 241.569 164.327C229.026 164.327 218.859 164.249 218.859 164.159C218.859 164.068 229.026 163.991 241.569 163.991C254.112 163.991 264.278 164.068 264.278 164.159Z" fill="white"/>
<path d="M264.278 167.994C264.278 168.084 254.112 168.162 241.569 168.162C229.026 168.162 218.859 168.084 218.859 167.994C218.859 167.904 229.026 167.826 241.569 167.826C254.112 167.826 264.278 167.897 264.278 167.994Z" fill="white"/>
<path d="M296.388 253.064C304.389 253.064 310.875 246.592 310.875 238.609C310.875 230.626 304.389 224.154 296.388 224.154C288.387 224.154 281.9 230.626 281.9 238.609C281.9 246.592 288.387 253.064 296.388 253.064Z" fill="#E0E0E0"/>
<path d="M300.353 247.156H292.732C292.602 247.156 292.474 247.131 292.355 247.081C292.235 247.031 292.127 246.958 292.035 246.866C291.944 246.775 291.872 246.666 291.823 246.546C291.774 246.426 291.749 246.298 291.75 246.168C291.75 245.908 291.853 245.658 292.038 245.474C292.222 245.29 292.471 245.186 292.732 245.186H300.353C300.614 245.186 300.863 245.29 301.047 245.474C301.232 245.658 301.335 245.908 301.335 246.168C301.336 246.298 301.311 246.426 301.262 246.546C301.213 246.666 301.141 246.775 301.05 246.866C300.959 246.958 300.85 247.031 300.73 247.081C300.611 247.131 300.483 247.156 300.353 247.156Z" fill="#3F3D56"/>
<path d="M296.974 229.213H296.303V232.597H296.974V229.213Z" fill="#3F3D56"/>
<path d="M286.762 242.744C287.847 242.744 288.726 241.865 288.726 240.78C288.726 239.696 287.847 238.817 286.762 238.817C285.678 238.817 284.799 239.696 284.799 240.78C284.799 241.865 285.678 242.744 286.762 242.744Z" fill="#407BFF"/>
<path d="M306.618 242.608C307.702 242.608 308.581 241.729 308.581 240.645C308.581 239.561 307.702 238.681 306.618 238.681C305.533 238.681 304.654 239.561 304.654 240.645C304.654 241.729 305.533 242.608 306.618 242.608Z" fill="#407BFF"/>
<path d="M296.93 231.887C296.93 231.887 304.926 231.79 306.192 238.714C307.458 245.638 300.695 245.774 298.751 245.903C297.873 245.961 295.987 245.967 294.32 245.941C290.632 245.877 288.029 245.16 287.144 241.743C287.038 241.341 286.971 240.931 286.944 240.516C286.712 236.77 289.244 231.7 296.93 231.887Z" fill="#407BFF"/>
<path d="M291.128 242.434L302.754 242.614C303.339 242.623 303.903 242.399 304.323 241.993C304.743 241.586 304.985 241.029 304.995 240.444C305.002 239.859 304.777 239.296 304.369 238.877C303.961 238.458 303.403 238.218 302.819 238.209L291.193 238.022C290.608 238.013 290.044 238.237 289.623 238.644C289.203 239.051 288.962 239.608 288.951 240.192C288.947 240.482 289 240.77 289.107 241.04C289.214 241.31 289.373 241.556 289.575 241.764C289.778 241.972 290.019 242.138 290.285 242.253C290.552 242.368 290.838 242.429 291.128 242.434Z" fill="#3F3D56"/>
<path d="M300.34 240.205C300.356 240.297 300.389 240.385 300.439 240.464C300.489 240.543 300.554 240.612 300.63 240.666C300.706 240.72 300.792 240.758 300.883 240.779C300.974 240.799 301.068 240.802 301.16 240.786C301.252 240.771 301.34 240.737 301.419 240.687C301.498 240.638 301.567 240.573 301.621 240.497C301.675 240.42 301.713 240.334 301.734 240.243C301.755 240.152 301.757 240.058 301.742 239.966C301.732 239.868 301.701 239.773 301.653 239.687C301.604 239.601 301.538 239.526 301.458 239.467C301.379 239.408 301.288 239.366 301.192 239.345C301.095 239.323 300.995 239.321 300.898 239.34C300.801 239.359 300.71 239.398 300.628 239.455C300.547 239.511 300.479 239.584 300.428 239.668C300.376 239.753 300.343 239.847 300.33 239.945C300.317 240.043 300.325 240.143 300.353 240.237L300.34 240.205Z" fill="white"/>
<path d="M292.222 240.077C292.249 240.215 292.316 240.342 292.415 240.441C292.514 240.541 292.64 240.609 292.778 240.637C292.916 240.665 293.059 240.652 293.189 240.599C293.319 240.545 293.43 240.455 293.508 240.338C293.587 240.222 293.629 240.085 293.63 239.944C293.631 239.804 293.589 239.666 293.512 239.549C293.434 239.432 293.324 239.34 293.194 239.286C293.065 239.232 292.922 239.217 292.784 239.244C292.692 239.261 292.605 239.297 292.527 239.349C292.45 239.4 292.383 239.466 292.33 239.544C292.278 239.621 292.242 239.708 292.223 239.8C292.205 239.891 292.204 239.985 292.222 240.077Z" fill="white"/>
<path d="M297.742 229.141C297.742 229.359 297.677 229.573 297.556 229.754C297.435 229.936 297.262 230.078 297.06 230.161C296.859 230.245 296.636 230.267 296.422 230.224C296.208 230.182 296.011 230.076 295.857 229.922C295.702 229.767 295.597 229.571 295.554 229.356C295.512 229.142 295.534 228.92 295.617 228.718C295.701 228.516 295.842 228.344 296.024 228.223C296.206 228.101 296.419 228.036 296.638 228.036C296.931 228.036 297.212 228.153 297.419 228.36C297.626 228.567 297.742 228.848 297.742 229.141Z" fill="#407BFF"/>
<path d="M298.305 239.876C298.305 239.876 298.35 239.934 298.376 240.05C298.396 240.215 298.38 240.383 298.33 240.541C298.258 240.786 298.124 241.008 297.943 241.187C297.719 241.411 297.425 241.55 297.11 241.581C296.795 241.607 296.48 241.525 296.218 241.349C296.011 241.208 295.84 241.02 295.721 240.8C295.645 240.651 295.601 240.488 295.592 240.322C295.592 240.205 295.592 240.141 295.631 240.141C295.669 240.141 295.695 240.386 295.908 240.683C296.031 240.855 296.187 241 296.367 241.11C296.584 241.234 296.834 241.292 297.084 241.278C297.324 241.247 297.55 241.143 297.73 240.981C297.89 240.843 298.019 240.673 298.111 240.483C298.279 240.134 298.253 239.882 298.305 239.876Z" fill="white"/>
<path d="M306.179 238.488C306.179 238.488 306.179 238.552 306.237 238.662C306.263 238.73 306.284 238.799 306.301 238.869C306.301 238.946 306.346 239.037 306.366 239.14C306.414 239.381 306.449 239.625 306.469 239.87C306.492 240.171 306.492 240.473 306.469 240.774C306.443 241.075 306.394 241.373 306.321 241.666C306.261 241.906 306.183 242.141 306.088 242.37C306.056 242.458 306.02 242.544 305.978 242.628C305.951 242.695 305.919 242.76 305.881 242.822L305.791 242.977C305.808 242.918 305.832 242.862 305.862 242.809C305.862 242.757 305.914 242.693 305.946 242.615C305.978 242.538 306.017 242.454 306.049 242.357C306.137 242.127 306.208 241.892 306.263 241.653C306.332 241.364 306.382 241.07 306.411 240.774C306.43 240.475 306.43 240.175 306.411 239.876C306.395 239.634 306.365 239.392 306.321 239.153C306.307 239.059 306.288 238.967 306.263 238.875C306.263 238.791 306.23 238.727 306.217 238.669C306.195 238.611 306.182 238.55 306.179 238.488Z" fill="#3F3D56"/>
<path d="M287.235 238.533C287.208 238.589 287.186 238.647 287.171 238.708C287.171 238.759 287.132 238.83 287.106 238.908C287.08 238.985 287.061 239.082 287.041 239.185C286.992 239.426 286.96 239.67 286.945 239.915C286.922 240.216 286.922 240.519 286.945 240.82C286.971 241.12 287.021 241.418 287.093 241.711C287.153 241.951 287.231 242.186 287.326 242.415C287.358 242.512 287.403 242.596 287.435 242.673C287.468 242.751 287.507 242.815 287.532 242.867L287.623 243.022C287.607 242.963 287.583 242.906 287.552 242.854C287.552 242.802 287.5 242.738 287.468 242.66C287.435 242.583 287.397 242.499 287.364 242.396C287.278 242.168 287.206 241.935 287.151 241.698C287.082 241.407 287.032 241.111 287.003 240.813C286.984 240.516 286.984 240.219 287.003 239.922C287.019 239.677 287.049 239.433 287.093 239.192C287.107 239.1 287.126 239.01 287.151 238.921C287.151 238.837 287.184 238.766 287.197 238.714C287.209 238.662 287.235 238.533 287.235 238.533Z" fill="#3F3D56"/>
<path d="M288.959 251.024C288.959 251.024 291.336 248.706 296.303 248.706C301.27 248.706 303.814 251.024 303.814 251.024C301.573 252.377 299.005 253.092 296.387 253.092C293.769 253.092 291.201 252.377 288.959 251.024Z" fill="#407BFF"/>
<path d="M217.131 253.349H266.503C267.085 253.35 267.663 253.236 268.202 253.013C268.74 252.79 269.23 252.463 269.642 252.051C270.054 251.639 270.381 251.149 270.604 250.611C270.826 250.072 270.941 249.495 270.94 248.912V234.586L276.385 229.755H217.131C216.548 229.755 215.971 229.869 215.433 230.092C214.894 230.315 214.405 230.642 213.993 231.054C213.581 231.466 213.254 231.955 213.031 232.494C212.808 233.032 212.693 233.609 212.693 234.192V248.912C212.693 249.495 212.807 250.072 213.029 250.611C213.252 251.149 213.579 251.639 213.991 252.051C214.403 252.463 214.893 252.79 215.432 253.013C215.97 253.236 216.548 253.35 217.131 253.349Z" fill="#EBEBEB"/>
<path d="M217.131 275.756H266.503C267.086 275.756 267.663 275.641 268.202 275.417C268.741 275.194 269.23 274.866 269.642 274.454C270.055 274.041 270.381 273.551 270.604 273.012C270.826 272.473 270.941 271.895 270.94 271.312V266.565L276.385 261.733H217.131C216.548 261.733 215.971 261.848 215.433 262.071C214.894 262.294 214.405 262.621 213.993 263.033C213.581 263.445 213.254 263.934 213.031 264.472C212.808 265.011 212.693 265.588 212.693 266.171V271.338C212.698 272.511 213.168 273.635 214 274.463C214.831 275.291 215.957 275.756 217.131 275.756Z" fill="#EBEBEB"/>
<path d="M264.278 236.737C264.278 236.834 254.112 236.905 241.569 236.905C229.026 236.905 218.859 236.834 218.859 236.737C218.859 236.64 229.026 236.569 241.569 236.569C254.112 236.569 264.278 236.666 264.278 236.737Z" fill="white"/>
<path d="M264.278 240.613C264.278 240.703 254.112 240.781 241.569 240.781C229.026 240.781 218.859 240.703 218.859 240.613C218.859 240.522 229.026 240.445 241.569 240.445C254.112 240.445 264.278 240.503 264.278 240.613Z" fill="white"/>
<path d="M264.278 244.429C264.278 244.519 254.112 244.597 241.569 244.597C229.026 244.597 218.859 244.519 218.859 244.429C218.859 244.339 229.026 244.261 241.569 244.261C254.112 244.261 264.278 244.332 264.278 244.429Z" fill="white"/>
<path d="M264.278 248.266C264.278 248.356 254.112 248.434 241.569 248.434C229.026 248.434 218.859 248.356 218.859 248.266C218.859 248.176 229.026 248.098 241.569 248.098C254.112 248.098 264.278 248.169 264.278 248.266Z" fill="white"/>
<path d="M264.436 268.948C264.436 269.039 254.373 269.116 241.965 269.116C229.558 269.116 219.488 269.039 219.488 268.948C219.488 268.858 229.551 268.781 241.965 268.781C254.379 268.781 264.436 268.852 264.436 268.948Z" fill="white"/>
<path d="M240.159 63.8816L241.906 58.164H243.518L245.265 63.8816H244.153L242.597 58.839H242.803L241.271 63.8816H240.159ZM241.207 62.6904V61.6819H244.225V62.6904H241.207ZM247.652 64.0007C247.112 64.0007 246.675 63.8789 246.342 63.6354C246.011 63.3892 245.81 63.0425 245.738 62.5951L246.842 62.4284C246.887 62.6295 246.986 62.787 247.14 62.9008C247.296 63.0147 247.493 63.0716 247.731 63.0716C247.927 63.0716 248.078 63.0345 248.184 62.9604C248.29 62.8836 248.343 62.7778 248.343 62.6428C248.343 62.5581 248.322 62.4906 248.279 62.4403C248.237 62.3873 248.142 62.3357 247.994 62.2854C247.848 62.2351 247.62 62.169 247.311 62.0869C246.961 61.9969 246.682 61.8963 246.473 61.7851C246.264 61.674 246.113 61.5416 246.02 61.3881C245.928 61.2319 245.881 61.044 245.881 60.8243C245.881 60.549 245.951 60.3108 246.092 60.1096C246.232 59.9058 246.429 59.7496 246.683 59.6411C246.94 59.5299 247.242 59.4743 247.589 59.4743C247.925 59.4743 248.223 59.5259 248.482 59.6292C248.741 59.7324 248.95 59.8793 249.109 60.0699C249.271 60.2605 249.37 60.4855 249.407 60.7449L248.303 60.9434C248.285 60.7846 248.216 60.6588 248.097 60.5662C247.978 60.4735 247.816 60.4193 247.612 60.4034C247.414 60.3902 247.254 60.4166 247.132 60.4828C247.013 60.549 246.953 60.6443 246.953 60.7687C246.953 60.8428 246.978 60.905 247.029 60.9553C247.082 61.0056 247.189 61.0572 247.35 61.1102C247.514 61.1631 247.763 61.2319 248.097 61.3166C248.422 61.4013 248.683 61.5006 248.879 61.6144C249.077 61.7256 249.222 61.8606 249.312 62.0194C249.402 62.1756 249.447 62.3648 249.447 62.5872C249.447 63.0266 249.288 63.372 248.97 63.6235C248.653 63.8749 248.213 64.0007 247.652 64.0007ZM250.311 63.8816L250.319 58.164H251.415V61.6581L252.868 59.5934H254.202L252.654 61.7375L254.306 63.8816H252.9L251.415 61.8169V63.8816H250.311ZM257.49 63.8816L255.814 58.164H256.95L258.022 62.0948L259.094 58.172L260.229 58.164L261.301 62.0948L262.373 58.164H263.509L261.833 63.8816H260.769L259.661 60.0222L258.554 63.8816H257.49ZM264.226 63.8816V58.164H265.306V63.8816H264.226ZM266.575 63.8816V58.164H267.655V62.8731H270.117V63.8816H266.575ZM273.246 64.0007C272.674 64.0007 272.181 63.8763 271.765 63.6274C271.352 63.3786 271.033 63.0306 270.808 62.5832C270.586 62.1359 270.475 61.6157 270.475 61.0228C270.475 60.4299 270.586 59.9097 270.808 59.4624C271.033 59.015 271.352 58.667 271.765 58.4182C272.181 58.1693 272.674 58.0449 273.246 58.0449C273.902 58.0449 274.453 58.2077 274.898 58.5333C275.345 58.8589 275.66 59.2996 275.843 59.8555L274.755 60.1572C274.649 59.8105 274.47 59.5418 274.219 59.3512C273.967 59.158 273.643 59.0614 273.246 59.0614C272.883 59.0614 272.58 59.1421 272.337 59.3036C272.096 59.465 271.915 59.6927 271.793 59.9865C271.671 60.2803 271.61 60.6257 271.61 61.0228C271.61 61.4199 271.671 61.7653 271.793 62.0591C271.915 62.3529 272.096 62.5806 272.337 62.742C272.58 62.9035 272.883 62.9842 273.246 62.9842C273.643 62.9842 273.967 62.8876 274.219 62.6944C274.47 62.5012 274.649 62.2325 274.755 61.8884L275.843 62.1901C275.66 62.746 275.345 63.1867 274.898 63.5123C274.453 63.8379 273.902 64.0007 273.246 64.0007ZM279.171 64.0007C278.599 64.0007 278.105 63.8763 277.69 63.6274C277.277 63.3786 276.958 63.0306 276.733 62.5832C276.51 62.1359 276.399 61.6157 276.399 61.0228C276.399 60.4299 276.51 59.9097 276.733 59.4624C276.958 59.015 277.277 58.667 277.69 58.4182C278.105 58.1693 278.599 58.0449 279.171 58.0449C279.742 58.0449 280.235 58.1693 280.648 58.4182C281.063 58.667 281.382 59.015 281.605 59.4624C281.83 59.9097 281.942 60.4299 281.942 61.0228C281.942 61.6157 281.83 62.1359 281.605 62.5832C281.382 63.0306 281.063 63.3786 280.648 63.6274C280.235 63.8763 279.742 64.0007 279.171 64.0007ZM279.171 62.9842C279.533 62.9895 279.835 62.9114 280.076 62.75C280.317 62.5885 280.497 62.3595 280.616 62.0631C280.738 61.7666 280.799 61.4199 280.799 61.0228C280.799 60.6257 280.738 60.2816 280.616 59.9905C280.497 59.6993 280.317 59.473 280.076 59.3115C279.835 59.15 279.533 59.0667 279.171 59.0614C278.808 59.0561 278.506 59.1342 278.265 59.2956C278.025 59.4571 277.843 59.6861 277.721 59.9825C277.602 60.279 277.543 60.6257 277.543 61.0228C277.543 61.4199 277.602 61.764 277.721 62.0551C277.843 62.3463 278.025 62.5726 278.265 62.7341C278.506 62.8956 278.808 62.9789 279.171 62.9842Z" fill="black"/>
</svg>
