<svg width="95" height="89" viewBox="0 0 95 89" fill="none" xmlns="http://www.w3.org/2000/svg">
    <g filter="url(#filter0_d_116_42132)">
        <path d="M47.4477 16.3038C46.5692 16.3038 45.8974 16.9862 45.8974 17.8784V24.3348C42.5901 24.9121 39.7475 27.2211 37.9905 30.4753H29.8778C28.9993 30.4753 28.3275 31.1577 28.3275 32.05C28.3275 32.9422 28.9993 33.6246 29.8778 33.6246H36.7511C36.3377 35.0942 36.0789 36.6688 36.0789 38.3484C36.0789 40.028 36.286 41.6026 36.7511 43.0722H16.4419C15.5634 43.0722 14.8916 43.7546 14.8916 44.6469C14.8916 45.5391 15.5634 46.2215 16.4419 46.2215H21.5066C21.2482 46.8513 21.0928 47.5861 21.0928 48.3209C21.0928 51.2077 23.4182 53.5697 26.2604 53.5697C29.1026 53.5697 31.428 51.2077 31.428 48.3209C31.428 47.5861 31.2726 46.8513 31.0142 46.2215H38.043C40.1101 50.0005 43.5718 52.5199 47.4992 52.5199C51.4266 52.5199 54.8893 50.0005 56.9564 46.2215H63.9842C63.7258 46.8513 63.5704 47.5861 63.5704 48.3209C63.5704 51.2077 65.8958 53.5697 68.738 53.5697C71.5802 53.5697 73.9056 51.2077 73.9056 48.3209C73.9056 47.5861 73.7512 46.8513 73.4928 46.2215H78.5565C79.435 46.2215 80.1068 45.5391 80.1068 44.6469C80.1068 43.7546 79.435 43.0722 78.5565 43.0722H58.1443C58.5577 41.6026 58.8165 40.028 58.8165 38.3484C58.8165 36.6688 58.6094 35.0942 58.1443 33.6246H65.0177C65.8962 33.6246 66.568 32.9422 66.568 32.05C66.568 31.1577 65.8962 30.4753 65.0177 30.4753H56.9049C55.1479 27.1687 52.3053 24.8596 48.998 24.3348V17.8784C48.998 16.9862 48.3262 16.3038 47.4477 16.3038ZM47.4477 27.3261C51.9952 27.3261 55.7159 32.2599 55.7159 38.3484C55.7159 44.4369 51.9952 49.3707 47.4477 49.3707C42.9002 49.3707 39.1795 44.4369 39.1795 38.3484C39.1795 32.2599 42.9002 27.3261 47.4477 27.3261ZM43.3136 34.1494C42.4351 34.1494 41.7633 34.8318 41.7633 35.7241C41.7633 36.6163 42.4351 37.2987 43.3136 37.2987H51.5818C52.4603 37.2987 53.1321 36.6163 53.1321 35.7241C53.1321 34.8318 52.4603 34.1494 51.5818 34.1494H43.3136ZM26.2604 46.2215C27.3973 46.2215 28.3275 47.1662 28.3275 48.3209C28.3275 49.4757 27.3973 50.4204 26.2604 50.4204C25.1235 50.4204 24.1934 49.4757 24.1934 48.3209C24.1934 47.1662 25.1235 46.2215 26.2604 46.2215ZM68.635 46.2215C69.7719 46.2215 70.7021 47.1662 70.7021 48.3209C70.7021 49.4757 69.7719 50.4204 68.635 50.4204C67.4982 50.4204 66.568 49.4757 66.568 48.3209C66.568 47.1662 67.4982 46.2215 68.635 46.2215Z" fill="#3F3D56"/>
    </g>
    <path d="M5.09788 88.5633C4.13728 88.5633 3.33149 88.3827 2.6805 88.0217C2.03745 87.6524 1.54921 87.1683 1.21578 86.5693C0.890286 85.9703 0.727539 85.3138 0.727539 84.5999C0.727539 83.9025 0.854561 83.2993 1.1086 82.7906C1.37059 82.2736 1.73577 81.8469 2.20417 81.5105C2.67256 81.1659 3.23225 80.8951 3.88324 80.6982C4.49453 80.5258 5.17727 80.3781 5.93146 80.2551C6.69359 80.1238 7.46366 80.0048 8.24167 79.8981C9.01968 79.7914 9.74609 79.6889 10.4209 79.5904L9.65876 80.0458C9.68258 78.8642 9.45235 77.9903 8.96808 77.4241C8.49175 76.8579 7.66611 76.5748 6.49115 76.5748C5.71315 76.5748 5.0304 76.7594 4.44293 77.1287C3.86339 77.4898 3.45454 78.0806 3.21637 78.9011L1.20387 78.2734C1.51349 77.1082 2.11287 76.1933 3.00202 75.5286C3.89118 74.8639 5.06216 74.5316 6.51497 74.5316C7.68198 74.5316 8.68228 74.7491 9.51586 75.184C10.3574 75.6107 10.9607 76.2589 11.3259 77.1287C11.5085 77.539 11.6236 77.9862 11.6713 78.4703C11.7189 78.9463 11.7427 79.4468 11.7427 79.972V88.194H9.8612V85.0061L10.3018 85.3015C9.81754 86.3765 9.13876 87.1888 8.26549 87.7386C7.40015 88.2884 6.34429 88.5633 5.09788 88.5633ZM5.41941 86.7293C6.18154 86.7293 6.84046 86.5898 7.39618 86.3108C7.95984 86.0236 8.41236 85.6503 8.75373 85.1907C9.0951 84.723 9.31739 84.2143 9.4206 83.6645C9.53968 83.2542 9.60319 82.7988 9.61113 82.2983C9.62701 81.7895 9.63494 81.3997 9.63494 81.129L10.3733 81.4613C9.68258 81.5597 9.0038 81.6541 8.33694 81.7444C7.67008 81.8346 7.03894 81.9331 6.44352 82.0398C5.84811 82.1382 5.31223 82.2572 4.8359 82.3967C4.48659 82.5116 4.15713 82.6593 3.84751 82.8398C3.54584 83.0204 3.29973 83.2542 3.1092 83.5414C2.9266 83.8204 2.83531 84.1691 2.83531 84.5876C2.83531 84.9487 2.92263 85.2933 3.09729 85.6215C3.27988 85.9498 3.55774 86.2164 3.93087 86.4216C4.31194 86.6267 4.80812 86.7293 5.41941 86.7293Z" fill="#3F3D56"/>
    <path d="M18.3273 88.194L13.6592 74.9009H15.8027L19.4109 85.4L23.0072 74.9009H25.1626L20.4946 88.194H18.3273Z" fill="#3F3D56"/>
    <path d="M28.031 88.194V74.9009H30.1507V88.194H28.031Z" fill="#3F3D56"/>
    <path d="M39.6779 88.5633C38.3997 88.5633 37.2962 88.2638 36.3674 87.6647C35.4465 87.0657 34.736 86.237 34.2358 85.1784C33.7357 84.1199 33.4856 82.9055 33.4856 81.5351C33.4856 80.1402 33.7396 78.9175 34.2477 77.8672C34.7558 76.8169 35.4743 76.0004 36.4031 75.4178C37.332 74.827 38.4236 74.5316 39.6779 74.5316C40.964 74.5316 42.0715 74.8311 43.0003 75.4301C43.9292 76.0209 44.6397 76.8456 45.1319 77.9041C45.632 78.9545 45.8821 80.1648 45.8821 81.5351C45.8821 82.9219 45.632 84.1445 45.1319 85.2031C44.6317 86.2534 43.9172 87.078 42.9884 87.6771C42.0596 88.2679 40.9561 88.5633 39.6779 88.5633ZM39.6779 86.4831C41.0116 86.4831 42.004 86.0236 42.655 85.1046C43.306 84.1856 43.6314 82.9957 43.6314 81.5351C43.6314 80.0335 43.302 78.8396 42.6431 77.9534C41.9841 77.059 40.9957 76.6117 39.6779 76.6117C38.7808 76.6117 38.0425 76.821 37.463 77.2395C36.8834 77.658 36.4507 78.2365 36.1649 78.975C35.8792 79.7135 35.7363 80.5669 35.7363 81.5351C35.7363 83.0286 36.0697 84.2266 36.7365 85.1292C37.4034 86.0318 38.3839 86.4831 39.6779 86.4831Z" fill="#3F3D56"/>
    <path d="M58.1378 88.194V81.5351C58.1378 80.9033 58.0822 80.2961 57.9711 79.7135C57.8679 79.1309 57.6813 78.6098 57.4114 78.1503C57.1494 77.6826 56.7922 77.3133 56.3396 77.0425C55.8951 76.7718 55.3314 76.6364 54.6487 76.6364C54.1168 76.6364 53.6325 76.7307 53.1959 76.9195C52.7672 77.1 52.398 77.379 52.0884 77.7564C51.7788 78.1339 51.5366 78.6098 51.362 79.1842C51.1953 79.7504 51.1119 80.4192 51.1119 81.1905L49.7186 80.7474C49.7186 79.4591 49.9409 78.3554 50.3855 77.4364C50.838 76.5092 51.4692 75.7994 52.2789 75.307C53.0966 74.8065 54.0572 74.5562 55.1607 74.5562C55.9943 74.5562 56.7048 74.6916 57.2923 74.9624C57.8798 75.2332 58.368 75.5942 58.757 76.0456C59.146 76.4887 59.4517 76.9892 59.674 77.5472C59.8963 78.097 60.0511 78.6591 60.1384 79.2334C60.2337 79.7996 60.2813 80.3371 60.2813 80.8459V88.194H58.1378ZM48.9684 88.194V74.9009H50.8737V78.458H51.1119V88.194H48.9684Z" fill="#3F3D56"/>
    <path d="M64.0918 88.194V74.9009H66.2114V88.194H64.0918Z" fill="#3F3D56"/>
    <path d="M75.6791 88.5633C74.3771 88.5633 73.2696 88.2638 72.3567 87.6647C71.4516 87.0575 70.761 86.2247 70.2846 85.1661C69.8083 84.1076 69.5622 82.9014 69.5463 81.5474C69.5622 80.1607 69.8123 78.9421 70.2965 77.8918C70.7887 76.8333 71.4913 76.0086 72.4043 75.4178C73.3173 74.827 74.4168 74.5316 75.7029 74.5316C77.0604 74.5316 78.2275 74.8763 79.2039 75.5655C80.1884 76.2548 80.8473 77.1984 81.1807 78.3965L79.0849 79.0488C78.8149 78.2775 78.3743 77.6785 77.763 77.2518C77.1597 76.8251 76.465 76.6117 75.6791 76.6117C74.7979 76.6117 74.0715 76.8251 73.4999 77.2518C72.9283 77.6703 72.5035 78.2529 72.2257 78.9996C71.9478 79.7381 71.8049 80.5874 71.797 81.5474C71.8129 83.0245 72.1423 84.2184 72.7854 85.1292C73.4364 86.0318 74.4009 86.4831 75.6791 86.4831C76.5206 86.4831 77.2192 86.2862 77.7749 85.8923C78.3307 85.4903 78.7514 84.9118 79.0372 84.1568L81.1807 84.7353C80.7361 85.9744 80.0415 86.9221 79.0968 87.5786C78.152 88.235 77.0128 88.5633 75.6791 88.5633Z" fill="#3F3D56"/>
    <path d="M87.627 88.5633C86.6664 88.5633 85.8606 88.3827 85.2096 88.0217C84.5666 87.6524 84.0783 87.1683 83.7449 86.5693C83.4194 85.9703 83.2567 85.3138 83.2567 84.5999C83.2567 83.9025 83.3837 83.2993 83.6377 82.7906C83.8997 82.2736 84.2649 81.8469 84.7333 81.5105C85.2017 81.1659 85.7614 80.8951 86.4124 80.6982C87.0237 80.5258 87.7064 80.3781 88.4606 80.2551C89.2227 80.1238 89.9928 80.0048 90.7708 79.8981C91.5488 79.7914 92.2752 79.6889 92.95 79.5904L92.1879 80.0458C92.2117 78.8642 91.9815 77.9903 91.4972 77.4241C91.0209 76.8579 90.1952 76.5748 89.0203 76.5748C88.2423 76.5748 87.5595 76.7594 86.9721 77.1287C86.3925 77.4898 85.9837 78.0806 85.7455 78.9011L83.733 78.2734C84.0426 77.1082 84.642 76.1933 85.5312 75.5286C86.4203 74.8639 87.5913 74.5316 89.0441 74.5316C90.2111 74.5316 91.2114 74.7491 92.045 75.184C92.8865 75.6107 93.4899 76.2589 93.855 77.1287C94.0376 77.539 94.1528 77.9862 94.2004 78.4703C94.248 78.9463 94.2718 79.4468 94.2718 79.972V88.194H92.3903V85.0061L92.8309 85.3015C92.3467 86.3765 91.6679 87.1888 90.7946 87.7386C89.9293 88.2884 88.8734 88.5633 87.627 88.5633ZM87.9485 86.7293C88.7107 86.7293 89.3696 86.5898 89.9253 86.3108C90.489 86.0236 90.9415 85.6503 91.2829 85.1907C91.6242 84.723 91.8465 84.2143 91.9497 83.6645C92.0688 83.2542 92.1323 82.7988 92.1403 82.2983C92.1561 81.7895 92.1641 81.3997 92.1641 81.129L92.9024 81.4613C92.2117 81.5597 91.5329 81.6541 90.8661 81.7444C90.1992 81.8346 89.5681 81.9331 88.9727 82.0398C88.3772 82.1382 87.8414 82.2572 87.365 82.3967C87.0157 82.5116 86.6863 82.6593 86.3766 82.8398C86.075 83.0204 85.8289 83.2542 85.6383 83.5414C85.4557 83.8204 85.3644 84.1691 85.3644 84.5876C85.3644 84.9487 85.4518 85.2933 85.6264 85.6215C85.809 85.9498 86.0869 86.2164 86.46 86.4216C86.8411 86.6267 87.3372 86.7293 87.9485 86.7293Z" fill="#3F3D56"/>
    <defs>
        <filter id="filter0_d_116_42132" x="6.8916" y="10.3038" width="81.2148" height="53.2659" filterUnits="userSpaceOnUse" color-interpolation-filters="sRGB">
            <feFlood flood-opacity="0" result="BackgroundImageFix"/>
            <feColorMatrix in="SourceAlpha" type="matrix" values="0 0 0 0 0 0 0 0 0 0 0 0 0 0 0 0 0 0 127 0" result="hardAlpha"/>
            <feOffset dy="2"/>
            <feGaussianBlur stdDeviation="4"/>
            <feColorMatrix type="matrix" values="0 0 0 0 0.167639 0 0 0 0 0.227481 0 0 0 0 0.283333 0 0 0 0.06 0"/>
            <feBlend mode="normal" in2="BackgroundImageFix" result="effect1_dropShadow_116_42132"/>
            <feBlend mode="normal" in="SourceGraphic" in2="effect1_dropShadow_116_42132" result="shape"/>
        </filter>
    </defs>
</svg>
