<svg width="121" height="108" viewBox="0 0 121 108" fill="none" xmlns="http://www.w3.org/2000/svg">
<path d="M8.80859 81.165C12.9578 81.165 15.2025 83.4097 15.2025 87.831V96.9797C15.2025 97.966 14.6923 98.5101 13.74 98.5101C12.7878 98.5101 12.2776 97.966 12.2776 96.9797V95.2792C10.8492 97.1838 9.14869 98.5101 6.39388 98.5101C3.87714 98.5101 1.3604 96.9797 1.3604 93.4767C1.3604 90.1437 4.11521 88.6132 7.31215 88.6132C8.97864 88.6132 10.7132 88.9873 12.2776 89.6676V87.695C12.2776 84.498 10.6111 83.7498 8.80859 83.7498C7.31215 83.7498 5.81571 84.464 4.7614 85.2803C4.48932 85.4843 4.04719 85.6884 3.57105 85.6884C2.78882 85.6884 2.3807 85.0082 2.3807 84.464C2.3807 84.0219 2.61877 83.5798 3.09491 83.1716C4.7614 81.7772 6.59794 81.165 8.80859 81.165ZM6.83601 95.9254C9.21671 95.9254 11.2913 94.3609 12.0055 91.8442C10.7132 91.232 9.21671 90.8919 7.92433 90.8919C5.98576 90.8919 4.4213 91.7422 4.4213 93.4427C4.4213 95.1772 5.50962 95.9254 6.83601 95.9254ZM27.1224 98.5101C25.8641 98.5101 24.8098 97.864 24.0275 95.7213L19.3682 83.1036C18.9941 82.1173 19.5722 81.165 20.7626 81.165C21.3407 81.165 21.7829 81.5052 21.9529 82.0153L26.6463 95.3472C26.7143 95.5173 26.8164 95.9254 27.1224 95.9254C27.4285 95.9254 27.5306 95.5173 27.5986 95.3472L32.292 82.0153C32.462 81.5392 32.8021 81.165 33.5843 81.165C34.7747 81.165 35.2168 82.2534 34.8767 83.1036L30.2174 95.7213C29.4351 97.864 28.3808 98.5101 27.1224 98.5101ZM40.4108 78.2742C39.2204 78.2742 38.3022 77.3559 38.3022 76.1656C38.3022 74.9752 39.2204 74.0229 40.4108 74.0229C41.6011 74.0229 42.5534 74.9752 42.5534 76.1656C42.5534 77.3559 41.6011 78.2742 40.4108 78.2742ZM41.8732 97.0477C41.8732 98.034 41.227 98.5101 40.4108 98.5101C39.5945 98.5101 38.9484 98.034 38.9484 97.0477V82.6275C38.9484 81.7092 39.5945 81.165 40.4108 81.165C41.227 81.165 41.8732 81.7092 41.8732 82.6275V97.0477ZM55.1183 81.165C59.9137 81.165 63.6208 84.8381 63.6208 89.8036C63.6208 94.8031 59.7776 98.5101 55.1183 98.5101C50.2888 98.5101 46.4797 94.8031 46.4797 89.8036C46.4797 84.7021 50.2888 81.165 55.1183 81.165ZM55.1183 95.9254C58.2472 95.9254 60.5599 93.1706 60.5599 89.8036C60.5599 86.3346 58.2132 83.7498 55.1183 83.7498C51.7853 83.7498 49.5406 86.2665 49.5406 89.8036C49.5406 93.3746 51.8873 95.9254 55.1183 95.9254ZM77.5991 73.2747C78.7215 74.057 78.6534 75.0092 78.0072 75.5194C77.3951 76.0295 76.8169 75.8595 76.0007 75.3834C75.6606 75.1793 75.1164 75.0773 74.6743 75.0773C72.2596 75.0773 71.6474 77.1179 71.6474 80.5189V81.165H75.5245C76.4428 81.165 76.9189 81.6752 76.9189 82.4574C76.9189 83.2397 76.4428 83.7498 75.5245 83.7498H71.6474L71.6814 97.0477C71.6814 98.068 71.0352 98.5101 70.219 98.5101C69.4027 98.5101 68.7565 98.068 68.7565 97.0477L68.7225 83.7498H68.2124C67.3961 83.7498 66.818 83.2397 66.818 82.4574C66.818 81.6752 67.3621 81.165 68.2124 81.165H68.7225V80.5189C68.7225 75.0092 70.525 72.4925 74.6743 72.4925C75.8306 72.4925 76.8169 72.7306 77.5991 73.2747ZM80.812 73.9549C80.812 72.9686 81.3222 72.4245 82.2744 72.4245C83.2267 72.4245 83.7369 72.9686 83.7369 73.9549V93.5787C83.7369 95.0751 84.6891 95.7213 86.0495 95.7213C86.3216 95.7213 86.6617 95.6873 86.9678 95.6533C87.7841 95.5513 88.2942 95.8574 88.3962 96.5376C88.5323 97.3198 88.2942 97.7619 87.8861 98C87.0018 98.5101 86.0495 98.5101 85.5734 98.5101C82.6145 98.5101 80.812 96.7076 80.812 93.7488V73.9549Z" fill="#3F3D56"/>
<path d="M110.216 96.5716C110.522 97.3538 110.148 98.5101 108.89 98.5101C108.073 98.5101 107.733 98.102 107.529 97.5919L105.659 92.7285H94.5714L92.7009 97.5919C92.4968 98.102 92.1567 98.5101 91.3405 98.5101C90.0821 98.5101 89.708 97.3538 90.0141 96.5716L97.3263 77.458C98.6186 74.159 99.2988 74.0229 100.115 74.0229C100.931 74.0229 101.612 74.159 102.904 77.458L110.216 96.5716ZM95.5917 90.0417H104.638L102.326 84.0219L100.319 78.5123C100.285 78.4442 100.183 78.0361 100.115 78.0361C100.047 78.0361 99.945 78.4442 99.911 78.5123L97.9044 83.9879L95.5917 90.0417ZM114.633 75.4854C114.633 74.7031 115.279 74.0229 116.095 74.0229C116.911 74.0229 117.557 74.7031 117.557 75.4854V97.0477C117.557 97.8299 116.911 98.5101 116.095 98.5101C115.279 98.5101 114.633 97.8299 114.633 97.0477V75.4854Z" fill="#059FE9"/>
<g filter="url(#filter0_d_1006_11316)">
<path d="M59.8782 5C58.6672 5 57.7411 5.9338 57.7411 7.15493V15.9907C53.1821 16.7808 49.2636 19.9408 46.8416 24.3944H35.6582C34.4472 24.3944 33.5212 25.3282 33.5212 26.5493C33.5212 27.7704 34.4472 28.7042 35.6582 28.7042H45.1331C44.5632 30.7155 44.2064 32.8704 44.2064 35.169C44.2064 37.4676 44.4919 39.6225 45.1331 41.6338H17.1371C15.9261 41.6338 15 42.5676 15 43.7887C15 45.0099 15.9261 45.9437 17.1371 45.9437H24.1187C23.7625 46.8056 23.5482 47.8113 23.5482 48.8169C23.5482 52.7676 26.7538 56 30.6718 56C34.5897 56 37.7953 52.7676 37.7953 48.8169C37.7953 47.8113 37.581 46.8056 37.2248 45.9437H46.9139C49.7633 51.1155 54.5353 54.5634 59.9492 54.5634C65.363 54.5634 70.1363 51.1155 72.9858 45.9437H82.6735C82.3173 46.8056 82.103 47.8113 82.103 48.8169C82.103 52.7676 85.3086 56 89.2266 56C93.1445 56 96.3501 52.7676 96.3501 48.8169C96.3501 47.8113 96.1372 46.8056 95.781 45.9437H102.761C103.972 45.9437 104.898 45.0099 104.898 43.7887C104.898 42.5676 103.972 41.6338 102.761 41.6338H74.6233C75.1932 39.6225 75.5499 37.4676 75.5499 35.169C75.5499 32.8704 75.2645 30.7155 74.6233 28.7042H84.0982C85.3092 28.7042 86.2352 27.7704 86.2352 26.5493C86.2352 25.3282 85.3092 24.3944 84.0982 24.3944H72.9148C70.4928 19.869 66.5743 16.709 62.0153 15.9907V7.15493C62.0153 5.9338 61.0892 5 59.8782 5ZM59.8782 20.0845C66.1469 20.0845 71.2758 26.8366 71.2758 35.169C71.2758 43.5014 66.1469 50.2535 59.8782 50.2535C53.6095 50.2535 48.4806 43.5014 48.4806 35.169C48.4806 26.8366 53.6095 20.0845 59.8782 20.0845ZM54.1794 29.4225C52.9684 29.4225 52.0423 30.3563 52.0423 31.5775C52.0423 32.7986 52.9684 33.7324 54.1794 33.7324H65.577C66.788 33.7324 67.7141 32.7986 67.7141 31.5775C67.7141 30.3563 66.788 29.4225 65.577 29.4225H54.1794ZM30.6718 45.9437C32.2389 45.9437 33.5212 47.2366 33.5212 48.8169C33.5212 50.3972 32.2389 51.6901 30.6718 51.6901C29.1046 51.6901 27.8223 50.3972 27.8223 48.8169C27.8223 47.2366 29.1046 45.9437 30.6718 45.9437ZM89.0846 45.9437C90.6518 45.9437 91.9341 47.2366 91.9341 48.8169C91.9341 50.3972 90.6518 51.6901 89.0846 51.6901C87.5175 51.6901 86.2352 50.3972 86.2352 48.8169C86.2352 47.2366 87.5175 45.9437 89.0846 45.9437Z" fill="#3F3D56"/>
</g>
<defs>
<filter id="filter0_d_1006_11316" x="8.42208" y="0.0665565" width="103.054" height="64.1558" filterUnits="userSpaceOnUse" color-interpolation-filters="sRGB">
<feFlood flood-opacity="0" result="BackgroundImageFix"/>
<feColorMatrix in="SourceAlpha" type="matrix" values="0 0 0 0 0 0 0 0 0 0 0 0 0 0 0 0 0 0 127 0" result="hardAlpha"/>
<feOffset dy="1.64448"/>
<feGaussianBlur stdDeviation="3.28896"/>
<feColorMatrix type="matrix" values="0 0 0 0 0.167639 0 0 0 0 0.227481 0 0 0 0 0.283333 0 0 0 0.06 0"/>
<feBlend mode="normal" in2="BackgroundImageFix" result="effect1_dropShadow_1006_11316"/>
<feBlend mode="normal" in="SourceGraphic" in2="effect1_dropShadow_1006_11316" result="shape"/>
</filter>
</defs>
</svg>
