<svg width="24" height="24" viewBox="0 0 24 24" fill="none" xmlns="http://www.w3.org/2000/svg">
<rect width="24" height="24" rx="4" fill="#D2E6FC"/>
<g clip-path="url(#clip0_116_39442)">
<path d="M12 14C13.1046 14 14 13.1046 14 12C14 10.8954 13.1046 10 12 10C10.8954 10 10 10.8954 10 12C10 13.1046 10.8954 14 12 14Z" stroke="#3F3D56" stroke-width="1.5" stroke-linecap="round" stroke-linejoin="round"/>
<path d="M16.9337 13.9993C16.8449 14.2004 16.8184 14.4235 16.8577 14.6397C16.8969 14.856 17 15.0556 17.1537 15.2127L17.1937 15.2527C17.3176 15.3765 17.416 15.5236 17.4831 15.6854C17.5502 15.8473 17.5847 16.0208 17.5847 16.196C17.5847 16.3712 17.5502 16.5447 17.4831 16.7066C17.416 16.8685 17.3176 17.0155 17.1937 17.1393C17.0698 17.2633 16.9228 17.3617 16.7609 17.4288C16.599 17.4959 16.4255 17.5304 16.2503 17.5304C16.0751 17.5304 15.9016 17.4959 15.7397 17.4288C15.5779 17.3617 15.4308 17.2633 15.307 17.1393L15.267 17.0993C15.1099 16.9457 14.9103 16.8426 14.6941 16.8033C14.4778 16.7641 14.2547 16.7906 14.0537 16.8793C13.8565 16.9639 13.6883 17.1042 13.5699 17.283C13.4514 17.4619 13.3878 17.6715 13.387 17.886V17.9993C13.387 18.353 13.2465 18.6921 12.9965 18.9422C12.7464 19.1922 12.4073 19.3327 12.0537 19.3327C11.7 19.3327 11.3609 19.1922 11.1108 18.9422C10.8608 18.6921 10.7203 18.353 10.7203 17.9993V17.9393C10.7152 17.7187 10.6437 17.5047 10.5153 17.3251C10.3869 17.1456 10.2075 17.0089 10.0003 16.9327C9.79925 16.8439 9.5762 16.8175 9.35993 16.8567C9.14367 16.8959 8.94411 16.999 8.78699 17.1527L8.74699 17.1927C8.62316 17.3167 8.47611 17.415 8.31425 17.4821C8.15238 17.5492 7.97888 17.5837 7.80366 17.5837C7.62844 17.5837 7.45494 17.5492 7.29307 17.4821C7.13121 17.415 6.98416 17.3167 6.86033 17.1927C6.73636 17.0689 6.63801 16.9218 6.57091 16.7599C6.50381 16.5981 6.46928 16.4246 6.46928 16.2493C6.46928 16.0741 6.50381 15.9006 6.57091 15.7388C6.63801 15.5769 6.73636 15.4298 6.86033 15.306L6.90033 15.266C7.05402 15.1089 7.15712 14.9093 7.19633 14.6931C7.23554 14.4768 7.20907 14.2538 7.12033 14.0527C7.03582 13.8555 6.8955 13.6873 6.71664 13.5689C6.53778 13.4504 6.32818 13.3869 6.11366 13.386H6.00033C5.6467 13.386 5.30756 13.2455 5.05752 12.9955C4.80747 12.7454 4.66699 12.4063 4.66699 12.0527C4.66699 11.6991 4.80747 11.3599 5.05752 11.1099C5.30756 10.8598 5.6467 10.7193 6.00033 10.7193H6.06033C6.28099 10.7142 6.495 10.6428 6.67452 10.5144C6.85405 10.386 6.9908 10.2065 7.06699 9.99935C7.15574 9.79827 7.18221 9.57522 7.143 9.35896C7.10378 9.14269 7.00068 8.94313 6.84699 8.78602L6.80699 8.74602C6.68302 8.62218 6.58468 8.47513 6.51758 8.31327C6.45048 8.1514 6.41594 7.9779 6.41594 7.80268C6.41594 7.62746 6.45048 7.45396 6.51758 7.2921C6.58468 7.13023 6.68302 6.98318 6.80699 6.85935C6.93082 6.73538 7.07787 6.63703 7.23974 6.56994C7.4016 6.50284 7.5751 6.4683 7.75033 6.4683C7.92555 6.4683 8.09905 6.50284 8.26091 6.56994C8.42278 6.63703 8.56983 6.73538 8.69366 6.85935L8.73366 6.89935C8.89078 7.05304 9.09034 7.15614 9.3066 7.19535C9.52286 7.23456 9.74591 7.20809 9.94699 7.11935H10.0003C10.1975 7.03484 10.3657 6.89452 10.4841 6.71566C10.6026 6.5368 10.6661 6.32721 10.667 6.11268V5.99935C10.667 5.64573 10.8075 5.30659 11.0575 5.05654C11.3076 4.80649 11.6467 4.66602 12.0003 4.66602C12.3539 4.66602 12.6931 4.80649 12.9431 5.05654C13.1932 5.30659 13.3337 5.64573 13.3337 5.99935V6.05935C13.3345 6.27387 13.3981 6.48347 13.5165 6.66233C13.635 6.84119 13.8031 6.98151 14.0003 7.06602C14.2014 7.15476 14.4245 7.18123 14.6407 7.14202C14.857 7.10281 15.0565 6.99971 15.2137 6.84602L15.2537 6.80602C15.3775 6.68205 15.5245 6.5837 15.6864 6.5166C15.8483 6.4495 16.0218 6.41497 16.197 6.41497C16.3722 6.41497 16.5457 6.4495 16.7076 6.5166C16.8694 6.5837 17.0165 6.68205 17.1403 6.80602C17.2643 6.92985 17.3626 7.0769 17.4297 7.23876C17.4968 7.40063 17.5314 7.57413 17.5314 7.74935C17.5314 7.92457 17.4968 8.09807 17.4297 8.25994C17.3626 8.4218 17.2643 8.56885 17.1403 8.69268L17.1003 8.73268C16.9466 8.8898 16.8435 9.08936 16.8043 9.30562C16.7651 9.52189 16.7916 9.74494 16.8803 9.94602V9.99935C16.9648 10.1965 17.1052 10.3647 17.284 10.4831C17.4629 10.6016 17.6725 10.6652 17.887 10.666H18.0003C18.3539 10.666 18.6931 10.8065 18.9431 11.0565C19.1932 11.3066 19.3337 11.6457 19.3337 11.9993C19.3337 12.353 19.1932 12.6921 18.9431 12.9422C18.6931 13.1922 18.3539 13.3327 18.0003 13.3327H17.9403C17.7258 13.3335 17.5162 13.3971 17.3373 13.5156C17.1585 13.634 17.0182 13.8022 16.9337 13.9993V13.9993Z" stroke="#3F3D56" stroke-width="1.5" stroke-linecap="round" stroke-linejoin="round"/>
</g>
<defs>
<clipPath id="clip0_116_39442">
<rect width="16" height="16" fill="white" transform="translate(4 4)"/>
</clipPath>
</defs>
</svg>
