<svg width="24" height="24" viewBox="0 0 24 24" fill="none" xmlns="http://www.w3.org/2000/svg">
<path d="M19.75 7.375H11C10.3096 7.375 9.75 8.10254 9.75 9V20.375C9.75 21.2725 10.3096 22 11 22H19.75C20.4404 22 21 21.2725 21 20.375V9C21 8.10254 20.4404 7.375 19.75 7.375Z" stroke="#3F3D56" stroke-width="1.5" stroke-linecap="round" stroke-linejoin="round"/>
<path d="M12 10.75L14.25 10.75" stroke="#3F3D56" stroke-width="1.5" stroke-linecap="round" stroke-linejoin="round"/>
<path d="M12 14.125L14.25 14.125" stroke="#3F3D56" stroke-width="1.5" stroke-linecap="round" stroke-linejoin="round"/>
<path d="M12 17.5L14.25 17.5" stroke="#3F3D56" stroke-width="1.5" stroke-linecap="round" stroke-linejoin="round"/>
<path d="M16.5 10.75H18.75" stroke="#3F3D56" stroke-width="1.5" stroke-linecap="round" stroke-linejoin="round"/>
<path d="M16.5 14.125H18.75" stroke="#3F3D56" stroke-width="1.5" stroke-linecap="round" stroke-linejoin="round"/>
<path d="M16.5 17.5H18.75" stroke="#3F3D56" stroke-width="1.5" stroke-linecap="round" stroke-linejoin="round"/>
<path d="M14.25 6.25V3.375C14.25 2.47754 13.6904 1.75 13 1.75H4.25C3.55964 1.75 3 2.47754 3 3.375V14.75C3 15.6475 3.55964 16.375 4.25 16.375H9.75" stroke="#3F3D56" stroke-width="1.5" stroke-linecap="round" stroke-linejoin="round"/>
<path d="M5.25 5.125L7.5 5.125" stroke="#3F3D56" stroke-width="1.5" stroke-linecap="round" stroke-linejoin="round"/>
<path d="M5.25 8.5L7.5 8.5" stroke="#3F3D56" stroke-width="1.5" stroke-linecap="round" stroke-linejoin="round"/>
<path d="M5.25 11.875L7.5 11.875" stroke="#3F3D56" stroke-width="1.5" stroke-linecap="round" stroke-linejoin="round"/>
<path d="M9.75 5.125H12" stroke="#3F3D56" stroke-width="1.5" stroke-linecap="round" stroke-linejoin="round"/>
</svg>
