<svg width="20" height="22" viewBox="0 0 20 22" fill="none" xmlns="http://www.w3.org/2000/svg">
<path d="M17.75 6.375L9 6.375C8.30964 6.375 7.75 7.10254 7.75 8L7.75 19.375C7.75 20.2725 8.30964 21 9 21H17.75C18.4404 21 19 20.2725 19 19.375V8C19 7.10254 18.4404 6.375 17.75 6.375Z" stroke="#3F3D56" stroke-width="1.5" stroke-linecap="round" stroke-linejoin="round"/>
<path d="M10 9.75L12.25 9.75" stroke="#3F3D56" stroke-width="1.5" stroke-linecap="round" stroke-linejoin="round"/>
<path d="M10 13.125L12.25 13.125" stroke="#3F3D56" stroke-width="1.5" stroke-linecap="round" stroke-linejoin="round"/>
<path d="M10 16.5L12.25 16.5" stroke="#3F3D56" stroke-width="1.5" stroke-linecap="round" stroke-linejoin="round"/>
<path d="M14.5 9.75H16.75" stroke="#3F3D56" stroke-width="1.5" stroke-linecap="round" stroke-linejoin="round"/>
<path d="M14.5 13.125H16.75" stroke="#3F3D56" stroke-width="1.5" stroke-linecap="round" stroke-linejoin="round"/>
<path d="M14.5 16.5H16.75" stroke="#3F3D56" stroke-width="1.5" stroke-linecap="round" stroke-linejoin="round"/>
<path d="M12.25 5.25V2.375C12.25 1.47754 11.6904 0.75 11 0.75L2.25 0.75C1.55964 0.75 1 1.47754 1 2.375L1 13.75C1 14.6475 1.55964 15.375 2.25 15.375H7.75" stroke="#3F3D56" stroke-width="1.5" stroke-linecap="round" stroke-linejoin="round"/>
<path d="M3.25 4.125L5.5 4.125" stroke="#3F3D56" stroke-width="1.5" stroke-linecap="round" stroke-linejoin="round"/>
<path d="M3.25 7.5L5.5 7.5" stroke="#3F3D56" stroke-width="1.5" stroke-linecap="round" stroke-linejoin="round"/>
<path d="M3.25 10.875L5.5 10.875" stroke="#3F3D56" stroke-width="1.5" stroke-linecap="round" stroke-linejoin="round"/>
<path d="M7.75 4.125H10" stroke="#3F3D56" stroke-width="1.5" stroke-linecap="round" stroke-linejoin="round"/>
</svg>
