<svg width="375" height="642" viewBox="0 0 375 642" fill="none" xmlns="http://www.w3.org/2000/svg">
<g clip-path="url(#clip0_253_6533)">
<path d="M480.328 -31.2431C375.569 -177.104 154.272 -236.272 -63.3677 -172.547C-178.427 -138.857 -289.365 -71.3557 -344.344 59.3496C-442.624 292.999 -236.273 367.621 -101.342 391.404C-36.0966 402.905 25.3534 422.222 81.507 448.523C182.532 495.841 361.354 537.77 496.198 340.669C593.932 197.809 550.108 65.9148 480.328 -31.2431Z" fill="#151A6A" fill-opacity="0.2"/>
<path d="M7.9726 151.615C7.67953 149.297 7.08687 147.026 6.20944 144.861C6.09755 144.452 5.90166 144.07 5.63422 143.74C5.36679 143.411 5.03369 143.14 4.65614 142.947C4.15146 142.815 3.62236 142.81 3.11487 142.93L-4.7982 144.141C-5.46051 144.171 -6.09465 144.418 -6.60364 144.843C-7.63428 145.927 -6.61942 147.674 -6.65097 149.17C-6.68645 150.852 -8.18045 152.218 -9.80057 152.67C-11.4543 153.004 -13.1602 152.983 -14.8052 152.608L-25.87 150.887C-22.6112 149.846 -19.7107 147.91 -17.4993 145.298C-16.0432 143.572 -15.2686 140.35 -17.373 139.533C-17.9982 139.361 -18.6502 139.309 -19.2948 139.378C-24.3079 139.417 -28.2529 135.229 -32.946 133.465C-35.9497 132.409 -39.2102 132.331 -42.2612 133.241C-45.3123 134.151 -47.9976 136.003 -49.9332 138.532L-44.0388 138.817C-43.4843 138.786 -42.9344 138.933 -42.4688 139.236C-41.177 140.297 -42.783 142.337 -42.601 144C-42.3645 146.161 -39.4976 146.622 -37.3365 146.84C-35.1753 147.059 -32.4337 148.816 -33.4733 150.724C-44.3354 154.468 -55.3888 143.406 -66.7963 144.768C-69.6835 145.112 -72.4098 146.247 -75.2286 146.961C-92.4481 151.32 -110.25 139.689 -127.841 142.152C-131.751 142.819 -135.595 143.834 -139.325 145.183C-141.719 145.97 -144.217 146.82 -145.956 148.644C-147.696 150.468 -148.358 153.588 -146.71 155.495C-151.252 155.869 -155.825 155.434 -160.215 154.211C-159.028 154.871 -158.04 155.839 -157.356 157.013C-156.671 158.187 -156.315 159.523 -156.325 160.883C-163.417 162.04 -170.321 164.146 -176.852 167.145C-175.633 169.173 -174.21 171.071 -172.604 172.808L-181.582 178.58C-178.549 179.344 -176.98 183.483 -178.744 186.068C-175.599 184.668 -173.65 181.046 -170.287 180.312C-168.083 179.831 -165.841 180.733 -163.751 181.58C-161.661 182.427 -159.363 183.249 -157.199 182.613C-155.036 181.977 -153.439 179.169 -154.814 177.381C-145.566 174.681 -136.007 173.186 -126.376 172.935C-125.633 172.842 -124.879 172.985 -124.222 173.344C-122.968 174.214 -123.298 176.094 -123.366 177.62C-123.433 179.145 -122.245 181.15 -120.882 180.462C-122.485 181.853 -121.115 184.471 -119.577 185.934C-118.039 187.396 -116.186 189.414 -117.127 191.317C-117.373 191.813 -117.79 192.21 -118.026 192.712C-118.724 194.19 -117.616 195.915 -116.309 196.897C-115.002 197.879 -113.401 198.565 -112.493 199.925C-111.585 201.285 -111.998 203.666 -113.621 203.856L-118.236 197.993C-119.812 199.629 -120.893 201.678 -121.353 203.904C-116.459 207.906 -115.723 216.053 -119.82 220.869C-121.913 223.33 -124.891 224.825 -127.489 226.744C-130.087 228.664 -132.492 231.397 -132.485 234.629C-132.474 240.212 -132.93 245.399 -130.839 250.575C-126.983 260.12 -122.531 269.413 -117.51 278.399C-116.192 280.758 -114.488 283.344 -111.817 283.751C-115.192 275.528 -118.231 267.177 -120.933 258.698C-119.173 258.705 -117.14 258.845 -116.108 260.272C-115.254 261.453 -115.437 263.059 -115.172 264.493C-114.834 265.882 -114.271 267.206 -113.505 268.413L-97.3849 297.145C-96.0486 299.526 -94.5157 302.083 -91.9617 303.048C-90.3288 303.664 -88.4396 303.548 -86.9366 304.436C-85.7586 305.132 -84.9651 306.367 -83.7641 307.023C-80.3683 308.876 -75.6461 305.321 -72.4726 307.535C-71.5652 308.167 -70.988 309.173 -70.1519 309.897C-67.2209 312.437 -62.4129 310.738 -59.0294 312.632C-56.8488 313.853 -55.7186 316.295 -54.5555 318.508C-51.6421 324.051 -46.928 329.482 -40.6843 329.923C-38.723 330.062 -36.7196 329.69 -34.8025 330.126C-32.8854 330.563 -30.9981 332.237 -31.3059 334.18C-31.8335 337.511 -30.1886 341.159 -30.6303 344.503C-31.435 350.593 -40.069 353.27 -40.8107 359.368C-40.973 360.703 -40.7189 362.082 -41.0366 363.389C-41.4261 364.991 -42.6284 366.295 -43.0556 367.887C-43.8653 370.904 -41.7048 373.907 -39.3313 375.937C-36.9578 377.967 -34.1267 379.718 -32.8291 382.559C-31.4575 385.563 -32.1312 389.065 -31.6852 392.337C-30.7114 399.48 -24.5454 404.776 -18.1997 408.19C-16.2663 409.23 -14.1904 410.237 -12.939 412.042C-11.3057 414.397 -11.4684 417.503 -10.923 420.317C-9.58727 427.21 -3.7881 432.889 -3.62344 439.909C-3.50641 444.898 -6.27808 449.424 -7.93373 454.131C-9.48598 458.641 -10.0477 463.433 -9.58054 468.18C-9.11339 472.928 -7.62839 477.518 -5.22684 481.639C-3.98828 483.731 -2.50694 485.704 -1.6308 487.973C-0.0672913 492.021 -0.5746 496.623 0.866989 500.716C2.7729 506.128 8.00999 510.598 7.50876 516.314C9.88637 521.254 15.1366 523.682 20.416 525.152L29.8778 527.787C31.6895 528.292 33.5826 528.801 35.4274 528.435C37.2722 528.07 39.0328 526.537 38.9852 524.656C34.3452 523.609 29.5565 522.496 25.7316 519.667C21.9067 516.837 19.2866 511.8 20.7378 507.267C21.4108 505.166 22.8424 502.739 21.4813 501.002C20.702 500.008 19.277 499.748 18.398 498.841C17.0269 497.426 17.498 495.049 18.4836 493.343C19.4693 491.637 20.8939 490.112 21.2915 488.181C21.4922 487.102 21.3581 485.986 20.9072 484.985C20.4563 483.983 19.7102 483.144 18.7688 482.579C20.5232 481.916 22.1188 480.892 23.452 479.572C24.6836 478.165 25.2525 475.995 24.2837 474.395C27.1607 474.761 30.5574 474.939 32.446 472.737C33.9541 470.979 33.8505 468.35 33.2546 466.111C32.6587 463.872 31.6515 461.697 31.6201 459.38C38.2569 459.694 44.9083 459.469 51.5085 458.705C50.5541 455.489 48.3852 452.771 45.4618 451.128C48.451 450.622 51.1743 447.041 52.1187 444.158C53.0631 441.276 52.8223 438.136 52.2385 435.159C52.0143 434.393 51.9836 433.583 52.1491 432.801C52.4857 431.728 53.5395 431.073 54.5145 430.513L69.3521 421.986C70.2375 421.543 71.0401 420.95 71.7248 420.234C73.2793 418.407 73.049 415.649 72.253 413.385C71.4571 411.122 70.1821 408.993 69.8755 406.614C68.9585 399.496 76.5729 394.39 79.1427 387.69C80.1511 385.061 80.3566 382.203 80.5518 379.393C80.7614 376.376 80.777 372.871 78.4615 370.927C76.2419 369.063 72.7737 369.478 70.4512 367.745C68.3218 366.155 67.5871 363.068 65.2608 361.784C63.1483 360.618 60.4995 361.36 58.1499 360.811C54.0129 359.846 51.4095 355.075 47.1845 354.633C44.8007 354.384 42.1027 355.55 40.149 354.161C38.4274 352.937 38.3584 350.477 38.0307 348.389C37.4564 345.145 35.9022 342.154 33.5775 339.821C31.2527 337.487 28.2691 335.922 25.0285 335.337C22.5706 334.943 19.8953 335.093 17.8044 333.741C15.6871 332.373 14.7163 329.811 13.0532 327.915C10.3728 324.861 6.1512 323.776 2.19656 322.846L-13.8892 319.062C-16.7447 318.39 -20.4255 318.034 -21.9578 320.537C-22.4114 321.49 -22.7326 322.5 -22.9123 323.54C-23.4864 325.422 -24.642 327.073 -26.2128 328.256C-27.7836 329.439 -29.6888 330.093 -31.6546 330.124C-33.0027 327.824 -35.1868 326.133 -37.751 325.404C-39.3821 324.95 -41.1281 324.899 -42.6837 324.23C-43.5309 323.816 -44.2849 323.234 -44.8993 322.518C-45.5138 321.803 -45.9759 320.97 -46.2574 320.069C-46.5388 319.169 -46.6337 318.221 -46.5361 317.282C-46.4386 316.344 -46.1508 315.436 -45.6902 314.613C-44.7628 312.96 -44.4046 311.049 -44.671 309.173C-44.9374 307.297 -45.8134 305.56 -47.164 304.232C-49.8996 301.775 -53.8567 301.181 -57.5247 301.427C-58.4854 299.329 -56.8791 296.963 -55.1481 295.439C-53.4172 293.915 -51.3152 292.416 -50.9383 290.14C-50.3454 286.56 -54.9111 283.84 -58.3777 284.908C-61.8443 285.975 -64.0568 289.344 -65.5194 292.665C-66.3586 294.571 -67.072 296.578 -68.3958 298.184C-69.7195 299.791 -71.8512 300.941 -73.8674 300.426C-76.7219 299.696 -77.8243 296.303 -78.456 293.423C-79.3037 289.56 -80.1562 285.643 -79.9786 281.692C-79.801 277.741 -78.4698 273.684 -75.5579 271.009C-70.8129 266.65 -63.5337 267.078 -57.1299 267.773C-58.6429 266.067 -58.269 263.193 -56.6502 261.587C-55.7956 260.828 -54.7688 260.288 -53.6587 260.015C-52.5486 259.742 -51.3888 259.744 -50.2797 260.021C-48.35 260.423 -46.6117 261.463 -45.3445 262.974C-43.5247 265.194 -43.0072 268.191 -41.6317 270.711C-40.2562 273.231 -37.1633 275.38 -34.6318 274.028C-32.4452 272.861 -32.0981 269.827 -32.6423 267.407C-33.1865 264.988 -34.3424 262.635 -34.1453 260.163C-33.7691 255.446 -28.8822 252.607 -24.5698 250.664C-20.2574 248.721 -15.3195 246.109 -14.6363 241.426C-14.6129 240.51 -14.4401 239.603 -14.1246 238.742C-13.6464 237.981 -12.9817 237.356 -12.1937 236.925C0.39209 228.603 13.1872 220.179 27.5722 215.631C28.3206 215.395 28.4085 215.657 29.1712 215.472C30.2386 214.855 29.5313 213.147 28.5079 212.459C27.4845 211.771 26.1165 211.244 25.8569 210.038C25.666 209.151 26.188 208.281 26.3236 207.384C26.6568 205.181 24.0226 203.147 21.9769 204.028C20.8214 202.496 23.1079 200.717 24.9566 200.208C30.5082 198.679 36.207 197.748 41.9562 197.429C42.6196 197.324 43.2993 197.439 43.8905 197.759C44.8562 198.428 44.7328 199.963 44.0485 200.918C43.3641 201.873 42.2996 202.473 41.4468 203.282C40.5151 204.19 39.8506 205.337 39.5257 206.597C39.2009 207.857 39.2283 209.182 39.6048 210.428C42.6062 211.956 45.8691 213.528 49.1933 212.99C52.5174 212.452 55.4678 208.715 53.9053 205.73C52.4503 202.951 48.0798 202.324 47.3282 199.278C46.4482 195.711 51.494 192.539 50.3574 189.046C49.8595 187.516 48.3355 186.616 47.1661 185.511C45.785 184.157 44.8456 182.416 44.4712 180.518C44.0967 178.619 44.3048 176.652 45.0681 174.874C43.1633 175.209 41.2059 175.083 39.3602 174.505C37.5144 173.927 35.8341 172.915 34.4601 171.553C31.9228 168.99 29.8986 164.949 26.2955 165.063C22.9892 165.168 20.1413 169.028 17.0496 167.851C16.289 167.561 15.4871 166.971 14.7501 167.317C14.5086 167.474 14.3059 167.683 14.1573 167.93C14.0087 168.177 13.9181 168.454 13.8924 168.741C13.1067 172.5 14.4583 176.782 12.411 180.03C10.1832 183.564 5.0302 184.054 2.32941 187.241C0.863312 188.971 0.295303 191.302 -1.05229 193.126C-2.39987 194.95 -5.26006 196.11 -6.87727 194.52C-6.08246 192.885 -5.8654 191.029 -6.26158 189.255C-6.65778 187.48 -7.64374 185.893 -9.05838 184.752C-10.5598 183.772 -12.1783 182.984 -13.8759 182.407C-15.7728 181.604 -17.5773 180.598 -19.2579 179.406C-20.0998 178.898 -20.7839 178.166 -21.2337 177.291C-21.5895 176.195 -21.5415 175.009 -21.0985 173.946C-20.2785 171.593 -18.8318 169.51 -16.9147 167.92C-14.9976 166.33 -12.6828 165.294 -10.2204 164.924C-8.06709 164.631 -5.561 164.734 -4.13602 163.093C-3.38203 162.224 -2.9864 160.911 -1.89197 160.558C-1.19193 160.417 -0.465164 160.507 0.17984 160.813L8.21687 163.644C9.1136 164.049 10.1006 164.212 11.08 164.118C11.5655 164.052 12.0084 163.806 12.3197 163.427C12.6311 163.048 12.7878 162.566 12.7584 162.077C12.5016 160.741 10.4479 160.1 10.6348 158.753C10.7395 158.317 10.974 157.922 11.3074 157.622C14.2079 154.533 17.755 152.124 21.6949 150.567C25.6347 149.011 29.8699 148.345 34.097 148.617C35.1114 150.284 33.5071 152.258 32.1722 153.681C30.8373 155.104 29.7646 157.647 31.3789 158.743C32.0405 159.08 32.7764 159.246 33.5188 159.225C35.4976 159.493 37.4206 160.076 39.2147 160.953C41.9919 162.163 44.7159 163.486 47.3865 164.923C47.1506 163.161 46.9255 161.305 47.5929 159.657C48.2603 158.01 50.1572 156.718 51.8141 157.359C53.4109 157.978 54.2298 160.093 55.931 160.287C58.2003 160.546 59.0956 157.191 58.1477 155.112C57.1998 153.033 55.3233 151.292 55.1667 149.012C55.061 147.474 55.646 145.566 54.4181 144.635C53.9811 144.355 53.4851 144.181 52.9693 144.127L22.3096 138.481C20.489 138.146 17.8584 138.403 17.7777 140.254C17.7326 141.287 18.6548 142.308 18.2464 143.258C17.8104 144.272 16.3784 144.179 15.3354 144.538C13.717 145.094 12.9049 147.017 13.0603 148.722C13.3449 150.416 14.0007 152.026 14.9807 153.437C12.9864 152.603 9.96683 152.449 7.9726 151.615Z" fill="#3F3D56"/>
<path d="M31.6557 117.35C28.0391 118.119 24.526 119.313 21.1895 120.907C22.7624 121.512 24.0995 122.607 25.0038 124.03C25.908 125.453 26.3315 127.128 26.2119 128.81C26.0708 129.456 26.0871 130.126 26.2596 130.764C26.644 131.697 27.7578 132.046 28.7371 132.286C30.4964 132.822 32.3336 133.056 34.171 132.98C35.0902 132.932 35.9828 132.655 36.7682 132.175C37.5535 131.695 38.2068 131.026 38.6689 130.23C38.9352 129.474 39.2476 128.735 39.6043 128.017C41.9516 124.44 48.9246 128.765 51.4448 125.308C52.3325 124.09 52.2513 122.257 53.4086 121.292C54.0073 120.872 54.701 120.607 55.4274 120.521C60.4955 119.514 65.6147 118.784 70.7624 118.336C73.2014 118.124 76.3806 117.247 76.4009 114.798C67.2139 112.992 57.6882 114.275 49.3047 118.445C46.2842 119.959 42.2893 123.143 39.3798 121.136C38.2904 120.385 38.3443 118.361 36.845 117.516C35.3121 116.653 33.2829 117.004 31.6557 117.35Z" fill="#3F3D56"/>
<path d="M61.6998 122.972L66.0123 123.801C65.2185 123.765 64.4263 123.9 63.6886 124.195C62.9509 124.491 62.2846 124.94 61.7343 125.514C61.1839 126.087 60.7621 126.772 60.497 127.521C60.2319 128.271 60.1295 129.068 60.1968 129.86C64.2353 131.21 68.6382 129.897 72.8923 130.076C77.1464 130.255 82.096 133.296 81.3698 137.494C81.1502 138.763 80.4174 140.032 80.7985 141.262C81.0656 142.125 81.8257 142.736 82.2548 143.531C83.1489 145.186 82.4343 147.279 81.3054 148.784C80.1764 150.289 78.6589 151.489 77.6679 153.088C75.2033 157.065 76.6036 162.206 78.0718 166.649C78.4963 168.328 79.2802 169.894 80.3693 171.24C82.5445 173.554 86.0892 173.755 89.2638 173.802C91.5744 173.835 94.2213 173.721 95.6825 171.93C97.5901 169.591 96.2562 165.943 97.5122 163.198C98.6528 160.705 101.559 159.636 104.192 158.877C109.016 157.488 113.932 156.307 118.492 154.208C124.155 151.602 129.447 147.54 135.671 147.205C137.417 147.111 139.207 147.317 140.889 146.838C142.571 146.359 144.168 144.904 144.041 143.159C143.932 141.668 142.671 140.573 141.686 139.449C140.701 138.325 139.928 136.597 140.833 135.408L157.147 132.359C155.991 129.205 155.09 125.052 157.747 123C158.706 122.259 159.989 121.963 160.806 121.068C162.197 119.542 161.498 116.913 159.891 115.616C158.285 114.318 156.114 114.017 154.056 113.846C146.903 113.251 139.709 113.644 132.541 114.037C118.531 114.806 104.521 115.574 90.5104 116.342C87.69 116.497 84.4337 116.261 81.8469 117.224C79.6571 118.039 78.1 119.535 75.5954 120.06C70.9719 121.031 65.8837 120.374 61.6998 122.972Z" fill="#3F3D56"/>
<path d="M138.957 157.079C138.518 157.009 138.068 157.111 137.702 157.363C137.46 157.63 137.316 157.972 137.293 158.332C137.015 159.921 137.347 161.556 138.222 162.91C138.668 163.574 139.283 164.107 140.004 164.453C140.726 164.799 141.526 164.945 142.323 164.877C144.265 164.63 145.696 162.972 147.481 162.163C150.232 160.918 161.917 158.976 153.834 154.606C151.049 153.101 149.249 154.43 147.053 155.422C144.555 156.7 141.756 157.273 138.957 157.079Z" fill="#3F3D56"/>
<path d="M209.754 120.505C208.81 120.891 208.021 121.578 207.509 122.461C207.273 122.908 207.218 123.43 207.356 123.917C207.493 124.405 207.813 124.82 208.248 125.078C208.601 125.206 208.975 125.265 209.349 125.253L213.187 125.368C214.817 125.416 216.854 125.764 217.292 127.336C217.617 128.503 216.889 130.003 217.768 130.837C218.145 131.129 218.598 131.306 219.073 131.347C220.337 131.672 221.657 131.714 222.94 131.472C225.732 130.722 224.265 129.017 225.144 127.499C226.49 125.175 226.257 126.582 228.628 125.25C230.379 124.267 232.642 122.483 231.18 119.977C228.639 115.619 213.504 118.633 209.754 120.505Z" fill="#3F3D56"/>
<path d="M285.501 118.314L283.272 118.611C278.247 119.282 273.193 119.959 268.354 121.469C270.449 122.298 272.647 122.838 274.887 123.073C276.121 123.134 277.346 123.308 278.547 123.594C280.685 124.231 282.839 125.875 284.904 125.033C286.185 124.51 286.603 123.176 287.663 122.469C288.396 121.981 291.174 121.191 291.484 120.698C293.995 116.714 287.431 118.056 285.501 118.314Z" fill="#3F3D56"/>
<path d="M295.286 128.448C292.31 130.113 289.548 132.137 287.063 134.474C286.016 135.459 284.946 136.683 285.041 138.118C285.167 140.025 287.197 141.131 288.956 141.876L296.08 144.894C296.944 143.675 296.153 141.993 295.26 140.795C294.367 139.597 293.305 138.212 293.7 136.77C294.15 135.126 296.155 134.565 297.835 134.282C300.574 133.82 307.961 133.857 307.073 129.441C306.027 124.238 298.035 126.91 295.286 128.448Z" fill="#3F3D56"/>
<path d="M293.854 422.891C293.176 424.856 293.111 427.17 294.285 428.885C295.601 430.81 298.235 431.527 300.515 431.039C302.784 430.435 304.807 429.133 306.299 427.318C307.663 425.797 308.785 424.075 309.626 422.213C310.8 419.311 311.627 416.281 312.092 413.185L314.304 401.565C314.798 398.968 314.779 391.006 310.009 393.6C308.705 394.309 305.688 399.904 304.322 401.49C301.861 404.35 301.535 407.125 300.239 410.589C298.616 414.928 295.354 418.545 293.854 422.891Z" fill="#3F3D56"/>
<path d="M232.709 255.383C232.993 256.911 233.273 258.52 232.773 259.992C232.272 261.463 230.698 262.693 229.211 262.242C228.057 261.892 227.391 260.731 226.572 259.846C222.015 254.924 211.736 257.774 208.921 251.685C207.772 249.2 208.553 246.223 207.77 243.6C207.275 242.083 206.292 240.774 204.973 239.878C203.655 238.982 202.076 238.55 200.486 238.648C199.035 238.858 197.622 239.28 196.294 239.9C187.395 243.466 178.052 245.805 168.523 246.85C166.712 246.961 164.921 247.287 163.187 247.822C159.274 249.241 156.601 252.871 154.698 256.574C152.796 260.278 151.391 264.288 148.84 267.578C146.16 271.037 142.403 273.458 138.899 276.078C137.549 276.948 136.425 278.127 135.619 279.517C134.86 281.077 134.903 282.893 134.962 284.627L135.678 305.697C135.77 308.408 135.886 311.215 137.098 313.64C138.612 316.668 141.602 318.652 143.677 321.327C145.794 324.077 146.897 327.474 146.798 330.943C146.754 332.338 146.616 333.988 147.701 334.864C148.362 335.292 149.135 335.515 149.922 335.503L178.407 337.835C183.418 338.246 188.971 338.92 192.242 342.74C193.786 344.543 195.026 347.135 197.391 347.329C198.405 347.412 199.392 346.995 200.407 346.915C202.967 346.712 205.215 348.656 206.635 350.797C208.783 354.06 209.758 357.958 209.399 361.849C209.167 364.291 208.41 366.666 208.247 369.114C207.626 378.429 215.518 386.522 215.671 395.857C215.761 401.348 213.156 406.478 210.616 411.346C214.715 417.559 211.359 425.833 212.991 433.097C214.539 439.988 220.281 445.383 221.712 452.3C222.367 455.466 222.405 459.363 225.196 460.993C226.42 461.591 227.778 461.863 229.138 461.783C237.34 461.88 245.449 460.033 252.801 456.393C256.251 454.68 259.827 452.122 260.43 448.315C260.916 445.245 259.36 441.811 260.944 439.137C262.81 435.985 267.591 436.235 270.337 433.812C274.791 429.881 271.318 422.384 273.122 416.722C274.745 411.632 280.33 408.929 283.098 404.361C284.187 402.396 284.969 400.276 285.416 398.075C286.684 392.812 287.474 387.446 287.774 382.042C287.848 378.758 288.09 375.48 288.499 372.221C291.484 353.667 309.816 341.244 315.767 323.42C316.336 321.718 316.603 319.45 315.089 318.487C314.192 318.059 313.174 317.952 312.207 318.185L299.076 319.842C297.445 320.047 295.716 320.24 294.219 319.562C292.721 318.884 291.647 316.988 292.442 315.548C294.672 311.506 290.084 306.398 288.046 302.256C282.557 291.102 276.021 280.495 268.525 270.579C268.045 270.069 267.745 269.416 267.669 268.72L271.396 268.844C270.138 264.327 268.062 259.385 263.677 257.732C261.205 256.801 258.469 257.123 255.832 257.268C248.28 257.68 240.183 256.539 232.709 255.383Z" fill="#3F3D56"/>
<path d="M255.838 153.598C257.814 155.698 260.029 157.925 262.888 158.291C267.938 158.937 271.569 153.712 273.881 149.173C273.967 150.33 274.5 151.408 275.368 152.178C276.236 152.947 277.369 153.348 278.528 153.294C279.774 153.084 280.964 152.619 282.022 151.927C292.029 146.456 303.237 143.557 314.639 143.491C314.53 142.626 314.744 141.752 315.241 141.037C315.738 140.321 316.482 139.815 317.329 139.616C319.648 139.156 321.736 141.162 322.855 143.245C323.973 145.328 324.67 147.743 326.447 149.303C328.224 150.862 331.664 150.794 332.366 148.536C333.04 146.368 330.783 144.519 328.907 143.241C327.032 141.963 325.055 139.597 326.318 137.711C335.899 135.589 345.539 133.459 355.343 133.037C357.012 133.095 358.675 132.808 360.229 132.195C361.724 131.461 362.912 129.794 362.51 128.177C360.371 128.68 358.13 128.535 356.074 127.759C354.017 126.982 352.239 125.611 350.964 123.82C364.568 122.696 379.036 121.739 391.092 128.144C392.538 131.251 385.165 133.837 387.138 136.639C387.767 137.533 389.028 137.638 390.12 137.658C398.498 137.814 406.924 137.967 415.207 136.701C418.234 136.239 421.291 135.586 424.33 135.961C429.392 136.585 433.722 139.965 438.702 141.067C440.729 141.515 443.001 141.53 444.71 140.351C446.419 139.171 447.153 136.485 445.753 134.952C450.442 130.354 458.224 131.493 464.409 133.694C470.595 135.896 476.455 139.446 483.002 139.937C487.697 140.288 492.457 139.025 497.096 139.828C500.011 140.333 502.724 141.63 505.573 142.428C510.962 143.935 516.662 143.617 522.257 143.69C536.533 143.882 550.652 146.689 563.917 151.973C565.642 152.535 567.223 153.469 568.548 154.71C569.782 156.033 570.412 158.088 569.582 159.696L555.875 157.692C557.167 160.236 560.508 160.669 563.221 161.547C565.934 162.424 568.748 165.422 567.117 167.763C564.177 166.826 561.513 169.767 560.028 172.473C558.543 175.179 556.733 178.42 553.653 178.584C550.894 178.732 547.557 176.382 545.759 178.48C548.243 181.616 550.371 185.019 552.102 188.626C553.878 192.33 555.144 196.996 552.742 200.328C552.365 200.923 551.792 201.368 551.122 201.586C549.161 202.082 547.887 199.682 546.48 198.227C544.708 196.393 542.028 195.874 539.628 195.014C537.228 194.154 534.7 192.463 534.512 189.919C534.395 188.337 535.23 186.865 535.846 185.403C536.879 182.937 537.332 180.266 537.167 177.598C537.032 175.451 536.431 173.218 534.89 171.718C533.349 170.217 530.688 169.742 529.034 171.115C528.262 171.757 527.643 172.782 526.641 172.82C524.87 172.888 523.51 169.798 522.085 170.853C522.252 171.977 522.019 173.124 521.427 174.093C517.175 177.794 510.642 176.228 505.16 177.535C502.553 178.282 500.058 179.372 497.739 180.778C496.871 181.149 496.133 181.769 495.617 182.56C494.933 183.89 495.688 185.594 496.894 186.479C498.173 187.264 499.61 187.755 501.102 187.916C507.785 189.183 514.566 191.143 519.842 195.439C525.119 199.734 528.579 206.834 526.909 213.432L513.73 200.831C514.23 206.122 514.514 211.427 514.582 216.747C514.667 217.786 514.524 218.831 514.164 219.808C513.224 221.885 510.678 222.584 508.446 223.042C507.826 223.16 507.237 223.408 506.719 223.77C506.201 224.132 505.765 224.599 505.441 225.141C505.116 225.683 504.909 226.288 504.835 226.916C504.76 227.544 504.82 228.18 505.008 228.783C505.801 231.369 507.778 233.385 509.588 235.394C511.398 237.403 513.18 239.686 513.416 242.38C513.653 245.074 511.622 248.111 508.925 247.924C506.881 247.782 505.364 245.951 504.492 244.095C503.62 242.24 503.102 240.173 501.792 238.596C497.826 233.824 488.919 235.869 485.367 230.782C484.461 231.809 483.834 233.052 483.543 234.39C483.252 235.729 483.308 237.12 483.706 238.431C485.358 237.396 487.621 238.358 488.862 239.862C490.104 241.366 490.69 243.295 491.665 244.984C492.981 247.264 495.075 249.285 495.258 251.911C495.21 252.904 495.226 253.899 495.309 254.89C495.635 256.481 496.979 257.623 497.911 258.953C500.079 262.048 499.972 266.3 498.574 269.811C497.177 273.322 494.666 276.256 492.179 279.101C487.834 284.069 483.402 289.009 478.252 293.135C476.782 294.312 475.214 295.47 474.298 297.116C473.383 298.762 473.336 301.072 474.743 302.325C473.736 302.375 471.931 302.87 470.925 302.921C470.571 298.881 470.494 294.822 470.695 290.772C466.724 288.864 462.448 293.974 462.96 298.352C463.472 302.73 466.637 306.244 468.891 310.032C470.538 312.802 471.763 316.032 471.213 319.208C470.663 322.384 467.829 325.314 464.62 325.034C459.515 324.588 457.379 317.255 452.324 316.416C451.878 316.311 451.41 316.358 450.994 316.548C450.243 316.96 450.113 317.965 450.071 318.82C449.864 323.019 449.685 327.385 451.323 331.256C453.719 336.919 459.91 341.675 458.611 347.686C451.615 344.432 447.978 336.583 446.327 329.042C444.675 321.502 444.4 313.587 441.44 306.459C439.192 309.341 434.467 306.958 432.413 303.934C430.466 301.067 429.267 297.75 427.378 294.844C425.489 291.938 422.595 289.336 419.134 289.177C415.506 289.009 412.359 291.501 409.592 293.855C407.316 295.79 404.979 297.802 403.649 300.478C401.714 304.372 402.22 308.963 402.127 313.311C402.026 318.011 401.03 322.971 397.828 326.412C394.626 329.853 388.717 331.051 385.185 327.95C383.341 326.331 382.448 323.912 381.653 321.59C377.82 310.397 374.628 298.994 372.092 287.437C371.499 290.075 369.184 293.475 366.973 291.921C366.476 291.503 366.074 290.985 365.793 290.401C361.668 283.405 354.029 279.209 346.311 276.693C338.593 274.178 330.472 273.004 322.84 270.239C318.563 268.689 314.477 266.653 310.664 264.171C309.692 265.6 309.124 267.265 309.021 268.991C308.918 270.716 309.284 272.437 310.079 273.972C311.772 276.971 315.603 278.707 318.883 277.658C320.578 277.117 322.009 275.939 323.691 275.358C325.372 274.777 327.629 275.062 328.365 276.683C329.068 278.235 328.005 280.112 328.532 281.732C329.336 284.2 333.055 284.39 334.356 286.635C335.324 288.306 334.528 290.524 333.146 291.872C331.764 293.221 329.921 293.96 328.234 294.898C322.762 297.943 318.87 303.141 314.087 307.185C309.305 311.229 302.557 314.182 296.857 311.588C298.216 304.704 290.02 299.65 288.513 292.797C288.016 290.542 288.274 288.146 287.565 285.948C286.54 282.765 283.718 280.577 281.403 278.166C278.595 275.209 276.408 271.719 274.97 267.903C273.532 264.086 272.872 260.02 273.03 255.945C273.156 253.112 273.675 250.234 273.031 247.474C272.386 244.713 270.102 242.041 267.271 242.166C260.806 242.452 252.662 242.933 249.27 237.419C248.06 235.451 247.533 232.569 249.283 231.061C250.518 229.997 252.34 230.097 253.962 230.257L268.528 231.691C271.935 232.026 275.617 232.303 278.541 230.521C281.464 228.739 282.731 224.008 280.024 221.912C278.046 220.38 274.502 220.463 273.927 218.027C273.449 215.999 275.693 213.697 274.481 212.002C273.612 210.786 271.658 211.123 270.474 212.035C269.29 212.946 268.431 214.279 267.106 214.968C264.782 216.179 262.005 215.027 259.504 214.244C257.003 213.461 253.651 213.395 252.438 215.719C251.082 218.318 253.641 221.723 252.295 224.328C250.515 227.771 244.488 225.811 241.988 228.772C239.12 232.171 243.94 237.239 242.973 241.58C241.738 242.192 240.365 242.473 238.989 242.396C237.613 242.319 236.281 241.886 235.122 241.139C233.982 240.363 233.074 239.293 232.494 238.042C231.914 236.791 231.683 235.407 231.827 234.035C232.066 232.082 233.084 230.088 232.402 228.243C231.851 226.75 230.353 225.862 228.962 225.092L214.807 217.266C213.493 219.705 215.154 222.729 217.232 224.562C219.31 226.394 221.912 227.774 223.277 230.185C224.141 231.855 224.334 233.793 223.818 235.601C223.303 237.41 222.116 238.953 220.502 239.916C220.299 240.056 220.069 240.15 219.827 240.192C219.585 240.235 219.336 240.224 219.098 240.161C218.873 240.028 218.676 239.851 218.519 239.641C218.363 239.431 218.251 239.191 218.188 238.937C215.691 232.542 211.941 226.236 205.946 222.896C199.951 219.555 191.337 220.242 187.406 225.869C186.472 227.206 185.846 228.73 185.032 230.143C180.711 237.651 171.446 241.206 162.79 240.974C161.943 241.021 161.101 240.823 160.363 240.403C158.964 239.437 159.027 237.385 159.242 235.698L160.15 228.536C160.333 227.098 160.597 225.508 161.735 224.61C163.338 223.345 165.651 224.143 167.694 224.114C169.241 224.042 170.728 223.495 171.954 222.548C173.18 221.601 174.086 220.3 174.548 218.821C174.961 217.327 174.958 215.749 174.541 214.257C174.123 212.764 173.306 211.414 172.179 210.352C171.243 209.473 169.986 208.368 170.481 207.182C170.678 206.854 170.945 206.573 171.262 206.359C171.579 206.145 171.94 206.004 172.318 205.944C175.986 204.878 179.862 204.599 183.469 203.341C187.076 202.084 190.574 199.511 191.428 195.785C191.69 194.644 191.809 193.261 192.834 192.695C193.348 192.478 193.9 192.365 194.459 192.363C196.414 192.084 198.195 191.084 199.45 189.558C200.705 188.031 201.343 186.09 201.24 184.117C202.968 182.908 205.39 183.797 207.063 185.083C208.735 186.368 210.211 188.066 212.246 188.621C216.038 189.653 219.703 186.294 223.633 186.278C225.286 186.272 226.997 186.856 228.552 186.296C230.128 185.727 231.069 184.157 232.279 182.998C233.489 181.838 235.612 181.13 236.729 182.38L235.777 175.33C237.693 175.814 239.69 175.882 241.634 175.531C243.579 175.179 245.425 174.415 247.05 173.29L234.756 169.134C234.328 169.027 233.933 168.816 233.607 168.519C232.713 167.556 233.601 166.055 234.328 164.96C236.066 162.342 236.358 158.028 233.499 156.724C231.547 155.834 229.307 156.902 227.434 157.947L218.461 162.954C218.176 164.66 220.261 165.627 221.554 166.777C222.336 167.472 222.889 168.388 223.142 169.404C223.394 170.42 223.333 171.489 222.967 172.47C222.601 173.451 221.948 174.298 221.092 174.9C220.236 175.502 219.218 175.831 218.172 175.844C218.763 176.613 219.173 177.505 219.373 178.453C219.573 179.402 219.557 180.384 219.326 181.326L213.289 181.76C212.611 181.897 211.907 181.759 211.33 181.378C210.685 180.804 210.772 179.799 210.623 178.948C210.261 176.894 208.251 175.454 206.2 175.085C204.148 174.716 202.05 175.189 200.018 175.656C199.156 175.967 198.208 175.945 197.361 175.595C196.875 175.279 196.506 174.813 196.31 174.267C195.419 172.106 196.252 169.567 197.682 167.719C199.112 165.871 201.071 164.52 202.829 162.982C207.035 159.29 210.124 154.495 211.75 149.138C215.073 147.745 218.514 145.852 221.837 144.458C226.961 141.862 232.708 140.748 238.43 141.242L249.685 141.457C253.018 141.52 256.44 141.602 259.522 142.873C262.603 144.144 265.31 146.894 265.523 150.222C265.587 150.599 265.555 150.985 265.429 151.346C265.302 151.707 265.087 152.03 264.801 152.284C264.366 152.522 263.873 152.633 263.378 152.605C260.271 152.714 258.946 153.489 255.838 153.598Z" fill="#3F3D56"/>
<path d="M255.838 153.598C257.814 155.698 260.029 157.925 262.888 158.291C267.938 158.937 271.569 153.712 273.881 149.173C273.967 150.33 274.5 151.408 275.368 152.178C276.236 152.947 277.369 153.348 278.528 153.294C279.774 153.084 280.964 152.619 282.022 151.927C292.029 146.456 303.237 143.557 314.639 143.491C314.53 142.626 314.744 141.752 315.241 141.037C315.738 140.321 316.482 139.815 317.329 139.616C319.648 139.156 321.736 141.162 322.855 143.245C323.973 145.328 324.67 147.743 326.447 149.303C328.224 150.862 331.664 150.794 332.366 148.536C333.04 146.368 330.783 144.519 328.907 143.241C327.032 141.963 325.055 139.597 326.318 137.711C335.899 135.589 345.539 133.459 355.343 133.037C357.012 133.095 358.675 132.808 360.229 132.195C361.724 131.461 362.912 129.794 362.51 128.177C360.371 128.68 358.13 128.535 356.074 127.759C354.017 126.982 352.239 125.611 350.964 123.82C364.568 122.696 379.036 121.739 391.092 128.144C392.538 131.251 385.165 133.837 387.138 136.639C387.767 137.533 389.028 137.638 390.12 137.658C398.498 137.814 406.924 137.967 415.207 136.701C418.234 136.239 421.291 135.586 424.33 135.961C429.392 136.585 433.722 139.965 438.702 141.067C440.729 141.515 443.001 141.53 444.71 140.351C446.419 139.171 447.153 136.485 445.753 134.952C450.442 130.354 458.224 131.493 464.409 133.694C470.595 135.896 476.455 139.446 483.002 139.937C487.697 140.288 492.457 139.025 497.096 139.828C500.011 140.333 502.724 141.63 505.573 142.428C510.962 143.935 516.662 143.617 522.257 143.69C536.533 143.882 550.652 146.689 563.917 151.973C565.642 152.535 567.223 153.469 568.548 154.71C569.782 156.033 570.412 158.088 569.582 159.696L555.875 157.692C557.167 160.236 560.508 160.669 563.221 161.547C565.934 162.424 568.748 165.422 567.117 167.763C564.177 166.826 561.513 169.767 560.028 172.473C558.543 175.179 556.733 178.42 553.653 178.584C550.894 178.732 547.557 176.382 545.759 178.48C548.243 181.616 550.371 185.019 552.102 188.626C553.878 192.33 555.144 196.996 552.742 200.328C552.365 200.923 551.792 201.368 551.122 201.586C549.161 202.082 547.887 199.682 546.48 198.227C544.708 196.393 542.028 195.874 539.628 195.014C537.228 194.154 534.7 192.463 534.512 189.919C534.395 188.337 535.23 186.865 535.846 185.403C536.879 182.937 537.332 180.266 537.167 177.598C537.032 175.451 536.431 173.218 534.89 171.718C533.349 170.217 530.688 169.742 529.034 171.115C528.262 171.757 527.643 172.782 526.641 172.82C524.87 172.888 523.51 169.798 522.085 170.853C522.252 171.977 522.019 173.124 521.427 174.093C517.175 177.794 510.642 176.228 505.16 177.535C502.553 178.282 500.058 179.372 497.739 180.778C496.871 181.149 496.133 181.769 495.617 182.56C494.933 183.89 495.688 185.594 496.894 186.479C498.173 187.264 499.61 187.755 501.102 187.916C507.785 189.183 514.566 191.143 519.842 195.439C525.119 199.734 528.579 206.834 526.909 213.432L513.73 200.831C514.23 206.122 514.514 211.427 514.582 216.747C514.667 217.786 514.524 218.831 514.164 219.808C513.224 221.885 510.678 222.584 508.446 223.042C507.826 223.16 507.237 223.408 506.719 223.77C506.201 224.132 505.765 224.599 505.441 225.141C505.116 225.683 504.909 226.288 504.835 226.916C504.76 227.544 504.82 228.18 505.008 228.783C505.801 231.369 507.778 233.385 509.588 235.394C511.398 237.403 513.18 239.686 513.416 242.38C513.653 245.074 511.622 248.111 508.925 247.924C506.881 247.782 505.364 245.951 504.492 244.095C503.62 242.24 503.102 240.173 501.792 238.596C497.826 233.824 488.919 235.869 485.367 230.782C484.461 231.809 483.834 233.052 483.543 234.39C483.252 235.729 483.308 237.12 483.706 238.431C485.358 237.396 487.621 238.358 488.862 239.862C490.104 241.366 490.69 243.295 491.665 244.984C492.981 247.264 495.075 249.285 495.258 251.911C495.21 252.904 495.226 253.899 495.309 254.89C495.635 256.481 496.979 257.623 497.911 258.953C500.079 262.048 499.972 266.3 498.574 269.811C497.177 273.322 494.666 276.256 492.179 279.101C487.834 284.069 483.402 289.009 478.252 293.135C476.782 294.312 475.214 295.47 474.298 297.116C473.383 298.762 473.336 301.072 474.743 302.325C473.736 302.375 471.931 302.87 470.925 302.921C470.571 298.881 470.494 294.822 470.695 290.772C466.724 288.864 462.448 293.974 462.96 298.352C463.472 302.73 466.637 306.244 468.891 310.032C470.538 312.802 471.763 316.032 471.213 319.208C470.663 322.384 467.829 325.314 464.62 325.034C459.515 324.588 457.379 317.255 452.324 316.416C451.878 316.311 451.41 316.358 450.994 316.548C450.243 316.96 450.113 317.965 450.071 318.82C449.864 323.019 449.685 327.385 451.323 331.256C453.719 336.919 459.91 341.675 458.611 347.686C451.615 344.432 447.978 336.583 446.327 329.042C444.675 321.502 444.4 313.587 441.44 306.459C439.192 309.341 434.467 306.958 432.413 303.934C430.466 301.067 429.267 297.75 427.378 294.844C425.489 291.938 422.595 289.336 419.134 289.177C415.506 289.009 412.359 291.501 409.592 293.855C407.316 295.79 404.979 297.802 403.649 300.478C401.714 304.372 402.22 308.963 402.127 313.311C402.026 318.011 401.03 322.971 397.828 326.412C394.626 329.853 388.717 331.051 385.185 327.95C383.341 326.331 382.448 323.912 381.653 321.59C377.82 310.397 374.628 298.994 372.092 287.437C371.499 290.075 369.184 293.475 366.973 291.921C366.476 291.503 366.074 290.985 365.793 290.401C361.668 283.405 354.029 279.209 346.311 276.693C338.593 274.178 330.472 273.004 322.84 270.239C318.563 268.689 314.477 266.653 310.664 264.171C309.692 265.6 309.124 267.265 309.021 268.991C308.918 270.716 309.284 272.437 310.079 273.972C311.772 276.971 315.603 278.707 318.883 277.658C320.578 277.117 322.009 275.939 323.691 275.358C325.372 274.777 327.629 275.062 328.365 276.683C329.068 278.235 328.005 280.112 328.532 281.732C329.336 284.2 333.055 284.39 334.356 286.635C335.324 288.306 334.528 290.524 333.146 291.872C331.764 293.221 329.921 293.96 328.234 294.898C322.762 297.943 318.87 303.141 314.087 307.185C309.305 311.229 302.557 314.182 296.857 311.588C298.216 304.704 290.02 299.65 288.513 292.797C288.016 290.542 288.274 288.146 287.565 285.948C286.54 282.765 283.718 280.577 281.403 278.166C278.595 275.209 276.408 271.719 274.97 267.903C273.532 264.086 272.872 260.02 273.03 255.945C273.156 253.112 273.675 250.234 273.031 247.474C272.386 244.713 270.102 242.041 267.271 242.166C260.806 242.452 252.662 242.933 249.27 237.419C248.06 235.451 247.533 232.569 249.283 231.061C250.518 229.997 252.34 230.097 253.962 230.257L268.528 231.691C271.935 232.026 275.617 232.303 278.541 230.521C281.464 228.739 282.731 224.008 280.024 221.912C278.046 220.38 274.502 220.463 273.927 218.027C273.449 215.999 275.693 213.697 274.481 212.002C273.612 210.786 271.658 211.123 270.474 212.035C269.29 212.946 268.431 214.279 267.106 214.968C264.782 216.179 262.005 215.027 259.504 214.244C257.003 213.461 253.651 213.395 252.438 215.719C251.082 218.318 253.641 221.723 252.295 224.328C250.515 227.771 244.488 225.811 241.988 228.772C239.12 232.171 243.94 237.239 242.973 241.58C241.738 242.192 240.365 242.473 238.989 242.396C237.613 242.319 236.281 241.886 235.122 241.139C233.982 240.363 233.074 239.293 232.494 238.042C231.914 236.791 231.683 235.407 231.827 234.035C232.066 232.082 233.084 230.088 232.402 228.243C231.851 226.75 230.353 225.862 228.962 225.092L214.807 217.266C213.493 219.705 215.154 222.729 217.232 224.562C219.31 226.394 221.912 227.774 223.277 230.185C224.141 231.855 224.334 233.793 223.818 235.601C223.303 237.41 222.116 238.953 220.502 239.916C220.299 240.056 220.069 240.15 219.827 240.192C219.585 240.235 219.336 240.224 219.098 240.161C218.873 240.028 218.676 239.851 218.519 239.641C218.363 239.431 218.251 239.191 218.188 238.937C215.691 232.542 211.941 226.236 205.946 222.896C199.951 219.555 191.337 220.242 187.406 225.869C186.472 227.206 185.846 228.73 185.032 230.143C180.711 237.651 171.446 241.206 162.79 240.974C161.943 241.021 161.101 240.823 160.363 240.403C158.964 239.437 159.027 237.385 159.242 235.698L160.15 228.536C160.333 227.098 160.597 225.508 161.735 224.61C163.338 223.345 165.651 224.143 167.694 224.114C169.241 224.042 170.728 223.495 171.954 222.548C173.18 221.601 174.086 220.3 174.548 218.821C174.961 217.327 174.958 215.749 174.541 214.257C174.123 212.764 173.306 211.414 172.179 210.352C171.243 209.473 169.986 208.368 170.481 207.182C170.678 206.854 170.945 206.573 171.262 206.359C171.579 206.145 171.94 206.004 172.318 205.944C175.986 204.878 179.862 204.599 183.469 203.341C187.076 202.084 190.574 199.511 191.428 195.785C191.69 194.644 191.809 193.261 192.834 192.695C193.348 192.478 193.9 192.365 194.459 192.363C196.414 192.084 198.195 191.084 199.45 189.558C200.705 188.031 201.343 186.09 201.24 184.117C202.968 182.908 205.39 183.797 207.063 185.083C208.735 186.368 210.211 188.066 212.246 188.621C216.038 189.653 219.703 186.294 223.633 186.278C225.286 186.272 226.997 186.856 228.552 186.296C230.128 185.727 231.069 184.157 232.279 182.998C233.489 181.838 235.612 181.13 236.729 182.38L235.777 175.33C237.693 175.814 239.69 175.882 241.634 175.531C243.579 175.179 245.425 174.415 247.05 173.29L234.756 169.134C234.328 169.027 233.933 168.816 233.607 168.519C232.713 167.556 233.601 166.055 234.328 164.96C236.066 162.342 236.358 158.028 233.499 156.724C231.547 155.834 229.307 156.902 227.434 157.947L218.461 162.954C218.176 164.66 220.261 165.627 221.554 166.777C222.336 167.472 222.889 168.388 223.142 169.404C223.394 170.42 223.333 171.489 222.967 172.47C222.601 173.451 221.948 174.298 221.092 174.9C220.236 175.502 219.218 175.831 218.172 175.844C218.763 176.613 219.173 177.505 219.373 178.453C219.573 179.402 219.557 180.384 219.326 181.326L213.289 181.76C212.611 181.897 211.907 181.759 211.33 181.378C210.685 180.804 210.772 179.799 210.623 178.948C210.261 176.894 208.251 175.454 206.2 175.085C204.148 174.716 202.05 175.189 200.018 175.656C199.156 175.967 198.208 175.945 197.361 175.595C196.875 175.279 196.506 174.813 196.31 174.267C195.419 172.106 196.252 169.567 197.682 167.719C199.112 165.871 201.071 164.52 202.829 162.982C207.035 159.29 210.124 154.495 211.75 149.138C215.073 147.745 218.514 145.852 221.837 144.458C226.961 141.862 232.708 140.748 238.43 141.242L249.685 141.457C253.018 141.52 256.44 141.602 259.522 142.873C262.603 144.144 265.31 146.894 265.523 150.222C265.587 150.599 265.555 150.985 265.429 151.346C265.302 151.707 265.087 152.03 264.801 152.284C264.366 152.522 263.873 152.633 263.378 152.605C260.271 152.714 258.946 153.489 255.838 153.598Z" fill="black" fill-opacity="0.2"/>
<path d="M166.124 188.894C166.564 188.478 166.88 187.948 167.039 187.363C167.197 186.778 167.191 186.161 167.022 185.58C165.952 185.167 164.788 185.06 163.661 185.273C162.534 185.486 161.489 186.01 160.643 186.785C159.976 187.46 159.402 188.22 158.934 189.046C157.455 191.46 156.147 194.344 157.004 197.043C157.074 197.337 157.202 197.615 157.38 197.859C157.559 198.103 157.784 198.309 158.043 198.465C158.427 198.619 158.841 198.684 159.254 198.655C160.884 198.653 162.511 198.552 164.129 198.355C165.122 198.233 166.275 197.952 166.659 197.028C167.164 195.812 165.943 194.437 166.299 193.17C166.533 192.604 166.888 192.095 167.339 191.68C167.562 191.471 167.734 191.212 167.841 190.925C167.947 190.638 167.985 190.33 167.952 190.026C167.808 189.431 166.899 189.094 166.571 189.61" fill="#3F3D56"/>
<path d="M174.573 177.934C173.126 177.601 171.634 177.508 170.156 177.656C169.83 177.647 169.506 177.72 169.215 177.87C168.934 178.078 168.73 178.374 168.635 178.711C168.323 179.713 168.4 180.796 168.85 181.744C169.3 182.693 170.091 183.436 171.065 183.827C171.595 183.95 172.104 184.154 172.571 184.433C173.82 185.403 173.024 187.385 173.26 188.95C173.526 190.706 175.225 192.181 174.914 193.93C174.668 195.308 173.197 196.399 173.434 197.778C173.682 199.223 175.515 199.657 176.975 199.773C177.822 199.921 178.693 199.821 179.484 199.485C180.277 198.943 180.84 198.126 181.066 197.192C181.664 195.411 181.916 193.532 181.807 191.656C181.8 190.803 181.586 189.965 181.183 189.213C180.743 188.618 180.256 188.059 179.725 187.543C176.927 184.286 179.873 179.428 174.573 177.934Z" fill="#3F3D56"/>
<path d="M542.533 433.06C542.533 433.06 386.5 323 235.952 333.29C235.952 333.29 42.9996 352 17.7513 400.667C17.7513 400.667 -44.4066 206.31 -67.0684 199.832" stroke="white" stroke-width="5" stroke-dasharray="4 4"/>
<path d="M235.952 333.29C235.952 333.29 42.9996 352 17.7513 400.667C17.7513 400.667 -44.4066 206.31 -67.0684 199.832" stroke="#1E80F2" stroke-width="5"/>
<path opacity="0.8" d="M17.7514 400.667C53.6865 304.784 377.426 198.536 377.426 198.536C331.455 210.197 235.952 333.29 235.952 333.29C235.952 333.29 33.9383 186.227 -67.0684 199.832C-67.0684 199.832 377.75 214.408 542.533 433.06" stroke="#1E80F2" stroke-width="3" stroke-miterlimit="10"/>
<path d="M17.7517 410.061C22.9368 410.061 27.1401 405.855 27.1401 400.667C27.1401 395.479 22.9368 391.273 17.7517 391.273C12.5666 391.273 8.36328 395.479 8.36328 400.667C8.36328 405.855 12.5666 410.061 17.7517 410.061Z" fill="#D2E6FC"/>
<path d="M377.426 207.93C382.612 207.93 386.815 203.724 386.815 198.536C386.815 193.348 382.612 189.142 377.426 189.142C372.241 189.142 368.038 193.348 368.038 198.536C368.038 203.724 372.241 207.93 377.426 207.93Z" fill="#D2E6FC"/>
<path d="M235.952 342.684C241.137 342.684 245.34 338.478 245.34 333.29C245.34 328.102 241.137 323.896 235.952 323.896C230.767 323.896 226.563 328.102 226.563 333.29C226.563 338.478 230.767 342.684 235.952 342.684Z" fill="#D2E6FC"/>
<circle opacity="0.5" cx="235.787" cy="331.787" r="35.7701" transform="rotate(-7.73416 235.787 331.787)" fill="white" stroke="white" stroke-width="2.61497"/>
</g>
<g filter="url(#filter0_d_253_6533)">
<path fill-rule="evenodd" clip-rule="evenodd" d="M280.564 328.648C280.41 326.735 279.239 325.047 277.268 323.892C275.433 322.818 273.099 322.334 270.696 322.531L250.681 324.168L236.626 295.053C234.677 291.015 232.836 287.201 228.869 287.512L225.716 287.759C225.548 287.772 225.385 287.82 225.237 287.901C225.089 287.981 224.96 288.092 224.858 288.226C224.756 288.36 224.683 288.514 224.644 288.678C224.605 288.841 224.602 289.012 224.633 289.177L231.621 325.81L202.452 330.133L194.57 319.791C194.477 319.668 194.386 319.547 194.296 319.428L194.277 319.403C193.065 317.792 191.811 316.126 189.156 316.344L188.054 316.433C187.77 316.457 187.495 316.544 187.249 316.689C187.004 316.835 186.794 317.034 186.637 317.272C186.48 317.51 186.379 317.78 186.341 318.063C186.304 318.346 186.331 318.633 186.421 318.903L190.854 332.231L182.302 335.198C181.981 335.309 181.706 335.523 181.519 335.806C181.332 336.09 181.244 336.427 181.269 336.765C181.293 337.103 181.429 337.424 181.654 337.677C181.88 337.93 182.183 338.101 182.516 338.164L191.419 339.847L189.201 353.396C189.154 353.678 189.172 353.967 189.254 354.24C189.336 354.514 189.479 354.765 189.673 354.974C189.726 355.031 189.782 355.084 189.841 355.135C190.028 355.294 190.245 355.415 190.48 355.49C190.714 355.565 190.961 355.593 191.207 355.573L192.308 355.483C194.962 355.266 195.933 353.418 196.873 351.631C196.947 351.491 197.022 351.347 197.1 351.201L203.223 339.718L232.321 339.424L231.292 376.808C231.288 376.969 231.316 377.129 231.375 377.279C231.434 377.429 231.522 377.565 231.635 377.68C231.748 377.794 231.883 377.885 232.032 377.946C232.18 378.008 232.34 378.038 232.501 378.036C233.571 378.012 234.638 377.928 235.699 377.787C239.686 377.255 240.624 373.982 241.618 370.517C241.746 370.071 241.878 369.608 242.022 369.132L251.406 337.956L271.804 336.288C276.94 335.868 280.869 332.441 280.564 328.648ZM249.744 335.899C249.931 335.748 250.159 335.656 250.399 335.637L271.611 333.903C275.367 333.595 278.374 331.278 278.178 328.844C278.089 327.731 277.335 326.707 276.057 325.959C274.642 325.13 272.806 324.76 270.888 324.917L250.055 326.62C249.814 326.64 249.574 326.586 249.364 326.467C249.155 326.347 248.986 326.166 248.881 325.949L234.471 296.096C232.504 292.021 231.282 289.723 229.053 289.898L227.234 290.041L234.205 326.585C234.236 326.744 234.233 326.907 234.199 327.065C234.165 327.223 234.099 327.372 234.005 327.504C233.911 327.635 233.792 327.747 233.655 327.831C233.517 327.916 233.364 327.971 233.204 327.995L202.102 332.604C201.89 332.636 201.674 332.61 201.476 332.529C201.278 332.449 201.105 332.317 200.976 332.147L192.666 321.243C192.566 321.112 192.468 320.982 192.372 320.855L192.365 320.844C191.173 319.262 190.639 318.624 189.348 318.73L188.897 318.766L193.498 332.595C193.597 332.894 193.575 333.22 193.435 333.502C193.296 333.785 193.051 334.001 192.753 334.105L186.116 336.407L193.012 337.711C193.318 337.769 193.59 337.945 193.769 338.2C193.948 338.456 194.02 338.771 193.969 339.079L191.668 353.133L192.115 353.097C193.406 352.991 193.832 352.275 194.754 350.519C194.83 350.374 194.908 350.226 194.988 350.077L201.446 337.965C201.547 337.775 201.698 337.616 201.882 337.505C202.066 337.393 202.276 337.333 202.491 337.331L233.541 337.019C233.702 337.017 233.862 337.048 234.01 337.109C234.159 337.17 234.293 337.261 234.406 337.376C234.519 337.49 234.607 337.627 234.666 337.776C234.725 337.926 234.753 338.086 234.749 338.247L233.72 375.583C234.195 375.548 234.771 375.496 235.385 375.414C237.72 375.103 238.278 373.487 239.317 369.86L239.324 369.838C239.453 369.388 239.586 368.923 239.73 368.445L249.35 336.486C249.419 336.255 249.556 336.051 249.744 335.899Z" fill="white"/>
<path d="M250.399 335.637C250.159 335.656 249.931 335.748 249.744 335.899C249.556 336.051 249.419 336.255 249.35 336.486L239.73 368.445C239.586 368.923 239.453 369.388 239.324 369.838L239.317 369.86C238.278 373.487 237.72 375.103 235.385 375.414C234.771 375.496 234.195 375.548 233.72 375.583L234.749 338.247C234.753 338.086 234.725 337.926 234.666 337.776C234.607 337.627 234.519 337.49 234.406 337.376C234.293 337.261 234.159 337.17 234.01 337.109C233.862 337.048 233.702 337.017 233.541 337.019L202.491 337.331C202.276 337.333 202.066 337.393 201.882 337.505C201.698 337.616 201.547 337.775 201.446 337.965L194.988 350.077C194.908 350.226 194.83 350.374 194.754 350.519C193.832 352.275 193.406 352.991 192.115 353.097L191.668 353.133L193.969 339.079C194.02 338.771 193.948 338.456 193.769 338.2C193.59 337.945 193.318 337.769 193.012 337.711L186.116 336.407L192.753 334.105C193.051 334.001 193.296 333.785 193.435 333.502C193.575 333.22 193.597 332.894 193.498 332.595L188.897 318.766L189.348 318.73C190.639 318.624 191.173 319.262 192.365 320.844L192.372 320.855C192.468 320.982 192.566 321.112 192.666 321.243L200.976 332.147C201.105 332.317 201.278 332.449 201.476 332.529C201.674 332.61 201.89 332.636 202.102 332.604L233.204 327.995C233.364 327.971 233.517 327.916 233.655 327.831C233.792 327.747 233.911 327.635 234.005 327.504C234.099 327.372 234.165 327.223 234.199 327.065C234.233 326.907 234.236 326.744 234.205 326.585L227.234 290.041L229.053 289.898C231.282 289.723 232.504 292.021 234.471 296.096L248.881 325.949C248.986 326.166 249.155 326.347 249.364 326.467C249.574 326.586 249.814 326.64 250.055 326.62L270.888 324.917C272.806 324.76 274.642 325.13 276.057 325.959C277.335 326.707 278.089 327.731 278.178 328.844C278.374 331.278 275.367 333.595 271.611 333.903L250.399 335.637Z" fill="white"/>
</g>
<g filter="url(#filter1_d_253_6533)">
<path fill-rule="evenodd" clip-rule="evenodd" d="M61.1423 230.741C60.837 231.417 60.9182 232.208 61.3702 232.968C61.7912 233.675 62.4916 234.275 63.3422 234.657L70.4291 237.843L69.7496 250.334C69.6553 252.066 69.5662 253.702 70.9682 254.338L72.0826 254.843C72.1419 254.87 72.2062 254.884 72.2713 254.885C72.3365 254.885 72.401 254.872 72.4606 254.845C72.5203 254.819 72.5737 254.781 72.6175 254.732C72.6612 254.684 72.6943 254.627 72.7145 254.565L77.1934 240.849L87.8832 244.835L88.6207 249.812C88.6294 249.871 88.6377 249.929 88.6458 249.986L88.6475 249.998C88.7572 250.77 88.8706 251.569 89.8105 251.992L90.2007 252.167C90.3013 252.212 90.4109 252.234 90.5212 252.231C90.6315 252.228 90.7397 252.199 90.8374 252.148C90.9352 252.097 91.0201 252.024 91.0856 251.935C91.1511 251.846 91.1956 251.744 91.2157 251.636L92.2044 246.292L95.6564 246.885C95.7858 246.907 95.9189 246.886 96.0351 246.825C96.1514 246.764 96.2442 246.666 96.2991 246.547C96.354 246.428 96.368 246.294 96.3389 246.166C96.3098 246.038 96.2391 245.924 96.138 245.84L93.4363 243.606L96.72 239.43C96.7885 239.344 96.8364 239.242 96.8597 239.135C96.8831 239.027 96.8814 238.915 96.8547 238.808C96.8476 238.779 96.8387 238.75 96.8281 238.722C96.7944 238.633 96.7433 238.551 96.6779 238.482C96.6125 238.413 96.5341 238.357 96.447 238.318L96.0572 238.143C95.1174 237.72 94.4431 238.165 93.791 238.595C93.7395 238.628 93.6872 238.663 93.6337 238.698L89.4131 241.444L79.5 236.106L86.8351 223.633C86.8667 223.579 86.8871 223.519 86.8952 223.458C86.9032 223.396 86.8987 223.333 86.8819 223.273C86.8651 223.213 86.8363 223.157 86.7974 223.109C86.7584 223.06 86.7101 223.02 86.6552 222.991C86.2882 222.799 85.9109 222.628 85.5251 222.477C84.075 221.913 83.1455 222.846 82.1615 223.834C82.0346 223.962 81.9032 224.093 81.7657 224.228L72.7602 233.036L65.5378 229.789C63.7195 228.972 61.7476 229.399 61.1423 230.741ZM72.939 234.044C72.8472 234.06 72.7527 234.048 72.6677 234.01L65.1574 230.633C63.8275 230.036 62.3758 230.259 61.9871 231.12C61.8094 231.514 61.8733 232.002 62.1667 232.494C62.4914 233.039 63.0441 233.508 63.7232 233.813L71.0994 237.129C71.1846 237.167 71.2562 237.231 71.3047 237.31C71.3533 237.39 71.3766 237.483 71.3715 237.576L70.6747 250.383C70.5795 252.131 70.564 253.138 71.352 253.495L71.9947 253.787L76.4626 240.103C76.4819 240.044 76.5132 239.989 76.5543 239.942C76.5955 239.895 76.6457 239.856 76.702 239.829C76.7583 239.802 76.8195 239.787 76.8819 239.784C76.9444 239.781 77.0067 239.791 77.0652 239.813L88.4636 244.063C88.5412 244.092 88.6095 244.142 88.6616 244.206C88.7136 244.27 88.7474 244.347 88.7596 244.429L89.5371 249.676C89.5465 249.739 89.5553 249.801 89.564 249.862L89.5647 249.867C89.6727 250.626 89.7346 250.942 90.1915 251.147L90.351 251.219L91.3767 245.674C91.3989 245.555 91.4675 245.448 91.5675 245.379C91.6676 245.309 91.791 245.282 91.9112 245.302L94.5902 245.763L92.4976 244.032C92.4045 243.955 92.3453 243.845 92.3325 243.725C92.3197 243.605 92.3543 243.485 92.4289 243.39L95.835 239.058L95.6765 238.987C95.2197 238.782 94.9415 238.945 94.3007 239.367C94.2479 239.402 94.1939 239.438 94.1389 239.473L89.6876 242.37C89.6178 242.415 89.5371 242.441 89.4539 242.444C89.3707 242.448 89.2882 242.429 89.2149 242.389L78.6372 236.692C78.5824 236.663 78.5342 236.623 78.4953 236.574C78.4564 236.526 78.4278 236.47 78.411 236.41C78.3943 236.35 78.3898 236.287 78.3978 236.226C78.4058 236.164 78.4262 236.104 78.4578 236.051L85.7837 223.594C85.6161 223.517 85.4113 223.427 85.1881 223.34C84.3388 223.009 83.8479 223.452 82.818 224.487L82.8115 224.493C82.6839 224.621 82.5518 224.754 82.4137 224.889L73.1821 233.919C73.1155 233.984 73.0308 234.027 72.939 234.044Z" fill="white"/>
<path d="M72.6677 234.01C72.7527 234.048 72.8472 234.06 72.939 234.044C73.0308 234.027 73.1155 233.984 73.1821 233.919L82.4137 224.889C82.5518 224.754 82.6839 224.621 82.8115 224.493L82.818 224.487C83.8479 223.452 84.3388 223.009 85.1881 223.34C85.4113 223.427 85.6161 223.517 85.7837 223.594L78.4578 236.051C78.4262 236.104 78.4058 236.164 78.3978 236.226C78.3898 236.287 78.3943 236.35 78.411 236.41C78.4278 236.47 78.4564 236.526 78.4953 236.574C78.5342 236.623 78.5824 236.663 78.6372 236.692L89.2149 242.389C89.2882 242.429 89.3707 242.448 89.4539 242.444C89.5371 242.441 89.6178 242.415 89.6876 242.37L94.1389 239.473C94.1939 239.438 94.2479 239.402 94.3007 239.367C94.9415 238.945 95.2197 238.782 95.6765 238.987L95.835 239.058L92.4289 243.39C92.3543 243.485 92.3197 243.605 92.3325 243.725C92.3453 243.845 92.4045 243.955 92.4976 244.032L94.5902 245.763L91.9112 245.302C91.791 245.282 91.6676 245.309 91.5675 245.379C91.4675 245.448 91.3989 245.555 91.3767 245.674L90.351 251.219L90.1915 251.147C89.7346 250.942 89.6727 250.626 89.5647 249.867L89.564 249.862C89.5553 249.801 89.5465 249.739 89.5371 249.676L88.7596 244.429C88.7474 244.347 88.7136 244.27 88.6616 244.206C88.6095 244.142 88.5412 244.092 88.4636 244.063L77.0652 239.813C77.0067 239.791 76.9444 239.781 76.8819 239.784C76.8195 239.787 76.7583 239.802 76.702 239.829C76.6457 239.856 76.5955 239.895 76.5543 239.942C76.5132 239.989 76.4819 240.044 76.4626 240.103L71.9947 253.787L71.352 253.495C70.564 253.138 70.5795 252.131 70.6747 250.383L71.3715 237.576C71.3766 237.483 71.3533 237.39 71.3047 237.31C71.2562 237.231 71.1846 237.167 71.0994 237.129L63.7232 233.813C63.0441 233.508 62.4914 233.039 62.1667 232.494C61.8733 232.002 61.8094 231.514 61.9871 231.12C62.3758 230.259 63.8275 230.036 65.1574 230.633L72.6677 234.01Z" fill="white"/>
</g>
<g filter="url(#filter2_d_253_6533)">
<path fill-rule="evenodd" clip-rule="evenodd" d="M224.897 258.247C224.613 257.561 223.981 257.078 223.118 256.888C222.314 256.711 221.397 256.81 220.536 257.168L213.362 260.152L204.724 251.104C203.526 249.85 202.395 248.664 200.971 249.251L199.839 249.717C199.779 249.742 199.725 249.779 199.68 249.826C199.635 249.873 199.601 249.929 199.579 249.991C199.557 250.052 199.549 250.118 199.554 250.183C199.559 250.248 199.578 250.311 199.609 250.368L206.54 263.024L196.315 268.085L192.183 265.215C192.134 265.181 192.086 265.147 192.039 265.114L192.029 265.107C191.391 264.658 190.731 264.194 189.78 264.59L189.384 264.754C189.283 264.796 189.192 264.861 189.119 264.944C189.045 265.027 188.992 265.125 188.962 265.231C188.933 265.338 188.928 265.449 188.948 265.558C188.967 265.666 189.012 265.769 189.077 265.858L192.295 270.237L189.499 272.347C189.394 272.426 189.318 272.537 189.283 272.664C189.248 272.791 189.256 272.925 189.305 273.047C189.354 273.168 189.442 273.27 189.555 273.337C189.668 273.403 189.8 273.43 189.93 273.414L193.409 272.974L194.204 278.226C194.22 278.336 194.261 278.44 194.323 278.531C194.386 278.622 194.469 278.697 194.565 278.751C194.591 278.766 194.618 278.779 194.646 278.79C194.734 278.827 194.828 278.845 194.924 278.845C195.019 278.845 195.113 278.826 195.201 278.789L195.596 278.625C196.547 278.229 196.685 277.434 196.818 276.664C196.829 276.603 196.839 276.542 196.851 276.479L197.739 271.522L208.417 267.953L212.485 281.839C212.503 281.899 212.532 281.954 212.572 282.003C212.611 282.051 212.66 282.09 212.715 282.119C212.771 282.148 212.831 282.165 212.893 282.17C212.955 282.175 213.017 282.167 213.077 282.147C213.467 282.011 213.851 281.853 214.224 281.675C215.629 281.005 215.585 279.689 215.539 278.295C215.533 278.115 215.526 277.929 215.523 277.737L215.269 265.142L222.581 262.102C224.421 261.336 225.461 259.607 224.897 258.247ZM214.412 264.583C214.463 264.505 214.536 264.444 214.622 264.408L222.226 261.246C223.572 260.686 224.404 259.476 224.042 258.602C223.877 258.203 223.477 257.916 222.918 257.793C222.298 257.656 221.578 257.738 220.891 258.024L213.423 261.129C213.337 261.165 213.242 261.174 213.151 261.155C213.059 261.136 212.976 261.089 212.911 261.022L204.054 251.745C202.845 250.478 202.123 249.778 201.322 250.108L200.67 250.376L207.584 263.002C207.614 263.057 207.632 263.117 207.638 263.179C207.644 263.241 207.638 263.304 207.619 263.364C207.6 263.423 207.57 263.479 207.529 263.526C207.488 263.573 207.439 263.612 207.383 263.64L196.48 269.037C196.406 269.073 196.323 269.09 196.241 269.084C196.158 269.077 196.079 269.049 196.011 269.002L191.655 265.976C191.602 265.94 191.551 265.904 191.5 265.868L191.496 265.865C190.869 265.425 190.597 265.253 190.134 265.446L189.972 265.513L193.311 270.057C193.383 270.155 193.414 270.278 193.396 270.398C193.378 270.519 193.314 270.628 193.217 270.701L191.047 272.339L193.741 271.998C193.861 271.983 193.981 272.015 194.078 272.088C194.174 272.161 194.238 272.269 194.256 272.388L195.08 277.836L195.241 277.769C195.703 277.577 195.775 277.263 195.906 276.506C195.917 276.444 195.928 276.38 195.939 276.316L196.876 271.088C196.891 271.007 196.927 270.93 196.982 270.867C197.036 270.804 197.107 270.757 197.186 270.731L208.58 266.922C208.639 266.902 208.702 266.895 208.764 266.9C208.826 266.905 208.886 266.922 208.941 266.951C208.996 266.979 209.045 267.019 209.084 267.067C209.124 267.115 209.153 267.171 209.171 267.231L213.234 281.099C213.404 281.03 213.61 280.942 213.827 280.839C214.649 280.446 214.662 279.785 214.613 278.326L214.613 278.317C214.607 278.136 214.601 277.949 214.597 277.756L214.337 264.845C214.335 264.752 214.361 264.661 214.412 264.583Z" fill="white"/>
<path d="M214.622 264.408C214.536 264.444 214.463 264.505 214.412 264.583C214.361 264.661 214.335 264.752 214.337 264.845L214.597 277.756C214.601 277.949 214.607 278.136 214.613 278.317L214.613 278.326C214.662 279.785 214.649 280.446 213.827 280.839C213.61 280.942 213.404 281.03 213.234 281.099L209.171 267.231C209.153 267.171 209.124 267.115 209.084 267.067C209.045 267.019 208.996 266.979 208.941 266.951C208.886 266.922 208.826 266.905 208.764 266.9C208.702 266.895 208.639 266.902 208.58 266.922L197.186 270.731C197.107 270.757 197.036 270.804 196.982 270.867C196.927 270.93 196.891 271.007 196.876 271.088L195.939 276.316C195.928 276.38 195.917 276.444 195.906 276.506C195.775 277.263 195.703 277.577 195.241 277.769L195.08 277.836L194.256 272.388C194.238 272.269 194.174 272.161 194.078 272.088C193.981 272.015 193.861 271.983 193.741 271.998L191.047 272.339L193.217 270.701C193.314 270.628 193.378 270.519 193.396 270.398C193.414 270.278 193.383 270.155 193.311 270.057L189.972 265.513L190.134 265.446C190.597 265.253 190.869 265.425 191.496 265.865L191.5 265.868C191.551 265.904 191.602 265.94 191.655 265.976L196.011 269.002C196.079 269.049 196.158 269.077 196.241 269.084C196.323 269.09 196.406 269.073 196.48 269.037L207.383 263.64C207.439 263.612 207.488 263.573 207.529 263.526C207.57 263.479 207.6 263.423 207.619 263.364C207.638 263.304 207.644 263.241 207.638 263.179C207.632 263.117 207.614 263.057 207.584 263.002L200.67 250.376L201.322 250.108C202.123 249.778 202.845 250.478 204.054 251.745L212.911 261.022C212.976 261.089 213.059 261.136 213.151 261.155C213.242 261.174 213.337 261.165 213.423 261.129L220.891 258.024C221.578 257.738 222.298 257.656 222.918 257.793C223.477 257.916 223.877 258.203 224.042 258.602C224.404 259.476 223.572 260.686 222.226 261.246L214.622 264.408Z" fill="white"/>
</g>
<g filter="url(#filter3_d_253_6533)">
<path fill-rule="evenodd" clip-rule="evenodd" d="M273.705 286.557C274.264 287.045 275.045 287.197 275.903 286.984C276.701 286.786 277.479 286.289 278.091 285.586L283.193 279.726L294.951 283.994C296.582 284.586 298.122 285.146 299.137 283.988L299.944 283.068C299.987 283.019 300.019 282.961 300.038 282.899C300.057 282.837 300.063 282.771 300.055 282.707C300.047 282.642 300.026 282.58 299.992 282.524C299.959 282.468 299.914 282.42 299.861 282.382L288.029 274.122L294.942 265.045L299.919 265.781C299.978 265.79 300.036 265.799 300.093 265.808L300.105 265.81C300.876 265.928 301.673 266.051 302.35 265.274L302.631 264.951C302.703 264.868 302.756 264.769 302.784 264.663C302.813 264.556 302.817 264.445 302.797 264.336C302.776 264.228 302.731 264.126 302.665 264.037C302.599 263.949 302.514 263.876 302.416 263.826L297.588 261.331L299.155 258.199C299.214 258.082 299.233 257.948 299.208 257.819C299.183 257.691 299.116 257.573 299.018 257.486C298.92 257.399 298.796 257.347 298.665 257.338C298.534 257.329 298.404 257.363 298.295 257.436L295.374 259.374L292.328 255.022C292.265 254.931 292.182 254.856 292.086 254.802C291.989 254.749 291.882 254.718 291.771 254.713C291.741 254.711 291.711 254.711 291.682 254.713C291.587 254.72 291.494 254.745 291.408 254.787C291.323 254.83 291.247 254.889 291.185 254.961L290.904 255.283C290.227 256.06 290.458 256.835 290.68 257.583C290.697 257.642 290.715 257.702 290.733 257.764L292.139 262.599L284.158 270.54L274.345 259.907C274.302 259.861 274.251 259.824 274.194 259.799C274.138 259.773 274.076 259.759 274.014 259.758C273.952 259.757 273.89 259.768 273.832 259.791C273.775 259.814 273.722 259.849 273.678 259.893C273.388 260.189 273.115 260.5 272.859 260.826C271.899 262.05 272.523 263.21 273.184 264.438C273.269 264.597 273.357 264.761 273.446 264.931L279.268 276.102L274.068 282.074C272.759 283.578 272.596 285.589 273.705 286.557ZM280.284 276.223C280.273 276.315 280.234 276.403 280.173 276.473L274.766 282.683C273.808 283.783 273.601 285.237 274.313 285.858C274.638 286.142 275.124 286.223 275.68 286.084C276.296 285.932 276.904 285.538 277.393 284.977L282.704 278.877C282.765 278.807 282.847 278.757 282.937 278.733C283.027 278.71 283.123 278.714 283.211 278.746L295.267 283.123C296.912 283.721 297.871 284.027 298.441 283.376L298.907 282.846L287.104 274.606C287.053 274.57 287.009 274.524 286.976 274.471C286.943 274.418 286.921 274.359 286.912 274.297C286.902 274.235 286.905 274.172 286.92 274.112C286.935 274.051 286.963 273.994 287.001 273.945L294.371 264.266C294.421 264.201 294.488 264.149 294.565 264.118C294.641 264.087 294.725 264.077 294.807 264.089L300.054 264.865C300.117 264.874 300.179 264.884 300.24 264.893L300.245 264.894C301.002 265.01 301.323 265.042 301.652 264.665L301.767 264.533L296.757 261.945C296.649 261.889 296.567 261.792 296.529 261.677C296.491 261.561 296.501 261.434 296.555 261.325L297.772 258.895L295.51 260.396C295.409 260.463 295.286 260.488 295.168 260.465C295.049 260.443 294.944 260.375 294.875 260.276L291.716 255.761L291.602 255.892C291.273 256.27 291.349 256.584 291.567 257.319C291.585 257.38 291.604 257.442 291.622 257.505L293.105 262.604C293.128 262.684 293.129 262.769 293.108 262.85C293.088 262.93 293.046 263.004 292.987 263.062L284.47 271.536C284.426 271.58 284.373 271.615 284.315 271.638C284.258 271.661 284.196 271.672 284.134 271.671C284.072 271.67 284.01 271.656 283.954 271.63C283.897 271.605 283.846 271.568 283.804 271.522L274.003 260.902C273.881 261.04 273.735 261.21 273.587 261.398C273.025 262.115 273.307 262.714 273.998 263.999L274.003 264.007C274.088 264.166 274.177 264.331 274.266 264.502L280.235 275.954C280.278 276.037 280.295 276.13 280.284 276.223Z" fill="white"/>
<path d="M280.173 276.473C280.234 276.403 280.273 276.315 280.284 276.223C280.295 276.13 280.278 276.037 280.235 275.954L274.266 264.502C274.177 264.331 274.088 264.166 274.003 264.007L273.998 263.999C273.307 262.714 273.025 262.115 273.587 261.398C273.735 261.21 273.881 261.04 274.003 260.902L283.804 271.522C283.846 271.568 283.897 271.605 283.954 271.63C284.01 271.656 284.072 271.67 284.134 271.671C284.196 271.672 284.258 271.661 284.315 271.638C284.373 271.615 284.426 271.58 284.47 271.536L292.987 263.062C293.046 263.004 293.088 262.93 293.108 262.85C293.129 262.769 293.128 262.684 293.105 262.604L291.622 257.505C291.604 257.442 291.585 257.38 291.567 257.319C291.349 256.584 291.273 256.27 291.602 255.892L291.716 255.761L294.875 260.276C294.944 260.375 295.049 260.443 295.168 260.465C295.286 260.488 295.409 260.463 295.51 260.396L297.772 258.895L296.555 261.325C296.501 261.434 296.491 261.561 296.529 261.677C296.567 261.792 296.649 261.889 296.757 261.945L301.767 264.533L301.652 264.665C301.323 265.042 301.002 265.01 300.245 264.894L300.24 264.893C300.179 264.884 300.117 264.874 300.054 264.865L294.807 264.089C294.725 264.077 294.641 264.087 294.565 264.118C294.488 264.149 294.421 264.201 294.371 264.266L287.001 273.945C286.963 273.994 286.935 274.051 286.92 274.112C286.905 274.172 286.902 274.235 286.912 274.297C286.921 274.359 286.943 274.418 286.976 274.471C287.009 274.524 287.053 274.57 287.104 274.606L298.907 282.846L298.441 283.376C297.871 284.027 296.912 283.721 295.267 283.123L283.211 278.746C283.123 278.714 283.027 278.71 282.937 278.733C282.847 278.757 282.765 278.807 282.704 278.877L277.393 284.977C276.904 285.538 276.296 285.932 275.68 286.084C275.124 286.223 274.638 286.142 274.313 285.858C273.601 285.237 273.808 283.783 274.766 282.683L280.173 276.473Z" fill="white"/>
</g>
<defs>
<filter id="filter0_d_253_6533" x="177.265" y="287.494" width="107.316" height="98.5423" filterUnits="userSpaceOnUse" color-interpolation-filters="sRGB">
<feFlood flood-opacity="0" result="BackgroundImageFix"/>
<feColorMatrix in="SourceAlpha" type="matrix" values="0 0 0 0 0 0 0 0 0 0 0 0 0 0 0 0 0 0 127 0" result="hardAlpha"/>
<feOffset dy="4"/>
<feGaussianBlur stdDeviation="2"/>
<feComposite in2="hardAlpha" operator="out"/>
<feColorMatrix type="matrix" values="0 0 0 0 0 0 0 0 0 0 0 0 0 0 0 0 0 0 0.1 0"/>
<feBlend mode="normal" in2="BackgroundImageFix" result="effect1_dropShadow_253_6533"/>
<feBlend mode="normal" in="SourceGraphic" in2="effect1_dropShadow_253_6533" result="shape"/>
</filter>
<filter id="filter1_d_253_6533" x="56.96" y="222.306" width="43.916" height="40.5783" filterUnits="userSpaceOnUse" color-interpolation-filters="sRGB">
<feFlood flood-opacity="0" result="BackgroundImageFix"/>
<feColorMatrix in="SourceAlpha" type="matrix" values="0 0 0 0 0 0 0 0 0 0 0 0 0 0 0 0 0 0 127 0" result="hardAlpha"/>
<feOffset dy="4"/>
<feGaussianBlur stdDeviation="2"/>
<feComposite in2="hardAlpha" operator="out"/>
<feColorMatrix type="matrix" values="0 0 0 0 0 0 0 0 0 0 0 0 0 0 0 0 0 0 0.1 0"/>
<feBlend mode="normal" in2="BackgroundImageFix" result="effect1_dropShadow_253_6533"/>
<feBlend mode="normal" in="SourceGraphic" in2="effect1_dropShadow_253_6533" result="shape"/>
</filter>
<filter id="filter2_d_253_6533" x="184.936" y="249.096" width="44.1143" height="41.0751" filterUnits="userSpaceOnUse" color-interpolation-filters="sRGB">
<feFlood flood-opacity="0" result="BackgroundImageFix"/>
<feColorMatrix in="SourceAlpha" type="matrix" values="0 0 0 0 0 0 0 0 0 0 0 0 0 0 0 0 0 0 127 0" result="hardAlpha"/>
<feOffset dy="4"/>
<feGaussianBlur stdDeviation="2"/>
<feComposite in2="hardAlpha" operator="out"/>
<feColorMatrix type="matrix" values="0 0 0 0 0 0 0 0 0 0 0 0 0 0 0 0 0 0 0.1 0"/>
<feBlend mode="normal" in2="BackgroundImageFix" result="effect1_dropShadow_253_6533"/>
<feBlend mode="normal" in="SourceGraphic" in2="effect1_dropShadow_253_6533" result="shape"/>
</filter>
<filter id="filter3_d_253_6533" x="268.365" y="254.711" width="38.4443" height="40.3663" filterUnits="userSpaceOnUse" color-interpolation-filters="sRGB">
<feFlood flood-opacity="0" result="BackgroundImageFix"/>
<feColorMatrix in="SourceAlpha" type="matrix" values="0 0 0 0 0 0 0 0 0 0 0 0 0 0 0 0 0 0 127 0" result="hardAlpha"/>
<feOffset dy="4"/>
<feGaussianBlur stdDeviation="2"/>
<feComposite in2="hardAlpha" operator="out"/>
<feColorMatrix type="matrix" values="0 0 0 0 0 0 0 0 0 0 0 0 0 0 0 0 0 0 0.1 0"/>
<feBlend mode="normal" in2="BackgroundImageFix" result="effect1_dropShadow_253_6533"/>
<feBlend mode="normal" in="SourceGraphic" in2="effect1_dropShadow_253_6533" result="shape"/>
</filter>
<clipPath id="clip0_253_6533">
<rect width="923" height="686" fill="white" transform="translate(-235 -44)"/>
</clipPath>
</defs>
</svg>
