<svg width="30" height="28" viewBox="0 0 30 28" fill="none" xmlns="http://www.w3.org/2000/svg">
<path d="M1 7C1 3.13401 4.13401 0 8 0H15V28H8C4.13401 28 1 24.866 1 21V7Z" fill="#1E80F2"/>
<path d="M29 7C29 3.13401 25.866 0 22 0H15V28H22C25.866 28 29 24.866 29 21V7Z" fill="#3F3D56"/>
<g filter="url(#filter0_d_116_37809)">
<path d="M22.7676 19.0384L22.7698 16.072L27.435 13.8829C27.4758 13.8637 27.51 13.8329 27.5334 13.7944C27.5568 13.7559 27.5683 13.7113 27.5665 13.6663C27.5647 13.6213 27.5496 13.5778 27.5232 13.5414C27.4968 13.5049 27.4602 13.4771 27.418 13.4614L26.8789 13.2609C26.8341 13.2441 26.7852 13.2419 26.739 13.2546L22.7722 14.3367L22.5006 10.6882L24.2121 9.61088C24.2448 9.59038 24.2719 9.56189 24.2906 9.52809C24.3093 9.4943 24.3191 9.45631 24.3191 9.4177L24.3201 9.09164C24.3202 9.05367 24.3109 9.01629 24.2929 8.98286C24.2749 8.94944 24.2489 8.92102 24.2172 8.90018C24.1855 8.87933 24.1491 8.86671 24.1113 8.86346C24.0735 8.8602 24.0354 8.86641 24.0006 8.88153L21.9375 9.77713L19.8509 8.88412C19.8156 8.86891 19.777 8.86289 19.7387 8.86663C19.7004 8.87037 19.6637 8.88374 19.6319 8.9055C19.62 8.91362 19.6088 8.92284 19.5985 8.93304C19.5765 8.95509 19.5592 8.98142 19.5477 9.0104C19.5363 9.03938 19.5309 9.0704 19.5318 9.10153L19.5411 9.41267C19.5422 9.44981 19.5523 9.4861 19.5706 9.51843C19.5888 9.55075 19.6147 9.57812 19.6459 9.59818L21.3424 10.6873L21.1089 14.3819L17.1409 13.3146C17.094 13.3019 17.0442 13.3046 16.9988 13.3223L16.4598 13.5313C16.4179 13.5475 16.3818 13.5757 16.3558 13.6123C16.3298 13.6489 16.3151 13.6923 16.3135 13.7371C16.312 13.782 16.3237 13.8262 16.3471 13.8645C16.3706 13.9027 16.4048 13.9331 16.4454 13.952L21.0925 16.1142L21.0902 19.0497C21.0898 19.6774 21.4664 20.1877 21.9299 20.1874C22.3913 20.187 22.7671 19.6716 22.7676 19.0384ZM21.3814 19.0495L21.3837 16.0212C21.3837 15.9935 21.3758 15.9664 21.3609 15.943C21.3461 15.9196 21.3248 15.901 21.2997 15.8893L16.7013 13.7498L17.0846 13.6012L21.2049 14.7093C21.2258 14.7149 21.2476 14.7158 21.2688 14.712C21.2901 14.7081 21.3102 14.6995 21.3278 14.6869C21.3453 14.6743 21.3598 14.658 21.3703 14.6391C21.3808 14.6202 21.3869 14.5992 21.3883 14.5777L21.6384 10.6199C21.6401 10.594 21.6348 10.5682 21.6231 10.5451C21.6114 10.522 21.5937 10.5024 21.5719 10.4884L19.8312 9.37083L19.8259 9.19028L21.8802 10.0695C21.8984 10.0773 21.918 10.0813 21.9379 10.0812C21.9577 10.0811 21.9773 10.077 21.9955 10.0691L24.0287 9.18649L24.0281 9.3829L22.2715 10.4886C22.2491 10.5027 22.2309 10.5227 22.219 10.5463C22.207 10.57 22.2018 10.5964 22.2038 10.6228L22.4949 14.5346C22.4965 14.556 22.5028 14.5768 22.5134 14.5954C22.524 14.6141 22.5385 14.6302 22.556 14.6425C22.5735 14.6549 22.5936 14.6632 22.6147 14.667C22.6358 14.6707 22.6575 14.6697 22.6782 14.664L26.7959 13.5408L27.1769 13.6825L22.5626 15.8478C22.5376 15.8595 22.5164 15.8782 22.5015 15.9015C22.4866 15.9249 22.4787 15.952 22.4787 15.9796L22.4764 19.0386C22.476 19.5034 22.2259 19.896 21.9301 19.8963C21.6324 19.8965 21.3811 19.5087 21.3814 19.0495Z" fill="white"/>
<path d="M21.3814 19.0495L21.3837 16.0212C21.3837 15.9935 21.3758 15.9664 21.3609 15.943C21.3461 15.9196 21.3248 15.901 21.2997 15.8893L16.7013 13.7498L17.0846 13.6012L21.2049 14.7093C21.2258 14.7149 21.2476 14.7158 21.2688 14.712C21.2901 14.7081 21.3102 14.6995 21.3278 14.6869C21.3453 14.6743 21.3598 14.658 21.3703 14.6391C21.3808 14.6202 21.3869 14.5992 21.3883 14.5777L21.6384 10.6199C21.6401 10.594 21.6348 10.5682 21.6231 10.5451C21.6114 10.522 21.5937 10.5024 21.5719 10.4884L19.8312 9.37083L19.8259 9.19028L21.8802 10.0695C21.8984 10.0773 21.918 10.0813 21.9379 10.0812C21.9577 10.0811 21.9773 10.077 21.9955 10.0691L24.0287 9.18649L24.0281 9.3829L22.2715 10.4886C22.2491 10.5027 22.2309 10.5227 22.219 10.5463C22.207 10.57 22.2018 10.5964 22.2038 10.6228L22.4949 14.5346C22.4965 14.556 22.5028 14.5768 22.5134 14.5954C22.524 14.6141 22.5385 14.6302 22.556 14.6425C22.5735 14.6549 22.5936 14.6632 22.6147 14.667C22.6358 14.6707 22.6575 14.6697 22.6782 14.664L26.7959 13.5408L27.1769 13.6825L22.5626 15.8478C22.5376 15.8595 22.5164 15.8782 22.5015 15.9015C22.4866 15.9249 22.4787 15.952 22.4787 15.9796L22.4764 19.0386C22.476 19.5034 22.2259 19.896 21.9301 19.8963C21.6324 19.8965 21.3811 19.5087 21.3814 19.0495Z" fill="white"/>
</g>
<g filter="url(#filter1_d_116_37809)">
<path fill-rule="evenodd" clip-rule="evenodd" d="M7.57946 8.77131C7.23112 9.14927 7.18182 9.79469 7.20445 10.0877L7.25044 12.6346L6.46904 12.9241L6.46939 12.7003C6.46943 12.676 6.46344 12.6521 6.45196 12.6307C6.44048 12.6093 6.42387 12.5911 6.40362 12.5778C6.38336 12.5644 6.36009 12.5563 6.3359 12.5542C6.3117 12.5521 6.28734 12.556 6.26499 12.5656L5.65857 12.8257C5.63211 12.8371 5.60954 12.8559 5.59366 12.88C5.57778 12.904 5.56929 12.9321 5.56925 12.9609L5.56877 13.2578L5.16856 13.4062L5.1688 13.2599C5.16884 13.2355 5.1628 13.2115 5.15123 13.1901C5.13966 13.1686 5.12291 13.1504 5.10251 13.1371C5.08211 13.1238 5.0587 13.1157 5.03438 13.1138C5.01007 13.1118 4.98562 13.1159 4.96326 13.1257L4.35681 13.3923C4.33064 13.4038 4.30836 13.4226 4.2927 13.4466C4.27705 13.4705 4.26869 13.4984 4.26865 13.527L4.26832 13.7381L2.65091 14.3096C2.61153 14.3235 2.57663 14.3478 2.54992 14.38C2.52321 14.4121 2.50568 14.4508 2.49921 14.4921C2.49274 14.5333 2.49757 14.5755 2.51317 14.6142C2.52878 14.6528 2.55459 14.6865 2.58785 14.7115L2.95845 14.9911C2.98465 15.0108 3.01479 15.0248 3.04685 15.0319C3.07891 15.0391 3.11215 15.0393 3.14434 15.0326L7.32366 14.1589L7.63662 18.0739L6.19928 19.097C6.17287 19.1157 6.15071 19.1398 6.13426 19.1677L5.93406 19.5059C5.90918 19.5479 5.89823 19.5967 5.90276 19.6452C5.90729 19.6937 5.92708 19.7395 5.95929 19.776C5.9915 19.8125 6.03447 19.8379 6.08204 19.8484C6.12961 19.8589 6.17934 19.8541 6.22409 19.8346L7.89145 19.108L8.43618 19.1063L10.0996 19.8317C10.1421 19.8502 10.1892 19.8555 10.2348 19.8469C10.2804 19.8382 10.3224 19.816 10.3553 19.7831C10.3579 19.7805 10.3605 19.7778 10.363 19.775C10.3956 19.7392 10.4161 19.6941 10.4217 19.6461C10.4273 19.598 10.4176 19.5495 10.3941 19.5074L10.2039 19.1656C10.1874 19.1362 10.1647 19.1106 10.1373 19.0909L8.71803 18.0699L9.02053 14.1179L13.2137 15.0163C13.2461 15.0232 13.2796 15.0231 13.312 15.0159C13.3444 15.0087 13.3749 14.9946 13.4014 14.9746L13.7727 14.6941C13.806 14.6689 13.8319 14.6351 13.8477 14.5964C13.8634 14.5577 13.8684 14.5155 13.862 14.4743C13.8557 14.4331 13.8383 14.3943 13.8116 14.3623C13.785 14.3302 13.7502 14.306 13.7108 14.2923L12.0951 13.7258L12.0955 13.5147C12.0956 13.4861 12.0873 13.4582 12.0717 13.4343C12.0561 13.4105 12.0339 13.3917 12.0078 13.3802L11.4022 13.1155C11.3798 13.1058 11.3554 13.1017 11.3311 13.1038C11.3067 13.1059 11.2833 13.114 11.2629 13.1274C11.2424 13.1407 11.2256 13.159 11.214 13.1805C11.2023 13.202 11.1962 13.226 11.1962 13.2504L11.196 13.3967L10.7964 13.2497L10.7969 12.9526C10.7969 12.9238 10.7885 12.8957 10.7727 12.8717C10.7569 12.8477 10.7344 12.829 10.708 12.8177L10.1025 12.5597C10.0802 12.5501 10.0558 12.5463 10.0316 12.5485C10.0074 12.5507 9.98412 12.5589 9.96383 12.5723C9.94353 12.5857 9.92686 12.604 9.91532 12.6254C9.90377 12.6468 9.89771 12.6707 9.89767 12.695L9.89732 12.9191L9.09302 12.6233L9.14634 10.0847C9.17287 9.74885 9.06206 9.11948 8.73062 8.75945C8.57569 8.59115 8.3866 8.50238 8.18383 8.50268C8.06983 8.50141 7.95682 8.52474 7.85252 8.5711C7.74822 8.61746 7.65508 8.68575 7.57946 8.77131ZM8.8531 10.0656C8.87699 9.7818 8.77252 9.2392 8.51433 8.95879C8.41359 8.84937 8.30534 8.79627 8.18352 8.79664C8.11018 8.79563 8.03746 8.81062 7.97041 8.84057C7.90337 8.87052 7.84361 8.91471 7.79531 8.97005C7.53655 9.25097 7.47543 9.79257 7.49771 10.0679C7.49796 10.071 7.49816 10.0741 7.49815 10.0771L7.54612 12.733C7.54664 12.7635 7.53765 12.7934 7.5204 12.8187C7.50315 12.8439 7.47849 12.8631 7.44984 12.8737L6.3725 13.2729C6.35029 13.2811 6.32643 13.2839 6.30296 13.2809C6.27949 13.2779 6.25711 13.2693 6.23772 13.2558C6.21832 13.2423 6.20249 13.2243 6.19157 13.2034C6.18065 13.1824 6.17497 13.1591 6.175 13.1355L6.17532 12.9234L5.86286 13.0574L5.86236 13.3597C5.86231 13.3897 5.85306 13.419 5.83587 13.4437C5.81867 13.4683 5.79435 13.4871 5.76618 13.4976L5.07206 13.7549C5.04985 13.7632 5.02599 13.7659 5.00252 13.7629C4.97905 13.76 4.95666 13.7514 4.93726 13.7379C4.91787 13.7244 4.90203 13.7064 4.89111 13.6854C4.8802 13.6644 4.87451 13.6411 4.87455 13.6175L4.87476 13.4851L4.56222 13.6225L4.56188 13.8417C4.56183 13.8721 4.55235 13.9017 4.53474 13.9266C4.51714 13.9514 4.49227 13.9702 4.46358 13.9803L2.85871 14.5473L3.11306 14.7393L7.42707 13.8374C7.44745 13.8331 7.46849 13.8332 7.4888 13.8377C7.50912 13.8422 7.52823 13.8509 7.54488 13.8633C7.56153 13.8758 7.57534 13.8916 7.58538 13.9098C7.59543 13.928 7.60149 13.9481 7.60315 13.9689L7.93608 18.1327C7.9381 18.1581 7.9335 18.1836 7.92273 18.2066C7.91196 18.2297 7.89539 18.2496 7.87464 18.2644L6.38003 19.3283L6.28569 19.4876L7.80279 18.8266C7.8212 18.8186 7.84104 18.8144 7.8611 18.8144L8.46705 18.8125C8.48739 18.8124 8.5075 18.8165 8.52612 18.8247L10.0467 19.4877L9.95408 19.3213L8.47935 18.2606C8.45898 18.2459 8.44272 18.2262 8.43214 18.2035C8.42156 18.1807 8.41701 18.1556 8.41893 18.1305L8.74061 13.9283C8.74221 13.9074 8.74828 13.887 8.7584 13.8686C8.76853 13.8502 8.78248 13.8341 8.79931 13.8215C8.81614 13.809 8.83546 13.8001 8.85597 13.7956C8.87649 13.7911 8.89771 13.791 8.91822 13.7954L13.2478 14.7228L13.5023 14.5306L11.8991 13.9685C11.8704 13.9584 11.8456 13.9397 11.8281 13.9149C11.8106 13.8901 11.8012 13.8605 11.8012 13.8301L11.8016 13.611L11.4895 13.4746L11.4894 13.6069C11.4893 13.6305 11.4836 13.6539 11.4726 13.6749C11.4616 13.6959 11.4457 13.7139 11.4263 13.7275C11.4068 13.741 11.3844 13.7497 11.3609 13.7527C11.3375 13.7558 11.3136 13.7531 11.2914 13.745L10.5984 13.4901C10.5702 13.4797 10.546 13.461 10.5288 13.4364C10.5117 13.4118 10.5025 13.3825 10.5026 13.3525L10.5031 13.0499L10.1909 12.9168L10.1906 13.1292C10.1906 13.1528 10.1848 13.1762 10.1738 13.1972C10.1629 13.2182 10.147 13.2362 10.1275 13.2498C10.1081 13.2633 10.0857 13.272 10.0622 13.275C10.0387 13.2781 10.0149 13.2754 9.9927 13.2673L8.89284 12.8627C8.86424 12.8522 8.83964 12.8331 8.82247 12.8079C8.8053 12.7828 8.79641 12.7528 8.79702 12.7223L8.85261 10.0748C8.85269 10.0717 8.85285 10.0687 8.8531 10.0656Z" fill="white"/>
<path d="M8.51433 8.95879C8.77252 9.2392 8.87699 9.7818 8.8531 10.0656C8.85285 10.0687 8.85269 10.0717 8.85261 10.0748L8.79702 12.7223C8.79641 12.7528 8.8053 12.7828 8.82247 12.8079C8.83964 12.8331 8.86424 12.8522 8.89284 12.8627L9.9927 13.2673C10.0149 13.2754 10.0387 13.2781 10.0622 13.275C10.0857 13.272 10.1081 13.2633 10.1275 13.2498C10.147 13.2362 10.1629 13.2182 10.1738 13.1972C10.1848 13.1762 10.1906 13.1528 10.1906 13.1292L10.1909 12.9168L10.5031 13.0499L10.5026 13.3525C10.5025 13.3825 10.5117 13.4118 10.5288 13.4364C10.546 13.461 10.5702 13.4797 10.5984 13.4901L11.2914 13.745C11.3136 13.7531 11.3375 13.7558 11.3609 13.7527C11.3844 13.7497 11.4068 13.741 11.4263 13.7275C11.4457 13.7139 11.4616 13.6959 11.4726 13.6749C11.4836 13.6539 11.4893 13.6305 11.4894 13.6069L11.4895 13.4746L11.8016 13.611L11.8012 13.8301C11.8012 13.8605 11.8106 13.8901 11.8281 13.9149C11.8456 13.9397 11.8704 13.9584 11.8991 13.9685L13.5023 14.5306L13.2478 14.7228L8.91822 13.7954C8.89771 13.791 8.87649 13.7911 8.85597 13.7956C8.83546 13.8001 8.81614 13.809 8.79931 13.8215C8.78248 13.8341 8.76853 13.8502 8.7584 13.8686C8.74828 13.887 8.74221 13.9074 8.74061 13.9283L8.41893 18.1305C8.41701 18.1556 8.42156 18.1807 8.43214 18.2035C8.44272 18.2262 8.45898 18.2459 8.47935 18.2606L9.95408 19.3213L10.0467 19.4877L8.52612 18.8247C8.5075 18.8165 8.48739 18.8124 8.46705 18.8125L7.8611 18.8144C7.84104 18.8144 7.8212 18.8186 7.80279 18.8266L6.28569 19.4876L6.38003 19.3283L7.87464 18.2644C7.89539 18.2496 7.91196 18.2297 7.92273 18.2066C7.9335 18.1836 7.9381 18.1581 7.93608 18.1327L7.60315 13.9689C7.60149 13.9481 7.59543 13.928 7.58538 13.9098C7.57534 13.8916 7.56153 13.8758 7.54488 13.8633C7.52823 13.8509 7.50912 13.8422 7.4888 13.8377C7.46849 13.8332 7.44745 13.8331 7.42707 13.8374L3.11306 14.7393L2.85871 14.5473L4.46358 13.9803C4.49227 13.9702 4.51714 13.9514 4.53474 13.9266C4.55235 13.9017 4.56183 13.8721 4.56188 13.8417L4.56222 13.6225L4.87476 13.4851L4.87455 13.6175C4.87451 13.6411 4.8802 13.6644 4.89111 13.6854C4.90203 13.7064 4.91787 13.7244 4.93726 13.7379C4.95666 13.7514 4.97905 13.76 5.00252 13.7629C5.02599 13.7659 5.04985 13.7632 5.07206 13.7549L5.76618 13.4976C5.79435 13.4871 5.81867 13.4683 5.83587 13.4437C5.85306 13.419 5.86231 13.3897 5.86236 13.3597L5.86286 13.0574L6.17532 12.9234L6.175 13.1355C6.17497 13.1591 6.18065 13.1824 6.19157 13.2034C6.20249 13.2243 6.21832 13.2423 6.23772 13.2558C6.25711 13.2693 6.27949 13.2779 6.30296 13.2809C6.32643 13.2839 6.35029 13.2811 6.3725 13.2729L7.44984 12.8737C7.47849 12.8631 7.50315 12.8439 7.5204 12.8187C7.53765 12.7934 7.54664 12.7635 7.54612 12.733L7.49815 10.0771C7.49816 10.0741 7.49796 10.071 7.49771 10.0679C7.47543 9.79257 7.53655 9.25097 7.79531 8.97005C7.84361 8.91471 7.90337 8.87052 7.97041 8.84057C8.03746 8.81062 8.11018 8.79563 8.18352 8.79664C8.30534 8.79627 8.41359 8.84937 8.51433 8.95879Z" fill="white"/>
</g>
<defs>
<filter id="filter0_d_116_37809" x="13.9801" y="8.86279" width="15.9196" height="15.9914" filterUnits="userSpaceOnUse" color-interpolation-filters="sRGB">
<feFlood flood-opacity="0" result="BackgroundImageFix"/>
<feColorMatrix in="SourceAlpha" type="matrix" values="0 0 0 0 0 0 0 0 0 0 0 0 0 0 0 0 0 0 127 0" result="hardAlpha"/>
<feOffset dy="2.33333"/>
<feGaussianBlur stdDeviation="1.16667"/>
<feComposite in2="hardAlpha" operator="out"/>
<feColorMatrix type="matrix" values="0 0 0 0 0 0 0 0 0 0 0 0 0 0 0 0 0 0 0.1 0"/>
<feBlend mode="normal" in2="BackgroundImageFix" result="effect1_dropShadow_116_37809"/>
<feBlend mode="normal" in="SourceGraphic" in2="effect1_dropShadow_116_37809" result="shape"/>
</filter>
<filter id="filter1_d_116_37809" x="0.16276" y="8.50244" width="16.0348" height="16.0182" filterUnits="userSpaceOnUse" color-interpolation-filters="sRGB">
<feFlood flood-opacity="0" result="BackgroundImageFix"/>
<feColorMatrix in="SourceAlpha" type="matrix" values="0 0 0 0 0 0 0 0 0 0 0 0 0 0 0 0 0 0 127 0" result="hardAlpha"/>
<feOffset dy="2.33333"/>
<feGaussianBlur stdDeviation="1.16667"/>
<feComposite in2="hardAlpha" operator="out"/>
<feColorMatrix type="matrix" values="0 0 0 0 0 0 0 0 0 0 0 0 0 0 0 0 0 0 0.1 0"/>
<feBlend mode="normal" in2="BackgroundImageFix" result="effect1_dropShadow_116_37809"/>
<feBlend mode="normal" in="SourceGraphic" in2="effect1_dropShadow_116_37809" result="shape"/>
</filter>
</defs>
</svg>
