<svg width="100" height="63" viewBox="0 0 100 63" fill="none" xmlns="http://www.w3.org/2000/svg">
<g filter="url(#filter0_d_275_1927)">
<path d="M49.9513 5.61926C48.7864 5.61926 47.8956 6.52405 47.8956 7.70723V16.2684C43.5101 17.034 39.7407 20.0958 37.4109 24.411H26.6532C25.4883 24.411 24.5975 25.3158 24.5975 26.4989C24.5975 27.6821 25.4883 28.5869 26.6532 28.5869H35.7674C35.2192 30.5357 34.8761 32.6236 34.8761 34.8508C34.8761 37.078 35.1507 39.1659 35.7674 41.1147H8.83697C7.67206 41.1147 6.78125 42.0195 6.78125 43.2027C6.78125 44.3859 7.67206 45.2906 8.83697 45.2906H15.5528C15.2102 46.1258 15.0041 47.1002 15.0041 48.0746C15.0041 51.9025 18.0877 55.0345 21.8565 55.0345C25.6253 55.0345 28.7089 51.9025 28.7089 48.0746C28.7089 47.1002 28.5028 46.1258 28.1602 45.2906H37.4805C40.2215 50.3018 44.8118 53.6425 50.0196 53.6425C55.2274 53.6425 59.819 50.3018 62.56 45.2906H71.879C71.5364 46.1258 71.3303 47.1002 71.3303 48.0746C71.3303 51.9025 74.4138 55.0345 78.1826 55.0345C81.9515 55.0345 85.035 51.9025 85.035 48.0746C85.035 47.1002 84.8303 46.1258 84.4876 45.2906H91.2022C92.3671 45.2906 93.2579 44.3859 93.2579 43.2027C93.2579 42.0195 92.3671 41.1147 91.2022 41.1147H64.1352C64.6834 39.1659 65.0266 37.078 65.0266 34.8508C65.0266 32.6236 64.752 30.5357 64.1352 28.5869H73.2495C74.4144 28.5869 75.3052 27.6821 75.3052 26.4989C75.3052 25.3158 74.4144 24.411 73.2495 24.411H62.4917C60.1619 20.0262 56.3926 16.9644 52.007 16.2684V7.70723C52.007 6.52405 51.1162 5.61926 49.9513 5.61926ZM49.9513 20.235C55.9814 20.235 60.9152 26.7773 60.9152 34.8508C60.9152 42.9243 55.9814 49.4666 49.9513 49.4666C43.9212 49.4666 38.9875 42.9243 38.9875 34.8508C38.9875 26.7773 43.9212 20.235 49.9513 20.235ZM44.4694 29.2829C43.3045 29.2829 42.4137 30.1877 42.4137 31.3709C42.4137 32.554 43.3045 33.4588 44.4694 33.4588H55.4332C56.5981 33.4588 57.489 32.554 57.489 31.3709C57.489 30.1877 56.5981 29.2829 55.4332 29.2829H44.4694ZM21.8565 45.2906C23.364 45.2906 24.5975 46.5434 24.5975 48.0746C24.5975 49.6058 23.364 50.8586 21.8565 50.8586C20.349 50.8586 19.1156 49.6058 19.1156 48.0746C19.1156 46.5434 20.349 45.2906 21.8565 45.2906ZM78.0461 45.2906C79.5537 45.2906 80.7871 46.5434 80.7871 48.0746C80.7871 49.6058 79.5537 50.8586 78.0461 50.8586C76.5386 50.8586 75.3052 49.6058 75.3052 48.0746C75.3052 46.5434 76.5386 45.2906 78.0461 45.2906Z" fill="#3F3D56"/>
</g>
<defs>
<filter id="filter0_d_275_1927" x="0.604346" y="0.986585" width="98.8304" height="61.769" filterUnits="userSpaceOnUse" color-interpolation-filters="sRGB">
<feFlood flood-opacity="0" result="BackgroundImageFix"/>
<feColorMatrix in="SourceAlpha" type="matrix" values="0 0 0 0 0 0 0 0 0 0 0 0 0 0 0 0 0 0 127 0" result="hardAlpha"/>
<feOffset dy="1.54423"/>
<feGaussianBlur stdDeviation="3.08845"/>
<feColorMatrix type="matrix" values="0 0 0 0 0.167639 0 0 0 0 0.227481 0 0 0 0 0.283333 0 0 0 0.06 0"/>
<feBlend mode="normal" in2="BackgroundImageFix" result="effect1_dropShadow_275_1927"/>
<feBlend mode="normal" in="SourceGraphic" in2="effect1_dropShadow_275_1927" result="shape"/>
</filter>
</defs>
</svg>
