<svg width="24" height="24" viewBox="0 0 24 24" fill="none" xmlns="http://www.w3.org/2000/svg">
<rect width="24" height="24" rx="4" fill="#D2E6FC"/>
<path d="M17.3564 9.23438C17.9224 9.23438 18.4135 9.35469 18.8252 9.60059L18.9746 9.69531C19.3148 9.92874 19.5807 10.2365 19.7715 10.6172L19.8486 10.7832C20.0168 11.1776 20.0996 11.6225 20.0996 12.1162C20.0996 12.6102 20.0169 13.0557 19.8486 13.4502L19.7715 13.6162C19.5809 13.9965 19.3152 14.3049 18.9756 14.54L18.8252 14.6367C18.4136 14.8801 17.9223 14.999 17.3564 14.999C16.7909 14.999 16.3002 14.8799 15.8887 14.6367H15.8877C15.529 14.4224 15.2429 14.1341 15.0293 13.7744L14.9424 13.6162C14.7249 13.182 14.6172 12.6806 14.6172 12.1162C14.6172 11.552 14.7249 11.0513 14.9424 10.6172L15.0293 10.458C15.2428 10.099 15.5292 9.81263 15.8877 9.60059L16.0459 9.51465C16.4234 9.32669 16.8612 9.23441 17.3564 9.23438ZM6.2793 9.3457C6.33566 9.3457 6.40693 9.34753 6.49219 9.35254H6.49121C6.5787 9.35519 6.66106 9.36279 6.7373 9.37598H6.73633C7.06737 9.42495 7.34661 9.53283 7.56934 9.70312L7.72656 9.83887C7.87229 9.98263 7.98569 10.1517 8.06543 10.3457H8.06445C8.17231 10.5993 8.22559 10.8798 8.22559 11.1855C8.22556 11.4892 8.17229 11.7695 8.06445 12.0254V12.0264C7.9554 12.2823 7.78856 12.4954 7.56543 12.6641C7.34245 12.8345 7.06372 12.9423 6.73438 12.9912H6.7334L6.48828 13.0137C6.40313 13.0187 6.33317 13.0215 6.2793 13.0215H5.02344V14.8877H3.90039V9.3457H6.2793ZM11.709 9.3457L11.9219 9.35254H11.9209C12.0081 9.35519 12.09 9.36285 12.166 9.37598H12.165C12.4965 9.4249 12.7761 9.53266 12.999 9.70312L13.1562 9.83887C13.302 9.98263 13.4154 10.1517 13.4951 10.3457H13.4941C13.602 10.5993 13.6553 10.8798 13.6553 11.1855C13.6552 11.639 13.5369 12.035 13.2959 12.3682H13.2949C13.1564 12.5581 12.9762 12.7031 12.7588 12.8096L13.7324 14.7432L13.8057 14.8877H12.5361L12.5078 14.833L11.6016 13.0215H10.4531V14.8877H9.3291V9.3457H11.709ZM17.3555 10.2764C17.0443 10.2744 16.7856 10.332 16.5752 10.4453L16.4883 10.4971C16.2614 10.6459 16.0878 10.8553 15.9697 11.1299L15.9707 11.1309C15.8544 11.4079 15.794 11.7358 15.7939 12.1162C15.7939 12.4966 15.8536 12.8233 15.9697 13.0977L16.0674 13.2881C16.1749 13.4675 16.3137 13.6126 16.4844 13.7246L16.5723 13.7773C16.7854 13.8918 17.046 13.9518 17.3574 13.9561C17.7132 13.9584 18.0008 13.8838 18.2256 13.7363V13.7354L18.3086 13.6768C18.4972 13.5329 18.6422 13.3421 18.7432 13.1016L18.8213 12.8838C18.8885 12.6571 18.9229 12.4014 18.9229 12.1162C18.9228 11.736 18.8626 11.4111 18.7441 11.1396L18.7432 11.1387C18.6422 10.9005 18.4973 10.711 18.3086 10.5674L18.2256 10.5088C18 10.3609 17.7117 10.2811 17.3555 10.2764ZM5.02344 11.9873H6.24121C6.28902 11.9873 6.34362 11.9843 6.40527 11.9795L6.48828 11.9697C6.51451 11.9653 6.53917 11.9596 6.5625 11.9531L6.56641 11.9521L6.66309 11.9229C6.75318 11.889 6.82303 11.8425 6.87598 11.7852L6.87695 11.7842L6.93164 11.7197C6.98171 11.6537 7.01873 11.5821 7.04199 11.5049V11.5029L7.08203 11.3418C7.09077 11.2888 7.09472 11.2367 7.09473 11.1855C7.09473 11.0831 7.07741 10.9769 7.04199 10.8672L7.04102 10.8652V10.8643C7.00983 10.759 6.95553 10.6656 6.87695 10.583L6.87598 10.582C6.80538 10.5056 6.70483 10.4476 6.56641 10.4141H6.5625V10.4131C6.51744 10.4007 6.4662 10.3938 6.40918 10.3916L6.40527 10.3906C6.34364 10.3859 6.28901 10.3838 6.24121 10.3838H5.02344V11.9873ZM10.4531 11.9873H11.6709C11.7187 11.9873 11.7733 11.9843 11.835 11.9795L11.918 11.9697C11.9442 11.9653 11.9689 11.9596 11.9922 11.9531L11.9961 11.9521L12.0928 11.9229C12.1828 11.889 12.2527 11.8425 12.3057 11.7852L12.3066 11.7842L12.3613 11.7197C12.4114 11.6537 12.4484 11.5821 12.4717 11.5049V11.5029L12.5117 11.3418C12.5205 11.2888 12.5244 11.2367 12.5244 11.1855C12.5244 11.0831 12.5071 10.9769 12.4717 10.8672L12.4707 10.8652C12.4396 10.7597 12.3854 10.6658 12.3066 10.583L12.3057 10.582C12.2351 10.5056 12.1345 10.4476 11.9961 10.4141H11.9922V10.4131C11.9471 10.4007 11.8959 10.3938 11.8389 10.3916L11.835 10.3906C11.7733 10.3859 11.7187 10.3838 11.6709 10.3838H10.4531V11.9873Z" fill="#3F3D56" stroke="#3F3D56" stroke-width="0.2"/>
</svg>
