<svg width="364" height="370" viewBox="0 0 364 370" fill="none" xmlns="http://www.w3.org/2000/svg">
<g clip-path="url(#clip0_185_87571)">
<path d="M473.027 218.159C467.651 220.139 458.209 221.767 447.281 223.076C417.566 226.64 376.847 227.905 376.847 227.905C376.847 227.905 167.522 245.257 10.6366 180.721C10.6366 180.721 -12.1827 168.764 8.98586 152.672C12.2455 150.267 15.7109 148.154 19.3418 146.358L19.6004 146.099C22.0082 143.875 24.6104 141.871 27.3756 140.11C35.503 134.857 49.2265 128.632 65.9325 131.453L477.98 198.062C477.98 198.062 493.029 210.773 473.027 218.159Z" fill="#3F3D56"/>
<path d="M173.762 150.807L345.581 102.645L373.276 108.43L295.661 143.327L271.406 170.453L173.762 150.807Z" fill="#403C65"/>
<path d="M173.762 150.807L345.581 102.645L373.276 108.43L295.661 143.327L271.406 170.453L173.762 150.807Z" fill="black" fill-opacity="0.2"/>
<path d="M447.281 223.076C417.566 226.64 376.847 227.905 376.847 227.905C376.847 227.905 167.522 245.257 10.6366 180.721C10.6366 180.721 -12.1827 168.764 8.98586 152.672L9.0574 152.969C9.0574 152.969 42.9095 175.837 204.654 194.927L447.281 223.076Z" fill="#1E80F2"/>
<path d="M36.9117 156.318C33.2469 156.379 24.8499 150.235 19.6279 146.099C22.0358 143.875 24.6379 141.871 27.4031 140.11C31.6126 143.338 39.1017 148.563 43.2672 148.36C49.2815 148.112 42.4308 156.219 36.9117 156.318Z" fill="white"/>
<path d="M385.893 330.12L336.573 332.7L197.907 239.245L172.166 221.893L159.664 213.462C183.122 193.662 278.829 220.969 278.829 220.969C280.661 222.515 281.244 225.083 281.162 227.921C281.002 233.234 278.504 239.471 277.541 241.715C277.31 242.265 277.167 242.556 277.167 242.556L385.893 330.12Z" fill="#333051"/>
<path d="M223.467 281.666L214.91 287.078L220.094 277.657C218.626 276.486 216.81 275.838 214.932 275.814H214.795C214.201 275.826 213.608 275.782 213.023 275.682L210.129 277.519L211.367 275.264C209.316 274.545 207.545 273.198 206.304 271.414L201.126 274.714L204.395 268.763C201.368 265.128 197.285 262.901 192.79 262.901C187.403 262.901 182.604 266.101 179.506 271.095C178.588 272.591 177.289 273.816 175.743 274.647C174.196 275.478 172.457 275.884 170.702 275.825H170.416C164.468 275.825 159.647 282.563 159.647 290.878C159.647 299.194 164.468 305.932 170.416 305.932C171.723 305.928 173.009 305.605 174.163 304.991C176.189 304.009 178.403 303.478 180.653 303.434C182.904 303.391 185.137 303.836 187.199 304.738C188.943 305.516 190.831 305.918 192.74 305.918C194.65 305.918 196.538 305.516 198.281 304.738C200.326 303.852 202.537 303.416 204.766 303.459C206.994 303.502 209.187 304.022 211.196 304.986C212.343 305.584 213.617 305.899 214.91 305.904C220.859 305.904 225.679 299.167 225.679 290.851C225.722 287.653 224.961 284.495 223.467 281.666Z" fill="#F2F2F2"/>
<path opacity="0.03" d="M207.371 303.693C204.264 303.106 201.052 303.454 198.143 304.694C196.401 305.474 194.514 305.877 192.605 305.877C190.696 305.877 188.809 305.474 187.067 304.694C185.005 303.789 182.772 303.343 180.521 303.386C178.27 303.43 176.055 303.963 174.031 304.947C172.874 305.559 171.587 305.882 170.278 305.888C164.996 305.888 160.599 300.564 159.686 293.546C160.743 292.779 161.64 291.813 162.327 290.703C165.425 285.714 170.223 282.513 175.61 282.513C180.997 282.513 185.746 285.648 188.838 290.598C189.761 292.09 191.054 293.318 192.592 294.163C194.13 295.008 195.86 295.442 197.615 295.421H197.753C201.957 295.41 205.599 298.776 207.371 303.693Z" fill="black"/>
<path d="M111.753 74.6556L107.489 77.356L110.075 72.6591C109.344 72.072 108.437 71.7467 107.5 71.7351H107.434C107.137 71.7382 106.841 71.7161 106.548 71.6691L105.106 72.5821L105.722 71.4822C104.699 71.1239 103.815 70.4522 103.197 69.5627L100.616 71.2127L102.267 68.2482C101.58 67.3609 100.704 66.6378 99.7029 66.1316C98.7015 65.6254 97.5997 65.3489 96.4778 65.3223C93.7926 65.3223 91.3989 66.9172 89.8747 69.4087C89.416 70.1566 88.7666 70.7692 87.9931 71.1838C87.2196 71.5984 86.3497 71.8 85.4726 71.7681H85.3295C82.3636 71.7681 79.959 75.1341 79.959 79.281C79.959 83.4279 82.3636 86.7883 85.3295 86.7883C85.9818 86.7862 86.6239 86.6258 87.2004 86.3209C88.2105 85.8294 89.3154 85.5635 90.4385 85.5417C91.5617 85.5199 92.6761 85.7426 93.7045 86.1944C94.5707 86.5792 95.508 86.778 96.4558 86.778C97.4037 86.778 98.341 86.5792 99.2071 86.1944C100.227 85.752 101.331 85.5343 102.443 85.5562C103.555 85.578 104.649 85.8388 105.651 86.3209C106.222 86.6166 106.856 86.773 107.5 86.7774C110.465 86.7774 112.87 83.4169 112.87 79.27C112.891 77.6626 112.507 76.0757 111.753 74.6556Z" fill="#F2F2F2"/>
<path opacity="0.03" d="M103.724 85.6444C102.173 85.3475 100.569 85.5219 99.1183 86.1449C98.2515 86.5275 97.3146 86.726 96.367 86.7279C95.4086 86.7276 94.4613 86.5232 93.5882 86.1284C92.5591 85.6785 91.4446 85.4573 90.3216 85.4801C89.1986 85.5029 88.094 85.7691 87.0841 86.2604C86.5095 86.5653 85.8692 86.7257 85.2187 86.7279C82.5829 86.7279 80.3874 84.0714 79.9307 80.5735C80.4564 80.1879 80.9045 79.7065 81.2513 79.1545C82.792 76.6631 85.1857 75.0681 87.8544 75.0681C90.5232 75.0681 92.9058 76.6466 94.4576 79.105C94.92 79.8526 95.5689 80.4672 96.3407 80.8885C97.1124 81.3099 97.9804 81.5235 98.8597 81.5085H98.9312C101.006 81.5085 102.838 83.1914 103.724 85.6444Z" fill="black"/>
<path d="M95.2453 357.9L90.9808 360.601L93.567 355.904C92.8361 355.317 91.9294 354.991 90.9918 354.98H90.9257C90.6291 354.983 90.3327 354.961 90.0398 354.914L88.5981 355.827L89.2144 354.727C88.1914 354.369 87.3076 353.697 86.6887 352.807L84.108 354.457L85.7588 351.493C85.0724 350.605 84.1965 349.882 83.1951 349.376C82.1937 348.87 81.0919 348.594 79.97 348.567C77.2848 348.567 74.8911 350.162 73.3669 352.653C72.9081 353.401 72.2588 354.014 71.4853 354.428C70.7118 354.843 69.8419 355.045 68.9648 355.013H68.8217C65.8558 355.013 63.4512 358.379 63.4512 362.526C63.4512 366.673 65.8558 370.033 68.8217 370.033C69.474 370.031 70.1161 369.87 70.6926 369.565C71.7027 369.074 72.8076 368.808 73.9307 368.786C75.0539 368.764 76.1683 368.987 77.1967 369.439C78.0629 369.824 79.0002 370.023 79.948 370.023C80.8959 370.023 81.8332 369.824 82.6993 369.439C83.7195 368.997 84.8231 368.779 85.9349 368.801C87.0467 368.823 88.1409 369.083 89.1429 369.565C89.7146 369.861 90.3481 370.018 90.9918 370.022C93.9577 370.022 96.3623 366.662 96.3623 362.515C96.3832 360.907 95.9991 359.32 95.2453 357.9Z" fill="#F2F2F2"/>
<path opacity="0.03" d="M87.2162 368.889C85.6654 368.592 84.0612 368.766 82.6105 369.389C81.7437 369.772 80.8068 369.971 79.8592 369.972C78.9008 369.972 77.9535 369.768 77.0804 369.373C76.0513 368.923 74.9368 368.702 73.8138 368.725C72.6908 368.748 71.5862 369.014 70.5763 369.505C70.0017 369.81 69.3614 369.97 68.7109 369.972C66.0751 369.972 63.8796 367.316 63.4229 363.818C63.9486 363.433 64.3967 362.951 64.7435 362.399C66.2842 359.908 68.6779 358.313 71.3466 358.313C74.0154 358.313 76.398 359.891 77.9498 362.35C78.4122 363.097 79.0611 363.712 79.8329 364.133C80.6046 364.555 81.4726 364.768 82.3519 364.753H82.4234C84.4979 364.753 86.3303 366.436 87.2162 368.889Z" fill="black"/>
<path d="M292.25 18.7711L283.693 24.183L288.877 14.7617C287.409 13.5912 285.593 12.9429 283.715 12.9192H283.578C282.984 12.9308 282.391 12.8867 281.806 12.7873L278.912 14.6242L280.15 12.3693C278.099 11.6499 276.328 10.3027 275.087 8.51933L269.909 11.8193L273.178 5.86838C270.152 2.23295 266.069 0.00549316 261.573 0.00549316C256.186 0.00549316 251.388 3.20643 248.29 8.20033C247.371 9.69581 246.072 10.9213 244.526 11.7522C242.979 12.583 241.24 12.9895 239.485 12.9302H239.199C233.251 12.9302 228.431 19.6676 228.431 27.9835C228.431 36.2993 233.251 43.0367 239.199 43.0367C240.506 43.0325 241.793 42.7097 242.947 42.0962C244.972 41.1142 247.186 40.583 249.437 40.5393C251.687 40.4957 253.92 40.9405 255.982 41.8432C257.724 42.6253 259.611 43.0319 261.52 43.0367C263.43 43.0414 265.319 42.6441 267.065 41.8707C269.109 40.9849 271.321 40.5486 273.549 40.5913C275.777 40.634 277.97 41.1547 279.979 42.1182C281.126 42.7164 282.4 43.0314 283.693 43.0367C289.642 43.0367 294.462 36.2993 294.462 27.9835C294.509 24.7758 293.749 21.6079 292.25 18.7711Z" fill="#F2F2F2"/>
<path opacity="0.03" d="M276.154 40.7982C273.047 40.2106 269.835 40.559 266.927 41.7992C265.184 42.5789 263.297 42.9819 261.388 42.9819C259.479 42.9819 257.592 42.5789 255.85 41.7992C253.789 40.894 251.555 40.4478 249.304 40.4914C247.053 40.5351 244.839 41.0677 242.814 42.0522C241.657 42.6639 240.37 42.9866 239.061 42.9927C233.779 42.9927 229.382 37.6688 228.469 30.6509C229.526 29.8837 230.423 28.9179 231.11 27.8075C234.208 22.8191 239.006 19.6181 244.393 19.6181C249.78 19.6181 254.529 22.7531 257.622 27.703C258.547 29.1989 259.844 30.4296 261.387 31.275C262.93 32.1204 264.666 32.5515 266.426 32.5264H266.563C270.74 32.5154 274.383 35.8813 276.154 40.7982Z" fill="black"/>
<path d="M157.828 323.819L158.071 236.078C158.078 234.302 158.789 232.602 160.048 231.349C161.307 230.097 163.011 229.396 164.786 229.399L231.028 229.582C232.803 229.589 234.503 230.3 235.755 231.559C237.007 232.819 237.708 234.523 237.705 236.299L237.462 324.04C237.455 325.816 236.744 327.517 235.486 328.769C234.227 330.021 232.523 330.723 230.748 330.72L164.506 330.536C162.73 330.529 161.03 329.818 159.778 328.559C158.527 327.3 157.825 325.595 157.828 323.819Z" fill="#E6E6E6"/>
<path d="M192.544 280.697L192.787 192.956C192.794 191.18 193.505 189.479 194.764 188.227C196.022 186.975 197.726 186.273 199.502 186.276L265.744 186.46C267.519 186.467 269.219 187.178 270.471 188.437C271.723 189.696 272.424 191.401 272.421 193.176L272.178 280.918C272.171 282.694 271.46 284.394 270.201 285.646C268.943 286.899 267.239 287.6 265.463 287.597L199.221 287.414C197.446 287.407 195.746 286.696 194.494 285.436C193.242 284.177 192.541 282.473 192.544 280.697Z" fill="#E6E6E6"/>
<path d="M222.682 355.875L222.925 268.134C222.932 266.358 223.643 264.657 224.901 263.405C226.16 262.153 227.864 261.451 229.639 261.454L295.881 261.638C297.657 261.645 299.357 262.356 300.609 263.615C301.86 264.874 302.562 266.579 302.559 268.355L302.316 356.096C302.309 357.872 301.598 359.572 300.339 360.825C299.08 362.077 297.376 362.779 295.601 362.776L229.359 362.592C227.584 362.585 225.884 361.874 224.632 360.615C223.38 359.355 222.679 357.651 222.682 355.875Z" fill="#E6E6E6"/>
<path d="M162.983 297.332L163.14 240.924C163.146 239.261 163.812 237.668 164.991 236.495C166.17 235.323 167.766 234.665 169.428 234.668L226.358 234.826C228.02 234.833 229.612 235.498 230.785 236.678C231.957 237.857 232.614 239.453 232.612 241.117L232.395 319.194C232.389 320.858 231.723 322.45 230.544 323.623C229.365 324.796 227.769 325.453 226.106 325.45L190.84 325.352C183.434 325.323 176.342 322.357 171.12 317.104C165.897 311.851 162.971 304.74 162.983 297.332Z" fill="white"/>
<path d="M197.698 254.209L197.855 197.801C197.861 196.138 198.527 194.546 199.706 193.373C200.885 192.2 202.48 191.543 204.143 191.546L261.072 191.704C262.735 191.71 264.327 192.376 265.5 193.555C266.672 194.735 267.329 196.331 267.326 197.994L267.11 276.072C267.103 277.735 266.438 279.328 265.259 280.5C264.08 281.673 262.484 282.33 260.821 282.328L225.555 282.23C218.149 282.201 211.057 279.235 205.834 273.982C200.612 268.729 197.686 261.618 197.698 254.209Z" fill="white"/>
<path d="M227.836 329.388L227.992 272.98C227.999 271.317 228.664 269.724 229.843 268.551C231.022 267.378 232.618 266.721 234.281 266.724L291.21 266.882C292.873 266.888 294.465 267.554 295.637 268.733C296.81 269.913 297.467 271.509 297.464 273.172L297.248 351.25C297.241 352.913 296.575 354.506 295.396 355.679C294.217 356.852 292.622 357.509 290.959 357.506L255.692 357.408C248.286 357.379 241.194 354.413 235.972 349.16C230.75 343.907 227.824 336.796 227.836 329.388Z" fill="white"/>
<path d="M219.962 278.702H175.572C174.865 278.702 174.188 278.422 173.688 277.922C173.189 277.422 172.908 276.745 172.908 276.038C172.908 275.332 173.189 274.654 173.688 274.154C174.188 273.655 174.865 273.374 175.572 273.374H219.962C220.668 273.374 221.346 273.655 221.845 274.154C222.345 274.654 222.625 275.332 222.625 276.038C222.625 276.745 222.345 277.422 221.845 277.922C221.346 278.422 220.668 278.702 219.962 278.702Z" fill="#3F3D56"/>
<path d="M254.678 235.58H210.287C209.581 235.58 208.904 235.299 208.404 234.8C207.905 234.3 207.624 233.622 207.624 232.916C207.624 232.209 207.905 231.531 208.404 231.032C208.904 230.532 209.581 230.251 210.287 230.251H254.678C255.384 230.251 256.062 230.532 256.561 231.032C257.061 231.531 257.341 232.209 257.341 232.916C257.341 233.622 257.061 234.3 256.561 234.8C256.062 235.299 255.384 235.58 254.678 235.58Z" fill="#3F3D56"/>
<path d="M284.816 310.758H240.425C239.719 310.758 239.041 310.478 238.542 309.978C238.042 309.478 237.762 308.801 237.762 308.094C237.762 307.387 238.042 306.71 238.542 306.21C239.041 305.71 239.719 305.43 240.425 305.43H284.816C285.522 305.43 286.199 305.71 286.699 306.21C287.198 306.71 287.479 307.387 287.479 308.094C287.479 308.801 287.198 309.478 286.699 309.978C286.199 310.478 285.522 310.758 284.816 310.758Z" fill="#3F3D56"/>
<path d="M185.338 264.091H175.572C174.865 264.091 174.188 263.811 173.688 263.311C173.189 262.811 172.908 262.134 172.908 261.427C172.908 260.72 173.189 260.043 173.688 259.543C174.188 259.043 174.865 258.763 175.572 258.763H185.338C186.044 258.763 186.721 259.043 187.221 259.543C187.72 260.043 188.001 260.72 188.001 261.427C188.001 262.134 187.72 262.811 187.221 263.311C186.721 263.811 186.044 264.091 185.338 264.091Z" fill="#3F3D56"/>
<path d="M220.053 220.969H210.287C209.581 220.969 208.904 220.688 208.404 220.188C207.905 219.689 207.624 219.011 207.624 218.304C207.624 217.598 207.905 216.92 208.404 216.42C208.904 215.921 209.581 215.64 210.287 215.64H220.053C220.76 215.64 221.437 215.921 221.937 216.42C222.436 216.92 222.717 217.598 222.717 218.304C222.717 219.011 222.436 219.689 221.937 220.188C221.437 220.688 220.76 220.969 220.053 220.969Z" fill="#3F3D56"/>
<path d="M250.191 296.147H240.425C239.719 296.147 239.041 295.866 238.542 295.367C238.042 294.867 237.762 294.189 237.762 293.483C237.762 292.776 238.042 292.099 238.542 291.599C239.041 291.099 239.719 290.818 240.425 290.818H250.191C250.897 290.818 251.575 291.099 252.074 291.599C252.574 292.099 252.854 292.776 252.854 293.483C252.854 294.189 252.574 294.867 252.074 295.367C251.575 295.866 250.897 296.147 250.191 296.147Z" fill="#3F3D56"/>
<path d="M219.962 302.128H175.572C174.865 302.128 174.188 301.848 173.688 301.348C173.189 300.848 172.908 300.171 172.908 299.464C172.908 298.758 173.189 298.08 173.688 297.58C174.188 297.081 174.865 296.8 175.572 296.8H219.962C220.668 296.8 221.346 297.081 221.845 297.58C222.345 298.08 222.625 298.758 222.625 299.464C222.625 300.171 222.345 300.848 221.845 301.348C221.346 301.848 220.668 302.128 219.962 302.128Z" fill="#3F3D56"/>
<path d="M254.678 259.006H210.287C209.581 259.006 208.904 258.725 208.404 258.226C207.905 257.726 207.624 257.048 207.624 256.342C207.624 255.635 207.905 254.957 208.404 254.458C208.904 253.958 209.581 253.677 210.287 253.677H254.678C255.384 253.677 256.062 253.958 256.561 254.458C257.061 254.957 257.341 255.635 257.341 256.342C257.341 257.048 257.061 257.726 256.561 258.226C256.062 258.725 255.384 259.006 254.678 259.006Z" fill="#3F3D56"/>
<path d="M284.816 334.184H240.425C239.719 334.184 239.041 333.903 238.542 333.404C238.042 332.904 237.762 332.226 237.762 331.52C237.762 330.813 238.042 330.136 238.542 329.636C239.041 329.136 239.719 328.856 240.425 328.856H284.816C285.522 328.856 286.199 329.136 286.699 329.636C287.198 330.136 287.479 330.813 287.479 331.52C287.479 332.226 287.198 332.904 286.699 333.404C286.199 333.903 285.522 334.184 284.816 334.184Z" fill="#3F3D56"/>
<path d="M219.962 290.416H175.572C174.865 290.416 174.188 290.135 173.688 289.635C173.189 289.136 172.908 288.458 172.908 287.751C172.908 287.045 173.189 286.367 173.688 285.867C174.188 285.368 174.865 285.087 175.572 285.087H219.962C220.668 285.087 221.346 285.368 221.845 285.867C222.345 286.367 222.625 287.045 222.625 287.751C222.625 288.458 222.345 289.136 221.845 289.635C221.346 290.135 220.668 290.416 219.962 290.416Z" fill="#3F3D56"/>
<path d="M254.678 247.293H210.287C209.581 247.293 208.904 247.012 208.404 246.513C207.905 246.013 207.624 245.335 207.624 244.629C207.624 243.922 207.905 243.244 208.404 242.745C208.904 242.245 209.581 241.964 210.287 241.964H254.678C255.384 241.964 256.062 242.245 256.561 242.745C257.061 243.244 257.341 243.922 257.341 244.629C257.341 245.335 257.061 246.013 256.561 246.513C256.062 247.012 255.384 247.293 254.678 247.293Z" fill="#3F3D56"/>
<path d="M284.816 322.471H240.425C239.719 322.471 239.041 322.191 238.542 321.691C238.042 321.191 237.762 320.514 237.762 319.807C237.762 319.1 238.042 318.423 238.542 317.923C239.041 317.423 239.719 317.143 240.425 317.143H284.816C285.522 317.143 286.199 317.423 286.699 317.923C287.198 318.423 287.479 319.1 287.479 319.807C287.479 320.514 287.198 321.191 286.699 321.691C286.199 322.191 285.522 322.471 284.816 322.471Z" fill="#3F3D56"/>
<path d="M102.429 352.188C108.282 352.188 113.027 347.441 113.027 341.587C113.027 335.732 108.282 330.985 102.429 330.985C96.5758 330.985 91.8311 335.732 91.8311 341.587C91.8311 347.441 96.5758 352.188 102.429 352.188Z" fill="#3F3D56"/>
<path d="M102.429 352.188C108.282 352.188 113.027 347.441 113.027 341.587C113.027 335.732 108.282 330.985 102.429 330.985C96.5758 330.985 91.8311 335.732 91.8311 341.587C91.8311 347.441 96.5758 352.188 102.429 352.188Z" fill="black" fill-opacity="0.2"/>
<path d="M100.983 347.104C100.8 347.104 100.619 347.061 100.456 346.98C100.292 346.898 100.15 346.779 100.04 346.632L97.1487 342.776C97.0556 342.652 96.9878 342.511 96.9492 342.361C96.9107 342.211 96.902 342.055 96.9239 341.901C96.9457 341.748 96.9975 341.6 97.0764 341.467C97.1553 341.333 97.2597 341.217 97.3837 341.124C97.5076 341.031 97.6487 340.963 97.7987 340.925C97.9488 340.887 98.105 340.878 98.2584 340.9C98.4117 340.922 98.5592 340.974 98.6924 341.053C98.8257 341.132 98.942 341.237 99.0348 341.361L100.926 343.884L105.785 336.594C105.958 336.334 106.228 336.154 106.534 336.093C106.841 336.031 107.159 336.094 107.419 336.268C107.679 336.441 107.859 336.711 107.921 337.017C107.982 337.324 107.919 337.642 107.746 337.902L101.964 346.579C101.859 346.736 101.719 346.865 101.554 346.957C101.389 347.048 101.204 347.098 101.016 347.104C101.005 347.104 100.994 347.104 100.983 347.104Z" fill="white"/>
<path d="M102.524 318.357H101.761V320.647H102.524V318.357Z" fill="#2F2E41"/>
<path d="M102.524 313.985H101.761V309.613H102.524V313.985ZM102.524 305.241H101.761V300.869H102.524V305.241ZM102.524 296.498H101.761V292.125H102.524V296.498ZM102.524 287.754H101.761V283.382H102.524V287.754ZM102.524 279.01H101.761V274.638H102.524V279.01Z" fill="#2F2E41"/>
<path d="M102.524 270.266H101.761V267.595H104.431V268.358H102.524V270.266Z" fill="#2F2E41"/>
<path d="M140.444 268.358H135.943V267.595H140.444V268.358ZM131.441 268.358H126.939V267.595H131.441V268.358ZM122.438 268.358H117.936V267.595H122.438V268.358ZM113.434 268.358H108.933V267.595H113.434V268.358Z" fill="#2F2E41"/>
<path d="M147.235 267.595H144.946V268.358H147.235V267.595Z" fill="#2F2E41"/>
</g>
<defs>
<clipPath id="clip0_185_87571">
<rect width="585" height="370" fill="white"/>
</clipPath>
</defs>
</svg>
